<?xml version="1.0" encoding="UTF-8" standalone="no"?>
<svg
   xmlns:dc="http://purl.org/dc/elements/1.1/"
   xmlns:cc="http://creativecommons.org/ns#"
   xmlns:rdf="http://www.w3.org/1999/02/22-rdf-syntax-ns#"
   xmlns:svg="http://www.w3.org/2000/svg"
   xmlns="http://www.w3.org/2000/svg"
   xmlns:sodipodi="http://sodipodi.sourceforge.net/DTD/sodipodi-0.dtd"
   xmlns:inkscape="http://www.inkscape.org/namespaces/inkscape"
   width="286.8985"
   height="242.48453"
   fill="none"
   viewBox="0 0 286.8985 242.48453"
   version="1.1"
   id="svg10"
   sodipodi:docname="beakers.svg"
   inkscape:version="1.0.2-2 (e86c870879, 2021-01-15)">
  <metadata
     id="metadata16">
    <rdf:RDF>
      <cc:Work
         rdf:about="">
        <dc:format>image/svg+xml</dc:format>
        <dc:type
           rdf:resource="http://purl.org/dc/dcmitype/StillImage" />
      </cc:Work>
    </rdf:RDF>
  </metadata>
  <defs
     id="defs14" />
  <sodipodi:namedview
     pagecolor="#ffffff"
     bordercolor="#666666"
     borderopacity="1"
     objecttolerance="10"
     gridtolerance="10"
     guidetolerance="10"
     inkscape:pageopacity="0"
     inkscape:pageshadow="2"
     inkscape:window-width="1920"
     inkscape:window-height="1001"
     id="namedview12"
     showgrid="false"
     inkscape:zoom="2.9261584"
     inkscape:cx="80.362959"
     inkscape:cy="108.97226"
     inkscape:window-x="-9"
     inkscape:window-y="-9"
     inkscape:window-maximized="1"
     inkscape:current-layer="svg10" />
  <path
     stroke="#ffffff"
     stroke-width="3.339"
     d="m 254.79122,3.4992153 c -9.46,43.6869997 -27.881,133.6480047 -25.878,144.0000047 2.505,12.939 17.531,15.86 23.374,8.765 4.675,-5.677 23.93,-97.809005 32.974,-143.165005 m -30.47,-9.5999997 c 5.009,9.0149997 22.4,10.1559997 30.47,9.5999997 m -30.47,-9.5999997 c 7.374,-2.644 23.792,-4.425 30.47,9.5999997 m -281.3219977,50.921 c 19.0599997,2.226 61.3559997,0 73.0429997,-28.382 l 7.513,-11.687 m -80.5559997,40.07 c -2.338,-1.337 -2.505,-3.619 -2.088,-5.428 5.426,-22.122 63.0259997,-30.052 66.3649997,-30.052 3.34,0 12.94,-5.843 15.026,-5.843 1.67,0 1.53,0.834 1.252,1.252 m -80.5549997,40.071 c 2.69,7.42 6.2779997,17.087 10.1299997,27.13 9.295,24.228005 20.138,50.648005 23.678,53.008005 6.261,4.174 52.174,7.93 64.278998,-24.208 C 94.513222,89.481215 80.488222,27.624215 84.496222,23.951215"
     id="path2"
     style="stroke:#f5f3ef;stroke-opacity:1" />
  <path
     stroke="#ffffff"
     stroke-width="1.67"
     d="m 13.956222,91.151215 c 6.54,1.391 21.872,2.42 30.887,-4.592 m -25.461,19.200005 c 6.54,1.392 21.872,2.421 30.887,-4.59 m -24.208,19.617 c 6.539,1.39 21.87,2.42 30.886,-4.592 m -39.652,-17.113005 c 3.618,0.557 12.355,1.252005 18.365,-0.417 m -12.104,15.443005 c 3.617,0.557 12.355,1.252 18.365,-0.417 M 244.81522,53.541215 c 2.885,2.95 9.141,5.053 17.489,5.47 m -22.225,9.703 c 3.046,3.028 9.431,6.011 18.469,6.576 m -21.002,9.29 c 3.046,3.027 7.645,6.153 16.41,6.57 m -10.742,-29.57 c 1.778,1.483 6.356,4.483 10.445,4.614 m -13.517,10.601 c 1.779,1.483 6.357,4.482 10.446,4.614"
     id="path4"
     style="stroke:#f5f3ef;stroke-opacity:1" />
  <path
     stroke="#ffffff"
     stroke-width="3.339"
     d="m 137.50422,74.872215 c 0.835,0.835 25.878,5.343 34.226,-5.008 1.346,-1.67 1.824,-3.054 1.628,-4.174 m -35.854,9.182 c -0.834,-0.834 -0.417,-2.087 -0.417,-2.087 2.908,-10.179 34.948,-14.658 36.271,-7.095 m -35.854,9.182 c 5.009,21.566 15.026,66.199005 15.026,72.210005 0,7.512 -15.861,90.156 -10.434,93.077 5.426,2.922 80.973,-3.756 96,-23.374 l -49.67,-78.886 -15.068,-72.210005"
     id="path6"
     style="stroke:#f5f3ef;stroke-opacity:1" />
  <path
     stroke="#ffffff"
     stroke-width="1.67"
     d="m 149.60822,170.45522 h 7.514 m -11.687,25.044 c 3.756,1.669 5.843,1.669 7.93,1.669 m -5.428,-15.397 c 2.229,0.826 9.942,1.963 22.956,-0.092 m -27.044,27.069 c 2.15,1.015 9.736,2.813 22.879,1.888"
     id="path8"
     style="stroke:#f5f3ef;stroke-opacity:1" />
</svg>
