<?xml version="1.0" encoding="UTF-8" standalone="no"?>
<svg
   xmlns:dc="http://purl.org/dc/elements/1.1/"
   xmlns:cc="http://creativecommons.org/ns#"
   xmlns:rdf="http://www.w3.org/1999/02/22-rdf-syntax-ns#"
   xmlns:svg="http://www.w3.org/2000/svg"
   xmlns="http://www.w3.org/2000/svg"
   xmlns:sodipodi="http://sodipodi.sourceforge.net/DTD/sodipodi-0.dtd"
   xmlns:inkscape="http://www.inkscape.org/namespaces/inkscape"
   width="22.809628mm"
   height="6.7886806mm"
   viewBox="0 0 22.809628 6.7886806"
   version="1.1"
   id="svg17448"
   inkscape:version="1.0.2-2 (e86c870879, 2021-01-15)"
   sodipodi:docname="chalk-bg-active.svg">
  <defs
     id="defs17442" />
  <sodipodi:namedview
     id="base"
     pagecolor="#ffffff"
     bordercolor="#666666"
     borderopacity="1.0"
     inkscape:pageopacity="0.0"
     inkscape:pageshadow="2"
     inkscape:zoom="5.6"
     inkscape:cx="72.619864"
     inkscape:cy="62.979299"
     inkscape:document-units="mm"
     inkscape:current-layer="layer1"
     inkscape:document-rotation="0"
     showgrid="false"
     inkscape:window-width="1431"
     inkscape:window-height="1030"
     inkscape:window-x="32"
     inkscape:window-y="0"
     inkscape:window-maximized="0" />
  <metadata
     id="metadata17445">
    <rdf:RDF>
      <cc:Work
         rdf:about="">
        <dc:format>image/svg+xml</dc:format>
        <dc:type
           rdf:resource="http://purl.org/dc/dcmitype/StillImage" />
        <dc:title></dc:title>
      </cc:Work>
    </rdf:RDF>
  </metadata>
  <g
     inkscape:label="Layer 1"
     inkscape:groupmode="layer"
     id="layer1"
     transform="translate(-92.160704,-114.53468)">
    <rect
       x="92.745331"
       y="114.9464"
       class="st10"
       width="22.225"
       height="5.9795833"
       id="rect7800"
       style="fill:#fad389;stroke-width:0.264583;fill-opacity:1" />
    <path
       class="st11"
       d="m 93.274495,120.60849 c -0.05292,-0.0265 -0.05292,-0.0265 -0.07937,-0.0529 0.02646,-0.0265 0.05292,-0.0265 0.05292,-0.0529 0,0 0.02646,0 0.05292,0 0.02646,0 0.05292,0 0.05292,0 0.05292,0 0.05292,-0.0264 -0.05292,-0.0529 0,0.0265 -0.02646,0.0529 -0.05292,0.0529 0,0.0265 0,0.0265 -0.02646,0.0265 -0.02646,0 -0.05292,0 -0.07937,0.0265 0,-0.0265 -0.02646,-0.0529 -0.105833,-0.0529 l 0.02646,-0.0264 c 0,0 0,0 0.02646,-0.0529 0,0.0265 0,0.0265 0,0.0265 0,0 0,0 0,0.0265 0.02646,0 0.02646,-0.0794 0.02646,-0.10584 0,-0.0529 -0.02646,-0.0794 -0.05292,-0.10583 -0.05292,-0.0794 -0.07937,-0.13229 -0.07937,-0.34396 0.02646,-0.13229 0.05292,-0.23812 0.05292,-0.13229 l -0.05292,-0.29104 c 0,-0.0794 0.02646,-0.0529 0.02646,0.0265 l -0.02646,-0.4498 v 0 c -0.02646,-0.0529 -0.07937,-0.21166 -0.07937,-0.29104 0.02646,-0.10583 0.02646,0.0529 0.05292,0.0265 l -0.05292,-0.26458 c 0.05292,-0.10584 0.07937,0.10583 0.07937,0.29104 0.185209,-0.23813 -0.05292,-0.21167 0.05292,-0.71438 l 0.02646,0.23813 c 0.105834,-0.15875 0.05292,-0.34396 0.132292,-0.60854 -0.02646,0.0529 -0.15875,0.52916 -0.211667,0.26458 0.02646,-0.0794 0.02646,-0.18521 -0.02646,-0.3175 0.05292,0 0.05292,-0.15875 0.05292,-0.3175 h 0.07937 c -0.02646,-0.18521 -0.07937,-0.18521 -0.105834,-0.29104 0,-0.21167 0.07937,-0.26458 0.132292,-0.3175 0.02646,-0.34396 -0.105833,0.23812 -0.132292,-0.18521 0.02646,-0.29104 0,-0.50271 -0.05292,-0.84667 0.02646,-0.21166 0.05292,0.0265 0.07937,-0.0264 l -0.07937,-0.18521 c 0,-0.0265 0.02646,-0.0265 0.02646,-0.0265 -0.02646,-0.0794 -0.07938,0 -0.105833,-0.15875 -0.05292,-0.0265 -0.02646,-0.10583 0,-0.15875 0.07937,0.0265 0.132291,0.0265 0.185208,0.0529 0.05292,0 0.07937,0 0.15875,-0.0265 0.07937,0.0265 -0.02646,0.0529 0,0.0794 0.396875,-0.0794 0.343958,-0.0529 0.687917,-0.13229 l 0.291041,0.0529 c -0.211666,-0.0529 0.05292,-0.13229 0.291042,-0.21167 -0.07937,-0.0265 -0.132292,-0.0529 -0.185208,-0.0794 l 0.370416,-0.0529 c 0.05292,0.0265 0,0.0529 -0.05292,0.0794 0.02646,0 0.05292,-0.0264 0.07937,-0.0264 0.132291,0.0264 0.05292,0.0794 -0.02646,0.13229 l -0.132291,-0.0529 c -0.07938,0.0529 -0.185209,0.10583 -0.15875,0.15875 0.02646,0 0.07937,-0.0265 0.132291,-0.0265 -0.02646,0.0265 -0.02646,0.0265 -0.02646,0.0265 0,0 0.05292,0 0.105833,-0.0265 l 0.07937,0.10584 0.02646,-0.0265 0.47625,0.0529 c 0.343958,-0.10583 0.661458,-0.23812 1.217083,-0.26458 -0.132292,0.0794 -0.02646,0.10583 -0.02646,0.18521 -0.15875,-0.0794 -0.423333,0.0265 -0.714375,0.0265 0.15875,0 0.105834,0.0529 0.07938,0.0529 l 0.502709,-0.0794 c 0,0.0794 0.105833,0.0529 0.238125,0.0794 -0.105834,-0.13229 0.370416,-0.0794 0.582083,-0.13229 0,0.0529 -0.02646,0.0794 -0.291042,0.0794 0.291042,0.10583 0.370417,-0.15875 0.635,-0.0794 -0.05292,0 -0.105833,0 -0.132291,0.0265 0.132291,-0.0265 0.502708,0 0.423333,0.0265 h -0.05292 c 0.423334,0.0265 1.243542,0 1.322917,-0.10583 0,0.0264 -0.05292,0.13229 -0.07937,0.15875 l 0.740833,-0.37042 c -0.05292,0.10583 0.185209,0.3175 -0.15875,0.37042 0.105834,0.0265 0.211667,0.0265 0.423334,0 -0.07938,-0.0265 -0.15875,-0.1323 -0.07938,-0.15875 0.238122,0.10583 0.185208,0.0529 0.476242,0.15875 -0.10583,-0.0265 0,-0.18521 0.15875,-0.15875 -0.0264,0.0264 0,0.15875 -0.0529,0.15875 l 0.39687,-0.15875 c -0.10583,0.0264 -0.0265,0.13229 0.0794,0.15875 -0.0529,-0.0265 0.34396,0 0.44979,0 l -0.15875,-0.0265 c 0.44979,0.0265 0.44979,-0.21167 0.87312,-0.21167 -0.0529,0.0265 -0.13229,0.18521 0.0794,0.21167 0.10583,-0.0794 0.44979,-0.37042 0.84667,-0.42334 l 0.0794,0.0529 0.29104,-0.0529 c -0.18521,0.10584 -0.71437,0.34396 -1.00541,0.4498 0.15875,0.0265 0.0529,0.0529 0.29104,0.0529 0.0794,0.0529 -0.13229,0.0529 -0.21167,0.0529 l 0.58208,0.0265 c -0.0264,-0.0794 0.4498,-0.0794 0.42334,-0.15875 l -0.635,0.0794 c -0.0265,-0.0794 0.37041,-0.26458 0.76729,-0.23812 0.10583,0.0265 -0.0794,0.15875 -0.0794,0.18521 0.0529,-0.0265 0.39688,-0.0529 0.42334,-0.0265 l -0.18521,0.0529 c 0.23812,0.0265 0.37042,-0.10583 0.66146,-0.0265 0.10583,0 0.29104,0.10583 0.29104,0.0529 -0.15875,-0.10583 -0.18521,-0.42333 -0.0794,-0.50271 0.0265,0 0.50271,0.10584 0.60855,0.15875 0.15875,0.0794 -0.23813,0.18521 -0.10584,0.26459 0,-0.0265 0.0794,-0.0529 0.13229,-0.0529 0.10584,0.0265 -0.0529,0.0794 0.18521,0.0529 0.0265,-0.0794 0.44979,0 0.10584,-0.0794 0.21166,-0.0265 0.23812,0.0265 0.47625,0.0265 -0.0794,-0.0529 0.21166,-0.18521 0.42333,-0.21167 0,0.0265 0.0265,0.0529 0.0529,0.0794 0.42333,0 0.66145,0.0529 1.08479,0.0529 0.0265,0.0264 0.23812,0.0529 0.15875,0.0794 0.0529,-0.0265 0.10583,-0.0529 0.23812,-0.0529 0.23813,0.0794 -0.29104,0 -0.10583,0.10584 0.0265,-0.0529 0.3175,-0.0794 0.50271,-0.10584 -0.0529,-0.0794 -0.42334,-0.0264 -0.58209,0.0265 0,-0.10583 0.3175,-0.23812 0.74084,-0.29104 0.34396,-0.0265 0.15875,0.0794 0.21166,0.0529 0.635,0.0265 0.52917,-0.18521 1.05834,-0.10584 0.21166,0.0794 0,0.1323 0.0529,0.18521 -0.26458,0.0265 -0.42333,-0.0529 -0.60854,-0.0529 l 0.23813,0.0264 c -0.0794,0.0265 -0.26459,0.0529 -0.37042,0.0265 0.18521,0.0529 1.05833,0 1.56104,0.0794 0.0794,-0.0265 0.23813,-0.0529 0.15875,-0.0794 h -0.15875 c -0.13229,-0.0529 0.29104,-0.0794 0.10584,-0.10583 0.21166,-0.0529 0.44979,-0.10583 0.74083,-0.0794 l 0.0529,0.0794 c 0,-0.0265 -0.18521,-0.0529 -0.26459,-0.0265 0.13229,-0.0265 0.44979,0.10583 0.58209,0 l -0.21167,-0.0529 c 0.21167,-0.0529 0.47625,-0.13229 0.71437,-0.10583 -0.10583,-0.0794 -0.0529,0 -0.23812,-0.0794 0.15875,0.10583 -0.66146,0 -0.39688,0.10583 -0.1852,-0.10583 -0.3175,-0.0529 -0.58208,-0.13229 0,0.0265 0.0794,0.0529 -0.13229,0.0265 0,0 -0.0265,0.0264 -0.0529,0.0264 0,0 0,0 -0.0265,0 v 0 c 0,0 0,0 0,0 0.0529,0 0.10584,0.0265 0.10584,0.0529 -0.10584,0.0529 -0.44979,0.0529 -0.58209,0.0794 -0.13229,0 0.0529,-0.0265 -0.0264,-0.0529 l -0.18521,0.0529 c -0.0265,-0.0529 -0.34396,-0.10584 -0.0265,-0.1323 h -0.26458 c -0.15875,-0.0264 -0.37042,-0.0529 -0.52917,-0.0264 -0.13229,0 -0.3175,0.0529 -0.21167,0.0264 l -0.42333,0.0265 v -0.0265 c -0.42333,0 -0.87313,0.10584 -1.34938,0 -0.13229,0.0265 -0.29104,0.0265 -0.52916,0.0265 l -0.0529,-0.0529 c -0.18521,0.0264 -0.55562,-0.0529 -0.635,0 -0.18521,-0.1323 -0.87312,-0.0265 -1.21708,-0.0529 v 0.0794 c -0.21167,0 -0.42334,0.0265 -0.71438,0.0529 l 0.0265,0.0529 c -0.23812,0.0529 -0.60854,-0.0529 -0.97896,-0.0265 0.0265,-0.0265 0.13229,-0.0265 0.18521,0 -0.44979,-0.13229 -0.9525,0.10583 -1.34937,0 -0.10584,0.0265 -0.18521,0.0265 -0.23813,0 0,0 0.0265,0 0.0265,0 0,0 -0.0265,0 -0.0529,0 -0.0529,0 -0.0794,-0.0265 -0.13229,-0.0265 0.0529,0.0265 0.0794,0.0265 0.10583,0.0265 -0.0794,0 -0.1852,0 -0.3175,0.0265 l -0.0529,-0.0529 c 0,0 -0.0265,0 -0.0265,0 -0.10583,-0.0265 -0.0794,0.0265 -0.0265,0.0794 -0.0529,0 -0.10583,0.0264 -0.15875,0.0264 -0.0794,-0.10583 -0.29104,0.0265 -0.42333,-0.0794 -0.0794,0.0529 -0.58209,0.0529 -0.635,0.15875 0,-0.0265 -0.0265,-0.0265 0.0265,-0.0265 -0.1323,0 -0.264584,-0.0265 -0.370417,0 l -0.05292,-0.0794 -0.291042,0.10583 c -0.15875,-0.0529 -0.238125,-0.0794 -0.07937,-0.13229 -0.423333,0.10583 -0.343958,0.0265 -0.687916,0.13229 l 0.02646,-0.0529 c -0.132292,0 -0.3175,0.0794 -0.396875,0.0265 -0.291042,-0.10583 -1.375833,-0.0265 -2.090208,-0.10583 0.132291,0.15875 -0.343959,-0.0794 -0.370417,0.0529 -0.05292,-0.0264 -0.132292,-0.0529 -0.02646,-0.0794 -0.370417,0.0265 -0.555625,-0.0529 -0.79375,0.0529 -0.05292,-0.0265 0.07937,-0.0529 0.05292,-0.0794 -0.02646,0 -0.105834,0.0265 -0.15875,0 -0.02646,-0.0265 0.05292,-0.0265 0.105833,-0.0529 -0.370417,0 -0.423333,0.10584 -0.449792,0.21167 -0.185208,-0.0529 -0.291041,-0.0529 -0.423333,0.0265 -0.05292,-0.0265 -0.185208,-0.0794 0.05292,-0.0794 -0.132292,0 -0.79375,-0.0529 -0.820209,0.0265 -0.05292,-0.0265 -0.185208,0 -0.211666,0 -0.185209,0 -0.264584,0 -0.370417,0 -0.105833,0 -0.211667,0 -0.396875,0 l 0.105833,0.0265 c -0.02646,0.0265 -0.05292,0.0529 -0.132291,0.0529 0,0.10583 -0.02646,0.21166 -0.02646,0.39687 v 0 c 0,0.0794 -0.02646,0.15875 -0.02646,0.21167 0,0.0529 0,0.0794 0,0.10583 0,0.0529 0,0.0794 0,0.10584 0,0.0529 0.02646,0.10583 -0.02646,0.37041 l 0.05292,-0.0265 c 0.132292,0.0529 -0.07937,0.47625 -0.02646,0.7673 l 0.02646,-0.10584 c 0.05292,0.15875 -0.185208,0.47625 -0.211666,0.635 0,0.0265 -0.02646,-0.0529 -0.02646,-0.10583 -0.07937,0.44979 0.07937,0.0529 0.105834,0.37042 -0.05292,0.0529 -0.105834,-0.0794 -0.132292,0.13229 -0.02646,0.10583 0.15875,0.635 0.05292,0.92604 0.02646,-0.0529 0.07937,-0.13229 0.105833,0.0265 0,0.23812 -0.132292,0.635 -0.02646,0.84666 0,0.0265 -0.02646,0.0529 -0.02646,0.0529 0.02646,0.18521 0.05292,0.58208 0.105834,0.68792 -0.02646,0.0265 -0.05292,0.0529 -0.05292,0.10583 0,0.0265 0,0.0529 0,0.0794 0,0.0529 0,0.0794 0,0.13229 0,0.18521 0.02646,0.39687 0.02646,0.58208 0.3175,-0.0265 0.555625,-0.0265 0.555625,0.0529 h 0.608542 l -0.02646,0.0265 c 0.343958,0.0265 0.47625,-0.0265 0.582083,-0.0794 0.07937,0.0265 0.02646,0.0265 0.02646,0.0529 0.502709,0.0529 0.555625,0.0265 0.978959,-0.0794 l 0.05292,0.0529 c 0.105834,-0.0265 0.740833,0.10583 1.243542,0.0265 0,0 -0.02646,0.0265 -0.05292,0.0265 0.555625,-0.0794 1.349375,0.1852 1.561042,-0.0529 l 0.370416,-0.0529 c -0.47625,-0.0265 0.07937,-0.10583 -0.132291,-0.13229 0.185208,-0.0265 0.47625,0.0794 0.264583,0.0794 h -0.02646 c -0.07937,0.13229 0.608541,0.0529 0.582083,0.13229 0.9525,0 1.878545,0.0529 2.751665,0.0794 l -0.10583,-0.10583 h 0.3175 c 0.0794,0.0265 0.10583,0.0794 -0.10583,0.0794 0.10583,0.0529 0.37041,-0.0529 0.37041,-0.0794 0.42334,0.0265 -0.15875,0.10583 -0.0264,0.10583 h 0.1852 -0.0529 c 0.15875,-0.0265 0.15875,-0.0794 0.42333,-0.0794 0.15875,0.0265 0.0794,0.0529 0.15875,0.0529 0,0 0.0265,0 0.10583,0 h 0.39688 l -0.15875,-0.0794 c 0.18521,-0.0265 0.37042,0 0.18521,-0.0794 0.26458,0.1323 1.45521,0.0529 1.61396,0.0794 0.23812,-0.0529 0.47625,-0.0529 0.76729,-0.0529 -0.0794,-0.0265 -0.10584,-0.10583 0.13229,-0.0794 -0.10583,0.18521 0.47625,0.0794 0.66146,0.21166 -0.18521,-0.0794 0.71437,-0.0265 0.42333,-0.13229 0.21167,0.0265 0,0.0794 0.18521,0.10584 0.50271,-0.0794 1.11125,0.0529 1.74625,0.0265 0,-0.0265 -0.10583,-0.0529 0.0265,-0.10583 l 0.3175,0.10583 c 0.13229,0 0.10583,-0.13229 0.34396,-0.0529 -0.0265,-0.0265 -0.0794,-0.0529 0,-0.0529 1.21708,0.10583 2.51354,-0.10583 3.75708,0.13229 -0.15875,-0.0529 -0.0529,-0.0529 0.0794,-0.0529 -0.0794,0 0,-0.0529 -0.0264,-0.0794 l 0.52916,0.0794 c 0.10584,-0.0794 0.55563,0 0.60854,-0.0794 l -0.15875,0.0265 c 0.21167,-0.10583 -0.3175,-0.21167 -0.26458,-0.34396 -0.23812,0.10583 -0.635,-0.15875 -1.05833,0 -0.0794,-0.0265 0.0794,-0.0529 0.0265,-0.0794 -0.10584,0.0529 -0.23813,0.0529 -0.4498,0.0529 l 0.0265,-0.0265 c -0.635,0.0265 -0.92604,-0.0529 -1.64041,-0.0794 l 0.0529,0.0529 c -0.15875,0 -0.18521,-0.0265 -0.26458,-0.0529 -0.18521,0.10583 0.42333,0 0.26458,0.10583 -0.21166,-0.13229 -1.08479,0 -1.24354,-0.15875 -0.23812,0 0.0794,0.0794 -0.15875,0.0794 l -0.0529,-0.0265 -0.0529,0.0529 c -0.15875,0 -0.23813,-0.0529 -0.23813,-0.0794 0.0265,0 0.10584,0 0.15875,0 -0.21166,-0.0529 -0.58208,0.0265 -0.635,0 l 0.23813,0.0265 c -0.66146,0.0265 -1.45521,-0.0265 -2.06375,0.0529 l 0.0529,0.0264 c -0.47625,0.0529 -0.39687,-0.0264 -0.89958,0 h 0.0265 c -0.10583,0.0265 -0.23813,0.0529 -0.39688,0.0529 0.1323,-0.0265 -0.23812,-0.0794 -0.0794,-0.10583 -0.52917,0.0529 -0.26458,0.0529 -0.60854,0.15875 l -0.0794,-0.0529 c -0.10583,0.0529 -0.13229,0.0794 -0.39687,0.0794 0.21166,-0.0529 -0.15875,-0.0794 0.0794,-0.1323 -0.55562,-0.10583 -0.82021,0.10584 -1.08479,-0.0529 -0.26458,0.13229 0.47625,0.0794 0.34396,0.10583 0.10583,0.0529 -0.21167,0.10583 -0.37042,0.0794 -0.18521,0 -0.29104,-0.18521 -0.74083,-0.15875 0.0529,0 0.0529,0 0.0794,0 -0.15875,-0.0265 -0.3175,0.0529 -0.52916,0 -0.10584,0.0794 -0.26459,0 -0.29104,0.10583 l 0.39687,-0.0265 c -0.23812,0.0265 -0.44979,0.15875 -0.82021,0.0794 0.0265,-0.0265 0.13229,-0.0529 0.21167,-0.0529 -0.10583,-0.0265 -0.21167,0.0265 -0.3175,0 0.0265,-0.10583 0.50271,-0.0265 0.74083,-0.10583 -0.13229,-0.0529 -0.47625,0.0794 -0.34396,-0.0265 -0.1852,0.13229 -0.44979,-0.0265 -0.74083,0.0794 l 0.0265,-0.0529 c -0.0529,0 -0.15875,0.0264 -0.23813,0.0264 l 0.15875,-0.0794 c -0.23812,0.0794 -0.47625,-0.0529 -0.71437,-0.0265 0.47625,0 0.10583,0.0794 0.3175,0.13229 -0.60854,0.0794 -0.34396,-0.15875 -1.031878,-0.13229 0.07938,0 0.343958,0.0265 0.211666,0.0794 -0.132291,0 -0.291041,-0.0265 -0.370416,-0.0794 -0.449792,0 0.07937,0.0529 -0.132292,0.10583 -0.15875,-0.0794 -0.211667,0.0265 -0.423333,0.0529 v -0.0529 c -0.502709,-0.0529 -0.132292,0.1323 -0.582084,0.0794 l 0.185209,-0.0794 -0.238125,0.0265 0.05292,-0.0794 c -0.264583,0.0529 -0.343958,0.0529 -0.608541,0.0265 0.05292,0.0529 -0.02646,0.10583 -0.264584,0.10583 -0.15875,-0.0265 0.07938,-0.0529 -0.238125,-0.0529 0.07937,-0.0529 0.15875,-0.0794 0.291042,-0.0265 0.02646,-0.0264 0.07937,-0.0529 0.07937,-0.0529 -0.15875,-0.0529 -0.423333,0 -0.529167,0 0.05292,0 0.105834,0 0.132292,0.0265 l -0.47625,0.0794 c -0.07937,-0.0265 -0.02646,-0.0529 0.05292,-0.0529 -0.105834,0 -0.15875,0.0265 -0.291042,0.0529 0.02646,-0.0529 0.02646,-0.10583 0.211667,-0.13229 l -0.449792,0.0529 c -0.02646,-0.0265 -0.238125,-0.0529 -0.15875,-0.0794 -0.238125,-0.0265 -0.608542,0.10583 -0.926041,0.0529 -0.02646,0 -0.05292,0.0265 -0.132292,0.0265 -0.3175,0 -0.582083,-0.0794 -0.926042,0 l -0.211666,-0.10584 c -0.291042,0.0265 0.291041,0.10584 -0.185209,0.15875 -0.343958,0.0265 -0.132291,-0.0794 -0.238125,-0.10583 -0.07937,0.0265 -0.185208,0.0529 -0.3175,0.0794 -0.02646,0 -0.07938,0 -0.105833,0 -0.02646,0 -0.07937,0 -0.07937,0 -0.02646,0 -0.05292,0 -0.07937,-0.0264 0.15875,-0.21167 0.15875,-0.18521 0.238125,-0.18521 z m -0.238125,-2.64584 c 0.02646,0.0794 0.05292,0.21167 0.02646,0.26459 -0.105833,-0.0794 -0.05292,-0.15875 -0.02646,-0.26459 z m 1.984375,-2.88395 c -0.05292,0.0264 -0.132292,0 -0.211667,-0.0265 0.07937,0 0.132292,0 0.211667,0.0265 z m 14.816665,-0.4498 v 0 c -0.15875,-0.0264 -0.10583,0 0,0 z m 0.3175,0.0265 c 0.0265,0 0.0265,-0.0265 0.0265,-0.0265 -0.0265,0.0265 -0.0794,0.0265 -0.18521,0 0,0.0265 0.0529,0.0529 0.15875,0.0265 z m -7.11729,6.53521 -0.0529,-0.0265 c 0.13229,-0.0265 0.0794,0 0.0529,0.0265 z"
       id="path7916"
       style="fill:#fad389;stroke-width:0.264583;fill-opacity:1" />
  </g>
</svg>
