<?xml version="1.0" encoding="UTF-8" standalone="no"?>
<svg
   xmlns:dc="http://purl.org/dc/elements/1.1/"
   xmlns:cc="http://creativecommons.org/ns#"
   xmlns:rdf="http://www.w3.org/1999/02/22-rdf-syntax-ns#"
   xmlns:svg="http://www.w3.org/2000/svg"
   xmlns="http://www.w3.org/2000/svg"
   xmlns:sodipodi="http://sodipodi.sourceforge.net/DTD/sodipodi-0.dtd"
   xmlns:inkscape="http://www.inkscape.org/namespaces/inkscape"
   version="1.1"
   id="Layer_1"
   x="0px"
   y="0px"
   viewBox="0 0 149.99995 3.601739"
   xml:space="preserve"
   sodipodi:docname="chalk-underline.svg"
   width="149.99995"
   height="3.6017389"
   inkscape:version="1.0.2-2 (e86c870879, 2021-01-15)"><metadata
   id="metadata47"><rdf:RDF><cc:Work
       rdf:about=""><dc:format>image/svg+xml</dc:format><dc:type
         rdf:resource="http://purl.org/dc/dcmitype/StillImage" /><dc:title></dc:title></cc:Work></rdf:RDF></metadata><defs
   id="defs45" /><sodipodi:namedview
   pagecolor="#ffffff"
   bordercolor="#666666"
   borderopacity="1"
   objecttolerance="10"
   gridtolerance="10"
   guidetolerance="10"
   inkscape:pageopacity="0"
   inkscape:pageshadow="2"
   inkscape:window-width="1920"
   inkscape:window-height="1001"
   id="namedview43"
   showgrid="false"
   inkscape:zoom="2.7948954"
   inkscape:cx="194.83054"
   inkscape:cy="-14.929425"
   inkscape:window-x="-9"
   inkscape:window-y="-9"
   inkscape:window-maximized="1"
   inkscape:current-layer="Layer_1"
   inkscape:document-rotation="0" />
<style
   type="text/css"
   id="style2">
	.st0{fill-rule:evenodd;clip-rule:evenodd;fill:#FFFFFF;}
	.st1{fill-rule:evenodd;clip-rule:evenodd;}
</style>

<path
   class="st1"
   d="m 149.62046,2.7091785 c 0.20031,-0.1572106 -0.0843,-0.2992068 -0.0632,-0.4614886 -0.25302,-0.07607 -0.0527,-0.141997 0.0105,-0.2129948 0.0632,-0.065927 0.0843,-0.1369259 0.11596,-0.1927095 -0.22138,-0.035498 -0.40057,-0.065927 -0.57979,-0.096355 -0.23192,-0.035499 -0.47439,-0.060855 -0.70631,-0.1014263 -0.23193,-0.035499 -0.4533,-0.081141 -0.67468,-0.1217114 -0.10542,-0.015214 -0.22137,-0.025357 -0.32679,-0.04057 -0.15813,-0.020286 -0.28464,-0.060855 -0.30572,-0.1521389 -0.0106,-0.04057 -0.0317,-0.086212 -0.0422,-0.1267828 -0.0316,-0.1572104 -0.27409,-0.2839929 -0.59035,-0.32963455 -0.25301,-0.0354989 -0.51654,-0.0760696 -0.74846,-0.14199652 -0.43222,-0.1166402 -0.82227,-0.0709984 -1.20178,0.0304275 -0.24246,0.0608557 -0.28463,0.0709983 -0.49547,-0.0202852 -0.0949,-0.0405703 -0.16867,-0.0811407 -0.31626,-0.0709981 -0.35842,0.0253566 -0.71683,0.0405703 -1.06473,0.0608557 -0.25299,0.0152137 -0.48492,0.0152137 -0.71683,-0.0456424 -0.11595,-0.0304275 -0.25301,-0.0507132 -0.3795,-0.0557846 -0.24248,-0.0152131 -0.49548,-0.0354989 -0.69577,0.065927 -0.10541,0.0557841 -0.22138,0.0354989 -0.33735,0.0152131 -0.10541,-0.0202852 -0.21083,-0.0456418 -0.31625,-0.0507126 -0.55871,-0.0152131 -1.11743,-0.0202852 -1.67616,-0.0304275 -0.20028,0 -0.40058,0 -0.60087,0.0101423 -0.10542,0.005073 -0.23193,0.0202852 -0.30573,0.0557841 -0.1265,0.0608557 -0.27408,0.0659266 -0.43221,0.0507132 -0.15812,-0.0152137 -0.31625,-0.0253572 -0.46385,-0.0507132 -0.18975,-0.0304275 -0.36896,-0.0253572 -0.55871,-0.0101423 -0.30572,0.030428 -0.62198,0.050712 -0.92768,0.0659266 -0.15813,0.0101423 -0.31626,-0.005073 -0.43222,-0.0659266 -0.10542,-0.0507132 -0.23192,-0.0507132 -0.36896,-0.0557846 -0.39006,-0.0101423 -0.7801,0.0304275 -1.17015,-0.0253566 -0.0949,-0.0152134 -0.2003,0 -0.29517,0.005073 -0.0843,0.005073 -0.17922,0.0202852 -0.26354,0.0202852 -0.66415,-0.0101423 -1.31774,-0.0152131 -1.98188,-0.0304275 -0.18975,-0.005073 -0.3268,0.0202852 -0.4533,0.0811408 -0.0527,0.0253572 -0.10541,0.0557846 -0.16867,0.0862123 -0.29517,-0.0608558 -0.59034,-0.0608558 -0.89605,-0.0152137 -0.46385,0.0709984 -0.84336,-0.0912831 -1.27557,-0.0963549 -0.0317,0 -0.0632,-0.025356 -0.0949,-0.0456418 -0.14758,-0.0912835 -0.34788,-0.11663978 -0.56925,-0.10649724 -0.22138,0.0101443 -0.44276,0.0354994 -0.66415,0.0456418 -0.34788,0.0152135 -0.69576,0.0456418 -1.03309,0.0354991 -0.39005,-0.0152135 -0.76956,-0.070998 -1.1596,-0.0152135 -0.0527,0.005073 -0.11597,0.005073 -0.16867,0 -0.31626,-0.050713 -0.64306,-0.0304276 -0.96986,-0.0456416 -0.32679,-0.0152135 -0.60088,0.005073 -0.81172,0.13185372 -0.29517,-0.1369251 -0.34788,-0.1369251 -0.68522,-0.065927 -0.1265,0.025357 -0.28463,0.035499 -0.41113,0.025357 -0.35843,-0.0202852 -0.70631,-0.0507132 -1.05419,-0.0912835 -0.31625,-0.0354991 -0.54817,0.0253567 -0.72738,0.14199657 -0.0422,0.0253566 -0.0632,0.0557841 -0.0738,0.0709981 -0.25301,-0.0405703 -0.43222,-0.0912831 -0.61143,-0.0912831 -0.16867,0 -0.31626,-0.005073 -0.44276,-0.0507132 -0.20029,-0.0709982 -0.41113,-0.0659268 -0.64305,-0.0608554 -0.34789,0.0101425 -0.7063,-0.005073 -1.06473,-0.005073 -0.3268,0 -0.68522,-0.0456418 -0.98039,0.0456416 -0.3268,0.1014259 -0.68522,0.12678262 -1.00148,0.0659268 -0.44275,-0.0811407 -0.87496,-0.11156865 -1.33881,-0.12171122 -0.23191,-0.005073 -0.46384,-0.0253567 -0.69576,-0.0202854 -0.30572,0 -0.60088,0.0253564 -0.9066,0.0253564 -0.21084,0 -0.42168,-0.0253564 -0.63252,-0.0304276 -0.71683,-0.0202851 -1.43368,-0.0253564 -2.15053,-0.050713 -0.42167,-0.0152135 -0.80118,0.0101425 -1.12797,0.15721053 -0.16868,0.0760695 -0.33735,0.0456418 -0.44276,-0.0557844 -0.0949,-0.0862121 -0.22138,-0.12678256 -0.4006,-0.0912833 -0.14759,0.0304276 -0.28463,0.0202851 -0.42167,0.005073 -0.20029,-0.0202851 -0.37951,-0.030428 -0.59034,-0.0101425 -0.21084,0.0202854 -0.44277,0 -0.66414,-0.0101425 -0.10542,-0.005073 -0.23193,-0.0202851 -0.26355,0.030428 -0.0843,0.12678259 -0.3268,0.13692511 -0.51655,0.18763803 -0.29517,0.0709985 -0.64305,-0.0304275 -0.94877,0.065927 -0.0421,0.0152137 -0.12649,-0.005073 -0.1792,-0.0101423 -0.0949,-0.0811407 -0.17922,-0.15213908 -0.26355,-0.2332799 -0.13704,0.0354991 -0.24247,0.0608558 -0.32681,0.0811409 -0.10542,-0.0304276 -0.16866,-0.0709985 -0.26354,-0.0811409 -0.53764,-0.065927 -1.08581,-0.065927 -1.63399,-0.0456416 -0.13704,0.005073 -0.26355,0.030428 -0.30571,0.10649741 -0.0106,0.0202854 -0.0632,0.0354991 -0.11596,0.065927 -0.22138,-0.13185379 -0.48493,-0.15213908 -0.780096,-0.0811409 -0.05274,0.0101425 -0.126504,-0.005073 -0.189756,-0.005073 -0.05274,0 -0.115956,-0.0152135 -0.147576,-0.005073 -0.28464,0.0862121 -0.53763,0.0304276 -0.790638,-0.0354991 -0.06322,-0.0152135 -0.13704,-0.0557844 -0.200292,-0.050713 -0.432228,0.030428 -0.9066,-0.005073 -1.265028,0.16735304 -0.147582,0.0709982 -0.305712,0.0760696 -0.495462,0.0354989 -0.23193,-0.0456419 -0.47439,-0.0760696 -0.71685,-0.0202852 -0.115968,0.0253572 -0.210839,0.0152137 -0.263549,-0.0304276 -0.09488,-0.0963547 -0.263538,-0.10649759 -0.4533,-0.10649759 -0.231918,0 -0.474378,-0.005073 -0.706308,0 -0.253002,0.005073 -0.527082,-0.005073 -0.759,0.0354991 -0.242472,0.0405706 -0.484932,0.0659269 -0.73794,0.0760695 -0.316242,0.0152135 -0.600882,-0.0152135 -0.88551,-0.0608554 -0.12651,-0.0202854 -0.26355,-0.030428 -0.390042,-0.0253564 -0.21084,0.0101443 -0.411138,0.030428 -0.590358,0.0456417 -0.13704,-0.0253564 -0.253002,-0.0659268 -0.3795,-0.0608556 -0.231912,0 -0.463842,0.0202851 -0.69576,0.0456416 -0.326802,0.0354991 -0.674682,0.0152135 -1.001472,0.0709982 -0.03168,0.005073 -0.09488,0 -0.12651,-0.0101426 -0.22137,-0.0608558 -0.442758,-0.055784 -0.685218,-0.0253564 -0.08433,0.0101425 -0.179202,0.005073 -0.26355,0 -0.179202,-0.0152134 -0.34788,0.0152135 -0.527082,0.0304276 -0.390059,0.0304275 -0.790649,0.0405703 -1.191239,0.0557846 -0.0738,0 -0.147588,-0.0253566 -0.22137,-0.0354989 -0.0738,-0.0101423 -0.147588,-0.0101423 -0.21084,-0.0101423 -0.08433,0 -0.179208,0.005073 -0.26355,0 -0.21084,-0.0202855 -0.411138,-0.0507132 -0.62196,-0.0709981 -0.28464,-0.0253564 -0.39006,0.0253564 -0.305718,0.16228145 0,0.0101423 -0.01056,0.0202858 -0.01056,0.0354989 -0.09488,0.0354989 -0.200298,0.070998 -0.305718,0.10649726 -0.13704,-0.0405703 -0.253002,-0.0760696 -0.36897,-0.1166402 0.05274,-0.030428 0.08435,-0.0557841 0.115968,-0.0760695 -0.06323,-0.10142622 -0.18975,-0.13692511 -0.390048,-0.10649742 -0.06322,0.0101443 -0.13704,0.0101443 -0.200292,0.005073 -0.50601,-0.0456418 -1.01202,-0.0659269 -1.49694,0.0304276 -0.15813,0.0304276 -0.274098,0.0354991 -0.432228,-0.0101425 -0.200292,-0.0608558 -0.4533,-0.10142603 -0.67467,-0.0354991 -0.31626,0.0862122 -0.653592,0.0709981 -0.9804,0.0811407 -0.179202,0.005073 -0.358422,0.0152131 -0.527082,0 -0.284639,-0.0253564 -0.558719,-0.0709979 -0.864437,-0.0507127 -0.0738,0.005073 -0.15813,-0.0152135 -0.231912,-0.0202851 -0.28464,-0.0202851 -0.569268,-0.030428 -0.864438,0.0101425 -0.55872,0.0760695 -1.11744,0.0963549 -1.665612,-0.030428 -0.08433,-0.0202854 -0.200298,-0.030428 -0.284628,-0.0202854 -0.17922,0.0202854 -0.347892,0.0354991 -0.50601,-0.0253564 -0.04212,-0.0152135 -0.10542,-0.0152135 -0.15813,-0.0152135 -0.42168,0.0202851 -0.843348,0.0354991 -1.265022,0.0608558 -0.05274,0.005073 -0.147588,0.0253564 -0.15813,0.0456416 -0.09488,0.1318537 -0.274086,0.15721043 -0.527094,0.10649739 -0.03168,-0.005073 -0.06325,0.005073 -0.09487,0 -0.34788,-0.0202852 -0.716844,0.0202852 -1.054188,-0.0760695 -0.03168,-0.0101422 -0.09488,-0.0152135 -0.126504,-0.0101422 -0.34788,0.0659269 -0.685218,0 -1.022561,-0.0202851 -0.08433,-0.005073 -0.179208,-0.0304275 -0.22137,-0.0608552 -0.12651,-0.0862122 -0.284634,-0.11156856 -0.495474,-0.0912834 -0.08434,0.005073 -0.200292,0.020285 -0.263544,0 -0.137046,-0.0456417 -0.284628,-0.0152135 -0.42168,-0.0253564 -0.02106,0 -0.04218,0.0202851 -0.07378,0.0354991 0.08433,0.0152135 0.158124,0.030428 0.27408,0.050713 -0.147588,0.0354991 -0.24246,0.0608558 -0.305718,0.0760696 C 68.68005,0.49809336 68.321628,0.41188107 67.921032,0.48795079 67.77345,0.5133071 67.636398,0.50316435 67.499358,0.46766546 67.0566,0.3459541 66.55059,0.35102564 66.06567,0.33074034 c -0.26355,-0.0152136 -0.5271,0.0253567 -0.79065,-0.0354991 -0.02112,-0.005073 -0.08433,-0.005073 -0.09487,0 -0.158118,0.0760695 -0.358416,0.0456417 -0.53763,0.050713 -0.04218,0.12678256 -0.08434,0.24342248 -0.126498,0.3549912 -0.4533,0.030428 -0.49548,0.0253566 -0.674682,-0.13185373 -0.115968,-0.10142604 -0.221388,-0.20285208 -0.495468,-0.22313736 -0.03162,0 -0.06325,-0.0202852 -0.07379,-0.0304279 -0.115956,-0.0963545 -0.29517,-0.0912833 -0.48492,-0.10649722 -0.221388,-0.0152135 -0.347885,0.0557844 -0.516557,0.0912835 -0.126492,-0.10649741 -0.337332,-0.0963547 -0.50601,-0.0709982 -0.284622,0.0456417 -0.653592,0.0608558 -0.600882,0.29413541 -0.09488,-0.0152134 -0.168666,-0.0152134 -0.200298,-0.0354989 C 60.921235,0.46259464 60.931795,0.42709524 60.910675,0.386525 60.573343,0.52344993 60.510085,0.51837876 60.193837,0.3763828 59.898655,0.23945755 59.5297,0.18367313 59.12911,0.18367313 c -0.02105,0 -0.03165,0.0101424 -0.05271,0.0152135 -0.0106,0.0456417 -0.02105,0.0912835 -0.04215,0.14706771 -0.274095,-0.0354991 -0.463845,0.0304279 -0.68523,0.0760695 -0.305705,0.065927 -0.64305,0.0912835 -0.969845,0.12678254 -0.08434,0.0101424 -0.200295,-0.0152136 -0.284635,-0.0354989 -0.22137,-0.050713 -0.43221,-0.11156879 -0.64305,-0.17242419 -0.168665,-0.050713 -0.337335,-0.050713 -0.50601,0 -0.08433,0.0253565 -0.15813,0.0557842 -0.253005,0.0811407 -0.07379,0.0202854 -0.15813,0.0354991 -0.24246,0.0456417 -0.09487,0.0101425 -0.200295,0 -0.18975,-0.0557842 0,-0.0354991 0.06324,-0.0760695 0.11596,-0.10142605 0.04215,-0.0202851 0.137045,-0.0101424 0.189755,-0.0253563 0.05271,-0.0101424 0.08433,-0.0354995 0.147585,-0.065927 -0.221385,-0.0152135 -0.39005,-0.0253567 -0.569265,-0.0405705 -0.221375,0.1318537 -0.495465,0.21299445 -0.843345,0.22313703 -0.253004,0.0101425 -0.516554,0.005073 -0.769559,0.0101425 -0.08433,0 -0.18975,0.005073 -0.263541,-0.0101425 -0.10542,-0.0152135 -0.221379,-0.0405703 -0.274089,-0.0811407 -0.04215,-0.0354991 0.01055,-0.0963547 0.02105,-0.16735301 -0.12651,-0.005073 -0.253005,-0.0101428 -0.379515,-0.0101428 -0.210835,0 -0.421665,0.015214 -0.64305,0.0101428 -0.305715,-0.0101428 -0.600885,-0.005073 -0.896055,0.0557841 -0.200295,0.0456418 -0.411135,0.0405705 -0.61143,-0.0253566 -0.08433,-0.0304277 -0.210835,-0.0507129 -0.316255,-0.0507129 -0.347837,0.01521 -0.695717,0.0202811 -0.959264,0.15720615 -0.137043,0.0709984 -0.368963,0.0557844 -0.495465,-0.0202852 -0.253005,-0.14199643 -0.400593,-0.14706773 -0.674678,-0.0253565 -0.22138,0.0963549 -0.27409,0.0963549 -0.527095,0.0405706 -0.08433,-0.0202852 -0.179209,-0.0253567 -0.274087,-0.0253567 -0.29517,0.0101424 -0.600885,0.0354991 -0.896055,0.0354991 -0.284633,0 -0.295175,-0.0152135 -0.368967,-0.16735279 -0.126503,0.015214 -0.24246,0.0304279 -0.34788,0.0405703 -0.01054,0.0304278 -0.02107,0.0405705 -0.02107,0.0507132 0.01054,0.16228152 -0.10542,0.21299454 -0.442758,0.18256671 -0.189754,-0.0152136 -0.368967,-0.0405703 -0.548175,-0.0507129 -0.115962,-0.005073 -0.263547,-0.0101424 -0.358425,0.0152136 -0.200295,0.0608556 -0.379507,0.0405705 -0.537634,-0.0101424 -0.158125,-0.050713 -0.284633,-0.12678256 -0.4533,-0.21299466 -0.09488,-0.005073 -0.158125,0.0456417 -0.231922,0.0912835 -0.07379,0.0456417 -0.158126,0.10142587 -0.263546,0.11663982 -0.305712,0.0405704 -0.611427,0.0659269 -0.927682,0.005073 C 41.67188,0.32566669 41.566464,0.28002486 41.58755,0.19381277 41.59809,0.12281428 41.55594,0.06703016 41.397797,0.04674486 41.229125,0.02138849 41.070995,0.0011032 40.92341,0.06703016 40.754743,0.1481709 40.543907,0.19381277 40.311985,0.22424042 c -0.06325,0.005073 -0.10542,0.0405705 -0.15813,0.065927 -0.04216,0.0202853 -0.08433,0.0405706 -0.158127,0.0811409 -0.04212,-0.0912847 -0.07375,-0.1572117 -0.105371,-0.22820993 -0.03161,-0.0912835 -0.115962,-0.152139 -0.263547,-0.14199643 -0.24246,0.015214 -0.484923,0.02028528 -0.674677,0.11663986 -0.221377,0.1115688 -0.4533,0.1115688 -0.685222,0 -0.08433,0.0202853 -0.179209,0.0456418 -0.274088,0.0557844 -0.126502,0.0202854 -0.253005,0.0456417 -0.379507,0.0405704 -0.189751,-0.005073 -0.347878,0.0152136 -0.516547,0.0608558 -0.10542,0.0304279 -0.221379,0.0507132 -0.337341,0.0709982 -0.231921,0.0456418 -0.442758,0.050713 -0.674679,-0.0202852 -0.09488,-0.0304279 -0.242463,-0.0354992 -0.34788,-0.0253565 -0.189753,0.0202852 -0.40059,0.0304279 -0.527094,0.12171118 -0.03163,0.0253564 -0.115959,0.050713 -0.168669,0.0456418 C 34.714307,0.4372339 34.366427,0.487947 34.050173,0.4169489 33.913127,0.3865209 33.776084,0.3662359 33.628499,0.4068064 33.480914,0.4524482 33.333326,0.4423055 33.175199,0.4169489 33.090859,0.4017354 32.974904,0.4068064 32.90111,0.4270914 32.658647,0.4828758 32.44781,0.4625905 32.226431,0.401735 32.110472,0.3713071 32.005052,0.3408793 31.857467,0.29523764 c 0.01056,0.0405705 0.01056,0.0557844 0.01056,0.0709983 0,0.0760696 -0.126504,0.0862123 -0.231921,0.0811409 -0.05271,-0.005073 -0.126501,-0.0405707 -0.137043,-0.0709983 -0.06326,-0.121711 -0.05271,-0.12678238 -0.316257,-0.12678238 -0.358422,0.005073 -0.706305,0.0202851 -1.064727,0.0253566 -0.115959,0.005073 -0.221378,0 -0.337338,0.0101424 -0.11596,0.0101424 -0.253005,0.0253563 -0.326798,0.0659268 -0.137044,0.0760695 -0.274087,0.12171102 -0.474383,0.14199652 -0.05271,0.005073 -0.105418,0.0354991 -0.158128,0.0557844 0,0 0,0 0,0 l 0.02108,-0.005073 c 0,0 -0.02108,0.005073 -0.02108,0.005073 0,0 0,0 0,0 h -0.01054 c 0,0 0,0 0,0 -0.08434,-0.0507135 -0.158127,-0.10142653 -0.263546,-0.14706835 -0.06325,-0.0253565 -0.16867,-0.0557842 -0.221379,-0.0456417 -0.368965,0.0709982 -0.759013,0.0456417 -1.127979,0.065927 -0.137043,0.005073 -0.284629,0.0101423 -0.390048,0.0456416 -0.221379,0.0811409 -0.463842,0.0608558 -0.706303,0.0557844 -0.253005,-0.005073 -0.516552,-0.0354991 -0.759014,-0.0202853 -0.231921,0.0202853 -0.400591,-0.0101423 -0.600886,-0.0507129 -0.158127,-0.0354991 -0.326798,-0.10142608 -0.537635,-0.0557844 0.03163,0.22313734 -0.05271,0.27385008 -0.411132,0.25863641 0.04216,-0.12678254 -0.210837,-0.14199628 -0.337339,-0.20792329 0.02108,-0.0202851 0.04217,-0.0354991 0.07379,-0.0760695 -0.189753,0.0152135 -0.390048,0.005073 -0.474382,0.0456418 -0.200295,0.10142605 -0.411132,0.0811407 -0.653595,0.0557842 -0.221379,-0.0202852 -0.442758,-0.0456416 -0.664137,-0.0557842 -0.253003,-0.0101424 -0.51655,-0.005073 -0.769555,0.005073 -0.242472,0.0101424 -0.453309,-0.0557849 -0.674688,-0.0608561 -0.463842,-0.0152136 -0.938225,-0.050713 -1.412609,-0.0152136 -0.221378,0.0152136 -0.432216,0.0304277 -0.63251,0.0811407 -0.274087,-0.065927 -0.569261,-0.0304279 -0.853889,-0.050713 -0.316256,-0.0253563 -0.621969,-0.0811407 -0.959309,-0.0354991 -0.08433,0.0101442 -0.179211,0.0101442 -0.263545,0.005073 -0.368966,-0.0304279 -0.664137,0.0405703 -0.948768,0.14706768 -0.05271,0.0202851 -0.147585,0.0405707 -0.200295,0.0253564 -0.09488,-0.0202851 -0.179211,-0.0608558 -0.263546,-0.0963547 -0.126502,-0.050713 -0.274089,0.0354991 -0.316255,0.0101422 -0.126503,-0.0760695 -0.210837,-0.0253564 -0.316256,0 -0.179212,0.0405705 -0.34788,0.050713 -0.548176,0.005073 -0.158129,-0.0405703 -0.33734,-0.0608558 -0.506009,-0.0760695 -0.316255,-0.0304279 -0.484926,0.0253564 -0.537634,0.17242421 -0.01055,0.0354991 0.02108,0.0760696 0.04216,0.12171104 -0.242463,-0.0354984 -0.421674,-0.0862113 -0.506009,-0.19270855 -0.02108,-0.0253565 -0.09488,-0.0456418 -0.137044,-0.0659268 l 0.01055,0.0101422 c 0,0 -0.01055,-0.0101422 -0.01055,-0.0101422 -0.221379,-0.0152135 -0.432216,-0.0456417 -0.643053,0.030428 -0.04216,0.0152135 -0.137045,0.0152135 -0.200295,0.0101425 -0.242463,-0.0253564 -0.474384,-0.0101425 -0.716847,-0.0101425 -0.326796,0 -0.6535934,-0.0405703 -0.9803905,-0.065927 -0.063248,-0.005073 -0.1581288,-0.005073 -0.1897548,0.0152135 -0.094876,0.050713 -0.168669,0.11664016 -0.2424612,0.17242422 0,0 0,0 0,0 0,0 0,0 0.010542,0 0.200295,-0.0202851 0.200295,-0.0152135 0.210837,0.0709981 -0.073793,-0.025356 -0.1370448,-0.0507131 -0.210837,-0.0709981 0,0 -0.010542,0 -0.010542,0 0,0 0,0 0,-0.005073 C 8.7813757,0.5183758 8.5705388,0.5183758 8.4651206,0.42202117 8.3597018,0.33073765 8.2015748,0.32059512 8.0223638,0.31552386 c -0.031626,0.0152136 -0.05271,0.0202852 -0.05271,0.0304279 -0.042168,0.0659268 -0.042168,0.16228147 -0.2213789,0.15721027 -0.1897572,-0.005073 -0.442761,0.045641 -0.5692632,-0.086213 -0.05271,-0.0557844 -0.1581305,-0.0862125 -0.3057161,-0.0811411 -0.084334,0.005073 -0.179211,-0.005073 -0.2635464,-0.0152136 -0.2213766,-0.0202851 -0.4427555,-0.0253565 -0.6641337,0.0202853 -0.1370435,0.0253565 -0.274088,0.0557844 -0.4216739,0.0557844 -0.263546,0.005073 -0.4533,0.0557844 -0.5798017,0.16228164 -0.084333,0.0659272 -0.1897509,0.0760699 -0.316253,0.0456422 -0.1581281,-0.0354991 -0.3162559,-0.0760694 -0.4849256,-0.1166398 -0.031624,0.0152135 -0.06325,0.030428 -0.084335,0.0456416 -0.105435,0.0963545 -0.2424783,0.14706749 -0.484941,0.12678238 -0.084335,-0.005073 -0.1897533,0.0253566 -0.2740881,0.0354989 -0.010542,0 -0.031625,-0.005073 -0.042167,-0.0101423 0.021084,-0.0253566 0.052709,-0.0507132 0.073793,-0.0760697 C 2.9833417,0.79222603 2.5827514,0.84801015 2.0978263,0.76179811 1.908073,0.86322417 1.908073,0.87336676 2.0134913,0.99000655 c 0.031625,0.0304291 0.031625,0.0709984 0.031625,0.10649765 0,0.086212 -0.021084,0.1673528 -0.031625,0.2484937 C 1.7710308,1.4261387 1.5601937,1.4362815 1.3071894,1.3348545 1.0858106,1.2486424 0.82226426,1.1928579 0.50600879,1.2283572 0.1265022,1.2689276 0.0843348,1.2790702 0,1.4869936 c 0.0843348,0.00508 0.17921145,0.015214 0.26354625,0.015214 0.21083702,0 0.43221583,-0.025357 0.6219691,-0.00508 C 1.2544801,1.5427706 1.612903,1.6086981 1.7183215,1.8115495 1.9607841,1.8419768 2.245414,1.8014108 2.4140836,1.93326 2.3508326,1.9890432 2.3086651,2.0549723 2.2137885,2.1056842 2.0978281,2.1665404 2.0556607,2.2324677 2.0978281,2.3136078 c 0.042167,0.065927 0.021084,0.1267835 -0.094877,0.1774955 -0.1370441,0.055785 -0.1581278,0.1369258 -0.1686696,0.238351 0.2530044,-0.060856 0.421674,0 0.5903436,0.060856 C 2.7303387,2.9018785 3.0782197,2.947521 3.4577263,2.9170939 3.5947705,2.9069551 3.7423564,2.9018766 3.889942,2.9018766 4.2378231,2.8967981 4.5857038,2.9120153 4.9230432,2.8866593 5.2182145,2.8613033 5.58718,2.851161 5.6504305,2.6432367 5.6715155,2.5773095 5.7874749,2.57224 5.8823514,2.5773095 c 0.073793,0.00508 0.2002951,0.035498 0.2002951,0.060856 0.021078,0.1166393 0.2002949,0.141997 0.3689651,0.1622818 0.158127,0.020285 0.3267972,0.025356 0.4954668,0.030428 0.1686695,0 0.3373391,-0.020285 0.5060081,-0.010139 0.4427586,0.020285 0.8960585,0.040571 1.3282732,0.070999 0.2108376,0.015217 0.4111332,0.010139 0.5903442,-0.035498 0.2951717,-0.081141 0.6114275,-0.045642 0.9171411,-0.040572 0.263546,0.00508 0.516551,0.040573 0.822265,0.065931 0,-0.065927 0.01054,-0.1064969 0,-0.1419971 -0.05271,-0.1217104 0.06325,-0.1876383 0.305713,-0.1927097 0.368965,-0.00508 0.527093,0.1267835 0.695763,0.2383514 0.221379,0.1470682 0.263546,0.1724241 0.611426,0.1014257 0.115961,-0.025358 0.221379,-0.030427 0.347882,-0.015217 0.358423,0.045642 0.727387,0.040571 1.096352,0 0.08433,-0.010139 0.221379,-0.04057 0.231921,-0.070998 0.05271,-0.1115681 0.221379,-0.096354 0.368964,-0.081141 0.137045,0.015217 0.253005,0.055783 0.40059,0.086212 0.06325,-0.015217 0.158129,-0.040571 0.284631,-0.07607 -0.03163,0.065927 -0.05271,0.1064969 -0.08433,0.1774954 0.305713,-0.1217123 0.590343,-0.141997 0.896056,-0.065927 0.04217,-0.045642 0.07379,-0.086212 0.126502,-0.1166393 0.05271,-0.035498 0.126503,-0.060856 0.231921,-0.030428 0.09488,0.025356 0.16867,0.060856 0.115961,0.1166393 -0.02108,0.020285 -0.05271,0.035498 -0.08433,0.065927 0.126502,0 0.221379,0 0.305714,0 0.284629,0.00508 0.579801,0.010139 0.864431,0.020284 0.548177,0.020285 1.096353,0.040571 1.644528,0.060856 0.137045,0.00508 0.242463,-0.015217 0.305715,-0.07607 0.09488,-0.1014257 0.263546,-0.1166393 0.463841,-0.096354 0,0 0,0 0,0 0,0 0,0 0,0 -0.07379,-0.040572 -0.147586,-0.081141 -0.242462,-0.1318529 0.03163,-0.00508 0.115959,-0.025356 0.126501,-0.020285 0.07379,0.040571 0.263547,0.070997 0.115961,0.1521395 0,0 0,0.00508 0.01055,0.00508 0,0 -0.01055,0 -0.01055,0 -0.01055,0.010139 -0.02108,0.025356 -0.02108,0.025356 0.253005,0.1419971 0.769556,0.1876384 1.085811,0.091285 0.03163,-0.010139 0.08433,-0.030427 0.115961,-0.025356 0.179211,0.020285 0.295171,-0.030429 0.40059,-0.091285 0.03163,-0.015217 0.09488,-0.015217 0.147585,-0.025358 0.305715,0.2383512 0.62197,0.2738503 1.106895,0.1774954 0.189753,-0.035498 0.390048,-0.050714 0.611427,-0.00508 0.16867,0.030428 0.368965,0.015217 0.558718,0.015217 0.158128,0 0.326797,-0.00508 0.484925,-0.010139 0.06325,0.00508 0.11596,-0.020285 0.168669,-0.035498 0.06325,-0.020285 0.126503,-0.035498 0.189754,-0.055783 0.23192,0.1318529 0.23192,0.1318529 0.548176,0.1419971 0.221379,0.00508 0.358423,0.1369258 0.62197,0.091285 0.05271,-0.010139 0.126501,0 0.200295,0 0.07379,-0.00508 0.158127,-0.00508 0.147585,-0.065927 0,-0.015217 0.03163,-0.030429 0.05271,-0.045642 0.221379,0.060856 0.147586,-0.086212 0.295173,-0.091283 0.02108,0.025356 0.05271,0.060856 0.08433,0.1014257 0.242462,-0.025356 0.495467,-0.07607 0.737929,-0.065927 0.263547,0.010139 0.484926,-0.00508 0.643053,-0.07607 0.137044,0.020285 0.231921,0.050714 0.33734,0.050714 0.284629,0.00508 0.506008,0.091283 0.548176,0.2282085 0.189753,0 0.379506,0.015217 0.558718,-0.00508 0.126502,-0.010139 0.316258,-0.060856 0.326799,-0.1014257 0.02109,-0.065927 0.07379,-0.065927 0.158128,-0.070998 0.115959,-0.00508 0.495465,-0.035498 0.579801,-0.050714 0.07379,-0.015217 0.147585,-0.035498 0.221379,-0.035498 0.326796,0.010139 0.579801,-0.055783 0.80118,-0.1673531 0.126504,-0.060856 0.210837,-0.040571 0.305715,0.00508 -0.01056,0.020285 -0.02109,0.035498 -0.02109,0.050712 -0.04217,0.1774954 0.189756,0.2738505 0.55872,0.248494 0.210837,-0.015217 0.411132,-0.030428 0.527091,-0.096355 0.200295,0.025356 0.347883,0.055783 0.495468,0.055783 0.337338,0 0.674678,0 1.012016,-0.020285 0.253005,-0.015217 0.516552,-0.020285 0.737928,-0.096354 0.07379,-0.025358 0.210837,-0.010139 0.316257,0.00508 0.200295,0.020285 0.40059,0.050712 0.611427,0.081141 0.04216,-0.045642 0.07379,-0.086212 0.115962,-0.1115681 0.200295,-0.1217123 0.284628,-0.1927095 0.69576,-0.07607 0.115962,0.035498 0.274088,0.040571 0.432219,0.060856 0.06325,0.035498 0.147584,0.081141 0.263546,0.1369259 0.10542,-0.045642 0.189754,-0.081141 0.263546,-0.1217123 0.210837,-0.1267835 0.316252,-0.141997 0.632512,-0.096354 0.337335,0.050712 0.337335,0.050712 0.463842,-0.1217123 0.01057,-0.015217 0.03161,-0.030427 0.04216,-0.045642 0.105416,0 0.221377,0 0.326793,0 -0.115957,0.2028519 0.15813,0.39049 0.600885,0.3042778 0.08434,-0.015217 0.200296,-0.00508 0.295174,0 0.105416,0 0.200295,-0.020285 0.158126,-0.070997 -0.06324,-0.086212 0.0738,-0.1014257 0.168671,-0.1318528 0.115962,-0.035498 0.231919,-0.035498 0.337339,0.010139 0.05271,0.020285 0.105421,0.035498 0.15813,0.050714 0.231919,-0.050714 0.231919,-0.045642 0.527093,0 0.07379,0.010139 0.189753,0.010139 0.253001,-0.010139 0.189754,-0.055783 0.421676,-0.020285 0.611426,-0.091283 0.147589,-0.055783 0.337343,0 0.442759,0.096354 -0.07379,0.030429 -0.137044,0.055783 -0.210836,0.086212 0.284632,0.1064987 0.790642,0.141997 1.01202,0.055783 0.200294,-0.081141 0.379507,-0.081141 0.548174,-0.00508 0.115962,-0.035498 0.210837,-0.065927 0.337339,-0.1014257 0.05271,0.060856 0.07379,0.096354 0.115961,0.1419971 0.158127,-0.010139 0.316253,-0.025358 0.474383,-0.030428 0.179212,-0.010139 0.347879,-0.015217 0.527092,-0.015217 0.210837,-0.00508 0.411132,0.025356 0.621967,-0.015217 0.09488,-0.020285 0.242465,-0.020285 0.326802,0.00508 0.390048,0.1115681 0.822262,0.045642 1.222852,0.040571 0.463841,0 0.948769,-0.065927 1.3599,-0.1977809 0.179212,-0.055783 0.305711,-0.04057 0.390046,0.060856 0.08434,0.1014257 0.221376,0.141997 0.432216,0.1470682 0.137044,0 0.263544,0.010139 0.40059,0.010139 0.305715,0 0.379504,-0.025358 0.421674,-0.1622818 0.0106,-0.025356 -0.03165,-0.055783 -0.05271,-0.091283 0.30571,0.055783 0.579801,0.1014257 0.843345,0.1572106 0.126505,0.025358 0.22138,0.025358 0.347886,0 0.263544,-0.055783 0.537629,-0.060856 0.822259,-0.050712 0.21084,0.00508 0.421675,0.015217 0.632515,0.030428 0.05271,0.00508 0.09487,0.020285 0.158125,0.035498 -0.04215,0.040571 -0.07379,0.07607 -0.1265,0.136924 0.400589,0.015217 0.75901,0.055783 1.127975,0.030427 0.295175,-0.020285 0.60089,-0.035498 0.89606,0.025356 0.11596,0.025358 0.22138,0.015217 0.305715,-0.030428 0.08433,-0.050712 0.179209,-0.091283 0.126499,-0.1724242 -0.06324,-0.096353 -0.08433,-0.1977786 -0.126495,-0.309347 0.11596,0.00508 0.18975,0.015217 0.263545,0.010139 0.07379,0 0.147585,-0.00508 0.200295,-0.020285 0.22138,-0.065927 0.379505,-0.045642 0.463839,0.070999 0.04215,0.050712 0.05271,0.1014257 0.08434,0.1622818 0.15813,-0.040572 0.27409,-0.1217123 0.4533,-0.035498 0.10542,0.050712 0.242465,0.091283 0.358425,0.1369258 0.137045,0.055783 0.263545,0.1115681 0.368965,0.1521394 0.158125,-0.00508 0.28463,-0.020285 0.400589,-0.010139 0.263546,0.025358 0.506006,0.081141 0.769556,0.091285 0.231919,0.010139 0.50601,-0.00508 0.716844,-0.055783 0.137046,-0.030428 0.263544,-0.070997 0.390048,-0.050712 0.126504,0.020285 0.221376,0.081141 0.368964,0.1419971 0.09488,-0.015217 0.242466,-0.040571 0.390048,-0.070999 0.242466,0.060856 0.495468,0.050712 0.748476,-0.015217 0.316253,-0.081141 0.611423,-0.055783 0.843341,0.060856 0.179214,-0.00508 0.34788,-0.025356 0.516552,-0.020285 0.189756,0.00508 0.368964,0.020285 0.55872,-0.010139 0.07379,-0.010139 0.189756,-0.00508 0.253008,0.010139 0.06325,0.015217 0.08433,0.065927 0.13704,0.1064968 0.474384,-0.020284 0.938226,0.045642 1.41261,0.015217 -0.01056,-0.060856 -0.02106,-0.096354 -0.04218,-0.1673529 0.200292,0.040571 0.34788,0.086212 0.495468,0.096354 0.168666,0.010139 0.34788,-0.020285 0.527088,-0.025358 0.05274,0 0.09488,0.025358 0.147588,0.030429 0.03168,0.00508 0.06325,0 0.115956,0.00508 0.01062,-0.040571 0.03168,-0.081141 0.04218,-0.1115681 0.137046,0 0.274092,0.020285 0.36897,-0.00508 0.15813,-0.040571 0.274086,-0.015217 0.358422,0.035498 0.147588,0.086212 0.326802,0.096354 0.537636,0.1014256 0.210834,0.00508 0.432216,0.025358 0.621972,0.065926 0.105414,0.020285 0.18975,0.07607 0.32679,0.055783 0.12651,-0.020285 0.253008,-0.040571 0.36897,-0.070998 0.08433,-0.020285 0.147582,-0.070997 0.242466,-0.086212 0.147582,-0.020285 0.305706,-0.030427 0.4533,-0.025356 0.05268,0 0.09487,0.060856 0.147582,0.091283 0,0 0,-0.00508 0.01062,-0.00508 0,0 0.01062,0 0.01062,0 l -0.01062,0.00508 c 0,0 0,0 0,0 -0.03168,0.020285 -0.06325,0.035498 -0.09488,0.055783 0.04218,0.020285 0.09488,0.050712 0.147594,0.055783 0.221363,0.010139 0.432209,-0.010139 0.716837,-0.045642 -0.337338,-0.086208 -0.390048,-0.212991 -0.453294,-0.3651301 0.189762,0.00508 0.34788,0.010139 0.516552,0.015217 0.10542,0.1217123 0.05268,0.2637077 0.337338,0.3499198 0.07379,-0.030427 0.147588,-0.060856 0.221376,-0.096354 0.21084,0.025356 0.421674,0.060856 0.64305,0.07607 0.21084,0.015217 0.42168,0.00508 0.674682,0.00508 -0.10542,-0.04057 -0.221382,-0.065928 -0.231918,-0.096355 -0.03168,-0.081141 -0.147588,-0.111568 -0.274092,-0.1470682 -0.06325,-0.015217 -0.13704,-0.060856 -0.126498,-0.081141 0.02106,-0.040571 0.09488,-0.1115681 0.147588,-0.1115681 0.18975,0 0.34788,-0.1470682 0.516546,-0.055783 0.15813,0.086212 0.358422,0.081141 0.527094,0.1166392 v 0.00508 c 0,0 0,0 0,0 v 0 c 0.03168,0 0.05274,0 0.08433,0 v -0.00508 c 0.274092,-0.1014256 0.548178,-0.060856 0.832812,-0.035498 0.01062,0.030428 0.01062,0.035498 0.01062,0.040571 -0.01062,0.015217 -0.02106,0.030429 -0.03168,0.045642 -0.08434,0.1217104 -0.08434,0.1217104 0.15813,0.1876383 0.08434,0.025358 0.168684,0.055785 0.231924,0.086212 0.189762,0.091285 0.40059,0.1470683 0.68523,0.1419971 0.34788,-0.010139 0.695742,0 1.04364,-0.00508 0.08433,0 0.168672,-0.020285 0.24246,-0.025358 -0.03168,-0.055783 -0.05274,-0.096354 -0.08433,-0.1673531 0.26355,0.086212 0.474372,0.07607 0.71685,0.045642 0.18975,-0.025356 0.421662,-0.00508 0.62196,0.020285 0.221382,0.025358 0.42168,0.07607 0.63252,0.1115681 0.05274,0.010139 0.105402,0.00508 0.168659,0.010139 0.10542,0.010139 0.21084,0.010139 0.31626,0.025356 0.21084,0.030428 0.26355,0.015217 0.305712,-0.1014256 0.01056,-0.020285 0.02106,-0.040571 0.03162,-0.060856 0.11595,-0.015217 0.22137,-0.030428 0.337338,-0.045642 -0.03168,-0.04057 -0.05274,-0.081141 -0.0738,-0.1166392 0.168672,-0.096354 0.168672,-0.091283 0.36897,-0.086212 0.08433,0.00508 0.179202,-0.010139 0.253002,-0.025356 0.25299,-0.055783 0.51654,-0.065927 0.790638,-0.060856 0.02106,0 0.03168,0.015217 0.05274,0.025356 -0.03162,0.035498 -0.06322,0.065927 -0.10542,0.1014256 0.01056,0.010139 0.03168,0.015217 0.04212,0.025358 0.0738,-0.015217 0.15813,-0.030428 0.231918,-0.045642 0.01056,0.010139 0.02106,0.015217 0.03168,0.025358 0.06322,0.2231376 0.06322,0.2079235 0.50601,0.1927095 0.31626,-0.015217 0.63252,-0.020285 0.9066,0.1166393 0.200292,0.1014256 0.495462,0.1267834 0.76956,0.045642 0.18975,-0.055783 0.3795,-0.096354 0.59034,-0.1318546 0.253002,-0.045642 0.48492,-0.065927 0.737922,-0.00508 0.09488,0.020285 0.21084,0.010139 0.31626,0.020285 0.200298,0.025358 0.47439,-0.020285 0.548178,0.1318528 0.06322,-0.035498 0.13704,-0.070998 0.200292,-0.1064969 0.02106,0.00508 0.03168,0.010139 0.05274,0.015217 -0.03168,0.045642 -0.0738,0.086212 -0.126498,0.1572106 0.40059,-0.1115699 0.769548,-0.1622818 1.18068,-0.091283 0.06323,0.010139 0.179219,-0.015217 0.242459,-0.035498 0.24246,-0.081141 0.23193,-0.2028519 0,-0.3245632 0.137058,-0.060856 0.29517,-0.1419971 0.495468,-0.096354 0.15813,0.035498 0.358422,0.1014257 0.28464,0.2231372 -0.01056,0.010139 0.01056,0.030429 0.03162,0.030429 0.231912,0.015217 0.06322,0.1064969 0.126492,0.1521395 0.411138,0.1014257 0.411138,0.1014257 0.674688,0.086212 0.05274,-0.1977809 0.210822,-0.2484939 0.55872,-0.167353 0.08433,0.020285 0.18975,0.055785 0.22137,0.096354 0.0738,0.1064987 0.200292,0.096354 0.36897,0.065927 0.06322,-0.010139 0.15813,-0.020285 0.22137,-0.010139 0.305712,0.050714 0.590352,0.030428 0.85389,-0.025358 0.189762,0.025358 0.36897,0.050712 0.50601,0.070997 0.115962,-0.091283 0.189762,-0.167353 0.29517,-0.2383512 0.12651,-0.086212 0.28464,-0.1622818 0.44277,-0.2535653 0.08433,0.00508 0.231912,0.00508 0.34788,0.030427 0.09487,0.020285 0.200292,0.060856 0.22137,0.1064987 0.04218,0.07607 0.01056,0.1572106 0.02106,0.2383514 0,0.035498 0.02106,0.065927 0.04212,0.1115681 0.115968,-0.040571 0.200304,-0.07607 0.305718,-0.1115681 0.221376,0.1318546 0.484926,0.025356 0.727386,0.045642 0.02106,0 0.06322,-0.015217 0.0738,-0.025356 0.0738,-0.07607 0.137046,-0.1572107 0.200292,-0.23328 0.03168,-0.040572 0.03168,-0.086212 0.06323,-0.1521394 0.06322,0.050714 0.115956,0.070998 0.115956,0.096354 0.06323,0.23328 0.36897,0.3397775 0.811728,0.3854193 0.03168,0.00508 0.06322,0.00508 0.05274,0.00508 0.115955,-0.030428 0.189749,-0.060856 0.284633,-0.070997 0.168666,-0.015217 0.316254,-0.040571 0.40059,-0.1267835 0.06322,-0.060856 0.18975,-0.081141 0.316254,-0.035498 0.137046,0.050712 0.263538,0.1166393 0.411132,0.1774954 0.158124,0.015217 0.337338,0.030427 0.527094,0.045642 0.168666,0.015217 0.326796,0.020285 0.474384,-0.045642 0.179208,-0.081141 0.263538,-0.070998 0.368958,0.04057 0.06323,0.065927 0.147588,0.086212 0.284628,0.070998 0.09487,-0.010139 0.189756,-0.020285 0.284634,-0.030427 -0.01056,-0.025356 -0.02106,-0.040571 -0.02106,-0.055783 0,0 -0.01056,0.00508 -0.01056,0.00508 l -0.0105,-0.00508 0.02106,0.00508 c 0,0 0,0 0,0 0.158118,-0.07607 0.316248,-0.1521394 0.46383,-0.2282086 0,0 0,0 -0.0105,-0.00508 -0.06322,0.00508 -0.126492,0.015217 -0.21084,0.020285 0.09488,-0.07607 0.09488,-0.081141 0.21084,-0.020285 0,0 0.0105,0 0.0105,0 0,0 -0.0105,0.00508 -0.0105,0.00508 0,0 0,0 0,0 0.09488,0.00508 0.18975,0.00508 0.284628,0.015217 0.08434,0.010139 0.179215,0.040571 0.253005,0.035498 0.29518,-0.020285 0.54817,0.045642 0.80118,0.1064969 0.11596,0.030427 0.24247,0.055783 0.34789,0.081141 0.31625,-0.111568 0.51654,-0.111568 0.82226,-0.00508 0.253,0.086212 0.60088,0.060856 0.71685,-0.060856 0.0422,-0.050712 0.0843,-0.096354 0.22137,-0.1115681 0.13705,-0.015217 0.22138,0.010139 0.31626,0.060856 0.24246,0.1166393 0.5271,0.2231372 0.88552,0.1622818 0.31625,-0.055783 0.68522,0 0.9593,-0.1166393 0.0421,-0.020285 0.14758,-0.00508 0.23193,0.00508 0.11596,0.010139 0.253,0.020284 0.34788,0.050714 0.22138,0.070998 0.40059,0.040571 0.57981,-0.035498 0.13704,-0.050714 0.26353,-0.065927 0.43221,-0.030427 0.0843,0.020285 0.23191,0.015217 0.31626,-0.010139 0.21082,-0.060856 0.3795,-0.040571 0.60088,0.010139 0.21083,0.045642 0.47438,0.065927 0.71683,0.065927 0.23193,-0.00508 0.49548,-0.025358 0.61143,-0.1572106 0.0106,-0.015217 0.0632,-0.015217 0.0738,-0.030428 0.0317,-0.030429 0.0738,-0.060856 0.0844,-0.091285 0.0211,-0.096355 0.14758,-0.1318529 0.3057,-0.07607 0.0843,0.025358 0.13705,0.086212 0.22138,0.096354 0.35843,0.030428 0.7274,0.065927 1.09635,0.060856 0.21084,-0.00508 0.37952,0.00508 0.56927,0.055785 0.32679,0.091283 0.67467,0.141997 1.06473,0.086212 0.10542,-0.015217 0.22137,-0.015217 0.32679,-0.00508 0.22138,0.015217 0.43222,0.07607 0.64305,-0.010139 0.0211,-0.010139 0.0843,0 0.12651,0.00508 0.253,0.020285 0.49546,0.055785 0.74847,0.060856 0.27409,0.00508 0.52708,0.040571 0.78009,0.065927 0.24247,0.025356 0.49548,0.045642 0.72739,0.020285 0.13704,-0.015217 0.23192,-0.1217105 0.34788,-0.1825669 0.0211,-0.010139 0.0527,-0.025356 0.0632,-0.035498 0.0632,-0.045642 0.13705,-0.060856 0.253,-0.055783 0.33735,0.015217 0.37952,0.035498 0.42168,0.2079235 0,0.015217 0.0211,0.030428 0.0421,0.060856 0.16868,-0.025358 0.35843,-0.035498 0.49547,-0.081141 0.0632,-0.020285 0.0422,-0.1014257 0.0632,-0.1572106 0.0317,-0.00508 0.0738,-0.015217 0.0949,-0.010139 0.20029,0.050712 0.40059,0.060856 0.62197,0.040572 0.0738,-0.00508 0.22139,0.020284 0.25301,0.050712 0.12651,0.1064968 0.33733,0.1267834 0.55872,0.1521394 0.14758,0.015217 0.30571,0.050712 0.41113,-0.045642 0.0106,-0.010139 0.0843,-0.020285 0.11596,-0.015217 0.11597,0.025356 0.17921,0.010139 0.26354,-0.030429 0.0317,-0.015217 0.13704,-0.015217 0.18976,-0.00508 0.1265,0.025356 0.24247,0.050714 0.34788,0.091283 0.16868,0.065927 0.35843,0.045642 0.54818,0.050712 0.17921,0.00508 0.16867,-0.07607 0.25301,-0.1064968 0.0105,-0.00508 0.0422,-0.00508 0.0738,-0.00508 0.0317,0.030427 0.0632,0.065927 0.0949,0.091283 0.14759,-0.045642 0.29517,-0.070997 0.40059,-0.1217123 0.11596,-0.050712 0.16867,-0.1267835 0.28464,-0.1825666 0.0738,-0.035498 0.18975,-0.055785 0.29517,-0.07607 0.1265,-0.025356 0.253,0.010139 0.28462,0.070998 0.0211,0.035498 0.0211,0.070997 0.0211,0.1014257 0.43221,0.1064987 0.43221,0.1064987 0.93822,-0.141997 0.16867,0.045642 0.42167,0.070997 0.50601,0.141997 0.1265,0.1115681 0.29517,0.091285 0.47438,0.091285 0.10542,0 0.23192,0.010139 0.30572,0.040571 0.23192,0.091283 0.506,0.1166393 0.78009,0.1217123 0.14759,0 0.28463,0.010139 0.42167,0.025356 0.36897,0.030427 0.74847,0.070998 1.05419,-0.1064969 0.22138,-0.1318529 0.56926,-0.1521394 0.88552,-0.1521394 0.22137,0 0.42167,-0.015217 0.62196,-0.045642 0.12651,-0.020285 0.24246,-0.040571 0.36897,-0.060856 0.0843,0.202852 -0.2003,0.268779 -0.5271,0.3296346 0.0632,0.025358 0.0949,0.050711 0.12651,0.050711 0.43221,0.010138 0.86443,0.020286 1.29665,0.025355 0.0738,0 0.15812,-0.025355 0.20029,-0.050712 0.12651,-0.065927 0.27409,-0.070998 0.43222,-0.035498 0.28463,0.065927 0.56926,0.040571 0.85389,0.020285 0.2003,-0.015217 0.26354,-0.055783 0.27409,-0.1521394 0.0105,-0.1622819 0.0421,-0.1774954 0.39004,-0.1927096 0.22138,-0.010139 0.44276,-0.025356 0.66414,-0.020285 0.15813,0 0.33734,0 0.4533,0.040572 0.24246,0.07607 0.6536,0.096354 0.49547,0.3194919 0.13704,0.030427 0.253,0.04057 0.33733,-0.020285 -0.15812,-0.1825669 -0.14758,-0.2434227 0.12651,-0.3144208 0.11596,-0.030428 0.27408,-0.025356 0.41114,-0.025356 0.21084,0.00508 0.42168,0.015217 0.66414,0.030428 0.31625,0.1521394 0.7063,0.2079233 1.18069,0.1521394 0.32679,-0.035498 0.42167,-0.015217 0.5798,0.1369258 0.0949,0.091285 0.21083,0.1521393 0.4322,0.1419968 0.43222,-0.020286 0.86444,0.04057 1.30721,-0.00508 0.22136,-0.020286 0.39004,-0.040571 0.51654,-0.1470682 0.13705,-0.1217122 0.50601,-0.1876377 0.75902,-0.1419969 0.30571,0.055783 0.56926,0.025358 0.84334,-0.040572 0.23193,-0.055783 0.4533,-0.060856 0.67468,0 0.22139,0.060856 0.44276,0.050712 0.68522,0.025358 0.27409,-0.030427 0.55872,-0.055783 0.83281,-0.050712 0.27409,0.00508 0.55872,0.035498 0.81173,0.086212 0.48492,0.1014257 0.85389,0.091283 1.25448,-0.081141 0.0211,-0.010139 0.0632,-0.015217 0.10541,-0.020285 0.0317,0.015217 0.0632,0.030428 0.0843,0.045642 0.17921,0.1217105 0.44275,0.1064986 0.60088,-0.020285 0.0632,-0.050712 0.17921,-0.086212 0.28463,-0.1217123 0.0843,-0.025356 0.2003,-0.030427 0.27409,-0.060856 0.25301,-0.096354 0.48493,-0.086212 0.72739,0.00508 0.17921,0.065927 0.33733,0.1622818 0.62197,0.1318546 0.0421,-0.00508 0.0949,0.020285 0.14758,0.030428 0.10542,0.020285 0.21084,0.045642 0.31626,0.050714 0.27409,0.00508 0.55871,0 0.8328,0 0.14759,0 0.29518,0.00508 0.43222,0.010139 0.0632,0 0.1265,0.015217 0.20029,0.015217 0.2003,0.00508 0.24247,-0.025358 0.23193,-0.1267834 -0.0106,-0.045642 -0.0211,-0.1014257 0.0106,-0.1419971 0.0949,-0.1217122 0.0843,-0.2484937 0.0527,-0.3904901 -0.0738,0.106497 -0.1476,0.1572107 -0.32682,0.096355 z M 2.487866,1.5427789 C 2.466782,1.5326329 2.456241,1.5224934 2.435157,1.5123518 c 0.021084,-0.00508 0.031625,-0.015213 0.052709,-0.015213 0.031625,0 0.063251,0.010146 0.1054185,0.015213 -0.073793,0.025357 -0.1054185,0.035499 -0.1054185,0.030427 z M 2.846289,1.3804971 C 2.772496,1.3652836 2.7197867,1.3145698 2.698703,1.2739998 2.688161,1.2435716 2.761954,1.2131434 2.846289,1.1472172 c 0.094877,0.07607 0.1686695,0.1166401 0.1792115,0.1572104 0.021084,0.060855 -0.073793,0.1014264 -0.1792115,0.07607 z m 0.274088,0.5933426 c 0.010542,-0.00508 0.010542,-0.010139 0.010542,-0.015217 0.010542,0 0.021084,0 0.021084,0.00508 -0.010542,0.00508 -0.021084,0.010139 -0.031625,0.010139 z m 0.4743834,0.1521394 c -0.010542,0 -0.021084,-0.015217 -0.021084,-0.020285 0.021084,0 0.042167,-0.00508 0.063251,0 0.010542,0 0.021084,0.015217 0.031625,0.020285 -0.031625,0 -0.063251,0.00508 -0.073793,0 z M 5.5133768,2.3592589 C 5.5660858,2.3136163 5.6082538,2.2730468 5.6504204,2.227406 5.7769228,2.3440453 5.7663808,2.3440453 5.5133768,2.3592589 Z M 4.8176146,1.2385008 C 5.0706189,1.2638577 5.3552489,1.1725735 5.5871699,1.344998 5.3657909,1.3602134 5.1971214,1.3703549 5.0389934,1.3804965 4.9652008,1.3399264 4.9019491,1.294285 4.8176146,1.2385008 Z m 0.5481763,1.3692514 c -0.1265025,-0.025357 -0.1370445,-0.076069 -0.094877,-0.152139 0.200295,0.010139 0.379506,0 0.4638414,0.1115699 -0.1159605,0.050712 -0.242463,0.065927 -0.3689644,0.040569 z M 9.1608565,1.4413528 c 0.010548,0.030428 0.021084,0.060855 0.031626,0.091285 0,0 -0.05271,0.010146 -0.05271,0.00508 -0.031626,-0.030427 -0.05271,-0.055783 -0.073793,-0.086213 0.031626,0 0.063248,-0.00508 0.094877,-0.010146 z M 8.9289361,2.1716204 c 0,0 0.021084,0.00508 0.021084,0.00508 0,0.00508 -0.010548,0.015217 -0.021084,0.020285 -0.010548,-0.00508 -0.031626,-0.010139 -0.042168,-0.015217 0.021084,-0.00508 0.031626,-0.010139 0.042168,-0.010139 z M 8.7602665,1.3551406 C 8.6443064,1.4667099 8.6443064,1.4667099 8.4123854,1.3906397 8.5494296,1.3804937 8.6337644,1.3703542 8.7602665,1.3551406 Z M 7.9801694,1.2892143 c 0.1265022,-0.035498 0.242463,-0.00506 0.3795066,0.060856 -0.1370436,0.030429 -0.2530044,0.050712 -0.3689646,0.07607 -0.031626,-0.010146 -0.05271,-0.015213 -0.084335,-0.025356 0.021084,-0.035499 0.021084,-0.096354 0.073793,-0.11157 z M 9.7090332,2.6939649 C 9.5087383,2.7142504 9.2662753,2.7142504 9.0765223,2.6331095 8.8973101,2.5570405 8.7075572,2.4860417 8.5178036,2.4150435 c 0,0 0,0 0,0 0,0.00508 0,0.00508 -0.010548,0.010139 0,0.025358 0,0.045642 0,0.070999 -0.010536,0 -0.031626,-0.00508 -0.042162,-0.00508 0.010542,-0.020285 0.031626,-0.045642 0.042162,-0.065927 0,-0.00508 0,-0.010139 0,-0.015217 0,0 0,0 0.010548,0 -0.031626,-0.040571 -0.063247,-0.081141 -0.094876,-0.1217104 0,0 -0.010548,0 -0.010548,0 0,-0.00508 -0.010542,-0.00508 -0.010542,-0.010139 C 8.2858772,2.2527557 8.169917,2.2324702 8.0644982,2.202043 7.948538,2.1716159 7.8431193,2.1310449 7.6849917,2.0803317 c 0.031626,0.065927 0.05271,0.1014257 0.073793,0.1470682 -0.1054188,0.040571 -0.231921,0.050714 -0.3373398,0.00508 C 7.2844001,2.1716222 7.1684405,2.1006255 7.010313,2.0194837 c 0.1475855,0 0.2740871,0.010139 0.3795059,-0.00508 0.1159608,-0.015217 0.2108376,-0.055783 0.3373398,-0.086212 0.084335,0.065927 0.1581276,0.1267835 0.2530037,0.1927099 0.073793,-0.045642 0.1370448,-0.086212 0.2002962,-0.1267835 0.179211,0.035498 0.2319198,0.1014257 0.168669,0.1774954 -0.042168,0.050712 0,0.07607 0.05271,0.1064987 0.010542,0 0.010542,0.00508 0.021084,0.00508 0,0 0,0 0,0 0.084335,-0.015217 0.1581276,-0.025356 0.2846304,-0.045642 0.1054181,0.055783 0.2319203,0.1217122 0.3478805,0.1927095 0.1581276,0.1014257 0.2108376,0.1064987 0.4533006,0.045642 0.063248,-0.015217 0.1475849,-0.020285 0.2108363,-0.025356 0.031626,0.015217 0.05271,0.020285 0.05271,0.030428 0,0.081141 0.158127,0.1876381 -0.063247,0.2129952 z M 10.046372,2.4911132 c -0.01055,-0.010139 -0.01055,-0.015217 -0.02108,-0.025356 0,0 0.02108,-0.010139 0.02108,-0.00508 0.01054,0.00508 0.03163,0.010139 0.04216,0.015217 -0.01055,0.00508 -0.03163,0.010139 -0.04216,0.015217 z m 0.316256,-0.7353389 c 0.04216,0.00508 0.06325,0.00508 0.09488,0.010146 -0.01054,0.00508 -0.02108,0.010146 -0.04216,0.020286 -0.02108,-0.00508 -0.03163,-0.015214 -0.05271,-0.030427 z m 0.263546,0.3702052 c -0.06325,0.065927 -0.126502,0.030429 -0.200296,-0.010139 0.05271,-0.020285 0.105419,-0.035498 0.179212,-0.060856 0.01055,0.035498 0.03163,0.055783 0.02108,0.070998 z m 0.938225,-0.4919172 c -0.04217,-0.050713 -0.105419,-0.096355 -0.08433,-0.111568 0.04217,-0.025357 0.137044,-0.035499 0.200295,-0.050713 0.01055,0.010146 0.03163,0.025357 0.05271,0.035499 -0.05271,0.035499 -0.09488,0.065927 -0.16867,0.1267829 z m 0.4533,-0.1014263 c -0.02108,0 -0.06325,-0.020285 -0.05271,-0.030428 0,-0.010146 0.03163,-0.025357 0.06325,-0.030429 0.02108,0 0.04216,0.015214 0.07379,0.025357 -0.03163,0.020285 -0.05271,0.035499 -0.08433,0.0355 z m 0.210837,1.1359719 c -0.03163,-0.010139 -0.05271,-0.025358 -0.08434,-0.040571 0.02108,-0.010139 0.05271,-0.025358 0.06325,-0.025358 0.03163,0.00508 0.06325,0.020285 0.105418,0.035498 -0.04217,0.015217 -0.07379,0.035498 -0.08433,0.030427 z m 0.980391,-0.400633 c 0.02108,0.010139 0.04217,0.020284 0.04217,0.030427 0,0.010139 -0.03163,0.020285 -0.06325,0.035498 -0.02108,-0.015217 -0.05271,-0.030429 -0.04216,-0.040572 0,-0.010139 0.03163,-0.020285 0.06325,-0.025356 z m -0.368965,-1.64310204 0.02108,0.005073 -0.03163,0.005073 z m -0.02108,1.56703244 c 0.02108,0 0.07379,0.030429 0.06325,0.040572 -0.01054,0.015217 -0.05271,0.025356 -0.09488,0.045642 -0.04216,-0.020285 -0.06325,-0.035498 -0.09488,-0.050714 0.05271,-0.010139 0.08433,-0.030427 0.126502,-0.035498 z M 12.555335,2.633109 c -0.02108,-0.065927 -0.04216,-0.1217123 -0.06325,-0.1876386 0.337339,-0.060856 0.643053,-0.025356 0.938224,0.050714 0,0.015217 0,0.025356 0,0.04057 -0.28463,0.030427 -0.569259,0.060856 -0.874973,0.096354 z M 14.57937,2.5113967 c -0.02108,-0.020285 -0.02108,-0.060856 0,-0.07607 0.115961,-0.070998 0.105419,-0.1470683 0.06325,-0.2282086 -0.01055,-0.025358 0.03163,-0.070998 0.08433,-0.091283 0.03163,-0.010139 0.126503,0.00508 0.179211,0.020284 0.126503,0.045642 0.210837,0.096355 0.231922,0.182567 0.02108,0.086212 0.126502,0.167353 0.210837,0.2586365 -0.253004,0.086212 -0.643053,0.055783 -0.769556,-0.065927 z m 1.317732,-0.050712 c 0,0 -0.01055,0.00508 -0.01055,0.00508 0,0 -0.01055,0 -0.01055,-0.00508 -0.04216,0.020285 -0.06325,0.055785 -0.11596,0.065927 -0.04217,0.00508 -0.115961,-0.010139 -0.168669,-0.025358 -0.01055,-0.00508 0,-0.050714 0.02108,-0.055783 0.04216,-0.010139 0.105418,-0.015217 0.16867,-0.015217 0.03163,0 0.06325,0.020285 0.09488,0.030429 0,0 0,0 0,0 0.01055,0 0.02108,0 0.02108,0 0.02108,-0.010139 0.03163,-0.020285 0.05271,-0.030429 0.01054,0.00508 0.02108,0.010139 0.02108,0.020285 -0.02108,0 -0.04216,0.00508 -0.07379,0.010139 z m 1.265022,0.1115681 c -0.04216,-0.00508 -0.07379,-0.010139 -0.115961,-0.020285 0,-0.010139 0.01055,-0.015217 0.01055,-0.025358 0.07379,0.00508 0.147586,0.010139 0.210837,0.015217 0,0.010139 0,0.015217 0.01055,0.025356 -0.03163,0.00508 -0.07379,0.010139 -0.11596,0.00508 z m 0.548178,-0.2586372 c -0.02108,0 -0.04217,0 -0.06325,0 0,-0.025356 0.01055,-0.050712 0.01055,-0.07607 0.02108,0 0.05271,0.00508 0.05271,0.00508 0.01054,0.020285 0.01054,0.045642 0,0.070997 z m 1.749947,0.2231374 c -0.01055,-0.00508 -0.02108,-0.010139 -0.03163,-0.015217 0,0 0.01055,-0.00508 0.01055,-0.010139 0.01055,0.00508 0.02108,0.010139 0.03163,0.015217 0,0 -0.01055,0.00508 -0.01055,0.010139 z M 20.14547,1.6391324 c -0.06325,-0.04057 -0.210837,-0.086213 -0.210837,-0.1267831 0.01054,-0.081141 0.200295,-0.060855 0.326796,-0.070998 0.221379,-0.015214 0.242463,0 0.253005,0.1318534 -0.11596,0.015213 -0.221379,0.035499 -0.368964,0.065928 z M 20.725271,2.501254 C 20.83069,2.445471 20.925566,2.425184 21.094236,2.486037 20.957191,2.54182 20.862315,2.577322 20.725271,2.501254 Z M 21.36832,2.83596 c -0.01055,0.00508 -0.03163,-0.00508 -0.05271,-0.010139 0.01054,-0.010139 0.01054,-0.020285 0.02108,-0.025356 0.01054,-0.00508 0.03163,0.00508 0.05271,0.010139 -0.01055,0.010139 -0.01055,0.020285 -0.02108,0.025356 z m 1.402065,-1.2424688 c -0.189753,-0.020285 -0.316255,0.010146 -0.432215,0.081141 -0.05271,0.035498 -0.168669,0.055783 -0.263546,0.086213 -0.263547,-0.126783 -0.548176,-0.1622816 -0.864432,-0.040571 -0.03163,-0.1064972 0.03163,-0.1622816 0.189753,-0.1774953 0.263547,-0.030428 0.516551,-0.055783 0.780097,-0.081141 0.06325,-0.00508 0.137045,0.025357 0.200296,0.025357 0.04217,0 0.09488,-0.020285 0.137044,-0.030427 0,0 0,0 0,0 h -0.02108 l 0.02108,-0.00508 c 0,0 0,0 0,0 h 0.01055 c 0,0 0,0 -0.01055,0 0.04217,0.040571 0.105418,0.055785 0.210837,0.045642 0.09488,-0.010146 0.221379,-0.040571 0.326797,0.025357 -0.05271,0.060855 -0.158128,0.081141 -0.284631,0.070998 z m 1.539111,0.086213 c -0.06325,0.015214 -0.147586,0.025357 -0.221379,0.020285 -0.11596,0 -0.147586,-0.035499 -0.11596,-0.091285 0.06325,-0.1014265 0.40059,-0.1876386 0.621969,-0.1673531 0.11596,0.010146 0.231921,0.020285 0.432216,0.040571 -0.28463,0.081141 -0.495467,0.1419963 -0.716846,0.1977821 z m 0.674679,-0.4716308 c -0.09488,0.050711 -0.210837,0.065927 -0.358424,0.030429 -0.274088,-0.070998 -0.56926,-0.091284 -0.874973,-0.091284 -0.126503,0 -0.263546,-0.010146 -0.40059,-0.015215 -0.03163,-0.091283 0.05271,-0.1166401 0.168669,-0.1115687 0.137044,0.00506 0.221379,-0.0253572 0.337339,-0.0557841 0.358423,-0.10649726 0.864432,-0.0659266 1.085811,0.0862122 0.06325,0.045642 0.137044,0.101426 0.04216,0.1572104 z m 2.572211,0.2383513 c -0.01055,0 -0.02108,0 -0.03163,0 0,-0.010146 0.01054,-0.015214 0.01054,-0.025357 0.01054,0.00508 0.02108,0.00508 0.02108,0.010146 0.01055,0.00508 0.01055,0.010146 0,0.015214 z m 2.203247,0.015214 c -0.02108,-0.035499 -0.05271,-0.065927 -0.08434,-0.1217112 0.16867,0.025355 0.158128,0.065927 0.08434,0.1217112 z M 29.106038,0.59444567 v 0.0101423 l -0.02108,-0.005073 z m 0.03163,0.93819083 -0.02108,-0.00508 0.02108,0.00508 c -0.01054,-0.00508 -0.01054,-0.00508 0,0 -0.04217,-0.030427 -0.09488,-0.055783 -0.137043,-0.086213 0.137043,-0.045642 0.242462,-0.1267825 0.421674,-0.015214 -0.105418,0.030428 -0.200295,0.065927 -0.28463,0.1014264 0,-0.00508 0,-0.00508 -10e-7,6e-7 z m 0.569261,0.2586363 c -0.05271,0.035499 -0.168669,0.065927 -0.274088,0.070998 -0.16867,0.015217 -0.16867,-0.065927 -0.221379,-0.1166396 0.137043,-0.060855 0.358422,-0.076069 0.33734,-0.1876384 0,-0.010146 0.126501,-0.050713 0.179211,-0.040571 0.05271,0.00508 0.126502,0.055783 0.11596,0.081141 -0.03163,0.065927 -0.06326,0.136925 -0.137044,0.19271 z M 30.20239,0.3865219 v 0 c -0.01053,0 0,0 0,0 z m 0,2.0741627 c -0.06325,-0.00508 -0.126501,-0.015217 -0.189753,-0.020285 0.01056,-0.020285 0.02109,-0.040571 0.03163,-0.055783 0.06325,0.010139 0.126504,0.020285 0.189753,0.030428 -0.01056,0.010139 -0.02109,0.025358 -0.03163,0.045642 z m 0.896056,-0.9280481 c -0.168669,-0.2079235 0.07379,-0.2839929 0.569259,-0.2180661 -0.04217,0.1622818 -0.29517,0.1977808 -0.569259,0.2180661 z m 3.858318,-0.1318534 c -0.04217,0.015214 -0.115962,0.00508 -0.168669,0.00508 0,-0.030427 -0.01056,-0.070998 0.02109,-0.086212 0.05271,-0.020285 0.147585,-0.025355 0.221379,-0.040571 0.01056,0.015214 0.03163,0.025357 0.04217,0.040571 -0.04217,0.030429 -0.07379,0.065927 -0.115962,0.081141 z m 1.475859,1.054831 c -0.01053,-0.00508 -0.02109,-0.010139 -0.02109,-0.010139 0.01056,-0.010139 0.02109,-0.015217 0.02109,-0.025356 0.01056,0.00508 0.01056,0.00508 0.02109,0.010139 0,0.010139 -0.01056,0.015217 -0.02109,0.025356 z m 0.01056,-0.3549912 c 0.01056,-0.015217 0.02109,-0.030427 0.03163,-0.045642 0.115962,0.025356 0.231921,0.045642 0.347883,0.070998 -0.179211,0.060856 -0.263547,0 -0.379506,-0.025356 z m 0.74847,0.5122017 c -0.01056,-0.00508 -0.02109,-0.015217 -0.02109,-0.025356 0.02109,0 0.04217,-0.010139 0.05271,-0.00508 0.01056,0.00508 0.02109,0.015217 0.03163,0.025358 -0.03163,0 -0.05271,0.00508 -0.06326,0.00508 z m 3.310142,-1.3591092 c -0.01054,0 -0.02107,0 -0.02107,0 0,-0.00505 0,-0.010146 0,-0.015214 0.01057,0 0.02107,0.00505 0.02107,0.00505 0,0 0.01054,0.00506 0,0.010146 z m 2.698713,0.1369254 c -0.02107,-0.00508 -0.04216,-0.015214 -0.06325,-0.020285 0.02107,-0.020285 0.05271,-0.035498 0.07379,-0.055785 0.02108,0.00505 0.05271,0.015215 0.05271,0.015215 -0.02107,0.020285 -0.04216,0.04057 -0.06325,0.060854 z m 0.548175,-0.1267826 c 0,0 0,-0.00505 -0.01054,-0.00505 -0.05271,-0.00505 -0.10542,-0.015216 -0.179212,-0.020285 0.137043,-0.055783 0.147585,-0.00505 0.179212,0.020285 0.01054,0 0.01054,0 0.01054,0.00505 z m 1.159602,1.4148926 C 44.718531,2.6128235 44.549863,2.5468979 44.36011,2.496184 44.191442,2.44547 44.001685,2.486045 43.896268,2.587467 c 0,0 0,0 0,0 0.01054,0.010139 0.01054,0.020285 0.02108,0.030428 -0.01058,-0.010139 -0.02108,-0.015217 -0.03161,-0.025358 0,0 0,0 0,-0.00508 -0.200295,-0.035498 -0.105415,-0.1014257 -0.06325,-0.1572106 0.05271,-0.065927 0.189755,-0.1217123 0.08434,-0.2079235 -0.01054,-0.010139 0.03161,-0.050712 0.07379,-0.065927 0.08434,-0.035498 0.168671,-0.065927 0.26355,-0.096354 0.03161,-0.07607 0.06325,-0.1572106 0.115957,-0.23328 0.02107,-0.035499 0.07379,-0.076069 0.168671,-0.045642 0.03161,0.010146 0.03161,0.055785 0.01054,0.081141 -0.158126,0.1977809 0.01057,0.3752762 0.09488,0.5730572 0.221378,-0.025358 0.40059,-0.020285 0.537634,0.07607 -0.07379,0.055785 -0.179213,0.1166393 -0.263546,0.167353 z m 0.643053,-0.907763 c -0.02108,-0.050714 -0.01054,-0.1115681 -0.07379,-0.1369253 -0.06325,-0.030427 -0.179213,-0.030427 -0.274088,-0.045642 -0.06325,-0.010146 -0.115961,-0.025357 -0.200295,-0.045642 0.168668,-0.065927 0.08433,-0.1977809 0.326794,-0.23328 0.02107,0 0.04216,0 0.06325,0.00507 -0.02107,0 -0.04216,0 -0.06325,-0.00507 0.04216,0.035499 0.09488,0.070998 0.126506,0.1064973 0.02108,0.025356 0.02108,0.065927 0.05271,0.070998 0.274084,0.045642 0.210837,0.1825668 0.390049,0.2890642 -0.15813,0 -0.253005,0 -0.347884,-0.00508 z m 0.822263,0.8722639 c 0.442758,-0.07607 0.484927,-0.065927 0.579806,0.1064969 -0.295174,0.040571 -0.379511,0.025358 -0.579806,-0.1064969 z m 3.310128,-2.21108784 c -0.05271,0.005073 -0.147589,-0.0202851 -0.158126,-0.0354991 -0.02108,-0.030428 0,-0.0811407 0.04216,-0.0963545 0.158126,-0.0557846 0.326793,-0.10649742 0.569251,-0.0405703 -0.07379,0.11156843 -0.242458,0.16228146 -0.453294,0.17242403 z m 2.00295,1.89159564 c -0.04215,-0.020285 -0.09487,-0.035498 -0.13705,-0.055783 0.03165,-0.015217 0.05271,-0.030428 0.08434,-0.045642 0.04215,0.025358 0.08434,0.045642 0.115955,0.070998 -0.02105,0.010139 -0.04215,0.020285 -0.06324,0.030428 z m 1.67615,0.091283 c -0.05271,0.091285 -0.15813,0.1267834 -0.40059,0.1267834 -0.115955,-0.1115681 -0.08433,-0.2231376 0.07379,-0.3448486 0.189756,0.065927 0.390051,0.1014257 0.326796,0.2180655 z m 1.486404,-1.1055437 c 0.05271,0.015214 0.10542,0.035499 0.15813,0.050711 -0.0106,0.00508 -0.0211,0.015214 -0.03165,0.020285 -0.05271,-0.015214 -0.105414,-0.035498 -0.158124,-0.050711 0.0106,-0.00506 0.0211,-0.015216 0.0316,-0.020286 z m 0.295176,1.5670327 c -0.0211,-0.010139 -0.03165,-0.015217 -0.05271,-0.025358 0.0106,-0.00508 0.03165,-0.015217 0.04215,-0.015217 0.0106,0 0.0211,0.010139 0.04215,0.020285 -0.0106,0.00508 -0.0211,0.010139 -0.03165,0.020284 z m 0.411129,-0.096354 c 0,0 0,0.00508 0,0.00508 0,0 -0.0106,0 0,-0.00508 -0.0106,0 -0.0106,0 -0.0106,0 -0.04215,0.086212 -0.04215,0.086212 -0.200295,0.1318529 -0.07379,-0.055783 -0.08434,-0.1470682 -0.274092,-0.1572106 -0.147585,-0.00508 -0.29517,-0.010139 -0.442755,-0.020285 0,-0.010139 0,-0.020285 0,-0.035498 0.24246,-0.020285 0.495465,-0.040571 0.737931,-0.065927 0.06325,0.055783 0.115959,0.1014256 0.18975,0.1470682 -0.01055,0 0,0 0,0 0.03165,-0.055783 0.08434,-0.1014257 0.231924,-0.1064969 -0.0106,0.086212 -0.0106,0.086212 -0.231924,0.1064969 z m 2.09783,-1.2576828 c -0.01055,0 -0.02105,0 -0.03165,0 0,-0.00508 0.0106,-0.015214 0.0106,-0.020285 0.01055,0 0.02105,0.00508 0.02105,0.00508 0.0106,0.010146 0,0.015214 0,0.015214 z m 2.097825,-1.05990212 c -0.221375,0.0557844 -0.42167,0.0101425 -0.61143,-0.030428 0.463845,-0.11663979 0.47439,-0.11663979 0.61143,0.030428 z m 0.147585,2.53057982 c -0.221375,0 -0.442755,0 -0.706305,0 0.06325,-0.040571 0.10542,-0.060854 0.13705,-0.086212 0.0316,-0.020285 0.07379,-0.055783 0.06325,-0.070998 -0.07379,-0.065927 -0.08434,-0.1267835 -0.07379,-0.2079235 0.0106,-0.065927 -0.08434,-0.141997 -0.147591,-0.2282086 0.04215,-0.030428 0.105416,-0.07607 0.168675,-0.1217122 0.168666,0.020285 0.26355,0.050712 0.253005,0.141997 -0.01055,0.045642 0.06325,0.091285 0.115956,0.1470682 -0.02105,0.055783 -0.05271,0.1115681 -0.07379,0.1724242 -0.0106,0.055783 0,0.1166393 0,0.1876382 0.08433,0.015217 0.179209,0.030429 0.274084,0.045642 -0.0106,0.010139 -0.0106,0.015217 -0.0106,0.020285 z m 0.769561,-1.2627541 c -0.02112,0.030427 -0.05274,0.065927 -0.09488,0.091282 0,0 -0.105414,-0.020285 -0.105414,-0.020285 0.01062,-0.035499 0.04218,-0.076069 0.07379,-0.111568 0.01062,-0.00508 0.06325,-0.00508 0.10542,-0.00508 0,0.015214 0.02106,0.030429 0.02106,0.045642 z M 62.291783,2.74975 c -0.02106,0 -0.05268,-0.00508 -0.07379,-0.00508 0.01056,-0.030427 0.03168,-0.060856 0.04218,-0.091285 0.02106,0 0.04218,0.00508 0.06326,0.00508 -0.01062,0.025358 -0.02106,0.060856 -0.03162,0.091285 z M 62.66074,0.55894646 c -0.07379,0.0152135 -0.168665,0.0405705 -0.231917,0.0304276 -0.08434,-0.0101443 -0.158124,-0.050713 -0.274092,-0.0912835 0.231924,-0.0862121 0.358427,-0.0253564 0.484931,-0.005073 0.02106,0.005073 0.03162,0.065927 0.02106,0.065927 z m 0.674682,1.79524084 c -0.137052,-0.060856 -0.263544,-0.1166392 -0.40059,-0.1774954 0.01056,-0.010139 0.01056,-0.020285 0.02106,-0.030429 0.126498,0.015217 0.253002,0.030429 0.411126,0.045642 0.01062,0.050714 0.02112,0.096355 0.03168,0.1470682 -0.02106,0.00508 -0.04218,0.010139 -0.06325,0.015217 z m 1.855362,0.7860519 c -0.01056,0 -0.02106,0 -0.03162,0 0,-0.00508 0.01056,-0.015217 0.01056,-0.020285 0.01062,0 0.02112,0.00508 0.02112,0.00508 0,0.010139 0,0.015217 0,0.015217 z m 1.65507,-1.3337524 c -0.179214,-0.091285 -0.29517,-0.1673528 -0.13704,-0.2941356 0.147588,0.020285 0.316254,0.040571 0.50601,0.065927 -0.147594,0.091283 -0.253002,0.1572103 -0.36897,0.2282086 z m 1.423158,-0.1927094 c -0.02106,-0.00508 -0.05274,-0.020285 -0.05274,-0.030429 0,-0.010146 0.03168,-0.020285 0.05274,-0.030428 0.03168,0.015214 0.05274,0.025357 0.105408,0.045642 -0.05268,0.010146 -0.08433,0.020285 -0.105408,0.015215 z m 0.99093,1.5467471 c -0.01062,-0.010139 -0.02112,-0.020285 -0.04218,-0.035498 0.03168,-0.00508 0.05274,-0.015217 0.08434,-0.015217 0.01056,0 0.02106,0.015217 0.03168,0.025358 -0.02112,0.010139 -0.05274,0.015217 -0.0738,0.025356 z m 0.07379,-2.47479544 c 0.10542,-0.0709985 0.231924,-0.0963549 0.4533,-0.0709985 -0.147588,0.0862122 -0.305718,0.0811408 -0.4533,0.0709985 z m 2.224331,2.13501824 c -0.01062,-0.00508 -0.03162,-0.015217 -0.02106,-0.020285 0,-0.00508 0.02106,-0.010139 0.04218,-0.015217 0.01062,0.00508 0.02106,0.015217 0.02106,0.020285 0,0.00508 -0.02106,0.010139 -0.04218,0.015217 z m 0.274092,-0.1014257 c 0.02106,-0.081141 0.09487,-0.096354 0.274086,-0.045642 -0.126504,0.020285 -0.200298,0.030428 -0.274086,0.045642 z M 72.274907,2.617896 c 0,-0.010139 0,-0.015217 0.01062,-0.025356 0,-0.00508 0.03162,-0.00508 0.03162,-0.00508 0.01062,0.00508 0.01062,0.015217 0.02106,0.025358 -0.03168,0.00508 -0.04218,0.00508 -0.06325,0.00508 z m 0.221376,-0.2434225 c -0.03168,0 -0.06325,-0.00508 -0.09487,-0.00508 -0.01062,-0.065927 -0.02106,-0.1267834 -0.04218,-0.2231371 0.168666,0.030427 0.274086,0.055783 0.442752,0.086212 -0.13704,0.060856 -0.221376,0.1014257 -0.305712,0.141997 z m 0.674676,-0.025356 c -0.13704,-0.07607 -0.263544,-0.1521394 -0.43221,-0.2434221 0.221376,0.00508 0.421674,-0.030428 0.558714,0.07607 0.02106,0.015217 0.08434,0.010139 0.137046,0.015217 0.115956,0.00508 0.231924,0.015217 0.337344,0.020285 0,0.010139 0,0.025356 0,0.035498 -0.189756,0.030429 -0.390054,0.060856 -0.600888,0.096355 z m 1.70778,-0.4614885 c -0.01062,-0.00508 -0.02106,-0.010139 -0.03162,-0.015217 0,0 0.01062,-0.00508 0.01062,-0.010139 0.01062,0.00508 0.02106,0.010139 0.03168,0.015217 0,0.00508 0,0.010139 -0.01062,0.010139 z m 0.04218,-1.31346724 c 0,0 -0.01062,-0.005073 -0.01062,-0.0101422 0.01062,0 0.02106,-0.005073 0.03162,-0.005073 0,0.005073 0,0.0101425 0.01062,0.0101425 -0.01062,0 -0.02112,0.005073 -0.03168,0.005073 z m 0.66414,2.02852094 c -0.0105,0 -0.0105,-0.00508 -0.02106,-0.010139 0.01056,0 0.03168,-0.00508 0.04218,-0.00508 0,0.00508 0,0.010139 0,0.015217 0,0 -0.0105,0 -0.02106,0 z m -0.04218,-0.8671928 c 0.231924,-0.076069 0.421674,-0.1470676 0.685224,-0.081141 -0.179214,0.1521391 -0.34788,0.1774957 -0.685224,0.081141 z m 2.519508,-0.1014263 c -0.01056,0 -0.02106,-0.00508 -0.02106,-0.00508 0,-0.00508 0,-0.010146 0.01056,-0.010146 0.01056,0 0.02106,0.00508 0.02106,0.00508 0,0 -0.0105,0.00508 -0.0105,0.010146 z m 0.495466,1.521389 c 0,0 0.0105,-0.00508 0.0105,-0.00508 v -0.00508 l 0.01056,0.00508 z m 0.917141,-0.010139 -0.0105,-0.010139 h 0.02106 z m 6.672996,-0.67448 -0.01056,-0.010139 h 0.02106 z m 1.380983,0.1166392 c -0.115967,-0.091283 -0.115967,-0.091283 0.08433,-0.1470682 0.01056,0.065927 0.01056,0.065927 -0.08433,0.1470682 z m 1.423146,0.096354 c -0.03168,0 -0.05274,-0.020284 -0.08434,-0.030427 0.01056,-0.00508 0.01056,-0.015217 0.02106,-0.020285 0.06323,0.00508 0.12651,0.00508 0.189768,0.010139 0,0.010139 0,0.015217 0.0105,0.025358 -0.05274,0.010139 -0.09488,0.020285 -0.13704,0.015217 z m 0.579804,-0.7049109 c -0.10542,0.040572 -0.221382,0.070999 -0.358428,0.1166393 0,-0.1318547 0,-0.2586365 0,-0.4107755 0.10542,-0.010146 0.221376,-0.020285 0.379506,-0.030428 -0.05274,0.1014264 -0.126498,0.1825668 0.05274,0.2484937 0.0105,0 -0.03162,0.060856 -0.0738,0.07607 z m 13.535727,1.1714709 c -0.0317,-0.00508 -0.0632,-0.010139 -0.0949,-0.015217 0,0 0,-0.010139 0.0106,-0.010139 0.0317,0 0.0632,0 0.10541,0.00508 -0.0211,0.00508 -0.0211,0.015217 -0.0211,0.020285 z m 9.16089,-0.9990466 c 0.0316,0 0.0527,0.00508 0.0843,0.00508 0,0.030429 0,0.060856 0,0.091285 -0.0422,0 -0.0738,0 -0.11597,-0.00508 0.0106,-0.035498 0.0211,-0.065927 0.0317,-0.091285 z m 0.0527,1.0193318 c -0.0211,-0.00508 -0.0317,-0.015217 -0.0421,-0.020285 0.0211,-0.00508 0.0421,-0.010139 0.0738,-0.015217 0.0106,0.010139 0.0211,0.020285 0.0211,0.030428 -0.0211,0 -0.0422,0.00508 -0.0527,0.00508 z m 4.60679,-1.4402499 c 0.20029,-0.065927 0.32679,-0.1369251 0.50601,-0.096354 0.0632,0.015214 0.0843,0.081141 0.15813,0.1572105 -0.25301,-0.025357 -0.43222,-0.040571 -0.66414,-0.060857 z m 1.21231,0.1217112 c -0.20029,-0.1115679 -0.23192,-0.167353 -0.13704,-0.2079235 0.0843,-0.030427 0.26354,-0.025357 0.33734,0.015214 0.0949,0.050713 0.0527,0.096355 -0.2003,0.1927095 z m 2.98334,-0.010139 c -0.20029,-0.025356 -0.20029,-0.025356 -0.16866,-0.1622816 0.28463,-0.020285 0.28463,-0.010146 0.16866,0.1622816 z m 5.27092,1.4909628 c -0.0317,0.00508 -0.0738,0 -0.14758,0 0.0527,-0.081141 0.12651,-0.096354 0.29517,-0.055783 -0.0632,0.025356 -0.10541,0.045642 -0.14759,0.055783 z m 4.6068,-0.1014256 c 0,-0.010139 -0.0106,-0.020285 -0.0106,-0.030428 0.0421,0 0.0843,-0.00508 0.13704,-0.00508 0,0.010139 0,0.015217 0.0105,0.025358 -0.0527,0.00508 -0.0949,0.010139 -0.13704,0.010139 z m 3.2469,-1.3337516 c -0.0422,-0.1927095 0.0527,-0.268779 0.32679,-0.2941354 0.0527,0.1318534 -0.0211,0.2079233 -0.32679,0.2941354 z m 14.4845,0.5933423 c -0.1265,0.065927 -0.23192,0.1166392 -0.0843,0.218066 0.0949,0.060856 0.0632,0.1622818 0.0843,0.2434225 -0.10542,0.035498 -0.2003,0.025358 -0.21084,-0.030427 -0.0105,-0.081141 -0.10541,-0.1064969 -0.23192,-0.1369259 -0.0738,-0.020285 -0.15813,-0.070999 -0.15813,-0.1064986 0,-0.1115681 -0.13704,-0.1521394 -0.31625,-0.1774954 -0.0317,-0.00508 -0.0527,-0.015217 -0.0843,-0.025358 0.24246,-0.4310604 0.9066,-0.3904904 1.40207,-0.218066 -0.1265,0.081141 -0.25301,0.1622818 -0.40059,0.23328 z m 1.08578,-0.3093488 c 0.0211,0.060856 0.0211,0.1166392 0.22138,0.141997 0,-0.141997 0,-0.268779 0,-0.4006328 -0.23192,0.070998 -0.25301,0.1572106 -0.22138,0.2586358 z m -15.07484,1.4199651 c 0.22137,-0.035498 0.44275,0.025358 0.64305,-0.060856 -0.2003,-0.07607 -0.41114,-0.081141 -0.66414,-0.091283 0,0.050712 0.0106,0.091283 0.0211,0.1521395 z M 80.782202,3.054024 c 0.0738,0.1217105 0.221376,0.167353 0.4533,0.1470683 0.08434,-0.1572107 -0.05274,-0.197781 -0.4533,-0.1470683 z M 2.6038263,0.63501573 C 2.551117,0.52851845 2.4140731,0.5488035 2.3086546,0.55387497 2.1821524,0.56401773 2.066192,0.57923133 2.1083595,0.68572882 2.2770291,0.6654436 2.4351568,0.65022958 2.6038263,0.63501573 Z M 122.31707,3.3380197 c -0.0421,-0.00508 -0.11595,0.025358 -0.17921,0.040571 0.0317,0.025358 0.0527,0.065927 0.0949,0.070999 0.0738,0.010139 0.16867,0.00508 0.253,0.00508 0.0106,-0.010139 0.0211,-0.025356 0.0317,-0.035498 -0.0738,-0.030427 -0.13704,-0.070998 -0.20029,-0.081141 z m 5.07063,0.1825671 c 0.16867,0 0.27409,0 0.37951,0 -0.14759,-0.096354 -0.14759,-0.096354 -0.37951,0 z M 57.453074,2.9627436 c 0,0.015217 0,0.030427 0,0.045642 0.06325,0 0.126494,-0.00508 0.179204,-0.00508 0,-0.010139 0,-0.020285 0,-0.030427 -0.05271,-0.00508 -0.115955,-0.00508 -0.179204,-0.010139 z M 84.292616,0.55894625 c 0.03168,-0.005073 0.05274,-0.0101425 0.0738,-0.0202854 -0.03168,-0.005073 -0.0738,-0.0101425 -0.126504,-0.0202851 0.03168,0.0253564 0.04218,0.0405703 0.05274,0.0405703 z M 44.866101,0.15324207 c -0.02107,-0.005073 -0.03161,-0.0101428 -0.05271,-0.0101428 -0.02107,0 -0.03161,0.0101428 -0.05271,0.015214 0.02107,0.005073 0.04216,0.015214 0.06326,0.015214 0.01057,0 0.02107,-0.015214 0.04216,-0.0202852 z M 85.6736,3.3785906 c 0.02106,0.00508 0.03162,0.015217 0.04212,0.010139 0.0105,-0.00508 0.02106,-0.015217 0.04212,-0.020285 -0.0105,-0.00508 -0.03162,-0.010139 -0.04212,-0.010139 -0.02106,0.00508 -0.03168,0.015217 -0.04212,0.020285 z M 5.8928838,2.785248 c 0,0.00508 0,0.010139 0.010535,0.015217 0.010535,0 0.02108,0 0.031625,-0.00508 0,-0.00508 0,-0.010139 -0.010535,-0.015217 -0.021084,0 -0.031625,0 -0.031625,0.00508 z M 53.752884,2.881602 c -0.0106,-0.00508 -0.03165,0.00508 -0.05271,0.00508 0.01055,0.010139 0.01055,0.020285 0.02105,0.020285 0.0211,0 0.04215,-0.00508 0.05271,-0.00508 0,-0.010139 -0.01055,-0.020285 -0.02105,-0.020285 z m 6.799487,0.1927093 c 0,0.00508 0.02112,0.00508 0.02112,0.010139 0.01056,-0.00508 0.01056,-0.015217 0.02106,-0.020285 -0.01056,0 -0.02106,0 -0.03168,0 0,0.00508 -0.01062,0.010139 -0.01062,0.010139 z M 81.035186,3.363376 c 0.01056,0 0.02106,0 0.02106,-0.00508 -0.0105,0 -0.03168,0 -0.04218,-0.00508 0.01056,0.00508 0.01056,0.010139 0.02106,0.010139 z M 38.414493,2.9728864 c 0,0.00508 0,0.010139 0.01057,0.010139 0,0 0.01054,0 0.02107,-0.00508 0,-0.00508 0,-0.010139 -0.01054,-0.010139 0,0 -0.01054,0.00508 -0.02107,0.00508 z m 47.754581,0.3752761 c 0.02106,0.00508 0.04218,0.00508 0.06322,0.010139 v 0 c 0,0 0,0 0,0 0,0 0,0 0,0 -0.02106,-0.00508 -0.04212,-0.010139 -0.06322,-0.010139 z M 67.52053,3.1808096 h 0.02106 L 67.53103,3.1706708 Z M 1.8131876,2.6280376 h 0.021084 L 1.8237296,2.6128242 Z M 66.761524,1.5985633 v 0.010146 l 0.02112,-0.00508 z"
   id="path14"
   style="clip-rule:evenodd;fill:#f5f3ef;fill-opacity:1;fill-rule:evenodd;stroke-width:0.0731167" /></svg>
