<?xml version="1.0" encoding="UTF-8" standalone="no"?>
<svg
   xmlns:dc="http://purl.org/dc/elements/1.1/"
   xmlns:cc="http://creativecommons.org/ns#"
   xmlns:rdf="http://www.w3.org/1999/02/22-rdf-syntax-ns#"
   xmlns:svg="http://www.w3.org/2000/svg"
   xmlns="http://www.w3.org/2000/svg"
   xmlns:sodipodi="http://sodipodi.sourceforge.net/DTD/sodipodi-0.dtd"
   xmlns:inkscape="http://www.inkscape.org/namespaces/inkscape"
   version="1.1"
   id="Layer_1"
   x="0px"
   y="0px"
   viewBox="0 0 1422.9 29.385885"
   xml:space="preserve"
   sodipodi:docname="chalk-line.svg"
   width="1422.9"
   height="29.385885"
   inkscape:version="1.0.2-2 (e86c870879, 2021-01-15)"><metadata
   id="metadata47"><rdf:RDF><cc:Work
       rdf:about=""><dc:format>image/svg+xml</dc:format><dc:type
         rdf:resource="http://purl.org/dc/dcmitype/StillImage" /><dc:title /></cc:Work></rdf:RDF></metadata><defs
   id="defs45" /><sodipodi:namedview
   pagecolor="#ffffff"
   bordercolor="#666666"
   borderopacity="1"
   objecttolerance="10"
   gridtolerance="10"
   guidetolerance="10"
   inkscape:pageopacity="0"
   inkscape:pageshadow="2"
   inkscape:window-width="1920"
   inkscape:window-height="1001"
   id="namedview43"
   showgrid="false"
   inkscape:zoom="0.69872384"
   inkscape:cx="734.76782"
   inkscape:cy="-107.73566"
   inkscape:window-x="-9"
   inkscape:window-y="-9"
   inkscape:window-maximized="1"
   inkscape:current-layer="Layer_1"
   inkscape:document-rotation="0" />
<style
   type="text/css"
   id="style2">
	.st0{fill-rule:evenodd;clip-rule:evenodd;fill:#FFFFFF;}
	.st1{fill-rule:evenodd;clip-rule:evenodd;}
</style>

<path
   class="st1"
   d="M 1419.2999,22.103734 C 1421.2,20.821082 1418.5,19.662558 1418.7,18.33853 c -2.4001,-0.620638 -0.5,-1.158524 0.1,-1.737786 0.6,-0.537886 0.8001,-1.117149 1.1,-1.572282 -2.1,-0.289631 -3.7999,-0.537887 -5.5,-0.786142 -2.1999,-0.289631 -4.5,-0.496511 -6.6999,-0.827517 -2.2001,-0.289631 -4.3001,-0.662015 -6.4001,-0.993022 -1,-0.124128 -2.0999,-0.206879 -3.0999,-0.331006 -1.5,-0.165504 -2.7001,-0.496511 -2.9001,-1.241276 -0.1,-0.331008 -0.3,-0.70339 -0.4,-1.0343966 -0.3,-1.2826523 -2.6,-2.3170493 -5.6,-2.6894316 -2.4,-0.289631 -4.9,-0.6206376 -7.0999,-1.1585239 -4.1,-0.9516457 -7.8001,-0.5792619 -11.4001,0.2482554 -2.3,0.4965091 -2.7,0.5792619 -4.7,-0.1655041 -0.9,-0.3310066 -1.6,-0.6620132 -3,-0.579262 -3.4,0.2068797 -6.8,0.3310066 -10.1,0.4965107 -2.4,0.1241285 -4.6,0.1241285 -6.7999,-0.3723822 -1.1,-0.2482554 -2.4001,-0.4137595 -3.6,-0.4551351 -2.3001,-0.1241284 -4.7001,-0.289631 -6.6,0.5378863 -1,0.4551351 -2.1,0.289631 -3.2001,0.1241285 -1,-0.1655025 -2,-0.3723823 -3,-0.4137579 -5.2999,-0.1241284 -10.5999,-0.1655041 -15.9,-0.2482553 -1.9,0 -3.7999,0 -5.6999,0.082757 -1,0.041386 -2.2001,0.1655026 -2.9001,0.4551335 -1.2,0.4965107 -2.5999,0.5378864 -4.0999,0.4137595 -1.5,-0.1241285 -3,-0.2068798 -4.4001,-0.4137595 -1.8,-0.2482538 -3.5,-0.2068797 -5.3,-0.082757 -2.9,0.2482553 -5.9,0.4137578 -8.7999,0.5378863 C 1281.2,6.215408 1279.7,6.091265 1278.6,5.5947647 c -1,-0.4137595 -2.2,-0.4137595 -3.5,-0.4551351 -3.7,-0.082757 -7.4,0.2482554 -11.1,-0.2068782 -0.9,-0.1241284 -1.9,0 -2.7999,0.041386 -0.8,0.041387 -1.7001,0.1655041 -2.5,0.1655041 C 1252.4,5.0568845 1246.2,5.0155136 1239.9,4.8913867 c -1.8,-0.041386 -3.1,0.1655025 -4.3,0.6620132 -0.5,0.2068797 -1,0.455135 -1.6,0.7033904 -2.8,-0.4965107 -5.6,-0.4965107 -8.5,-0.1241285 -4.4,0.579262 -8,-0.7447645 -12.1,-0.7861416 -0.3,0 -0.6,-0.2068782 -0.9,-0.3723823 -1.4,-0.744766 -3.3,-0.9516442 -5.4,-0.8688929 -2.1,0.082757 -4.2,0.2896325 -6.3,0.3723838 -3.3,0.1241284 -6.6,0.3723822 -9.8,0.2896294 -3.7,-0.1241284 -7.3,-0.5792604 -11,-0.1241284 -0.5,0.041386 -1.1,0.041386 -1.6,0 -3,-0.4137595 -6.1,-0.2482538 -9.2,-0.3723838 -3.1,-0.1241285 -5.7,0.041386 -7.7,1.0757726 -2.8,-1.1171483 -3.3,-1.1171483 -6.5,-0.5378863 -1.2,0.2068797 -2.7,0.2896325 -3.9,0.2068797 -3.4,-0.1655025 -6.7,-0.4137579 -10,-0.744766 -3,-0.289631 -5.2,0.2068812 -6.9,1.1585254 -0.4,0.2068797 -0.6,0.4551335 -0.7,0.579262 -2.4,-0.3310082 -4.1,-0.7447645 -5.8,-0.7447645 -1.6,0 -3,-0.041386 -4.2,-0.4137594 -1.9,-0.5792635 -3.9,-0.5378863 -6.1,-0.4965107 -3.3,0.082757 -6.7,-0.041386 -10.1,-0.041386 -3.1,0 -6.5,-0.3723838 -9.3,0.3723823 -3.1,0.8275173 -6.5,1.034397 -9.5,0.5378863 -4.2,-0.6620132 -8.3,-0.9102686 -12.7,-0.9930199 -2.2,-0.041386 -4.4,-0.2068797 -6.6,-0.165504 -2.9,0 -5.7,0.2068781 -8.6,0.2068781 -2,0 -4,-0.2068781 -6,-0.2482538 -6.8,-0.165504 -13.6,-0.2068797 -20.4,-0.4137594 -4,-0.1241284 -7.6,0.082758 -10.7,1.2826524 -1.6,0.6206376 -3.2,0.3723822 -4.2,-0.4551351 -0.9,-0.7033888 -2.1,-1.034397 -3.8,-0.7447645 -1.4,0.2482538 -2.7,0.1655026 -4,0.041386 -1.9,-0.1655025 -3.6,-0.2482554 -5.6,-0.082758 -2,0.1655041 -4.2,0 -6.30003,-0.082757 -1,-0.041387 -2.2,-0.1655041 -2.5,0.2482553 -0.8,1.034397 -3.1,1.1171483 -4.9,1.5309062 -2.8,0.5792635 -6.1,-0.2482538 -9,0.5378863 -0.4,0.1241284 -1.2,-0.041386 -1.7,-0.082757 -0.9,-0.6620132 -1.7,-1.2412751 -2.5,-1.9032899 -1.3,0.289631 -2.3,0.4965107 -3.1,0.6620148 -1,-0.2482554 -1.6,-0.5792635 -2.5,-0.6620148 -5.1,-0.5378863 -10.3,-0.5378863 -15.5,-0.3723823 -1.3,0.041387 -2.5,0.2482554 -2.9,0.868893 -0.1,0.1655041 -0.6,0.289631 -1.1,0.5378863 -2.1,-1.0757726 -4.6,-1.2412752 -7.4,-0.6620148 -0.5,0.082758 -1.2,-0.041386 -1.8,-0.041386 -0.5,0 -1.1,-0.1241285 -1.4,-0.041386 -2.7,0.7033888 -5.1,0.2482538 -7.49997,-0.289631 -0.6,-0.1241284 -1.3,-0.4551351 -1.9,-0.4137594 -4.1,0.2482553 -8.6,-0.041386 -12,1.3654036 -1.4,0.579262 -2.9,0.6206376 -4.7,0.289631 -2.2,-0.3723838 -4.5,-0.6206376 -6.8,-0.1655041 -1.1,0.2068797 -2,0.1241284 -2.5,-0.2482538 -0.9,-0.7861417 -2.5,-0.8688945 -4.3,-0.8688945 -2.2,0 -4.5,-0.041386 -6.7,0 -2.4,0.041387 -5,-0.041386 -7.2,0.289631 -2.3,0.3310082 -4.6,0.5378863 -7,0.6206376 -3,0.1241284 -5.7,-0.1241285 -8.4,-0.4965092 -1.2,-0.165504 -2.5,-0.2482553 -3.7,-0.2068797 -2,0.082757 -3.9,0.2482554 -5.6,0.3723823 -1.3,-0.2068782 -2.4,-0.5378848 -3.6,-0.4965092 -2.2,0 -4.4,0.1655026 -6.6,0.3723823 -3.1,0.289631 -6.4,0.1241284 -9.5,0.5792619 -0.3,0.041387 -0.9,0 -1.2,-0.082757 -2.1,-0.4965107 -4.2,-0.4551335 -6.5,-0.2068797 -0.8,0.082757 -1.7,0.041386 -2.5,0 -1.7,-0.1241285 -3.3,0.1241284 -5,0.2482553 -3.7,0.2482554 -7.5,0.3310082 -11.3,0.4551351 -0.7,0 -1.4,-0.2068797 -2.1,-0.289631 -0.7,-0.082758 -1.4,-0.082758 -2,-0.082758 -0.8,0 -1.7,0.041386 -2.5,0 -2,-0.1655041 -3.9,-0.4137594 -5.9,-0.5792619 -2.7,-0.2068797 -3.7,0.2068781 -2.9,1.3240264 0,0.082757 -0.1,0.1655041 -0.1,0.2896325 -0.9,0.2896295 -1.9,0.5792605 -2.9,0.868893 -1.3,-0.3310082 -2.4,-0.6206392 -3.5,-0.9516458 0.5,-0.2482553 0.8,-0.4551335 1.1,-0.6206376 -0.6,-0.8275173 -1.8,-1.1171482 -3.7,-0.8688929 -0.6,0.082758 -1.3,0.082758 -1.9,0.041387 -4.8,-0.3723838 -9.6,-0.5378863 -14.2,0.2482553 -1.5,0.2482554 -2.6,0.2896295 -4.1,-0.082757 -1.9,-0.4965107 -4.3,-0.8275173 -6.4,-0.289631 -3,0.7033904 -6.2,0.5792619 -9.3,0.6620132 -1.7,0.041386 -3.4,0.1241285 -5,0 -2.7,-0.2068782 -5.3,-0.5792604 -8.2,-0.4137579 -0.7,0.041386 -1.5,-0.1241284 -2.2,-0.1655025 -2.7,-0.1655041 -5.4,-0.2482553 -8.2,0.082757 -5.3,0.6206375 -10.6,0.7861416 -15.8,-0.2482554 -0.8,-0.1655041 -1.9,-0.2482553 -2.7,-0.1655041 -1.7,0.1655041 -3.3,0.289631 -4.8,-0.2068781 -0.4,-0.1241285 -1,-0.1241285 -1.5,-0.1241285 -4,0.1655041 -8,0.289631 -12,0.4965107 -0.5,0.041386 -1.4,0.2068797 -1.5,0.3723823 -0.9,1.0757726 -2.6,1.2826523 -5,0.8688929 -0.3,-0.041386 -0.6,0.041387 -0.9,0 -3.3,-0.1655025 -6.8,0.1655041 -10,-0.6206376 -0.3,-0.082758 -0.9,-0.1241284 -1.2,-0.082758 -3.3,0.5378864 -6.5,0 -9.7,-0.1655025 -0.8,-0.041386 -1.7,-0.2482553 -2.1,-0.4965107 -1.2,-0.7033904 -2.7,-0.9102685 -4.7,-0.744766 -0.8,0.041387 -1.9,0.1655041 -2.5,0 -1.3,-0.3723823 -2.7,-0.1241285 -4,-0.2068782 -0.2,0 -0.4,0.1655026 -0.7,0.289631 0.8,0.1241284 1.5,0.2482553 2.6,0.4137579 -1.4,0.289631 -2.3,0.4965107 -2.9,0.6206376 -3.9,-0.4137579 -7.3,-1.1171483 -11.1,-0.4965092 -1.4,0.2068782 -2.7,0.1241285 -4,-0.1655041 -4.2,-0.9930213 -9,-0.9516442 -13.6,-1.1171482 -2.5,-0.1241285 -5,0.2068797 -7.5,-0.289631 -0.2,-0.041386 -0.8,-0.041386 -0.9,0 -1.5,0.6206376 -3.4,0.3723822 -5.1,0.4137579 -0.4,1.034397 -0.8,1.9860412 -1.2,2.8963113 -4.3,0.2482553 -4.7,0.2068797 -6.4,-1.0757727 -1.1,-0.8275173 -2.1,-1.6550346 -4.7,-1.8205386 -0.3,0 -0.6,-0.1655026 -0.7,-0.2482554 -1.1,-0.7861401 -2.8,-0.7447645 -4.6,-0.8688929 -2.1,-0.1241285 -3.3,0.455135 -4.9,0.744766 -1.2,-0.8688929 -3.2,-0.7861417 -4.8,-0.5792619 -2.7,0.3723822 -6.2,0.4965107 -5.7,2.3997991 C 579.3,4.1465726 578.6,4.1465726 578.3,3.9810716 577.9,3.7741919 578,3.4845609 577.8,3.1535543 574.6,4.2707011 574,4.229327 571,3.0707969 568.2,1.9536486 564.7,1.4985135 560.9,1.4985135 c -0.2,0 -0.3,0.082757 -0.5,0.1241284 -0.1,0.3723822 -0.2,0.7447645 -0.4,1.1998996 -2.6,-0.289631 -4.4,0.2482553 -6.5,0.6206375 -2.9,0.5378864 -6.1,0.7447661 -9.2,1.0343971 -0.8,0.082757 -1.9,-0.1241285 -2.7,-0.289631 -2.1,-0.4137594 -4.1,-0.9102701 -6.1,-1.4067793 -1.6,-0.4137594 -3.2,-0.4137594 -4.8,0 -0.8,0.2068797 -1.5,0.4551335 -2.4,0.6620132 -0.7,0.1655041 -1.5,0.289631 -2.3,0.3723823 -0.9,0.082757 -1.9,0 -1.8,-0.4551335 0,-0.289631 0.6,-0.6206392 1.1,-0.8275173 0.4,-0.1655041 1.3,-0.082758 1.8,-0.2068782 0.5,-0.082758 0.8,-0.2896325 1.4,-0.5378863 -2.1,-0.1241285 -3.7,-0.2068813 -5.4,-0.3310067 -2.1,1.0757712 -4.7,1.7377844 -8,1.8205357 -2.4,0.082757 -4.9,0.041386 -7.3,0.082757 -0.8,0 -1.8,0.041386 -2.5,-0.082757 -1,-0.1241285 -2.1,-0.3310066 -2.6,-0.6620117 -0.4,-0.289631 0.1,-0.7861417 0.2,-1.3654037 -1.2,-0.041387 -2.4,-0.082757 -3.6,-0.082757 -2,0 -4,0.1241285 -6.1,0.082757 -2.9,-0.082757 -5.7,-0.041387 -8.5,0.4551336 -1.9,0.3723838 -3.9,0.3310066 -5.8,-0.2068798 -0.8,-0.2482538 -2,-0.4137579 -3,-0.4137579 -3.3,0.1241285 -6.6,0.1655041 -9.1,1.2826509 -1.3,0.579262 -3.5,0.4551351 -4.7,-0.1655025 -2.4,-1.158524 -3.8,-1.1998996 -6.4,-0.2068798 -2.1,0.7861417 -2.6,0.7861417 -5,0.3310082 -0.8,-0.1655041 -1.7,-0.2068813 -2.6,-0.2068813 -2.8,0.082758 -5.7,0.289631 -8.5,0.289631 -2.7,0 -2.8,-0.1241284 -3.5,-1.3654021 -1.2,0.1241284 -2.3,0.2482553 -3.3,0.3310066 -0.1,0.2482554 -0.2,0.3310067 -0.2,0.4137595 0.1,1.3240264 -1,1.7377843 -4.2,1.489529 -1.8,-0.1241285 -3.5,-0.3310066 -5.2,-0.4137564 -1.1,-0.041386 -2.5,-0.082757 -3.4,0.1241285 -1.9,0.4965091 -3.6,0.3310066 -5.1,-0.082758 -1.5,-0.4137579 -2.7,-1.034397 -4.3,-1.7377859 -0.9,-0.041387 -1.5,0.3723822 -2.2,0.7447661 -0.7,0.3723822 -1.5,0.8275157 -2.5,0.9516442 -2.9,0.3310066 -5.8,0.5378863 -8.8,0.041387 -1.6,-0.2482538 -2.6,-0.6206376 -2.4,-1.3240265 0.1,-0.5792636 -0.3,-1.03439702 -1.8,-1.1999011 -1.6,-0.20687816 -3.1,-0.37238224 -4.5,0.16550408 -1.6,0.66201322 -3.6,1.03439702 -5.8,1.28265082 -0.6,0.041387 -1,0.3310082 -1.5,0.5378863 -0.4,0.1655041 -0.8,0.3310082 -1.5,0.6620148 -0.4,-0.744766 -0.7,-1.2826524 -1,-1.8619144 -0.3,-0.74476597 -1.1,-1.24127511 -2.5,-1.15852384 -2.3,0.12412844 -4.6,0.16550408 -6.4,0.9516442 -2.1,0.91027014 -4.3,0.91027014 -6.5,0 -0.8,0.16550404 -1.7,0.37238374 -2.6,0.45513504 -1.2,0.1655041 -2.4,0.3723823 -3.6,0.3310066 -1.8,-0.041386 -3.3,0.1241285 -4.9,0.4965107 -1,0.2482554 -2.1,0.4137595 -3.2,0.579262 -2.2,0.3723838 -4.2,0.4137579 -6.4,-0.1655025 C 341.4,2.4087913 340,2.3674141 339,2.450167 c -1.8,0.1655025 -3.8,0.2482553 -5,0.9930198 -0.3,0.2068797 -1.1,0.4137594 -1.6,0.3723838 -3.1,-0.2482554 -6.4,0.1655025 -9.4,-0.4137594 -1.3,-0.2482554 -2.6,-0.4137579 -4,-0.082758 -1.4,0.3723838 -2.8,0.289631 -4.3,0.082758 -0.8,-0.1241285 -1.9,-0.082758 -2.6,0.082757 -2.3,0.4551351 -4.3,0.289631 -6.4,-0.2068797 -1.1,-0.2482553 -2.1,-0.4965107 -3.5,-0.8688929 0.1,0.3310066 0.1,0.455135 0.1,0.5792619 0,0.6206376 -1.2,0.7033904 -2.2,0.6620148 -0.5,-0.041386 -1.2,-0.3310082 -1.3,-0.5792635 -0.6,-0.9930198 -0.5,-1.0343955 -3,-1.0343955 -3.4,0.041386 -6.7,0.1655026 -10.1,0.2068797 -1.1,0.041386 -2.1,0 -3.2,0.082757 -1.1,0.082758 -2.4,0.2068782 -3.1,0.5378863 -1.3,0.6206376 -2.6,0.9930199 -4.5,1.1585239 -0.5,0.041386 -1,0.289631 -1.5,0.4551351 0,0 0,0 0,0 l 0.2,-0.041386 c 0,0 -0.2,0.041386 -0.2,0.041386 0,0 0,0 0,0 h -0.1 c 0,0 0,0 0,0 -0.8,-0.4137594 -1.5,-0.8275173 -2.5,-1.1999011 -0.6,-0.2068797 -1.6,-0.4551335 -2.1,-0.3723822 -3.5,0.5792619 -7.2,0.3723822 -10.7,0.5378863 -1.3,0.041386 -2.7,0.082757 -3.7,0.3723822 -2.1,0.6620148 -4.4,0.4965107 -6.7,0.4551351 -2.4,-0.041386 -4.9,-0.289631 -7.2,-0.1655041 -2.2,0.1655041 -3.8,-0.082758 -5.7,-0.4137579 -1.5,-0.289631 -3.1,-0.8275173 -5.1,-0.455135 0.3,1.8205386 -0.5,2.234295 -3.9,2.1101696 0.4,-1.034397 -2,-1.1585239 -3.2,-1.6964102 0.2,-0.1655041 0.4,-0.289631 0.7,-0.6206391 -1.8,0.1241284 -3.7,0.041386 -4.5,0.3723837 -1.9,0.8275173 -3.9,0.6620133 -6.2,0.4551336 -2.1,-0.1655026 -4.2,-0.3723823 -6.3,-0.4551336 -2.4,-0.082757 -4.9,-0.041386 -7.3,0.041387 -2.3,0.082758 -4.3,-0.455135 -6.4,-0.4965107 -4.4,-0.1241284 -8.9,-0.4137594 -13.4,-0.1241284 -2.1,0.1241284 -4.1,0.2482538 -6,0.6620132 -2.6,-0.5378863 -5.4,-0.2482553 -8.1,-0.4137594 -3,-0.2068782 -5.9,-0.6620132 -9.1,-0.289631 -0.8,0.082757 -1.7,0.082757 -2.5,0.041386 -3.5,-0.2482554 -6.3,0.3310066 -9,1.1998995 -0.5,0.1655041 -1.4,0.3310082 -1.9,0.2068797 -0.9,-0.1655025 -1.7,-0.4965107 -2.5,-0.7861416 -1.2,-0.4137579 -2.6,0.2896309 -3,0.082757 -1.2,-0.6206376 -2,-0.2068797 -3,0 -1.7,0.3310066 -3.3,0.4137579 -5.2,0.041387 -1.5,-0.3310066 -3.2,-0.4965107 -4.8,-0.6206376 -3,-0.2482553 -4.6,0.2068797 -5.1,1.4067793 -0.1,0.2896309 0.2,0.6206376 0.4,0.9930198 -2.3,-0.289631 -4,-0.7033889 -4.8,-1.5722818 -0.2,-0.2068797 -0.9,-0.3723838 -1.3,-0.5378863 l 0.1,0.082757 c 0,0 -0.1,-0.082757 -0.1,-0.082757 -2.1,-0.1241285 -4.1,-0.3723823 -6.1,0.2482553 -0.4,0.1241285 -1.3,0.1241285 -1.9,0.082757 -2.3,-0.2068797 -4.5,-0.082757 -6.800002,-0.082757 -3.1,0 -6.2,-0.3310066 -9.3,-0.5378863 -0.6,-0.041386 -1.5,-0.041386 -1.8,0.1241285 -0.9,0.4137594 -1.6,0.9516457 -2.3,1.4067792 0,0 0,0 0,0 0,0 0,0 0.1,0 1.9,-0.1655025 1.9,-0.1241284 2,0.579262 -0.7,-0.2068782 -1.3,-0.4137579 -2,-0.579262 0,0 -0.1,0 -0.1,0 0,0 0,0 0,-0.041386 -1.7,-0.2068781 -3.7,-0.2068781 -4.7,-0.9930198 -1,-0.744766 -2.5,-0.8275173 -4.2,-0.8688929 -0.3,0.1241284 -0.5,0.1655025 -0.5,0.2482553 -0.4,0.5378863 -0.4,1.3240265 -2.1,1.2826508 -1.8,-0.041386 -4.2,0.3723823 -5.4,-0.7033904 -0.5,-0.4551335 -1.5,-0.7033888 -2.9,-0.6620132 -0.8,0.041386 -1.7,-0.041387 -2.5,-0.1241284 -2.1,-0.1655041 -4.2,-0.2068798 -6.3,0.1655025 -1.3,0.2068797 -2.6,0.455135 -4,0.455135 -2.5,0.041387 -4.3,0.4551351 -5.5,1.324028 -0.8,0.5378864 -1.8,0.6206376 -3,0.3723823 -1.5,-0.289631 -3,-0.6206376 -4.6,-0.9516442 -0.3,0.1241284 -0.6,0.2482553 -0.8,0.3723822 -1,0.7861417 -2.299998,1.1998996 -4.599998,1.034397 -0.8,-0.041386 -1.8,0.2068798 -2.6,0.289631 -0.1,0 -0.3,-0.041386 -0.4,-0.082757 0.2,-0.2068798 0.5,-0.4137595 0.7,-0.6206392 -3.3,1.4895321 -7.1,1.9446656 -11.7,1.2412767 -1.8,0.8275174 -1.8,0.9102671 -0.8,1.8619128 0.3,0.2482554 0.3,0.579262 0.3,0.8688945 0,0.7033889 -0.2,1.365402 -0.3,2.027417 -2.3,0.662013 -4.3,0.744766 -6.7,-0.08276 -2.1,-0.70339 -4.6,-1.1585251 -7.6,-0.868893 -3.6,0.331007 -4,0.413758 -4.8,2.110168 0.8,0.04139 1.7,0.124129 2.5,0.124129 2,0 4.1,-0.20688 5.9,-0.04139 3.5,0.372384 6.9,0.910271 7.9,2.565305 2.3,0.248256 5,-0.08276 6.6,0.993021 -0.6,0.455135 -1,0.993021 -1.9,1.406779 -1.1,0.496511 -1.5,1.034397 -1.1,1.696412 0.4,0.537884 0.2,1.034395 -0.9,1.448155 -1.3,0.455135 -1.5,1.117148 -1.6,1.944665 2.4,-0.496511 4,0 5.6,0.496511 2.9,0.910267 6.2,1.282651 9.8,1.034397 1.3,-0.08276 2.7,-0.124129 4.099998,-0.124129 3.3,-0.04139 6.6,0.08276 9.8,-0.124128 2.8,-0.206881 6.3,-0.289631 6.9,-1.986043 0.2,-0.537886 1.3,-0.579262 2.2,-0.537886 0.7,0.04139 1.9,0.289632 1.9,0.496511 0.2,0.951645 1.9,1.158523 3.5,1.324028 1.5,0.165504 3.1,0.206879 4.7,0.248255 1.6,0 3.2,-0.165504 4.8,-0.08276 4.2,0.165505 8.5,0.331007 12.6,0.579262 2,0.124129 3.9,0.08276 5.6,-0.289631 2.8,-0.662013 5.8,-0.372382 8.7,-0.331006 2.500002,0.0414 4.900002,0.33103 7.800002,0.537909 0,-0.537886 0.1,-0.868893 0,-1.158524 -0.5,-0.993021 0.6,-1.530907 2.9,-1.572283 3.5,-0.04139 5,1.034397 6.6,1.944666 2.1,1.199899 2.5,1.406779 5.8,0.827517 1.1,-0.20688 2.1,-0.248255 3.3,-0.124128 3.4,0.372382 6.9,0.331006 10.4,0 0.8,-0.08276 2.1,-0.331007 2.2,-0.579262 0.5,-0.910271 2.1,-0.786142 3.5,-0.662015 1.3,0.124128 2.4,0.455135 3.8,0.70339 0.6,-0.124128 1.5,-0.331006 2.7,-0.620639 -0.3,0.537886 -0.5,0.868893 -0.8,1.448157 2.9,-0.993022 5.6,-1.158524 8.5,-0.537887 0.4,-0.372384 0.7,-0.70339 1.2,-0.951646 0.5,-0.289631 1.2,-0.49651 2.2,-0.248255 0.9,0.20688 1.6,0.496511 1.1,0.951646 -0.2,0.165504 -0.5,0.289631 -0.8,0.537886 1.2,0 2.1,0 2.9,0 2.7,0.04139 5.5,0.08276 8.2,0.165504 5.2,0.165503 10.4,0.331007 15.6,0.496509 1.3,0.04139 2.3,-0.124128 2.9,-0.620637 0.9,-0.827518 2.5,-0.951644 4.4,-0.786142 0,0 0,0 0,0 0,0 0,0 0,0 -0.7,-0.331006 -1.4,-0.662013 -2.3,-1.075773 0.3,-0.04139 1.1,-0.206879 1.2,-0.165502 0.7,0.331007 2.5,0.579262 1.1,1.241275 0,0 0,0.04139 0.1,0.04139 0,0 -0.1,0 -0.1,0 -0.1,0.08276 -0.2,0.206879 -0.2,0.206879 2.4,1.158524 7.3,1.530908 10.3,0.744766 0.3,-0.08276 0.8,-0.248255 1.1,-0.206879 1.7,0.165502 2.8,-0.248256 3.8,-0.744766 0.3,-0.124129 0.9,-0.124129 1.4,-0.206879 2.9,1.944666 5.9,2.234297 10.5,1.448155 1.8,-0.289631 3.7,-0.413759 5.8,-0.04139 1.6,0.248255 3.5,0.124128 5.3,0.124128 1.5,0 3.1,-0.04139 4.6,-0.08276 0.6,0.04139 1.1,-0.165503 1.6,-0.289631 0.6,-0.165503 1.2,-0.289631 1.8,-0.455134 2.2,1.075773 2.2,1.075773 5.2,1.158524 2.1,0.04139 3.4,1.117149 5.9,0.744766 0.5,-0.08276 1.2,0 1.9,0 0.7,-0.04139 1.5,-0.04139 1.4,-0.537886 0,-0.124128 0.3,-0.248255 0.5,-0.372384 2.1,0.496511 1.4,-0.703389 2.8,-0.744764 0.2,0.206878 0.5,0.496509 0.8,0.827517 2.3,-0.20688 4.7,-0.620639 7,-0.537886 2.5,0.08276 4.6,-0.04139 6.1,-0.620639 1.3,0.165504 2.2,0.413759 3.2,0.413759 2.7,0.04139 4.8,0.744766 5.2,1.861914 1.8,0 3.6,0.124129 5.3,-0.04139 1.2,-0.08276 3,-0.496511 3.1,-0.827517 0.2,-0.537887 0.7,-0.537887 1.5,-0.579262 1.1,-0.04139 4.7,-0.289631 5.5,-0.41376 0.7,-0.124128 1.4,-0.289631 2.1,-0.289631 3.1,0.08276 5.5,-0.455135 7.6,-1.365403 1.2,-0.496511 2,-0.331007 2.9,0.04139 -0.1,0.165503 -0.2,0.289631 -0.2,0.413758 -0.4,1.448155 1.8,2.234296 5.3,2.027417 2,-0.124129 3.9,-0.248256 5,-0.786142 1.9,0.20688 3.3,0.455135 4.7,0.455135 3.2,0 6.4,0 9.6,-0.165504 2.4,-0.124128 4.9,-0.165503 7,-0.786142 0.7,-0.206878 2,-0.08276 3,0.04139 1.9,0.165502 3.8,0.413758 5.8,0.662012 0.4,-0.372381 0.7,-0.703389 1.1,-0.910268 1.9,-0.993022 2.7,-1.572283 6.6,-0.620639 1.1,0.289631 2.6,0.331009 4.1,0.496511 0.6,0.289631 1.4,0.662015 2.5,1.117148 1,-0.372383 1.8,-0.662014 2.5,-0.99302 2,-1.034397 3,-1.158525 6,-0.786141 3.2,0.413758 3.2,0.413758 4.4,-0.993022 0.1,-0.124128 0.3,-0.248255 0.4,-0.372382 1,0 2.1,0 3.1,0 -1.1,1.655035 1.5,3.185941 5.7,2.482551 0.8,-0.124129 1.9,-0.04139 2.8,0 1,0 1.9,-0.165503 1.5,-0.579261 -0.6,-0.70339 0.7,-0.827517 1.6,-1.075773 1.1,-0.28963 2.2,-0.28963 3.2,0.08276 0.5,0.165504 1,0.289631 1.5,0.413759 2.2,-0.413759 2.2,-0.372383 5,0 0.7,0.08276 1.8,0.08276 2.4,-0.08276 1.8,-0.455134 4,-0.165503 5.8,-0.744765 1.4,-0.455135 3.2,0 4.2,0.786141 -0.7,0.248255 -1.3,0.455135 -2,0.70339 2.7,0.868893 7.5,1.158524 9.6,0.455135 1.9,-0.662015 3.6,-0.662015 5.2,-0.04139 1.1,-0.289631 2,-0.537887 3.2,-0.827518 0.5,0.496511 0.7,0.786142 1.1,1.158524 1.5,-0.08276 3,-0.20688 4.5,-0.248254 1.7,-0.08276 3.3,-0.124128 5,-0.124128 2,-0.04139 3.9,0.20688 5.9,-0.124129 0.9,-0.165502 2.3,-0.165502 3.1,0.04139 3.7,0.910269 7.8,0.372384 11.6,0.331007 4.4,0 9,-0.537887 12.9,-1.613659 1.7,-0.455134 2.9,-0.331007 3.7,0.49651 0.8,0.827518 2.1,1.158526 4.1,1.199901 1.3,0 2.5,0.08276 3.8,0.08276 2.9,0 3.6,-0.20688 4,-1.324028 0.1,-0.20688 -0.3,-0.455135 -0.5,-0.744766 2.9,0.455135 5.5,0.827517 8,1.282652 1.2,0.20688 2.1,0.20688 3.3,0 2.5,-0.455135 5.1,-0.496511 7.8,-0.413758 2,0.04139 4,0.124129 6,0.248254 0.5,0.04139 0.9,0.165504 1.5,0.289633 -0.4,0.331006 -0.7,0.620637 -1.2,1.117146 3.8,0.124129 7.2,0.455135 10.7,0.248256 2.8,-0.165503 5.7,-0.289631 8.5,0.206879 1.1,0.20688 2.1,0.124129 2.9,-0.248255 0.8,-0.413758 1.7,-0.744764 1.2,-1.406779 -0.6,-0.786142 -0.8,-1.613659 -1.2,-2.523926 1.1,0.04139 1.8,0.124128 2.5,0.08274 0.7,0 1.4,-0.04139 1.9,-0.165503 2.1,-0.537886 3.6,-0.372384 4.4,0.579262 0.4,0.413758 0.5,0.827517 0.8,1.324028 1.5,-0.331008 2.6,-0.99302 4.3,-0.289631 1,0.413758 2.3,0.744765 3.4,1.117148 1.3,0.455134 2.5,0.910269 3.5,1.241276 1.5,-0.04139 2.7,-0.165504 3.8,-0.08276 2.5,0.206881 4.8,0.662015 7.3,0.744768 2.2,0.08274 4.8,-0.04139 6.8,-0.455137 1.3,-0.248254 2.5,-0.579262 3.7,-0.413758 1.2,0.165504 2.1,0.662014 3.5,1.158524 0.9,-0.124128 2.3,-0.331006 3.7,-0.579262 2.3,0.496511 4.7,0.413758 7.1,-0.124128 3,-0.662013 5.8,-0.455135 8,0.496509 1.7,-0.04139 3.3,-0.20688 4.9,-0.165503 1.8,0.04139 3.5,0.165503 5.3,-0.08276 0.7,-0.08276 1.8,-0.04139 2.4,0.08276 0.6,0.124129 0.8,0.537887 1.3,0.868893 4.5,-0.165504 8.9,0.372383 13.4,0.124129 -0.1,-0.496511 -0.2,-0.786142 -0.4,-1.365404 1.9,0.331007 3.3,0.703391 4.7,0.786142 1.6,0.08276 3.3,-0.165503 5,-0.20688 0.5,0 0.9,0.20688 1.4,0.248257 0.3,0.04139 0.6,0 1.1,0.04139 0.1,-0.331007 0.3,-0.662014 0.4,-0.910269 1.3,0 2.6,0.165504 3.5,-0.04139 1.5,-0.331006 2.6,-0.124128 3.4,0.289631 1.4,0.703391 3.1,0.786142 5.1,0.827519 2,0.04139 4.1,0.206878 5.9,0.537885 1,0.165504 1.8,0.620639 3.1,0.455135 1.2,-0.165502 2.4,-0.331006 3.5,-0.579262 0.8,-0.165504 1.4,-0.579262 2.3,-0.70339 1.4,-0.165503 2.9,-0.248254 4.3,-0.206878 0.5,0 0.9,0.49651 1.4,0.744764 0,0 0,-0.04139 0.1,-0.04139 0,0 0.1,0 0.1,0 l -0.1,0.04139 c 0,0 0,0 0,0 -0.3,0.165504 -0.6,0.289631 -0.9,0.455135 0.4,0.165504 0.9,0.413758 1.4,0.455135 2.1,0.08276 4.1,-0.08276 6.8,-0.372384 -3.2,-0.703388 -3.7,-1.737785 -4.3,-2.979061 1.8,0.04139 3.3,0.08276 4.9,0.124129 1,0.993021 0.5,2.151545 3.2,2.854934 0.7,-0.248255 1.4,-0.496509 2.1,-0.78614 2,0.206878 4,0.496509 6.1,0.620637 2,0.124129 4,0.04139 6.4,0.04139 -1,-0.331007 -2.1,-0.537886 -2.2,-0.786142 -0.3,-0.662013 -1.4,-0.910268 -2.6,-1.199899 -0.6,-0.124129 -1.3,-0.496511 -1.2,-0.662015 0.2,-0.331007 0.9,-0.910269 1.4,-0.910269 1.8,0 3.3,-1.199899 4.9,-0.455135 1.5,0.703391 3.4,0.662015 5,0.951646 v 0.04139 c 0,0 0,0 0,0 v 0 c 0.3,0 0.5,0 0.8,0 v -0.04139 c 2.6,-0.827517 5.2,-0.496511 7.9,-0.289631 0.1,0.248254 0.1,0.289631 0.1,0.331007 -0.1,0.124128 -0.2,0.248255 -0.3,0.372382 -0.8,0.993021 -0.8,0.993021 1.5,1.530908 0.8,0.206879 1.6,0.455135 2.2,0.703388 1.8,0.744767 3.8,1.199902 6.5,1.158526 3.3,-0.08276 6.6,0 9.9,-0.04139 0.8,0 1.6,-0.165504 2.3,-0.206879 -0.3,-0.455134 -0.5,-0.786142 -0.8,-1.365404 2.5,0.703391 4.5,0.620638 6.8,0.372384 1.8,-0.20688 4,-0.04139 5.9,0.165502 2.1,0.20688 4,0.620638 6,0.910269 0.5,0.08276 1,0.04139 1.6,0.08276 1,0.08276 2,0.08276 3,0.20688 2,0.248256 2.5,0.124129 2.9,-0.827517 0.1,-0.165504 0.2,-0.331007 0.3,-0.496511 1.1,-0.124128 2.1,-0.248255 3.2,-0.372382 -0.3,-0.331007 -0.5,-0.662015 -0.7,-0.951646 1.6,-0.786141 1.6,-0.744764 3.5,-0.703389 0.8,0.04139 1.7,-0.08276 2.4,-0.206879 2.4,-0.455134 4.9,-0.537887 7.5,-0.496511 0.2,0 0.3,0.124128 0.5,0.20688 -0.3,0.289631 -0.6,0.537886 -1,0.827517 0.1,0.08276 0.3,0.124128 0.4,0.20688 0.7,-0.124129 1.5,-0.248256 2.2,-0.372383 0.1,0.08276 0.2,0.124129 0.3,0.206879 0.6,1.820538 0.6,1.69641 4.8,1.572283 3,-0.124129 6,-0.165504 8.6,0.951644 1.9,0.827517 4.7,1.034397 7.3,0.372384 1.8,-0.455135 3.6,-0.786142 5.6,-1.075773 2.4,-0.372382 4.6,-0.537886 7,-0.04139 0.9,0.165504 2,0.08276 3,0.165504 1.9,0.206878 4.5,-0.165504 5.2,1.075773 0.6,-0.289633 1.3,-0.579264 1.9,-0.868895 0.2,0.04139 0.3,0.08276 0.5,0.124129 -0.3,0.372382 -0.7,0.703388 -1.2,1.282652 3.8,-0.91027 7.3,-1.324028 11.2,-0.744766 0.6,0.08276 1.7,-0.124129 2.3,-0.289633 2.3,-0.662013 2.2,-1.655033 0,-2.648054 1.3,-0.496509 2.8,-1.158524 4.7,-0.78614 1.5,0.289631 3.4,0.827515 2.7,1.820537 -0.1,0.08276 0.1,0.248255 0.3,0.248255 2.2,0.124129 0.6,0.868893 1.2,1.241275 3.9,0.827518 3.9,0.827518 6.4,0.703391 0.5,-1.613659 2,-2.027419 5.3,-1.365404 0.8,0.165503 1.8,0.455134 2.1,0.78614 0.7,0.868895 1.9,0.786142 3.5,0.537887 0.6,-0.08276 1.5,-0.165503 2.1,-0.08276 2.9,0.41376 5.6,0.248256 8.1,-0.206878 1.8,0.206878 3.5,0.413758 4.8,0.579262 1.1,-0.744766 1.8,-1.365404 2.8,-1.944666 1.2,-0.703388 2.7,-1.324028 4.2,-2.068794 0.8,0.04139 2.2,0.04139 3.3,0.248256 0.9,0.165504 1.9,0.49651 2.1,0.868893 0.4,0.620637 0.1,1.282652 0.2,1.944665 0,0.289631 0.2,0.537887 0.4,0.910269 1.1,-0.331007 1.9,-0.620638 2.9,-0.910269 2.1,1.075773 4.6,0.20688 6.9,0.372384 0.2,0 0.6,-0.124128 0.7,-0.20688 0.7,-0.620637 1.3,-1.282652 1.9,-1.90329 0.3,-0.331006 0.3,-0.70339 0.6,-1.241276 0.6,0.413759 1.1,0.579263 1.1,0.786141 0.6,1.90329 3.5,2.772183 7.7,3.144567 0.3,0.04139 0.6,0.04139 0.5,0.04139 1.1,-0.248253 1.8,-0.496509 2.7,-0.579262 1.6,-0.124128 3,-0.331006 3.8,-1.034395 0.6,-0.496511 1.8,-0.662015 3,-0.289631 1.3,0.413758 2.5,0.951644 3.9,1.448155 1.5,0.124128 3.2,0.248255 5,0.372382 1.6,0.124129 3.1,0.165504 4.5,-0.372382 1.7,-0.662013 2.5,-0.579262 3.5,0.331007 0.6,0.537884 1.4,0.70339 2.69997,0.579261 0.9,-0.08276 1.8,-0.165502 2.7,-0.248255 -0.1,-0.20688 -0.2,-0.331006 -0.2,-0.455133 0,0 -0.1,0.04139 -0.1,0.04139 l -0.1,-0.04139 0.2,0.04139 c 0,0 0,0 0,0 1.5,-0.620639 3,-1.241277 4.4,-1.861914 0,0 0,0 -0.1,-0.04139 -0.6,0.04139 -1.2,0.124129 -2,0.165504 0.9,-0.620639 0.9,-0.662014 2,-0.165504 0,0 0.1,0 0.1,0 0,0 -0.1,0.04139 -0.1,0.04139 0,0 0,0 0,0 0.9,0.04139 1.8,0.04139 2.7,0.124128 0.8,0.08276 1.7,0.331007 2.4,0.28963 2.8,-0.165503 5.2,0.372383 7.6,0.868894 1.1,0.248255 2.3,0.455134 3.3,0.662013 3,-0.910268 4.9,-0.910268 7.8,-0.04139 2.4,0.703389 5.7,0.496511 6.8,-0.496511 0.4,-0.413758 0.8,-0.786141 2.1,-0.910268 1.3,-0.124129 2.1,0.08276 3,0.49651 2.3,0.951645 5,1.820537 8.4,1.324027 3,-0.455134 6.5,0 9.1,-0.951644 0.4,-0.165505 1.4,-0.04139 2.2,0.04139 1.10003,0.08276 2.40003,0.165504 3.30003,0.413759 2.1,0.579262 3.8,0.331007 5.5,-0.289631 1.3,-0.413759 2.5,-0.537886 4.1,-0.248255 0.8,0.165503 2.2,0.124129 3,-0.08276 2,-0.496511 3.6,-0.331007 5.7,0.08276 2,0.372382 4.5,0.537886 6.8,0.537886 2.2,-0.04139 4.7,-0.206879 5.8,-1.282652 0.1,-0.124128 0.6,-0.124128 0.7,-0.248255 0.3,-0.248256 0.7,-0.496511 0.8,-0.744766 0.2,-0.786142 1.4,-1.075773 2.9,-0.620638 0.8,0.20688 1.3,0.703391 2.1,0.786142 3.4,0.248255 6.9,0.537886 10.4,0.496511 2,-0.04139 3.6,0.04139 5.4,0.455133 3.1,0.744766 6.4,1.158525 10.1,0.70339 1,-0.124128 2.1,-0.124128 3.1,-0.04139 2.1,0.124128 4.1,0.620636 6.1,-0.08276 0.2,-0.08276 0.8,0 1.2,0.04139 2.4,0.165502 4.7,0.455133 7.1,0.496511 2.6,0.04139 5,0.331006 7.4,0.537886 2.3,0.206878 4.7,0.372382 6.9,0.165503 1.3,-0.124129 2.2,-0.99302 3.3,-1.489531 0.2,-0.08276 0.5,-0.20688 0.6,-0.289631 0.6,-0.372384 1.3,-0.496511 2.4,-0.455135 3.2,0.124128 3.6,0.289631 4,1.69641 0,0.124129 0.2,0.248256 0.4,0.496511 1.6,-0.20688 3.4,-0.289631 4.7,-0.662013 0.6,-0.165504 0.4,-0.827518 0.6,-1.282653 0.3,-0.04139 0.7,-0.124128 0.9,-0.08276 1.9,0.413758 3.8,0.496509 5.9,0.331006 0.7,-0.04139 2.1,0.165503 2.4,0.413758 1.2,0.868895 3.2,1.034397 5.3,1.241277 1.4,0.124128 2.9,0.413758 3.9,-0.372382 0.1,-0.08276 0.8,-0.165504 1.1,-0.124129 1.1,0.20688 1.7,0.08276 2.5,-0.248255 0.3,-0.124128 1.3,-0.124128 1.8,-0.04139 1.2,0.206879 2.3,0.413759 3.3,0.744766 1.6,0.537886 3.4,0.372382 5.2,0.413757 1.7,0.04139 1.6,-0.620637 2.4,-0.868892 0.1,-0.04139 0.4,-0.04139 0.7,-0.04139 0.3,0.248255 0.6,0.537886 0.9,0.744766 1.4,-0.372382 2.8,-0.579262 3.8,-0.993021 1.1,-0.413758 1.6,-1.034396 2.7,-1.489529 0.7,-0.289633 1.8,-0.455137 2.8,-0.620639 1.2,-0.20688 2.4,0.08276 2.7,0.579262 0.2,0.289631 0.2,0.579261 0.2,0.827517 4.1,0.868893 4.1,0.868893 8.9,-1.158524 1.6,0.372384 4,0.579262 4.8,1.158524 1.2,0.910268 2.8,0.744766 4.5,0.744766 1,0 2.2,0.08276 2.9,0.331006 2.2,0.744765 4.8,0.951645 7.4,0.99302 1.4,0 2.7,0.08276 4,0.20688 3.5,0.248255 7.1,0.579262 10,-0.868893 2.1,-1.075773 5.4,-1.241277 8.4,-1.241277 2.1,0 4,-0.124128 5.9,-0.372382 1.2,-0.165504 2.3,-0.331006 3.5,-0.496511 0.8,1.655035 -1.9,2.192921 -5,2.689432 0.6,0.20688 0.9,0.413758 1.2,0.413758 4.1,0.08276 8.2,0.165504 12.3,0.20688 0.7,0 1.5,-0.20688 1.9,-0.413758 1.2,-0.537887 2.6,-0.579262 4.1,-0.289631 2.7,0.537886 5.4,0.331006 8.1,0.165502 1.9,-0.124128 2.5,-0.455133 2.6,-1.241275 0.1,-1.324026 0.4,-1.448155 3.7,-1.572283 2.1,-0.08276 4.2,-0.20688 6.3,-0.165504 1.5,0 3.2,0 4.3,0.331008 2.3,0.620637 6.2,0.786142 4.7,2.606679 1.3,0.248255 2.4,0.331006 3.2,-0.165503 -1.5,-1.489532 -1.4,-1.986043 1.2,-2.565305 1.1,-0.248255 2.6,-0.206879 3.9001,-0.206879 2,0.04139 4,0.124128 6.3,0.248255 3,1.241277 6.7,1.69641 11.2,1.241277 3.0999,-0.289631 4,-0.124129 5.5,1.117148 0.9,0.744766 2,1.241275 4.0999,1.158524 4.1,-0.165503 8.2001,0.331007 12.4001,-0.04139 2.0999,-0.165503 3.7,-0.331007 4.9,-1.1999 1.3,-0.99302 4.8,-1.530906 7.2,-1.158524 2.9,0.455135 5.4,0.20688 8,-0.331007 2.2,-0.455135 4.3,-0.49651 6.4,0 2.1,0.496511 4.2,0.413758 6.5,0.206879 2.6,-0.248254 5.3,-0.455134 7.9,-0.413758 2.6,0.04139 5.3,0.289631 7.7,0.70339 4.6,0.827517 8.1,0.744765 11.9,-0.662015 0.2,-0.08276 0.6,-0.124128 1,-0.165502 0.3,0.124128 0.6,0.248255 0.8,0.372382 1.7,0.99302 4.2,0.868893 5.7,-0.165504 0.6,-0.413758 1.7,-0.703389 2.7,-0.99302 0.8,-0.206878 1.9,-0.248255 2.6,-0.496511 2.4,-0.78614 4.6,-0.70339 6.9,0.04139 1.7,0.537886 3.2,1.324028 5.9,1.075773 0.4,-0.04139 0.9,0.165502 1.4,0.248255 1,0.165504 2,0.372384 3,0.413759 2.6,0.04139 5.3,0 7.9,0 1.4,0 2.8,0.04139 4.1,0.08274 0.6,0 1.2,0.124129 1.9,0.124129 1.9,0.04139 2.3,-0.206878 2.2,-1.034396 -0.1,-0.372383 -0.2,-0.827517 0.1,-1.158524 0.9,-0.993021 0.8,-2.027416 0.5,-3.18594 -0.7,0.868893 -1.4,1.28265 -3.1001,0.78614 z m -1395.7,-9.516449 c -0.2,-0.08276 -0.3,-0.165504 -0.5,-0.248255 0.2,-0.04139 0.3,-0.124128 0.5,-0.124128 0.3,0 0.6,0.08276 1,0.124128 -0.7,0.20688 -1,0.289631 -1,0.248255 z m 3.4,-1.324028 c -0.7,-0.124128 -1.2,-0.537886 -1.4,-0.868893 -0.1,-0.248255 0.6,-0.4965103 1.4,-1.0343966 0.9,0.6206376 1.6,0.9516456 1.7,1.2826526 0.2,0.496509 -0.7,0.827517 -1.7,0.620637 z m 2.6,4.840978 c 0.1,-0.04139 0.1,-0.08276 0.1,-0.124129 0.1,0 0.2,0 0.2,0.04139 -0.1,0.04139 -0.2,0.08276 -0.3,0.08276 z m 4.5,1.241275 c -0.1,0 -0.2,-0.124128 -0.2,-0.165504 0.2,0 0.4,-0.04139 0.6,0 0.1,0 0.2,0.124128 0.3,0.165504 -0.3,0 -0.6,0.04139 -0.7,0 z m 18.199998,1.903288 c 0.5,-0.372382 0.9,-0.703388 1.3,-1.075771 1.2,0.951645 1.1,0.951645 -1.3,1.075771 z m -6.6,-9.144065 c 2.4,0.20688 5.1,-0.5378859 7.3,0.868893 -2.1,0.124129 -3.7,0.20688 -5.2,0.289631 -0.7,-0.331006 -1.3,-0.703389 -2.1,-1.158524 z m 5.2,11.171484 c -1.2,-0.20688 -1.3,-0.620639 -0.9,-1.241277 1.9,0.08276 3.6,0 4.4,0.91027 -1.1,0.413758 -2.3,0.537887 -3.5,0.331007 z m 36,-9.516449 c 0.1,0.248255 0.2,0.496511 0.3,0.744766 0,0 -0.5,0.08276 -0.5,0.04139 -0.3,-0.248254 -0.5,-0.455136 -0.7,-0.703391 0.3,0 0.6,-0.04139 0.9,-0.08276 z m -2.2,5.958124 c 0,0 0.2,0.04139 0.2,0.04139 0,0.04139 -0.1,0.124128 -0.2,0.165504 -0.1,-0.04139 -0.3,-0.08276 -0.4,-0.124129 0.2,-0.04139 0.3,-0.08276 0.4,-0.08276 z m -1.6,-6.661514 c -1.1,0.91027 -1.1,0.91027 -3.3,0.289631 1.3,-0.08276 2.1,-0.165503 3.3,-0.289631 z m -7.4,-0.537887 c 1.2,-0.289631 2.3,-0.04139 3.6,0.496511 -1.3,0.248255 -2.4,0.413759 -3.5,0.620639 -0.3,-0.08276 -0.5,-0.124128 -0.8,-0.20688 0.2,-0.289632 0.2,-0.786141 0.7,-0.91027 z m 16.4,11.461115 c -1.9,0.165504 -4.2,0.165504 -6,-0.496509 -1.7,-0.62064 -3.5,-1.199902 -5.3,-1.779163 0,0 0,0 0,0 0,0.04139 0,0.04139 -0.1,0.08276 0,0.20688 0,0.372384 0,0.579263 -0.1,0 -0.3,-0.04139 -0.4,-0.04139 0.1,-0.165504 0.3,-0.372384 0.4,-0.537886 0,-0.04139 0,-0.08276 0,-0.124129 0,0 0,0 0.1,0 -0.3,-0.331008 -0.6,-0.662015 -0.9,-0.99302 0,0 -0.1,0 -0.1,0 0,-0.04139 -0.1,-0.04139 -0.1,-0.08276 -1.1,-0.20688 -2.2,-0.372384 -3.2,-0.620639 -1.1,-0.248256 -2.1,-0.579262 -3.6,-0.99302 0.3,0.537886 0.5,0.827517 0.7,1.1999 -1,0.331006 -2.2,0.413759 -3.2,0.04139 -1.3,-0.496509 -2.4,-1.075771 -3.9,-1.737786 1.4,0 2.6,0.08276 3.6,-0.04139 1.1,-0.124129 2,-0.455134 3.2,-0.703391 0.8,0.537887 1.5,1.034397 2.4,1.572284 0.7,-0.372383 1.3,-0.703389 1.9,-1.034397 1.7,0.289632 2.2,0.827518 1.6,1.448156 -0.4,0.413758 0,0.620638 0.5,0.868893 0.1,0 0.1,0.04139 0.2,0.04139 0,0 0,0 0,0 0.8,-0.124128 1.5,-0.206879 2.7,-0.372383 1,0.455135 2.2,0.993021 3.3,1.572283 1.5,0.827517 2,0.868893 4.3,0.372382 0.6,-0.124128 1.4,-0.165502 2,-0.20688 0.3,0.124129 0.5,0.165505 0.5,0.248256 0,0.662015 1.5,1.530906 -0.6,1.737786 z m 3.2,-1.655035 c -0.1,-0.08276 -0.1,-0.124128 -0.2,-0.206878 0,0 0.2,-0.08276 0.2,-0.04139 0.1,0.04139 0.3,0.08276 0.4,0.124129 -0.1,0.04139 -0.3,0.08276 -0.4,0.124128 z m 3,-5.9995 c 0.4,0.04139 0.6,0.04139 0.9,0.08276 -0.1,0.04139 -0.2,0.08276 -0.4,0.165504 -0.2,-0.04139 -0.3,-0.124129 -0.5,-0.248256 z m 2.500002,3.020439 c -0.6,0.537885 -1.200002,0.248255 -1.900002,-0.08276 0.5,-0.165503 1,-0.289631 1.700002,-0.496511 0.1,0.289632 0.3,0.455135 0.2,0.579262 z m 8.9,-4.013459 c -0.4,-0.413759 -1,-0.786141 -0.8,-0.91027 0.4,-0.206879 1.3,-0.289631 1.9,-0.413758 0.1,0.08276 0.3,0.206879 0.5,0.289631 -0.5,0.289631 -0.9,0.537887 -1.6,1.034397 z m 4.3,-0.827517 c -0.2,0 -0.6,-0.165504 -0.5,-0.248255 0,-0.08276 0.3,-0.20688 0.6,-0.248256 0.2,0 0.4,0.124129 0.7,0.206879 -0.3,0.165504 -0.5,0.289632 -0.8,0.289632 z m 2,9.268194 c -0.3,-0.08276 -0.5,-0.20688 -0.8,-0.331009 0.2,-0.08276 0.5,-0.206878 0.6,-0.206878 0.3,0.04139 0.6,0.165503 1,0.289631 -0.4,0.124129 -0.7,0.289631 -0.8,0.248256 z m 9.3,-3.268694 c 0.2,0.08276 0.4,0.165502 0.4,0.248255 0,0.08276 -0.3,0.165503 -0.6,0.289631 -0.2,-0.124128 -0.5,-0.248255 -0.4,-0.331008 0,-0.08276 0.3,-0.165502 0.6,-0.206878 z m -3.5,-13.40578 0.2,0.041386 -0.3,0.041386 z m -0.2,12.785141 c 0.2,0 0.7,0.248257 0.6,0.331008 -0.1,0.124128 -0.5,0.206878 -0.9,0.372384 -0.4,-0.165506 -0.6,-0.289631 -0.9,-0.41376 0.5,-0.08276 0.8,-0.248255 1.2,-0.289632 z m -2.5,3.599702 c -0.2,-0.537887 -0.4,-0.993022 -0.6,-1.530908 3.2,-0.496511 6.1,-0.20688 8.9,0.413759 0,0.124129 0,0.206878 0,0.331007 -2.7,0.248255 -5.4,0.496509 -8.3,0.786142 z m 19.2,-0.993022 c -0.2,-0.165504 -0.2,-0.496511 0,-0.620637 1.1,-0.579262 1,-1.199902 0.6,-1.861915 -0.1,-0.206879 0.3,-0.579262 0.8,-0.744764 0.3,-0.08276 1.2,0.04139 1.7,0.165502 1.2,0.372383 2,0.786142 2.2,1.489531 0.2,0.70339 1.2,1.365403 2,2.11017 -2.4,0.703388 -6.1,0.455135 -7.3,-0.537887 z m 12.5,-0.413758 c 0,0 -0.1,0.04139 -0.1,0.04139 0,0 -0.1,0 -0.1,-0.04139 -0.4,0.165503 -0.6,0.455134 -1.1,0.537887 -0.4,0.04139 -1.1,-0.08276 -1.6,-0.20688 -0.1,-0.04139 0,-0.41376 0.2,-0.455135 0.4,-0.08276 1,-0.124129 1.6,-0.124129 0.3,0 0.6,0.165503 0.9,0.248256 0,0 0,0 0,0 0.1,0 0.2,0 0.2,0 0.2,-0.08276 0.3,-0.165504 0.5,-0.248256 0.1,0.04139 0.2,0.08276 0.2,0.165503 -0.2,0 -0.4,0.04139 -0.7,0.08276 z m 12,0.910269 c -0.4,-0.04139 -0.7,-0.08276 -1.1,-0.165504 0,-0.08276 0.1,-0.124129 0.1,-0.206878 0.7,0.04139 1.4,0.08276 2,0.124128 0,0.08276 0,0.124129 0.1,0.20688 -0.3,0.04139 -0.7,0.08276 -1.1,0.04139 z m 5.2,-2.11017 c -0.2,0 -0.4,0 -0.6,0 0,-0.20688 0.1,-0.413758 0.1,-0.620637 0.2,0 0.5,0.04139 0.5,0.04139 0.1,0.165504 0.1,0.372382 0,0.579262 z m 16.6,1.820539 c -0.1,-0.04139 -0.2,-0.08276 -0.3,-0.124129 0,0 0.1,-0.04139 0.1,-0.08276 0.1,0.04139 0.2,0.08276 0.3,0.124128 0,0 -0.1,0.04139 -0.1,0.08276 z m 6.5,-7.323528 c -0.6,-0.331007 -2,-0.70339 -2,-1.034397 0.1,-0.662015 1.9,-0.496511 3.1,-0.579262 2.1,-0.124128 2.3,0 2.4,1.075773 -1.1,0.124128 -2.1,0.289631 -3.5,0.537886 z m 5.5,7.033897 c 1,-0.455135 1.9,-0.620639 3.5,-0.124129 -1.3,0.455136 -2.2,0.744767 -3.5,0.124129 z m 6.1,2.730806 c -0.1,0.04139 -0.3,-0.04139 -0.5,-0.08276 0.1,-0.08276 0.1,-0.165502 0.2,-0.206878 0.1,-0.04139 0.3,0.04139 0.5,0.08276 -0.1,0.08276 -0.1,0.165505 -0.2,0.206879 z m 13.3,-10.137087 c -1.8,-0.165502 -3,0.08276 -4.1,0.662015 -0.5,0.289631 -1.6,0.455135 -2.5,0.703389 -2.5,-1.034396 -5.2,-1.324027 -8.2,-0.331007 -0.3,-0.868893 0.3,-1.324028 1.8,-1.448155 2.5,-0.248255 4.9,-0.455135 7.4,-0.662014 0.6,-0.04139 1.3,0.206879 1.9,0.206879 0.4,0 0.9,-0.165502 1.3,-0.248255 0,0 0,0 0,0 h -0.2 l 0.2,-0.04139 c 0,0 0,0 0,0 h 0.1 c 0,0 0,0 -0.1,0 0.4,0.331009 1,0.455136 2,0.372383 0.9,-0.08276 2.1,-0.331007 3.1,0.206879 -0.5,0.49651 -1.5,0.662015 -2.7,0.579262 z m 14.6,0.703391 c -0.6,0.124128 -1.4,0.206879 -2.1,0.165504 -1.1,0 -1.4,-0.289631 -1.1,-0.744766 0.6,-0.827518 3.8,-1.530908 5.9,-1.365404 1.1,0.08276 2.2,0.165503 4.1,0.331007 -2.7,0.662013 -4.7,1.158524 -6.8,1.613659 z m 6.4,-3.8479559 c -0.9,0.4137579 -2,0.5378859 -3.4,0.2482549 -2.6,-0.5792615 -5.4,-0.7447656 -8.3,-0.7447656 -1.2,0 -2.5,-0.082757 -3.8,-0.1241285 -0.3,-0.744766 0.5,-0.9516457 1.6,-0.9102701 1.3,0.041387 2.1,-0.2068797 3.2,-0.4551335 3.4,-0.8688929 8.2,-0.5378863 10.3,0.7033889 0.6,0.3723838 1.3,0.8275173 0.4,1.2826523 z m 24.4,1.9446659 c -0.1,0 -0.2,0 -0.3,0 0,-0.08276 0.1,-0.124129 0.1,-0.20688 0.1,0.04139 0.2,0.04139 0.2,0.08276 0.1,0.04139 0.1,0.08276 0,0.124129 z m 20.9,0.124128 c -0.2,-0.289629 -0.5,-0.537886 -0.8,-0.99302 1.6,0.206878 1.5,0.537887 0.8,0.99302 z m -6.2,-7.0752718 v 0.082757 l -0.2,-0.041386 z m 0.3,7.6545358 -0.2,-0.04139 0.2,0.04139 c -0.1,-0.04139 -0.1,-0.04139 0,0 -0.4,-0.248256 -0.9,-0.455135 -1.3,-0.703391 1.3,-0.372382 2.3,-1.034397 4,-0.124128 -1,0.248255 -1.9,0.537886 -2.7,0.827519 0,-0.04139 0,-0.04139 0,0 z m 5.4,2.110168 c -0.5,0.289631 -1.6,0.537886 -2.6,0.579262 -1.6,0.124128 -1.6,-0.537887 -2.1,-0.951645 1.3,-0.49651 3.4,-0.620639 3.2,-1.530907 0,-0.08276 1.2,-0.413758 1.7,-0.331007 0.5,0.04139 1.2,0.455135 1.1,0.662015 -0.3,0.537886 -0.6,1.117147 -1.3,1.572282 z m 4.7,-11.4611141 v 0 c -0.1,0 0,0 0,0 z m 0,16.9227291 c -0.6,-0.04139 -1.2,-0.124129 -1.8,-0.165504 0.1,-0.165504 0.2,-0.331007 0.3,-0.455135 0.6,0.08276 1.2,0.165504 1.8,0.248255 -0.1,0.08276 -0.2,0.20688 -0.3,0.372384 z m 8.5,-7.571783 c -1.6,-1.696412 0.7,-2.31705 5.4,-1.779163 -0.4,1.324028 -2.8,1.613659 -5.4,1.779163 z m 36.6,-1.075773 c -0.4,0.124128 -1.1,0.04139 -1.6,0.04139 0,-0.248255 -0.1,-0.579262 0.2,-0.70339 0.5,-0.165504 1.4,-0.206878 2.1,-0.331007 0.1,0.124129 0.3,0.20688 0.4,0.331007 -0.4,0.248255 -0.7,0.537886 -1.1,0.662015 z m 14,8.606179 c -0.1,-0.04139 -0.2,-0.08276 -0.2,-0.08276 0.1,-0.08276 0.2,-0.124128 0.2,-0.206878 0.1,0.04139 0.1,0.04139 0.2,0.08276 0,0.08276 -0.1,0.124128 -0.2,0.206878 z m 0.1,-2.89631 c 0.1,-0.124129 0.2,-0.248255 0.3,-0.372384 1.1,0.206881 2.2,0.372384 3.3,0.579264 -1.7,0.496509 -2.5,0 -3.6,-0.20688 z m 7.1,4.178962 c -0.1,-0.04139 -0.2,-0.124128 -0.2,-0.20688 0.2,0 0.4,-0.08276 0.5,-0.04139 0.1,0.04139 0.2,0.124128 0.3,0.20688 -0.3,0 -0.5,0.04139 -0.6,0.04139 z m 31.4,-11.088732 c -0.1,0 -0.2,0 -0.2,0 0,-0.04139 0,-0.08276 0,-0.124129 0.1,0 0.2,0.04139 0.2,0.04139 0,0 0.1,0.04139 0,0.08276 z m 25.6,1.117148 c -0.2,-0.04139 -0.4,-0.124128 -0.6,-0.165502 0.2,-0.165504 0.5,-0.289631 0.7,-0.455135 0.2,0.04139 0.5,0.124128 0.5,0.124128 -0.2,0.165503 -0.4,0.331007 -0.6,0.496509 z m 5.2,-1.034395 c 0,0 0,-0.04139 -0.1,-0.04139 -0.5,-0.04139 -1,-0.124128 -1.7,-0.165504 1.3,-0.4551334 1.4,-0.04139 1.7,0.165504 0.1,0 0.1,0 0.1,0.04139 z m 11,11.543865 c -1.8,-0.537886 -3.4,-1.075772 -5.2,-1.48953 -1.6,-0.41376 -3.4,-0.08276 -4.4,0.744764 0,0 0,0 0,0 0.1,0.08276 0.1,0.165504 0.2,0.248256 -0.1,-0.08276 -0.2,-0.124129 -0.3,-0.20688 0,0 0,0 0,-0.04139 -1.9,-0.289631 -1,-0.827517 -0.6,-1.28265 0.5,-0.537887 1.8,-0.993022 0.8,-1.696411 -0.1,-0.08276 0.3,-0.413759 0.7,-0.537886 0.8,-0.289632 1.6,-0.537886 2.5,-0.786142 0.3,-0.620637 0.6,-1.282652 1.1,-1.90329 0.2,-0.289631 0.7,-0.620638 1.6,-0.372384 0.3,0.08276 0.3,0.455135 0.1,0.662015 -1.5,1.613659 0.1,3.061814 0.9,4.675473 2.1,-0.206879 3.8,-0.165504 5.1,0.620638 -0.7,0.455135 -1.7,0.951646 -2.5,1.365404 z m 6.1,-7.406279 c -0.2,-0.413759 -0.1,-0.91027 -0.7,-1.117148 -0.6,-0.248255 -1.7,-0.248255 -2.6,-0.372384 -0.6,-0.08276 -1.1,-0.20688 -1.9,-0.372382 1.6,-0.537886 0.8,-1.613659 3.1,-1.90329 0.2,0 0.4,0 0.6,0.04139 -0.2,0 -0.4,0 -0.6,-0.04139 0.4,0.289631 0.9,0.579262 1.2,0.868893 0.2,0.20688 0.2,0.537886 0.5,0.579262 2.6,0.372384 2,1.48953 3.7,2.358425 -1.5,0 -2.4,0 -3.3,-0.04139 z m 7.8,7.116648 c 4.2,-0.620637 4.6,-0.537886 5.5,0.868893 -2.8,0.331007 -3.6,0.20688 -5.5,-0.868893 z m 31.4,-18.0398768 c -0.5,0.041387 -1.4,-0.1655025 -1.5,-0.289631 -0.2,-0.2482553 0,-0.6620132 0.4,-0.7861401 1.5,-0.4551366 3.1,-0.8688929 5.4,-0.3310066 -0.7,0.910267 -2.3,1.3240264 -4.3,1.4067777 z m 19,15.4331968 c -0.4,-0.165503 -0.9,-0.289631 -1.3,-0.455133 0.3,-0.124129 0.5,-0.248256 0.8,-0.372383 0.4,0.206878 0.8,0.372383 1.1,0.579261 -0.2,0.08276 -0.4,0.165504 -0.6,0.248255 z m 15.9,0.744766 c -0.5,0.744766 -1.5,1.034397 -3.8,1.034397 -1.1,-0.910268 -0.8,-1.820539 0.7,-2.813558 1.8,0.537886 3.7,0.827517 3.1,1.779161 z m 14.1,-9.019938 c 0.5,0.124128 1,0.289631 1.5,0.413759 -0.1,0.04139 -0.2,0.124129 -0.3,0.165503 -0.5,-0.124129 -1,-0.289631 -1.5,-0.413758 0.1,-0.04139 0.2,-0.124128 0.3,-0.165504 z m 2.8,12.785142 c -0.2,-0.08276 -0.3,-0.124128 -0.5,-0.206879 0.1,-0.04139 0.3,-0.124129 0.4,-0.124129 0.1,0 0.2,0.08276 0.4,0.165504 -0.1,0.04139 -0.2,0.08276 -0.3,0.165504 z m 3.9,-0.786141 c 0,0 0,0.04139 0,0.04139 0,0 -0.1,0 0,-0.04139 -0.1,0 -0.1,0 -0.1,0 -0.4,0.703389 -0.4,0.703389 -1.9,1.075772 -0.7,-0.455135 -0.8,-1.199899 -2.6,-1.282652 -1.4,-0.04139 -2.8,-0.08276 -4.2,-0.165503 0,-0.08276 0,-0.165504 0,-0.289631 2.3,-0.165504 4.7,-0.331008 7,-0.537886 0.6,0.455134 1.1,0.827517 1.8,1.1999 -0.1,0 0,0 0,0 0.3,-0.455135 0.8,-0.827518 2.2,-0.868893 -0.1,0.703389 -0.1,0.703389 -2.2,0.868893 z m 19.9,-10.261215 c -0.1,0 -0.2,0 -0.3,0 0,-0.04139 0.1,-0.124129 0.1,-0.165503 0.1,0 0.2,0.04139 0.2,0.04139 0.1,0.08276 0,0.124128 0,0.124128 z m 19.9,-8.6475555 c -2.1,0.4551351 -4,0.082758 -5.8,-0.2482553 4.4,-0.9516442 4.5,-0.9516442 5.8,0.2482553 z m 1.4,20.6465565 c -2.1,0 -4.2,0 -6.7,0 0.6,-0.331007 1,-0.496511 1.3,-0.703389 0.3,-0.165504 0.7,-0.455135 0.6,-0.579264 -0.7,-0.537885 -0.8,-1.034395 -0.7,-1.69641 0.1,-0.537886 -0.8,-1.158524 -1.4,-1.861913 0.4,-0.248255 1,-0.620639 1.6,-0.99302 1.6,0.165503 2.5,0.413758 2.4,1.158523 -0.1,0.372383 0.6,0.744766 1.1,1.199901 -0.2,0.455133 -0.5,0.910268 -0.7,1.406779 -0.1,0.455134 0,0.951644 0,1.530906 0.8,0.124129 1.7,0.248256 2.6,0.372384 -0.1,0.08276 -0.1,0.124128 -0.1,0.165503 z m 7.3,-10.302589 c -0.2,0.248253 -0.5,0.537884 -0.9,0.744764 0,0 -1,-0.165504 -1,-0.165504 0.1,-0.289631 0.4,-0.620638 0.7,-0.910269 0.1,-0.04139 0.6,-0.04139 1,-0.04139 0,0.124128 0.2,0.248255 0.2,0.372384 z m 15.4,8.316547 c -0.2,0 -0.5,-0.04139 -0.7,-0.04139 0.1,-0.248256 0.3,-0.496511 0.4,-0.744766 0.2,0 0.4,0.04139 0.6,0.04139 -0.1,0.206878 -0.2,0.496509 -0.3,0.744766 z m 3.5,-17.8743728 c -0.7,0.1241285 -1.6,0.3310066 -2.2,0.2482553 -0.8,-0.082757 -1.5,-0.4137594 -2.6,-0.744766 2.2,-0.7033888 3.4,-0.2068797 4.6,-0.041387 0.2,0.041387 0.3,0.5378864 0.2,0.5378864 z m 6.4,14.6470548 c -1.3,-0.49651 -2.5,-0.951644 -3.8,-1.448153 0.1,-0.08276 0.1,-0.165504 0.2,-0.248255 1.2,0.124128 2.4,0.248255 3.9,0.37238 0.1,0.413761 0.2,0.786142 0.3,1.199901 -0.2,0.04139 -0.4,0.08276 -0.6,0.124129 z m 17.6,6.413259 c -0.1,0 -0.2,0 -0.3,0 0,-0.04139 0.1,-0.124128 0.1,-0.165502 0.1,0 0.2,0.04139 0.2,0.04139 0,0.08276 0,0.124128 0,0.124128 z m 15.7,-10.881851 c -1.7,-0.744766 -2.8,-1.365403 -1.3,-2.3998 1.4,0.165504 3,0.331006 4.8,0.537886 -1.4,0.744764 -2.4,1.282651 -3.5,1.861914 z m 13.5,-1.572283 c -0.2,-0.04139 -0.5,-0.165504 -0.5,-0.248256 0,-0.08276 0.3,-0.165504 0.5,-0.248255 0.3,0.124129 0.5,0.20688 1,0.372384 -0.5,0.08276 -0.8,0.165502 -1,0.124128 z m 9.4,12.619638 c -0.1,-0.08276 -0.2,-0.165504 -0.4,-0.289631 0.3,-0.04139 0.5,-0.124128 0.8,-0.124128 0.1,0 0.2,0.124128 0.3,0.206879 -0.2,0.08276 -0.5,0.124129 -0.7,0.20688 z m 0.7,-20.1914208 c 1,-0.5792635 2.2,-0.7861417 4.3,-0.5792635 -1.4,0.7033904 -2.9,0.6620148 -4.3,0.5792635 z m 21.1,17.4192378 c -0.1,-0.04139 -0.3,-0.124128 -0.2,-0.165502 0,-0.04139 0.2,-0.08276 0.4,-0.124129 0.1,0.04139 0.2,0.124129 0.2,0.165504 0,0.04139 -0.2,0.08276 -0.4,0.124127 z m 2.6,-0.827517 c 0.2,-0.662013 0.9,-0.786142 2.6,-0.372382 -1.2,0.165502 -1.9,0.248255 -2.6,0.372382 z m 4.2,-0.827517 c 0,-0.08276 0,-0.124129 0.1,-0.20688 0,-0.04139 0.3,-0.04139 0.3,-0.04139 0.1,0.04139 0.1,0.124129 0.2,0.20688 -0.3,0.04139 -0.4,0.04139 -0.6,0.04139 z m 2.1,-1.98604 c -0.3,0 -0.6,-0.04139 -0.9,-0.04139 -0.1,-0.537887 -0.2,-1.034396 -0.4,-1.820538 1.6,0.248256 2.6,0.455134 4.2,0.703389 -1.3,0.496511 -2.1,0.827518 -2.9,1.158526 z m 6.4,-0.206881 c -1.3,-0.620638 -2.5,-1.241275 -4.1,-1.986041 2.1,0.04139 4,-0.248254 5.3,0.620637 0.2,0.124129 0.8,0.08276 1.3,0.124129 1.1,0.04139 2.2,0.124128 3.2,0.165502 0,0.08276 0,0.206881 0,0.289631 -1.8,0.248255 -3.7,0.496511 -5.7,0.786142 z m 16.2,-3.765204 c -0.1,-0.04139 -0.2,-0.08276 -0.3,-0.124128 0,0 0.1,-0.04139 0.1,-0.08276 0.1,0.04139 0.2,0.08276 0.3,0.124129 0,0.04139 0,0.08276 -0.1,0.08276 z m 0.4,-10.7163489 c 0,0 -0.1,-0.041386 -0.1,-0.082757 0.1,0 0.2,-0.041386 0.3,-0.041386 0,0.041386 0,0.082757 0.1,0.082757 -0.1,0 -0.2,0.041386 -0.3,0.041386 z m 6.3,16.5503469 c -0.1,0 -0.1,-0.04139 -0.2,-0.08276 0.1,0 0.3,-0.04139 0.4,-0.04139 0,0.04139 0,0.08276 0,0.124128 0,0 -0.1,0 -0.2,0 z m -0.4,-7.075274 c 2.2,-0.620638 4,-1.1999 6.5,-0.662014 -1.7,1.241277 -3.3,1.448155 -6.5,0.662014 z m 23.9,-0.827516 c -0.1,0 -0.2,-0.04139 -0.2,-0.04139 0,-0.04139 0,-0.08276 0.1,-0.08276 0.1,0 0.2,0.04139 0.2,0.04139 0,0 -0.1,0.04139 -0.1,0.08276 z m 4.7,12.412759 c 0,0 0.1,-0.04139 0.1,-0.04139 v -0.04139 l 0.1,0.04139 z m 8.7,-0.08276 -0.1,-0.08276 h 0.2 z m 63.3,-5.502989 -0.1,-0.08276 h 0.2 z m 13.1,0.951645 c -1.1,-0.744765 -1.1,-0.744765 0.8,-1.1999 0.1,0.537885 0.1,0.537885 -0.8,1.1999 z m 13.5,0.78614 c -0.3,0 -0.5,-0.165503 -0.8,-0.248254 0.1,-0.04139 0.1,-0.124128 0.2,-0.165503 0.6,0.04139 1.2,0.04139 1.8,0.08276 0,0.08276 0,0.124128 0.1,0.20688 -0.5,0.08276 -0.9,0.165504 -1.3,0.124128 z m 5.5,-5.751244 c -1,0.331006 -2.1,0.579262 -3.4,0.951646 0,-1.075773 0,-2.110171 0,-3.351446 1,-0.08276 2.1,-0.165504 3.6,-0.248255 -0.5,0.827517 -1.2,1.48953 0.5,2.027417 0.1,0 -0.3,0.496511 -0.7,0.620638 z m 128.39997,9.557824 c -0.3,-0.04139 -0.6,-0.08276 -0.9,-0.124129 0,0 0,-0.08276 0.1,-0.08276 0.3,0 0.6,0 1,0.04139 -0.2,0.04139 -0.2,0.124129 -0.2,0.165503 z m 86.90003,-8.151045 c 0.3,0 0.5,0.04139 0.8,0.04139 0,0.248255 0,0.49651 0,0.744766 -0.4,0 -0.7,0 -1.1,-0.04139 0.1,-0.289631 0.2,-0.537886 0.3,-0.744766 z m 0.5,8.316549 c -0.2,-0.04139 -0.3,-0.124129 -0.4,-0.165504 0.2,-0.04139 0.4,-0.08276 0.7,-0.124129 0.1,0.08276 0.2,0.165504 0.2,0.248256 -0.2,0 -0.4,0.04139 -0.5,0.04139 z m 43.7,-11.750746 c 1.9,-0.537886 3.1,-1.117148 4.8,-0.786141 0.6,0.124128 0.8,0.662013 1.5,1.282652 -2.4,-0.20688 -4.1,-0.331007 -6.3,-0.496511 z m 11.5,0.993022 c -1.9,-0.91027 -2.2,-1.365404 -1.3,-1.696412 0.8,-0.248255 2.5,-0.206878 3.2,0.124128 0.9,0.413758 0.5,0.786142 -1.9,1.572284 z m 28.3,-0.08276 c -1.9,-0.206879 -1.9,-0.206879 -1.6,-1.324028 2.7,-0.165504 2.7,-0.08276 1.6,1.324028 z m 50,12.164504 c -0.3,0.04139 -0.7,0 -1.4,0 0.5,-0.662014 1.2,-0.786142 2.8,-0.455134 -0.6,0.206878 -1,0.372382 -1.4,0.455134 z m 43.7,-0.827518 c 0,-0.08276 -0.1,-0.165502 -0.1,-0.248254 0.4,0 0.8,-0.04139 1.3,-0.04139 0,0.08276 0,0.124128 0.1,0.20688 -0.5,0.04139 -0.9,0.08276 -1.3,0.08276 z M 1273.1,15.483595 c -0.4,-1.572282 0.5,-2.192921 3.1,-2.399799 0.5,1.075771 -0.2001,1.69641 -3.1,2.399799 z m 137.4,4.840976 c -1.2,0.537886 -2.2,0.951646 -0.8,1.779163 0.9,0.496511 0.6,1.324028 0.8,1.986041 -1,0.289631 -1.9,0.20688 -2,-0.248255 -0.1,-0.662013 -1,-0.868893 -2.2,-1.117148 -0.7,-0.165503 -1.5,-0.579262 -1.5,-0.868893 0,-0.910269 -1.3,-1.241275 -3,-1.448155 -0.3,-0.04139 -0.5,-0.124129 -0.8,-0.20688 2.3,-3.516947 8.6,-3.185942 13.3,-1.779163 -1.2,0.662015 -2.4,1.324028 -3.8,1.90329 z m 10.3,-2.523927 c 0.2,0.496512 0.2,0.951645 2.1,1.158523 0,-1.158523 0,-2.19292 0,-3.268692 -2.2,0.579262 -2.4,1.282653 -2.1,2.110169 z m -143,11.585242 c 2.1,-0.289631 4.2,0.20688 6.1,-0.496509 -1.9,-0.620639 -3.9001,-0.662015 -6.3,-0.744766 0,0.413757 0.1,0.744766 0.2,1.241275 z M 766.2999,24.917293 c 0.7,0.993021 2.1,1.365403 4.3,1.199901 0.8,-1.282653 -0.5,-1.613659 -4.3,-1.199901 z M 24.6999,5.1810052 c -0.5,-0.8688929 -1.8,-0.7033904 -2.8,-0.6620132 -1.2,0.082758 -2.3,0.2068782 -1.9,1.0757727 1.6,-0.1655041 3.1,-0.2896326 4.7,-0.4137595 z m 1135.6,22.0533348 c -0.4,-0.04139 -1.1,0.20688 -1.7,0.331009 0.3,0.206878 0.5,0.537886 0.9,0.579262 0.7,0.08274 1.6,0.04139 2.4,0.04139 0.1,-0.08276 0.2,-0.20688 0.3,-0.289631 -0.7,-0.248255 -1.3,-0.579262 -1.9,-0.662015 z m 48.1,1.489533 c 1.6,0 2.6,0 3.6,0 -1.4,-0.786144 -1.4,-0.786144 -3.6,0 z m -663.4,-4.551346 c 0,0.124128 0,0.248255 0,0.372383 0.6,0 1.2,-0.04139 1.7,-0.04139 0,-0.08276 0,-0.165504 0,-0.248255 -0.5,-0.04139 -1.1,-0.04139 -1.7,-0.08276 z m 254.6,-19.6121593 c 0.3,-0.041386 0.5,-0.082757 0.7,-0.1655041 -0.3,-0.041386 -0.7,-0.082757 -1.2,-0.1655026 0.3,0.2068782 0.4,0.3310067 0.5,0.3310067 z m -374,-3.3100693 c -0.2,-0.041387 -0.3,-0.082757 -0.5,-0.082757 -0.2,0 -0.3,0.082757 -0.5,0.1241285 0.2,0.041386 0.4,0.1241284 0.6,0.1241284 0.1,0 0.2,-0.1241284 0.4,-0.1655041 z m 387.1,26.3150506 c 0.2,0.04139 0.3,0.124128 0.4,0.08276 0.1,-0.04139 0.2,-0.124128 0.4,-0.165504 -0.1,-0.04139 -0.3,-0.08276 -0.4,-0.08276 -0.2,0.04139 -0.3,0.124128 -0.4,0.165504 z M 55.899898,22.724372 c 0,0.04139 0,0.08276 0.1,0.124128 0.1,0 0.2,0 0.3,-0.04139 0,-0.04139 0,-0.08276 -0.1,-0.124129 -0.2,0 -0.3,0 -0.3,0.04139 z M 509.8999,23.510513 c -0.1,-0.04139 -0.3,0.04139 -0.5,0.04139 0.1,0.08276 0.1,0.165502 0.2,0.165502 0.2,0 0.4,-0.04139 0.5,-0.04139 0,-0.08276 -0.1,-0.165503 -0.2,-0.165503 z m 64.5,1.572284 c 0,0.04139 0.2,0.04139 0.2,0.08276 0.1,-0.04139 0.1,-0.124128 0.2,-0.165504 -0.1,0 -0.2,0 -0.3,0 0,0.04139 -0.1,0.08276 -0.1,0.08276 z m 194.3,2.358423 c 0.1,0 0.2,0 0.2,-0.04139 -0.1,0 -0.3,0 -0.4,-0.04139 0.1,0.04139 0.1,0.08276 0.2,0.08276 z m -404.3,-3.185941 c 0,0.04139 0,0.08276 0.1,0.08276 0,0 0.1,0 0.2,-0.04139 0,-0.04139 0,-0.08276 -0.1,-0.08276 0,0 -0.1,0.04139 -0.2,0.04139 z m 453,3.061814 c 0.2,0.04139 0.4,0.04139 0.6,0.08276 v 0 c 0,0 0,0 0,0 0,0 0,0 0,0 -0.2,-0.04139 -0.4,-0.08276 -0.6,-0.08276 z m -176.9,-1.365403 h 0.2 l -0.1,-0.08276 z m -623.3,-4.509971 h 0.2 l -0.1,-0.124128 z m 616.1,-8.399299 v 0.08276 l 0.2,-0.04139 z"
   id="path14"
   style="clip-rule:evenodd;fill:#f5f3ef;fill-opacity:1;fill-rule:evenodd;stroke-width:0.64324" /></svg>
