<?xml version="1.0" encoding="UTF-8" standalone="no"?>
<svg
   xmlns:dc="http://purl.org/dc/elements/1.1/"
   xmlns:cc="http://creativecommons.org/ns#"
   xmlns:rdf="http://www.w3.org/1999/02/22-rdf-syntax-ns#"
   xmlns:svg="http://www.w3.org/2000/svg"
   xmlns="http://www.w3.org/2000/svg"
   xmlns:sodipodi="http://sodipodi.sourceforge.net/DTD/sodipodi-0.dtd"
   xmlns:inkscape="http://www.inkscape.org/namespaces/inkscape"
   version="1.1"
   id="svg838"
   width="32.01545"
   height="32"
   viewBox="0 0 32.01545 32"
   sodipodi:docname="chalk.svg"
   inkscape:version="1.0.2-2 (e86c870879, 2021-01-15)">
  <metadata
     id="metadata844">
    <rdf:RDF>
      <cc:Work
         rdf:about="">
        <dc:format>image/svg+xml</dc:format>
        <dc:type
           rdf:resource="http://purl.org/dc/dcmitype/StillImage" />
      </cc:Work>
    </rdf:RDF>
  </metadata>
  <defs
     id="defs842" />
  <sodipodi:namedview
     pagecolor="#ffffff"
     bordercolor="#666666"
     borderopacity="1"
     objecttolerance="10"
     gridtolerance="10"
     guidetolerance="10"
     inkscape:pageopacity="0"
     inkscape:pageshadow="2"
     inkscape:window-width="1920"
     inkscape:window-height="1001"
     id="namedview840"
     showgrid="false"
     inkscape:zoom="1.2590526"
     inkscape:cx="274.73591"
     inkscape:cy="149.42933"
     inkscape:window-x="-9"
     inkscape:window-y="-9"
     inkscape:window-maximized="1"
     inkscape:current-layer="g846" />
  <g
     inkscape:groupmode="layer"
     inkscape:label="Image"
     id="g846"
     transform="translate(-0.4100334,-0.48836985)">
    <path
       style="fill:#f5f3ef;fill-opacity:1;stroke:#000000;stroke-width:0.0986032px;stroke-linecap:butt;stroke-linejoin:miter;stroke-opacity:1"
       d="M 1.0744411,25.422818 C 1.6226487,24.71798 25.900414,0.75347652 25.900414,0.75347652 L 29.659551,2.4764147 32.009012,6.6271294 30.051128,9.3681673 8.2794553,31.061525 6.9089363,31.922994 3.4239022,30.944052 1.1919142,28.085541 Z"
       id="path1449" />
    <path
       style="fill:#000000;stroke-width:0.0626881"
       d="M 6.0620391,32.469514 C 5.2964899,32.392297 4.4621769,32.053772 3.5698948,31.458322 2.9724355,31.059616 1.8696595,29.955535 1.4588016,29.344729 0.43925108,27.829005 0.14523516,26.349651 0.65519596,25.301347 0.88193543,24.835249 24.842138,0.88571231 25.268912,0.69858982 c 1.35551,-0.5943375 3.411239,0.10124672 5.057834,1.71138918 1.741335,1.7027839 2.505829,3.8291278 1.885505,5.2442886 C 32.029125,8.072035 8.0731305,32.034815 7.61097,32.262516 7.2332484,32.448615 6.6403651,32.527849 6.0620391,32.469514 Z m 1.06664,-1.228423 C 7.8142857,30.927125 7.8587096,29.820716 7.2352049,28.588005 6.8365419,27.799822 6.0525469,26.864446 5.3141296,26.29599 4.0846385,25.349493 2.6556014,24.973107 1.9853587,25.419245 c -0.63904,0.425369 -0.5672162,1.673578 0.1683224,2.925233 1.195697,2.0347 3.6881698,3.485902 4.974998,2.896613 z M 31.184212,7.1750102 C 31.389478,6.7428466 31.249549,5.7127221 30.887462,4.9904006 29.996413,3.2128582 27.887533,1.6310965 26.388365,1.615862 26.063359,1.6125588 25.860142,1.6428168 25.73014,1.7138669 25.626705,1.7703972 20.523953,6.8366022 14.390691,12.9721 L 3.2393084,24.12755 3.562012,24.196757 c 1.0267286,0.220194 2.2609577,0.952132 3.2155585,1.906932 0.9420606,0.942255 1.6042074,2.017264 1.8821388,3.055688 L 8.7955344,29.666855 19.942962,18.519702 C 26.074046,12.388768 31.132609,7.2836562 31.184212,7.1750102 Z"
       id="path1413" />
  </g>
</svg>
