<?xml version="1.0" encoding="UTF-8" standalone="no"?>
<svg
   xmlns:dc="http://purl.org/dc/elements/1.1/"
   xmlns:cc="http://creativecommons.org/ns#"
   xmlns:rdf="http://www.w3.org/1999/02/22-rdf-syntax-ns#"
   xmlns:svg="http://www.w3.org/2000/svg"
   xmlns="http://www.w3.org/2000/svg"
   xmlns:sodipodi="http://sodipodi.sourceforge.net/DTD/sodipodi-0.dtd"
   xmlns:inkscape="http://www.inkscape.org/namespaces/inkscape"
   version="1.1"
   id="svg2"
   width="14.260811"
   height="15.999993"
   viewBox="0 0 14.260811 15.999993"
   sodipodi:docname="cold-icon.svg"
   inkscape:version="1.0.2-2 (e86c870879, 2021-01-15)">
  <metadata
     id="metadata8">
    <rdf:RDF>
      <cc:Work
         rdf:about="">
        <dc:format>image/svg+xml</dc:format>
        <dc:type
           rdf:resource="http://purl.org/dc/dcmitype/StillImage" />
        <dc:title></dc:title>
      </cc:Work>
    </rdf:RDF>
  </metadata>
  <defs
     id="defs6" />
  <sodipodi:namedview
     pagecolor="#ffffff"
     bordercolor="#666666"
     borderopacity="1"
     objecttolerance="10"
     gridtolerance="10"
     guidetolerance="10"
     inkscape:pageopacity="0"
     inkscape:pageshadow="2"
     inkscape:window-width="1920"
     inkscape:window-height="1001"
     id="namedview4"
     showgrid="false"
     inkscape:zoom="1.6009145"
     inkscape:cx="220.66743"
     inkscape:cy="172.84766"
     inkscape:window-x="-9"
     inkscape:window-y="-9"
     inkscape:window-maximized="1"
     inkscape:current-layer="g10" />
  <g
     inkscape:groupmode="layer"
     inkscape:label="Image"
     id="g10"
     transform="translate(-35.33257,141.71914)">
    <path
       style="fill:#15191e;fill-opacity:1;stroke-width:0.0313229"
       d="m 42.418044,-125.72265 c -0.01723,-0.005 -0.06983,-0.0177 -0.116886,-0.028 -0.114794,-0.0253 -0.30538,-0.19682 -0.357623,-0.32185 -0.03224,-0.0772 -0.04232,-0.31774 -0.04232,-1.01065 0,-0.50016 -0.009,-0.90937 -0.02001,-0.90937 -0.01101,0 -0.348984,0.24597 -0.751062,0.5466 -0.49866,0.37284 -0.76612,0.55318 -0.841368,0.5673 -0.452258,0.0848 -0.805927,-0.36656 -0.615546,-0.78566 0.04869,-0.10718 0.218818,-0.24704 1.142598,-0.93933 l 1.08539,-0.8134 v -1.65264 c 0,-0.90895 -0.0065,-1.65263 -0.01449,-1.65263 -0.008,0 -0.649303,0.38212 -1.425192,0.84916 -0.913373,0.5498 -1.410707,0.86674 -1.410707,0.89901 0,0.1509 -0.25505,2.51415 -0.281604,2.6093 -0.149326,0.53506 -0.91296,0.52752 -1.067273,-0.0105 -0.02038,-0.071 -0.0013,-0.36286 0.06483,-0.9918 0.05153,-0.49013 0.08691,-0.89794 0.07861,-0.90623 -0.0083,-0.008 -0.364185,0.19424 -0.790861,0.4501 -0.71448,0.42843 -0.789786,0.4662 -0.953106,0.47809 -0.214335,0.0156 -0.37708,-0.0618 -0.496649,-0.23635 -0.06235,-0.091 -0.07777,-0.1522 -0.07777,-0.30865 0,-0.30012 0.05737,-0.35347 0.969284,-0.90137 0.426103,-0.25601 0.762903,-0.47572 0.748443,-0.48824 -0.01446,-0.0125 -0.391973,-0.16953 -0.838917,-0.34892 -0.620202,-0.24892 -0.836849,-0.3502 -0.914927,-0.42773 -0.33616,-0.33377 -0.09714,-0.92578 0.375677,-0.93047 0.138468,-10e-4 0.335649,0.0693 1.377218,0.49367 0.668587,0.2724 1.233933,0.49088 1.256323,0.48551 0.05512,-0.0132 2.866667,-1.69709 2.866667,-1.71687 0,-0.0198 -2.811544,-1.70364 -2.866667,-1.71687 -0.02239,-0.005 -0.587736,0.2131 -1.256323,0.4855 -1.024724,0.4175 -1.240226,0.49504 -1.372356,0.49377 -0.47819,-0.005 -0.719298,-0.59421 -0.380539,-0.93057 0.07808,-0.0775 0.294725,-0.17881 0.914927,-0.42773 0.446944,-0.17938 0.824457,-0.3364 0.838917,-0.34892 0.01446,-0.0125 -0.309733,-0.22367 -0.720427,-0.46922 -0.410694,-0.24556 -0.787215,-0.48322 -0.836713,-0.52813 -0.267484,-0.24271 -0.219531,-0.68499 0.0942,-0.86885 0.117037,-0.0686 0.167564,-0.0795 0.318051,-0.0685 0.165338,0.012 0.237755,0.0483 0.954684,0.47821 0.426676,0.25585 0.782283,0.45867 0.790239,0.45072 0.008,-0.008 -0.02737,-0.41592 -0.07851,-0.90658 -0.06534,-0.62696 -0.08442,-0.92193 -0.0642,-0.99243 0.09712,-0.33863 0.475853,-0.50885 0.783251,-0.35202 0.145921,0.0744 0.241367,0.18935 0.283921,0.34183 0.02667,0.0956 0.281604,2.45872 0.281604,2.6104 0,0.0337 0.476473,0.33725 1.411386,0.89901 0.776263,0.46644 1.417599,0.84806 1.425192,0.84806 0.0076,0 0.01381,-0.74368 0.01381,-1.65263 v -1.65264 l -1.085677,-0.81361 c -0.97331,-0.72941 -1.092004,-0.82792 -1.146821,-0.95185 -0.125172,-0.28297 -0.0067,-0.60055 0.27118,-0.72672 0.146183,-0.0664 0.287782,-0.0754 0.416432,-0.0265 0.04839,0.0184 0.40658,0.27212 0.795977,0.56382 0.389397,0.29169 0.7172,0.53036 0.728451,0.53036 0.01125,0 0.02046,-0.40785 0.02046,-0.90633 0,-0.5642 0.01257,-0.93961 0.03331,-0.9945 0.07882,-0.20861 0.303309,-0.36165 0.530497,-0.36165 0.2495,0 0.463533,0.16425 0.53111,0.40757 0.01866,0.0672 0.03243,0.48445 0.03253,0.9857 9.4e-5,0.47806 0.0091,0.86921 0.02011,0.86921 0.01096,0 0.322698,-0.22788 0.692744,-0.5064 0.370046,-0.27852 0.723487,-0.53224 0.785424,-0.56381 0.233089,-0.11884 0.532744,-0.0332 0.684077,0.19546 0.117615,0.17773 0.123721,0.43719 0.01402,0.5959 -0.04082,0.0591 -0.546775,0.4608 -1.134933,0.90116 l -1.061269,0.79459 v 1.65828 c 0,0.91205 0.01057,1.65251 0.02349,1.64546 0.184027,-0.10032 2.784618,-1.66886 2.796892,-1.68693 0.0093,-0.0138 0.07672,-0.61263 0.149718,-1.33083 0.140319,-1.38045 0.154506,-1.4502 0.323955,-1.59278 0.261445,-0.21999 0.632166,-0.15849 0.831989,0.13803 0.09261,0.13742 0.09175,0.24402 -0.0099,1.22728 -0.04461,0.43157 -0.07294,0.79284 -0.06296,0.80282 0.01,0.01 0.372242,-0.19548 0.805015,-0.4566 0.771725,-0.46562 0.79032,-0.47475 0.966689,-0.47475 0.206261,0 0.345358,0.0744 0.461659,0.247 0.133859,0.19863 0.120167,0.47147 -0.03257,0.64904 -0.0391,0.0455 -0.414294,0.28883 -0.833767,0.54082 -0.419473,0.252 -0.758552,0.47227 -0.753508,0.4895 0.005,0.0172 0.362104,0.17493 0.793468,0.35046 0.431363,0.17552 0.820534,0.34596 0.864823,0.37875 0.149721,0.11085 0.221479,0.25209 0.221479,0.43592 0,0.1832 -0.04613,0.29926 -0.161897,0.40735 -0.09186,0.0858 -0.279335,0.16594 -0.388052,0.16594 -0.04516,0 -0.639378,-0.22622 -1.320474,-0.50271 -0.681096,-0.27649 -1.257416,-0.49849 -1.28071,-0.49334 -0.05481,0.0121 -2.860396,1.6958 -2.860261,1.71648 1.25e-4,0.0209 2.805125,1.70448 2.859836,1.71647 0.02353,0.005 0.600039,-0.21685 1.281135,-0.49334 0.726328,-0.29485 1.280756,-0.50271 1.340902,-0.50271 0.36574,0 0.644607,0.39809 0.515565,0.73598 -0.07525,0.19704 -0.206642,0.29623 -0.61427,0.46372 -0.197145,0.081 -0.556589,0.2283 -0.798763,0.32734 -0.242175,0.099 -0.445159,0.19416 -0.451077,0.21138 -0.0059,0.0172 0.332421,0.2375 0.751862,0.4895 0.419441,0.252 0.794586,0.49534 0.833656,0.54076 0.214936,0.24988 0.149216,0.62761 -0.14352,0.82488 -0.07852,0.0529 -0.150549,0.0712 -0.28022,0.0712 -0.169261,0 -0.198481,-0.0143 -0.967063,-0.47438 -0.435891,-0.2609 -0.800559,-0.46635 -0.810373,-0.45653 -0.0098,0.01 0.01869,0.36797 0.06333,0.7959 0.101962,0.9773 0.102918,1.09581 0.01,1.23377 -0.199823,0.29651 -0.570544,0.35802 -0.831989,0.13803 -0.167882,-0.14127 -0.182155,-0.2115 -0.323455,-1.59156 -0.07367,-0.7195 -0.141425,-1.31918 -0.150572,-1.33263 -0.01204,-0.0177 -2.616284,-1.58809 -2.796538,-1.68636 -0.01292,-0.007 -0.02349,0.73342 -0.02349,1.64547 v 1.65827 l 1.061269,0.79459 c 0.588158,0.44037 1.094108,0.8421 1.134933,0.90117 0.109697,0.1587 0.103591,0.41816 -0.01402,0.59589 -0.151333,0.22868 -0.450988,0.3143 -0.684077,0.19547 -0.06194,-0.0316 -0.415378,-0.2853 -0.785424,-0.56382 -0.370046,-0.27851 -0.681781,-0.50639 -0.692744,-0.50639 -0.01096,0 -0.02001,0.39114 -0.02011,0.86921 -9.4e-5,0.50124 -0.01387,0.91852 -0.03253,0.98569 -0.03801,0.13688 -0.160264,0.29167 -0.276428,0.35001 -0.08928,0.0448 -0.251335,0.0798 -0.301667,0.065 z"
       id="path839" />
  </g>
</svg>
