<?xml version="1.0" encoding="UTF-8" standalone="no"?>
<svg
   xmlns:dc="http://purl.org/dc/elements/1.1/"
   xmlns:cc="http://creativecommons.org/ns#"
   xmlns:rdf="http://www.w3.org/1999/02/22-rdf-syntax-ns#"
   xmlns:svg="http://www.w3.org/2000/svg"
   xmlns="http://www.w3.org/2000/svg"
   xmlns:sodipodi="http://sodipodi.sourceforge.net/DTD/sodipodi-0.dtd"
   xmlns:inkscape="http://www.inkscape.org/namespaces/inkscape"
   width="17.454544"
   height="16"
   fill-rule="evenodd"
   clip-rule="evenodd"
   version="1.1"
   id="svg4"
   sodipodi:docname="eraser-tool-svg.svg"
   inkscape:version="1.0.2-2 (e86c870879, 2021-01-15)">
  <metadata
     id="metadata10">
    <rdf:RDF>
      <cc:Work
         rdf:about="">
        <dc:format>image/svg+xml</dc:format>
        <dc:type
           rdf:resource="http://purl.org/dc/dcmitype/StillImage" />
      </cc:Work>
    </rdf:RDF>
  </metadata>
  <defs
     id="defs8" />
  <sodipodi:namedview
     pagecolor="#ffffff"
     bordercolor="#666666"
     borderopacity="1"
     objecttolerance="10"
     gridtolerance="10"
     guidetolerance="10"
     inkscape:pageopacity="0"
     inkscape:pageshadow="2"
     inkscape:window-width="1920"
     inkscape:window-height="1001"
     id="namedview6"
     showgrid="false"
     inkscape:zoom="34.152842"
     inkscape:cx="12"
     inkscape:cy="11"
     inkscape:window-x="-9"
     inkscape:window-y="-9"
     inkscape:window-maximized="1"
     inkscape:current-layer="svg4" />
  <path
     d="M 4.1178182,16 0.21309091,12.098182 C 0.07127273,11.956364 0,11.770909 0,11.584 0,11.397818 0.07127273,11.211636 0.21309091,11.069818 L 11.070545,0.21309091 C 11.212364,0.072 11.398545,0 11.584727,0 c 0.185455,0 0.372364,0.072 0.514182,0.21309091 l 5.142546,5.14399999 c 0.142545,0.1418182 0.21309,0.328 0.21309,0.5149091 0,0.1861818 -0.07054,0.3716364 -0.21309,0.5141818 L 9.0843636,14.545455 H 13.094545 V 16 Z M 6.7774545,14.545455 2.7876364,10.555636 1.7556364,11.584 4.72,14.545455 Z M 11.581091,1.7592727 3.816,9.5265455 7.9309091,13.642182 15.695273,5.8734545 Z"
     id="path2"
     style="stroke-width:0.727273" />
</svg>
