<?xml version="1.0" encoding="UTF-8" standalone="no"?>
<svg
   xmlns:dc="http://purl.org/dc/elements/1.1/"
   xmlns:cc="http://creativecommons.org/ns#"
   xmlns:rdf="http://www.w3.org/1999/02/22-rdf-syntax-ns#"
   xmlns:svg="http://www.w3.org/2000/svg"
   xmlns="http://www.w3.org/2000/svg"
   xmlns:sodipodi="http://sodipodi.sourceforge.net/DTD/sodipodi-0.dtd"
   xmlns:inkscape="http://www.inkscape.org/namespaces/inkscape"
   version="1.1"
   id="svg2"
   width="11.730821"
   height="15.999997"
   viewBox="0 0 11.730821 15.999997"
   sodipodi:docname="hot-icon.svg"
   inkscape:version="1.0.2-2 (e86c870879, 2021-01-15)">
  <metadata
     id="metadata8">
    <rdf:RDF>
      <cc:Work
         rdf:about="">
        <dc:format>image/svg+xml</dc:format>
        <dc:type
           rdf:resource="http://purl.org/dc/dcmitype/StillImage" />
        <dc:title></dc:title>
      </cc:Work>
    </rdf:RDF>
  </metadata>
  <defs
     id="defs6" />
  <sodipodi:namedview
     pagecolor="#ffffff"
     bordercolor="#666666"
     borderopacity="1"
     objecttolerance="10"
     gridtolerance="10"
     guidetolerance="10"
     inkscape:pageopacity="0"
     inkscape:pageshadow="2"
     inkscape:window-width="1920"
     inkscape:window-height="1001"
     id="namedview4"
     showgrid="false"
     inkscape:zoom="18.112279"
     inkscape:cx="19.844908"
     inkscape:cy="10.469558"
     inkscape:window-x="-9"
     inkscape:window-y="-9"
     inkscape:window-maximized="1"
     inkscape:current-layer="g10" />
  <g
     inkscape:groupmode="layer"
     inkscape:label="Image"
     id="g10"
     transform="translate(-120.20179,-52.624711)">
    <path
       style="fill:#15191e;fill-opacity:1;stroke-width:0.0391958"
       d="m 124.04741,68.497789 c -0.99138,-0.406345 -1.81628,-0.965133 -2.3801,-1.612283 -1.24261,-1.426261 -1.71541,-3.196339 -1.34009,-5.017061 0.1013,-0.491393 0.29163,-1.003987 0.69006,-1.858402 0.43733,-0.937833 0.64259,-1.513731 0.79753,-2.237559 0.17611,-0.822707 0.13755,-0.765835 0.30521,-0.450097 0.20962,0.394746 0.4197,0.895489 0.5177,1.234013 0.11964,0.413255 0.17793,0.412255 0.45862,-0.0079 1.0674,-1.597583 1.66271,-3.209995 1.87115,-5.067989 0.0218,-0.194019 0.0397,-0.46006 0.0399,-0.591203 2e-4,-0.131142 0.0112,-0.24929 0.0244,-0.262549 0.0356,-0.03555 0.66621,0.398966 1.06215,0.731813 1.33719,1.124102 2.26791,2.612433 2.68055,4.286493 0.11369,0.461269 0.13723,0.519344 0.2105,0.519344 0.0576,0 0.12,-0.06209 0.20678,-0.205778 0.27977,-0.463192 0.44102,-1.106077 0.44102,-1.758342 0,-0.213195 0.0132,-0.387267 0.0294,-0.386825 0.0458,0.0012 0.48768,0.604854 0.75542,1.03196 0.29234,0.466351 0.76423,1.430958 0.95888,1.960099 0.4295,1.167564 0.62866,2.540963 0.53224,3.670423 -0.19917,2.33318 -1.32222,4.245413 -3.23191,5.503043 -0.43234,0.284719 -1.1814,0.681115 -1.15033,0.608747 0.0132,-0.03082 0.0976,-0.223601 0.18744,-0.428399 0.61766,-1.407648 0.76086,-2.618802 0.46883,-3.965216 -0.22816,-1.051947 -0.75367,-2.083526 -1.48528,-2.915582 -0.53625,-0.609887 -0.66544,-0.626143 -0.52257,-0.06576 0.13746,0.539176 0.17724,0.892825 0.15313,1.361156 -0.0306,0.594022 -0.17893,1.136864 -0.50882,1.8618 l -0.11593,0.254773 -0.0922,-0.431154 c -0.17359,-0.811425 -0.40746,-1.414155 -0.64909,-1.672819 -0.1645,-0.176097 -0.22857,-0.104214 -0.22887,0.256771 -2.7e-4,0.343167 -0.089,0.937663 -0.19089,1.278863 -0.0418,0.140125 -0.17328,0.519344 -0.29211,0.842709 -0.29383,0.799621 -0.35634,1.127542 -0.32854,1.723573 0.0254,0.543674 0.14459,1.062372 0.35896,1.561472 0.0766,0.178306 0.13925,0.336697 0.13925,0.351978 0,0.04353 -0.038,0.03291 -0.37236,-0.104146 z"
       id="path839" />
  </g>
</svg>
