<?xml version="1.0" encoding="UTF-8" standalone="no"?>
<svg
   xmlns:dc="http://purl.org/dc/elements/1.1/"
   xmlns:cc="http://creativecommons.org/ns#"
   xmlns:rdf="http://www.w3.org/1999/02/22-rdf-syntax-ns#"
   xmlns:svg="http://www.w3.org/2000/svg"
   xmlns="http://www.w3.org/2000/svg"
   xmlns:sodipodi="http://sodipodi.sourceforge.net/DTD/sodipodi-0.dtd"
   xmlns:inkscape="http://www.inkscape.org/namespaces/inkscape"
   version="1.1"
   id="Layer_1"
   x="0px"
   y="0px"
   viewBox="0 0 500 370.63382"
   xml:space="preserve"
   sodipodi:docname="logo.svg"
   width="500"
   height="370.63382"
   inkscape:version="1.0.2-2 (e86c870879, 2021-01-15)"><metadata
   id="metadata1033"><rdf:RDF><cc:Work
       rdf:about=""><dc:format>image/svg+xml</dc:format><dc:type
         rdf:resource="http://purl.org/dc/dcmitype/StillImage" /></cc:Work></rdf:RDF></metadata><defs
   id="defs1031" /><sodipodi:namedview
   pagecolor="#ffffff"
   bordercolor="#666666"
   borderopacity="1"
   objecttolerance="10"
   gridtolerance="10"
   guidetolerance="10"
   inkscape:pageopacity="0"
   inkscape:pageshadow="2"
   inkscape:window-width="1920"
   inkscape:window-height="1001"
   id="namedview1029"
   showgrid="false"
   inkscape:zoom="0.46685722"
   inkscape:cx="458.83039"
   inkscape:cy="735.64889"
   inkscape:window-x="-9"
   inkscape:window-y="-9"
   inkscape:window-maximized="1"
   inkscape:current-layer="Layer_1"
   inkscape:document-rotation="0" />
<style
   type="text/css"
   id="style2">
	.st0{fill:#FFFFFF;}
</style>

<g
   id="g2032"
   transform="matrix(1.9978174,0,0,1.9978174,-645.72572,-1658.7813)"><path
     d="m 506.71592,872.81612 c 1.5,-0.8 2.8,-1.6 4.2,-2.3 14.2,-7 28.4,-6.8 42.4,0.6 7.4,3.9 12.5,9.8 15.6,17.5 2.4,6 3.8,12.2 4.3,18.6 1.3,15.6 -2,30.2 -10.9,43.3 -9,13.1 -21.7,19.4 -37.4,20.1 -4.4,0.2 -8.6,-0.9 -12.8,-2 -1.7,-0.5 -3.4,-1 -5.3,-1.5 -0.6,1.6 -1.1,3.1 -1.6,4.6 -1.7,4.8 -3.2,9.7 -5.1,14.5 -4.5,11.4 -12.9,18.79998 -24.4,22.79998 -12.2,4.3 -24.7,6.8 -37.6,6.8 -7.8,0 -15.7,-0.5 -23.5,-1.1 -7.8,-0.6 -15.6,-1.5 -23.4,-2.6 -10.2,-1.4 -19.9,-4.7 -28.7,-10.1 -6.7,-4.09998 -12,-9.49998 -15.9,-16.29998 -3.3,-5.7 -5.7,-11.8 -7.5,-18.1 -3.1,-10.6 -5.3,-21.4 -7.4,-32.2 -2.6,-13.3 -4.9,-26.7 -7.6,-40 -1.8,-8.5 -0.8,-16.5 2.1,-24.5 2.1,-5.7 5.4,-10.5 10,-14.4 3.6,-3 7.5,-5.4 11.6,-7.6 17.4,-9.4 35.8,-15.3 55.5,-17.3 6.4,-0.6 12.7,-1.2 19.1,-1.3 4.9,-0.1 9.9,0.2 14.9,0.6 12.2,1 24.1,3.3 35.6,7.5 6.9,2.6 13.4,6 19.7,9.9 5.3,3.4 8.9,8.2 11,14.1 1.1,3.3 2,6.7 3.1,10.4 z m -173.8,23.1 c 0,0.8 0,1.4 0.1,2 2.4,12.4 4.6,24.8 7.1,37.2 2.1,10 4.3,20 6.9,29.9 1.1,4.5 2.9,8.8 4.8,13 3.8,8.5 10,14.7 18.3,19 7.5,3.89998 15.4,6.29998 23.7,7.39998 12.2,1.7 24.5,2.8 36.8,3.3 9.5,0.4 18.9,-0.1 28.1,-2.2 6.2,-1.4 12.4,-3.1 18.3,-5.69998 6.2,-2.8 11.1,-7 14,-13.2 1.7,-3.8 3.3,-7.6 4.7,-11.5 1,-2.5 1.6,-5.2 2.5,-7.8 0.6,-1.9 1.5,-3.7 1.5,-5.9 -0.1,-2.6 2.5,-4.3 5.1,-3.7 0.8,0.2 1.5,0.6 2.2,0.8 3,1 6.1,2 9.2,2.8 14.4,4 30.9,-2.5 39.2,-14.8 7,-10.4 10.3,-21.9 10,-34.4 -0.2,-7.3 -1.3,-14.3 -4.2,-21 -2.3,-5.3 -5.9,-9.5 -10.9,-12.4 -8.1,-4.7 -16.8,-6 -25.9,-4.3 -5.3,1 -10,3.2 -14.3,6.4 -1.5,1.1 -3.1,2.2 -4.9,3 -2.2,1 -4.6,-0.2 -5.4,-2.5 -0.5,-1.5 -0.8,-3.1 -0.9,-4.7 -0.4,-3.7 -1.2,-7.3 -2.9,-10.6 -0.4,-0.7 -0.6,-1.5 -0.8,-2.2 -0.7,-3.1 -2.6,-5.4 -5,-7.4 -1.2,-1 -2.6,-1.8 -4,-2.7 -10,-6.3 -21,-10.2 -32.5,-12.4 -14.7,-2.9 -29.4,-3.5 -44.4,-2.2 -19.4,1.7 -37.7,6.8 -55,15.6 -3.8,2 -7.4,4.4 -11,6.8 -4.4,3.1 -7.6,7.3 -10,12 -1.9,3.6 -1.6,7.2 1.1,10.3 3.1,3.5 6.5,6.7 10.8,8.7 3,1.4 6.1,2.9 9.2,4 16.7,6.1 33.9,9.1 51.6,9.9 8,0.3 16,-0.2 24,-0.3 0.7,0 1.3,0.1 1.2,1.1 -0.7,0.2 -1.4,0.5 -2.1,0.7 -1.1,0.3 -2.2,0.5 -3.3,0.6 -10.5,1.5 -21,2.1 -31.5,2 -11.6,-0.1 -23,-1.4 -34.2,-4 -8.9,-2.1 -17.6,-4.9 -25.2,-10.2 -0.8,-0.2 -1.3,-0.2 -2,-0.4 z"
     id="path36-9" /><path
     class="st0"
     d="m 332.91592,895.91612 c 0.7,0.2 1.2,0.2 1.6,0.5 7.6,5.3 16.3,8.1 25.2,10.2 11.3,2.6 22.6,3.9 34.2,4 10.6,0.1 21.1,-0.5 31.5,-2 1.1,-0.2 2.2,-0.4 3.3,-0.6 0.7,-0.2 1.5,-0.5 2.1,-0.7 0.1,-1.1 -0.5,-1.2 -1.2,-1.1 -8,0.1 -16,0.7 -24,0.3 -17.7,-0.7 -34.9,-3.8 -51.6,-9.9 -3.1,-1.1 -6.2,-2.7 -9.2,-4 -4.3,-2 -7.7,-5.2 -10.8,-8.7 -2.7,-3.1 -2.9,-6.7 -1.1,-10.3 2.5,-4.7 5.6,-9 10,-12 3.5,-2.5 7.2,-4.9 11,-6.8 17.3,-8.9 35.6,-13.9 55,-15.6 14.9,-1.3 29.7,-0.7 44.4,2.2 11.5,2.3 22.5,6.1 32.5,12.4 1.4,0.9 2.7,1.7 4,2.7 2.4,1.9 4.3,4.2 5,7.4 0.2,0.8 0.4,1.5 0.8,2.2 1.7,3.3 2.4,6.9 2.9,10.6 0.2,1.6 0.4,3.2 0.9,4.7 0.8,2.3 3.2,3.5 5.4,2.5 1.7,-0.7 3.4,-1.8 4.9,-3 4.3,-3.2 9.1,-5.4 14.3,-6.4 9.2,-1.7 17.8,-0.4 25.9,4.3 5,2.9 8.6,7 10.9,12.4 2.9,6.7 4,13.8 4.2,21 0.3,12.5 -2.9,24 -10,34.4 -8.3,12.3 -24.8,18.8 -39.2,14.8 -3.1,-0.9 -6.1,-1.9 -9.2,-2.8 -0.8,-0.2 -1.5,-0.7 -2.2,-0.8 -2.5,-0.6 -5.1,1 -5.1,3.7 0,2.2 -0.8,4 -1.5,5.9 -0.8,2.6 -1.5,5.2 -2.5,7.8 -1.5,3.9 -3,7.7 -4.7,11.5 -2.9,6.2 -7.8,10.4 -14,13.2 -5.9,2.59998 -12,4.29998 -18.3,5.69998 -9.3,2.1 -18.7,2.5 -28.1,2.2 -12.3,-0.5 -24.6,-1.6 -36.8,-3.3 -8.3,-1.1 -16.2,-3.5 -23.7,-7.39998 -8.3,-4.3 -14.5,-10.5 -18.3,-19 -1.9,-4.2 -3.7,-8.6 -4.8,-13 -2.5,-9.9 -4.8,-19.9 -6.9,-29.9 -2.5,-12.4 -4.8,-24.8 -7.1,-37.2 0.3,-0.8 0.3,-1.4 0.3,-2.1 z m 72.2,2.4 c 24.6,-0.3 48.4,-6 70.7,-14.5 1.8,-0.7 3.5,-1.5 5.2,-2.4 1.4,-0.8 2.8,-1.6 4,-2.6 6.3,-5.1 6.4,-11.2 0.3,-16.6 -3.3,-2.9 -6.9,-5.2 -11,-6.6 -5,-1.7 -10,-3.3 -15.1,-4.6 -10,-2.5 -20.2,-3 -30.4,-3.6 -15.7,-0.8 -31.3,0.7 -46.6,4.1 -11.8,2.6 -23,6.6 -33.8,11.9 -3.2,1.6 -5.4,3.9 -6.5,7.2 -0.4,1.3 -0.4,2.5 0.1,3.7 1.4,3.3 3.4,6.1 6.3,8.3 10.5,7.7 22.4,12.3 35.2,14.3 7.6,1.2 15.4,2.1 21.6,1.4 z m -46.8,43.3 c -0.6,0.2 -0.8,0.2 -0.8,0.3 -0.5,0.6 -0.9,1.3 -1.4,2 -4.2,6.6 -2.8,14.1 3.4,18.7 4,2.9 8.4,4.6 13.4,4.5 12,-0.3 22.9,-3.9 32.7,-10.8 2.2,-1.5 4.2,-3.5 6,-5.5 2.9,-3.1 4.6,-7 4.8,-11.2 0.4,-6.4 -3.7,-10.1 -9,-9.9 -1.3,0.1 -2.6,0.2 -3.8,0.4 -4,0.9 -7.6,2.5 -10.7,5.1 -2.9,2.3 -5.6,4.8 -8.4,7.2 -2.6,2.2 -5,4.4 -7.7,6.5 -2.7,2.1 -5.7,3.4 -9.2,3.9 -5.6,0.8 -8.1,-2.8 -9,-6.6 -0.3,-1.5 -0.2,-3 -0.3,-4.6 z m 122,-1.3 c 0,1.4 0.1,2.2 0,3 -0.5,6.5 -4.5,9.5 -10.7,8 -3.2,-0.7 -6,-2.2 -8.5,-4.2 -3,-2.4 -5.9,-4.9 -8.8,-7.3 -2.4,-1.9 -4.7,-3.9 -7.2,-5.6 -3.7,-2.6 -8,-4.1 -12.5,-4.3 -6.2,-0.3 -10.3,4.2 -9.4,10.4 0.6,4.1 2.3,7.6 5.1,10.6 2.4,2.6 5.2,4.8 8.2,6.6 8.2,4.9 17.2,7.5 26.7,8.4 5.9,0.5 11.4,-0.9 16.2,-4.5 7.1,-5.4 7.6,-14 0.9,-21.1 z m 24.9,-19.3 c 0,0 0,0 0,0 0,6.1 -0.1,12.1 0.1,18.2 0.1,4.5 2.9,7.1 7.3,7 3.3,-0.1 6.7,-0.5 10,-1 8.1,-1.2 14.7,-5.1 20.2,-11 3.3,-3.5 5.7,-7.6 6.8,-12.4 1.8,-7.8 0.7,-15.3 -2.9,-22.3 -3.7,-7.2 -9.8,-10.7 -17.9,-10.8 -5.3,-0.1 -10.5,1.1 -15.3,3.5 -1.6,0.8 -3,1.8 -4.4,2.9 -2.6,2.1 -4.1,4.8 -4,8.3 0.1,5.7 0.1,11.6 0.1,17.6 z m -14.7,10.2 c -0.1,0 -0.2,0 -0.4,0 0,1.1 0,2.2 0,3.4 -0.1,8.3 -1,16.6 -2.9,24.7 -1.7,7.1 -3,14.4 -6.9,20.8 -0.2,0.3 -0.2,0.6 -0.3,0.9 -0.3,1.1 0.1,2.3 1.1,2.9 0.9,0.6 2.3,0.6 3,-0.4 1.1,-1.4 2.1,-2.8 2.8,-4.4 1.1,-2.6 2.1,-5.3 2.9,-8.1 2.9,-10 4.9,-20.2 5.5,-30.6 0.4,-6.5 0.3,-13.1 0.4,-19.6 0,-0.9 -0.2,-1.9 -0.5,-2.8 -0.4,-1 -1.7,-1.7 -2.7,-1.5 -1.1,0.2 -2,1.1 -2.1,2.3 -0.1,0.8 0,1.6 0,2.4 0.1,3.3 0.1,6.7 0.1,10 z m -1.6,-33.8 c 0.1,0 0.1,0 0.2,0 0,2.1 0,4.1 0,6.2 0.1,2 1,3.4 2.4,3.6 1.5,0.2 2.9,-1.3 2.9,-3.6 0.1,-3 -0.1,-6.1 -0.2,-9.1 -0.1,-1.6 -0.1,-3.2 -0.4,-4.7 -0.2,-1 -1,-1.6 -2.1,-1.7 -1,-0.1 -1.9,0.3 -2.4,1.2 -0.3,0.7 -0.5,1.5 -0.5,2.3 0,2 0.1,3.9 0.1,5.8 z"
     id="path516-4"
     style="fill:#fad389;fill-opacity:1" /><path
     d="m 405.11592,898.31612 c -6.2,0.7 -14,-0.2 -21.7,-1.4 -12.8,-2 -24.6,-6.7 -35.2,-14.3 -2.9,-2.1 -5,-4.9 -6.3,-8.3 -0.5,-1.2 -0.6,-2.4 -0.1,-3.7 1.2,-3.4 3.3,-5.6 6.5,-7.2 10.8,-5.3 22,-9.3 33.8,-11.9 15.4,-3.4 30.9,-4.9 46.6,-4.1 10.2,0.5 20.4,1.1 30.4,3.6 5.1,1.3 10.1,2.9 15.1,4.6 4.1,1.4 7.8,3.7 11,6.6 6.1,5.4 6,11.5 -0.3,16.6 -1.2,1 -2.6,1.9 -4,2.6 -1.7,0.9 -3.4,1.7 -5.2,2.4 -22.2,8.5 -45.9,14.1 -70.6,14.5 z"
     id="path788-1"
     style="fill:#ce8f1c;stroke:#000000;stroke-opacity:1;fill-opacity:1;stroke-width:5.00546246;stroke-miterlimit:4;stroke-dasharray:none"
     sodipodi:nodetypes="ccccccccccccccc" /><path
     d="m 358.31592,941.61612 c 0.1,1.6 0,3.1 0.3,4.5 0.9,3.8 3.5,7.4 9,6.6 3.4,-0.5 6.5,-1.8 9.2,-3.9 2.6,-2.1 5.1,-4.3 7.7,-6.5 2.8,-2.4 5.5,-4.9 8.4,-7.2 3.2,-2.5 6.8,-4.2 10.7,-5.1 1.2,-0.3 2.5,-0.4 3.8,-0.4 5.3,-0.2 9.4,3.4 9,9.9 -0.3,4.3 -1.9,8.1 -4.8,11.2 -1.8,2 -3.8,3.9 -6,5.5 -9.8,6.8 -20.7,10.5 -32.7,10.8 -5,0.1 -9.4,-1.6 -13.4,-4.5 -6.2,-4.6 -7.6,-12.1 -3.4,-18.7 0.4,-0.7 0.9,-1.3 1.4,-2 0,-0.1 0.3,-0.1 0.8,-0.2 z"
     id="path790-5"
     style="fill:#502d16;stroke:#000000;stroke-opacity:1;stroke-width:2.50273123;stroke-miterlimit:4;stroke-dasharray:none" /><path
     d="m 480.31592,940.31612 c 6.7,7.1 6.1,15.7 -1,21.1 -4.8,3.6 -10.3,5 -16.2,4.5 -9.5,-0.8 -18.5,-3.4 -26.7,-8.4 -3,-1.8 -5.8,-4 -8.2,-6.6 -2.8,-3 -4.5,-6.6 -5.1,-10.6 -0.9,-6.1 3.2,-10.7 9.4,-10.4 4.6,0.2 8.8,1.7 12.5,4.3 2.5,1.7 4.8,3.7 7.2,5.6 3,2.4 5.9,4.9 8.8,7.3 2.5,2 5.3,3.5 8.5,4.2 6.2,1.4 10.2,-1.6 10.7,-8 0.2,-0.8 0.1,-1.6 0.1,-3 z"
     id="path792-0"
     style="fill:#502d16;stroke:#000000;stroke-opacity:1;stroke-width:2.50273123;stroke-miterlimit:4;stroke-dasharray:none" /><path
     d="m 505.21592,921.01612 c 0,-5.9 0.1,-11.8 0,-17.7 -0.1,-3.5 1.4,-6.2 4,-8.3 1.3,-1.1 2.8,-2.1 4.4,-2.9 4.8,-2.4 9.9,-3.5 15.3,-3.5 8,0.1 14.2,3.6 17.9,10.8 3.6,7 4.7,14.5 2.9,22.3 -1.1,4.8 -3.5,8.9 -6.8,12.4 -5.5,5.9 -12.2,9.8 -20.2,11 -3.3,0.5 -6.7,0.8 -10,1 -4.4,0.2 -7.2,-2.5 -7.3,-7 -0.3,-6 -0.2,-12.1 -0.2,-18.1 0,0 0,0 0,0 z m 7.9,-1.3 c 0,0 0,0 0,0 0.1,5.3 0,10.5 0.1,15.8 0,1.6 0.9,2.4 2.3,2.3 7.4,-0.4 14,-2.5 19.7,-7.5 9.3,-8.3 8.3,-20.1 3.8,-27.9 -2,-3.6 -5.3,-5.4 -9.5,-5.5 -4.2,-0.1 -8.2,0.7 -12.1,2.4 -2.9,1.3 -4.5,3.2 -4.4,6.6 0.2,4.5 0.1,9.2 0.1,13.8 z"
     id="path794-6" /><path
     d="m 490.51592,931.21612 c 0,-3.4 0,-6.7 0,-10.1 0,-0.8 -0.1,-1.6 0,-2.4 0.1,-1.2 1,-2.2 2.1,-2.3 1,-0.2 2.4,0.5 2.7,1.5 0.3,0.9 0.5,1.9 0.5,2.8 -0.1,6.5 0,13.1 -0.4,19.6 -0.6,10.4 -2.6,20.6 -5.5,30.6 -0.8,2.7 -1.8,5.5 -2.9,8.1 -0.7,1.6 -1.8,3 -2.8,4.4 -0.7,1 -2.1,1 -3,0.4 -0.9,-0.6 -1.4,-1.8 -1.1,-2.9 0.1,-0.3 0.2,-0.6 0.3,-0.9 3.9,-6.4 5.2,-13.7 6.9,-20.8 1.9,-8.1 2.8,-16.3 2.9,-24.7 0,-1.1 0,-2.2 0,-3.4 0.1,0.1 0.2,0.1 0.3,0.1 z"
     id="path796-2" /><path
     d="m 488.91592,897.41612 c 0,-1.9 0,-3.8 0,-5.7 0,-0.8 0.2,-1.6 0.5,-2.3 0.5,-0.9 1.4,-1.3 2.4,-1.2 1.1,0.1 1.9,0.7 2.1,1.7 0.3,1.6 0.3,3.2 0.4,4.7 0.1,3 0.3,6.1 0.2,9.1 0,2.3 -1.4,3.8 -2.9,3.6 -1.4,-0.2 -2.4,-1.6 -2.4,-3.6 -0.1,-2.1 0,-4.1 0,-6.2 -0.2,-0.1 -0.3,-0.1 -0.3,-0.1 z"
     id="path798-4" /></g></svg>
