<?xml version="1.0" encoding="UTF-8" standalone="no"?>
<svg
   xmlns:dc="http://purl.org/dc/elements/1.1/"
   xmlns:cc="http://creativecommons.org/ns#"
   xmlns:rdf="http://www.w3.org/1999/02/22-rdf-syntax-ns#"
   xmlns:svg="http://www.w3.org/2000/svg"
   xmlns="http://www.w3.org/2000/svg"
   xmlns:sodipodi="http://sodipodi.sourceforge.net/DTD/sodipodi-0.dtd"
   xmlns:inkscape="http://www.inkscape.org/namespaces/inkscape"
   width="500mm"
   height="370.63397mm"
   viewBox="0 0 500 370.63398"
   version="1.1"
   id="svg5508"
   inkscape:version="1.0.2-2 (e86c870879, 2021-01-15)"
   sodipodi:docname="logo-2.svg">
  <defs
     id="defs5502" />
  <sodipodi:namedview
     id="base"
     pagecolor="#ffffff"
     bordercolor="#666666"
     borderopacity="1.0"
     inkscape:pageopacity="0.0"
     inkscape:pageshadow="2"
     inkscape:zoom="0.1767767"
     inkscape:cx="-94.875203"
     inkscape:cy="1115.0127"
     inkscape:document-units="mm"
     inkscape:current-layer="layer1"
     inkscape:document-rotation="0"
     showgrid="false"
     inkscape:window-width="1431"
     inkscape:window-height="1030"
     inkscape:window-x="64"
     inkscape:window-y="0"
     inkscape:window-maximized="0" />
  <metadata
     id="metadata5505">
    <rdf:RDF>
      <cc:Work
         rdf:about="">
        <dc:format>image/svg+xml</dc:format>
        <dc:type
           rdf:resource="http://purl.org/dc/dcmitype/StillImage" />
        <dc:title></dc:title>
      </cc:Work>
    </rdf:RDF>
  </metadata>
  <g
     inkscape:label="Layer 1"
     inkscape:groupmode="layer"
     id="layer1"
     transform="translate(-199.88239,-165.34284)">
    <path
       style="fill:#fad389;fill-opacity:1;stroke:none;stroke-width:1.99781px;stroke-linecap:butt;stroke-linejoin:miter;stroke-opacity:1"
       d="m 545.6632,425.22134 45.91184,9.58597 38.3439,-2.52265 45.91177,-33.29867 16.6493,-73.66069 -20.18096,-63.06561 -46.41632,-20.18097 -41.37109,6.05432 -24.181,15.03343 -8.10859,42.98689 16.6493,-4.03614 45.40731,-13.11771 28.25337,19.17202 1.00909,40.86648 -18.66748,27.74891 -44.39821,12.10862 -11.09953,-8.57696 5.04522,-84.25567 -28.25338,7.56787 z"
       id="path6183" />
    <path
       style="fill:#fad389;fill-opacity:1;stroke:none;stroke-width:1.99781px;stroke-linecap:butt;stroke-linejoin:miter;stroke-opacity:1"
       d="m 211.42616,268.8745 6.42151,-32.82124 72.06414,-44.95093 89.90178,-18.55113 97.75032,6.42151 61.36155,34.24834 12.84317,19.97815 8.56201,29.96727 -3.06336,170.63175 -21.69453,64.07471 -65.58826,28.25338 -119.57245,0.50439 -68.11092,-26.23528 -39.85745,-45.4073 -24.72172,-102.4186 -10.59507,-69.6244 z"
       id="path6177" />
    <g
       id="g6175"
       transform="matrix(7.5508061,0,0,7.5508061,-2016.6561,-6190.328)">
      <path
         d="m 342.10104,852.97077 c 0.39688,-0.21166 0.74084,-0.42333 1.11125,-0.60854 3.75709,-1.85208 7.51417,-1.79916 11.21834,0.15875 1.95791,1.03188 3.30729,2.59292 4.1275,4.63021 0.635,1.5875 1.00541,3.22792 1.13771,4.92125 0.34395,4.1275 -0.52917,7.99042 -2.88396,11.45646 -2.38125,3.46604 -5.74146,5.13292 -9.89542,5.31812 -1.16417,0.0529 -2.27542,-0.23812 -3.38667,-0.52916 -0.44979,-0.13229 -0.89958,-0.26459 -1.40229,-0.39688 -0.15875,0.42334 -0.29104,0.82021 -0.42333,1.21709 -0.44979,1.27 -0.84667,2.56645 -1.34938,3.83645 -1.19062,3.01625 -3.41312,4.97417 -6.45583,6.0325 -3.22791,1.13771 -6.53521,1.79917 -9.94833,1.79917 -2.06375,0 -4.15396,-0.13229 -6.21771,-0.29104 -2.06375,-0.15875 -4.1275,-0.39688 -6.19125,-0.68792 -2.69875,-0.37041 -5.26521,-1.24354 -7.59354,-2.67229 -1.77271,-1.08479 -3.175,-2.51354 -4.20688,-4.31271 -0.87312,-1.50812 -1.50812,-3.12208 -1.98437,-4.78896 -0.82021,-2.80458 -1.40229,-5.66208 -1.95792,-8.51958 -0.68791,-3.51896 -1.29646,-7.06437 -2.01083,-10.58333 -0.47625,-2.24896 -0.21167,-4.36563 0.55562,-6.48229 0.55563,-1.50813 1.42875,-2.77813 2.64584,-3.81 0.9525,-0.79375 1.98437,-1.42875 3.06916,-2.01084 4.60375,-2.48708 9.47209,-4.04812 14.68438,-4.57729 1.69333,-0.15875 3.36021,-0.3175 5.05354,-0.34396 1.29646,-0.0265 2.61938,0.0529 3.94229,0.15875 3.22792,0.26459 6.37646,0.87313 9.41917,1.98438 1.82562,0.68791 3.54541,1.5875 5.21229,2.61937 1.40229,0.89959 2.35479,2.16959 2.91042,3.73063 0.29104,0.87312 0.52916,1.77271 0.8202,2.75166 z m -45.98458,6.11188 c 0,0.21167 0,0.37042 0.0265,0.52917 0.635,3.28083 1.21708,6.56166 1.87854,9.8425 0.55563,2.64583 1.13771,5.29166 1.82563,7.91104 0.29104,1.19062 0.76729,2.32833 1.27,3.43958 1.00541,2.24896 2.64583,3.88938 4.84187,5.02708 1.98438,1.03188 4.07459,1.66688 6.27063,1.95792 3.22791,0.44979 6.48229,0.74083 9.73666,0.87313 2.51355,0.10583 5.00063,-0.0265 7.4348,-0.58209 1.64041,-0.37041 3.28083,-0.82021 4.84187,-1.50812 1.64042,-0.74084 2.93687,-1.85209 3.70417,-3.4925 0.44979,-1.00542 0.87312,-2.01084 1.24354,-3.04271 0.26458,-0.66146 0.42333,-1.37583 0.66146,-2.06375 0.15875,-0.50271 0.39687,-0.97896 0.39687,-1.56104 -0.0265,-0.68792 0.66146,-1.13771 1.34938,-0.97896 0.21166,0.0529 0.39687,0.15875 0.58208,0.21167 0.79375,0.26458 1.61396,0.52916 2.43417,0.74083 3.81,1.05833 8.17562,-0.66146 10.37166,-3.91583 1.85209,-2.75167 2.72521,-5.79438 2.64584,-9.10167 -0.0529,-1.93146 -0.34396,-3.78354 -1.11125,-5.55625 -0.60855,-1.40229 -1.56105,-2.51354 -2.88396,-3.28083 -2.14313,-1.24355 -4.445,-1.5875 -6.85271,-1.13771 -1.40229,0.26458 -2.64583,0.84666 -3.78354,1.69333 -0.39688,0.29104 -0.82021,0.58208 -1.29646,0.79375 -0.58208,0.26458 -1.21708,-0.0529 -1.42875,-0.66146 -0.13229,-0.39687 -0.21167,-0.82021 -0.23813,-1.24354 -0.10583,-0.97896 -0.3175,-1.93146 -0.76729,-2.80458 -0.10583,-0.18521 -0.15875,-0.39688 -0.21166,-0.58209 -0.18521,-0.8202 -0.68792,-1.42875 -1.32292,-1.95791 -0.3175,-0.26459 -0.68792,-0.47625 -1.05833,-0.71438 -2.64584,-1.66687 -5.55625,-2.69875 -8.59896,-3.28083 -3.88938,-0.76729 -7.77875,-0.92604 -11.7475,-0.58208 -5.13292,0.44979 -9.97479,1.79916 -14.55208,4.1275 -1.00542,0.52916 -1.95792,1.16416 -2.91042,1.79916 -1.16417,0.82021 -2.01083,1.93146 -2.64583,3.175 -0.50271,0.9525 -0.42334,1.905 0.29104,2.72521 0.82021,0.92604 1.71979,1.77271 2.8575,2.30188 0.79375,0.37041 1.61396,0.76729 2.43416,1.05833 4.41855,1.61396 8.96938,2.40771 13.6525,2.61937 2.11667,0.0794 4.23334,-0.0529 6.35,-0.0794 0.18521,0 0.34396,0.0265 0.3175,0.29104 -0.1852,0.0529 -0.37041,0.13229 -0.55562,0.18521 -0.29104,0.0794 -0.58208,0.13229 -0.87313,0.15875 -2.77812,0.39687 -5.55625,0.55562 -8.33437,0.52917 -3.06917,-0.0265 -6.08542,-0.37042 -9.04875,-1.05834 -2.35479,-0.55562 -4.65667,-1.29646 -6.6675,-2.69875 -0.21167,-0.0529 -0.34396,-0.0529 -0.52917,-0.10583 z"
         id="path3928"
         style="stroke-width:0.264583" />
      <path
         d="m 315.21938,859.71765 c -1.64042,0.18521 -3.70417,-0.0529 -5.74146,-0.37042 -3.38667,-0.52916 -6.50875,-1.77271 -9.31333,-3.78354 -0.76729,-0.55562 -1.32292,-1.29646 -1.66688,-2.19604 -0.13229,-0.3175 -0.15875,-0.635 -0.0265,-0.97896 0.3175,-0.89958 0.87313,-1.48167 1.7198,-1.905 2.8575,-1.40229 5.82083,-2.46062 8.94291,-3.14854 4.07459,-0.89958 8.17563,-1.29646 12.32959,-1.08479 2.69875,0.13229 5.3975,0.29104 8.04333,0.9525 1.34937,0.34396 2.67229,0.76729 3.99521,1.21708 1.08479,0.37042 2.06375,0.97896 2.91041,1.74625 1.61396,1.42875 1.5875,3.04271 -0.0794,4.39208 -0.3175,0.26459 -0.68792,0.50271 -1.05833,0.68792 -0.4498,0.23813 -0.89959,0.44979 -1.37584,0.635 -5.87375,2.24896 -12.14437,3.73063 -18.67958,3.83646 z m 4.23333,-7.51417 c -1.13771,-0.47625 -2.06375,-0.42333 -2.98979,-0.55562 -1.905,-0.29104 -3.70417,0.13229 -5.42396,0.89958 -0.37041,0.15875 -0.74083,0.44979 -1.00541,0.74083 -0.52917,0.55563 -0.50271,1.29646 0.0529,1.82563 0.26459,0.26458 0.60854,0.47625 0.9525,0.635 0.82021,0.37042 1.66688,0.58208 2.56646,0.60854 2.06375,0.0794 4.15396,0.0265 6.19125,-0.29104 1.95792,-0.3175 3.91583,-0.74083 5.76792,-1.50813 0.58208,-0.23812 1.16416,-0.52916 1.69333,-0.87312 0.76729,-0.52917 1.32292,-1.24354 1.21708,-2.2225 -0.13229,-1.05833 -0.87312,-1.64042 -1.82562,-1.905 -0.92604,-0.26458 -1.87854,-0.47625 -2.8575,-0.55563 -1.42875,-0.10583 -2.88396,-0.10583 -4.31271,-0.0794 -2.59292,0.0265 -5.15937,0.29104 -7.67292,0.84667 -0.26458,0.0529 -0.58208,0.0794 -0.79375,0.44979 0.23813,0.0265 0.42334,0.0529 0.60855,0.0265 0.76729,-0.0529 1.50812,-0.10584 2.27541,-0.15875 2.27542,-0.15875 4.57729,0 6.85271,0.21166 1.37583,0.13229 2.77813,0.34396 4.07458,0.87313 0.21167,0.0794 0.39688,0.23812 0.74084,0.42333 -0.42334,0.23813 -0.68792,0.39688 -1.00542,0.52917 -1.66687,0.74083 -3.41312,1.27 -5.18583,1.69333 -1.56104,0.37042 -3.175,0.47625 -4.7625,0.60854 -0.89959,0.0794 -1.77271,0.0265 -2.64584,-0.10583 -0.23812,-0.0265 -0.44979,-0.15875 -0.79375,-0.29104 0.23813,-0.18521 0.39688,-0.37042 0.55563,-0.42334 0.55562,-0.21166 1.11125,-0.42333 1.69333,-0.52916 1.905,-0.39688 3.81,-0.82021 6.0325,-0.87313 z"
         id="path4680"
         style="fill:#552200;stroke-width:0.66218096;stroke:#000000;stroke-opacity:1;stroke-miterlimit:4;stroke-dasharray:none" />
      <path
         d="m 302.83688,871.17411 c 0.0265,0.42333 0,0.82021 0.0794,1.19062 0.23813,1.00542 0.92605,1.95792 2.38125,1.74625 0.89959,-0.13229 1.7198,-0.47625 2.43417,-1.03187 0.68792,-0.55563 1.34938,-1.13771 2.03729,-1.71979 0.74084,-0.635 1.45521,-1.29646 2.2225,-1.905 0.84667,-0.66146 1.79917,-1.11125 2.83104,-1.34938 0.3175,-0.0794 0.66146,-0.10583 1.00542,-0.10583 1.40229,-0.0529 2.48708,0.89958 2.38125,2.61937 -0.0794,1.13771 -0.50271,2.14313 -1.27,2.96334 -0.47625,0.52916 -1.00542,1.03187 -1.5875,1.4552 -2.59292,1.79917 -5.47687,2.77813 -8.65187,2.8575 -1.32292,0.0265 -2.48709,-0.42333 -3.54542,-1.19062 -1.64042,-1.21708 -2.01083,-3.20146 -0.89958,-4.94771 0.10583,-0.18521 0.23812,-0.34396 0.37041,-0.52917 0,-0.0265 0.0794,-0.0265 0.21167,-0.0529 z"
         id="path4682"
         style="fill:#552200;fill-opacity:1;stroke:#000000;stroke-width:1;stroke-miterlimit:4;stroke-dasharray:none;stroke-opacity:1" />
      <path
         d="m 335.11605,870.83015 c 1.7727,1.87854 1.61395,4.15396 -0.26459,5.58271 -1.27,0.9525 -2.72521,1.32291 -4.28625,1.19062 -2.51354,-0.21166 -4.89479,-0.89958 -7.06437,-2.2225 -0.79375,-0.47625 -1.53459,-1.05833 -2.16959,-1.74625 -0.74083,-0.79375 -1.19062,-1.74625 -1.34937,-2.80458 -0.23813,-1.61396 0.84667,-2.83104 2.48708,-2.75167 1.21709,0.0529 2.32834,0.44979 3.30729,1.13771 0.66146,0.44979 1.27,0.97896 1.905,1.48167 0.79375,0.635 1.56105,1.29646 2.32834,1.93146 0.66146,0.52916 1.40229,0.92604 2.24896,1.11125 1.64041,0.37041 2.69875,-0.42334 2.83104,-2.11667 0.0529,-0.21167 0.0265,-0.42333 0.0265,-0.79375 z"
         id="path4684"
         style="fill:#552200;fill-opacity:1;stroke:#000000;stroke-width:1;stroke-miterlimit:4;stroke-dasharray:none;stroke-opacity:1" />
      <path
         d="m 341.70417,865.72369 c 0,-1.56104 0.0265,-3.12208 0,-4.68312 -0.0265,-0.92605 0.37042,-1.64042 1.05833,-2.19605 0.34396,-0.29104 0.74084,-0.55562 1.16417,-0.76729 1.27,-0.635 2.61937,-0.92604 4.04812,-0.92604 2.11667,0.0265 3.75709,0.9525 4.73605,2.8575 0.9525,1.85208 1.24354,3.83646 0.76729,5.90021 -0.29104,1.27 -0.92604,2.35479 -1.79917,3.28083 -1.45521,1.56104 -3.22792,2.59292 -5.34458,2.91042 -0.87313,0.13229 -1.77271,0.21167 -2.64584,0.26458 -1.16416,0.0529 -1.905,-0.66146 -1.93145,-1.85208 -0.0794,-1.5875 -0.0529,-3.20146 -0.0529,-4.78896 0,0 0,0 0,0 z m 2.09021,-0.34396 c 0,0 0,0 0,0 0.0265,1.40229 0,2.77813 0.0265,4.18042 0,0.42333 0.23812,0.635 0.60854,0.60854 1.95791,-0.10583 3.70416,-0.66146 5.21229,-1.98437 2.46062,-2.19605 2.19604,-5.31813 1.00542,-7.38188 -0.52917,-0.9525 -1.4023,-1.42875 -2.51355,-1.45521 -1.11125,-0.0265 -2.16958,0.18521 -3.20145,0.635 -0.7673,0.34396 -1.19063,0.84667 -1.16417,1.74625 0.0529,1.19063 0.0265,2.43417 0.0265,3.65125 z"
         id="path4686"
         style="stroke-width:0.264583" />
      <path
         d="m 337.81479,868.42244 c 0,-0.89958 0,-1.77271 0,-2.67229 0,-0.21167 -0.0265,-0.42333 0,-0.635 0.0265,-0.3175 0.26459,-0.58208 0.55563,-0.60854 0.26458,-0.0529 0.635,0.13229 0.71437,0.39687 0.0794,0.23813 0.1323,0.50271 0.1323,0.74084 -0.0265,1.71979 0,3.46604 -0.10584,5.18583 -0.15875,2.75167 -0.68791,5.45042 -1.45521,8.09625 -0.21166,0.71437 -0.47625,1.45521 -0.76729,2.14312 -0.18521,0.42334 -0.47625,0.79375 -0.74083,1.16417 -0.18521,0.26458 -0.55562,0.26458 -0.79375,0.10583 -0.23812,-0.15875 -0.37042,-0.47625 -0.29104,-0.76729 0.0265,-0.0794 0.0529,-0.15875 0.0794,-0.23812 1.03188,-1.69334 1.37584,-3.62479 1.82563,-5.50334 0.50271,-2.14312 0.74083,-4.3127 0.76729,-6.5352 0,-0.29105 0,-0.58209 0,-0.89959 0.0265,0.0265 0.0529,0.0265 0.0794,0.0265 z"
         id="path4688"
         style="stroke-width:0.264583" />
      <path
         d="m 337.39146,859.47952 c 0,-0.5027 0,-1.00541 0,-1.50812 0,-0.21167 0.0529,-0.42333 0.13229,-0.60854 0.13229,-0.23813 0.37042,-0.34396 0.635,-0.3175 0.29104,0.0265 0.50271,0.18521 0.55563,0.44979 0.0794,0.42333 0.0794,0.84667 0.10583,1.24354 0.0265,0.79375 0.0794,1.61396 0.0529,2.40771 0,0.60854 -0.37042,1.00542 -0.76729,0.9525 -0.37042,-0.0529 -0.635,-0.42333 -0.635,-0.9525 -0.0265,-0.55563 0,-1.08479 0,-1.64042 -0.0529,-0.0265 -0.0794,-0.0265 -0.0794,-0.0265 z"
         id="path4690"
         style="stroke-width:0.264583" />
      <path
         class="st0"
         d="m 319.45271,852.20348 c -2.2225,0.0529 -4.1275,0.47625 -6.05896,0.82021 -0.58208,0.10583 -1.1377,0.3175 -1.69333,0.52917 -0.18521,0.0529 -0.3175,0.23812 -0.55562,0.42333 0.3175,0.13229 0.55562,0.26458 0.79375,0.29104 0.87312,0.13229 1.74625,0.18521 2.64583,0.10584 1.61396,-0.1323 3.20146,-0.23813 4.7625,-0.60855 1.77271,-0.42333 3.51896,-0.9525 5.18583,-1.69333 0.29104,-0.13229 0.58209,-0.3175 1.00542,-0.52917 -0.3175,-0.1852 -0.50271,-0.34395 -0.74083,-0.42333 -1.32292,-0.52917 -2.69875,-0.74083 -4.07459,-0.87312 -2.27541,-0.23813 -4.55083,-0.37042 -6.85271,-0.21167 -0.76729,0.0529 -1.50812,0.10583 -2.27541,0.15875 -0.18521,0 -0.37042,-0.0265 -0.60854,-0.0265 0.21166,-0.37042 0.52916,-0.39687 0.79375,-0.44979 2.54,-0.55563 5.10645,-0.82021 7.67291,-0.84667 1.42875,-0.0265 2.88396,-0.0265 4.31271,0.0794 0.9525,0.0794 1.93146,0.29104 2.8575,0.55562 0.9525,0.26459 1.69333,0.87313 1.82563,1.905 0.13229,1.00542 -0.4498,1.69334 -1.21709,2.2225 -0.52916,0.34396 -1.08479,0.635 -1.69333,0.87313 -1.85208,0.74083 -3.78354,1.19062 -5.76792,1.50812 -2.06375,0.34396 -4.1275,0.37042 -6.19125,0.29104 -0.89958,-0.0265 -1.77271,-0.23812 -2.56646,-0.60854 -0.34395,-0.15875 -0.66145,-0.37041 -0.9525,-0.635 -0.55562,-0.52916 -0.58208,-1.27 -0.0529,-1.82562 0.29104,-0.29104 0.635,-0.58209 1.00541,-0.74084 1.7198,-0.74083 3.51896,-1.16416 5.42396,-0.89958 0.9525,0.18521 1.905,0.13229 3.01625,0.60854 z"
         id="path4886"
         style="fill:#deaa87;stroke:#000000;stroke-width:0.264583;stroke-opacity:1" />
    </g>
  </g>
</svg>
