<?xml version="1.0" encoding="UTF-8" standalone="no"?>
<svg
   xmlns:dc="http://purl.org/dc/elements/1.1/"
   xmlns:cc="http://creativecommons.org/ns#"
   xmlns:rdf="http://www.w3.org/1999/02/22-rdf-syntax-ns#"
   xmlns:svg="http://www.w3.org/2000/svg"
   xmlns="http://www.w3.org/2000/svg"
   xmlns:sodipodi="http://sodipodi.sourceforge.net/DTD/sodipodi-0.dtd"
   xmlns:inkscape="http://www.inkscape.org/namespaces/inkscape"
   version="1.1"
   id="Layer_1"
   x="0px"
   y="0px"
   viewBox="0 0 84.459808 326.72275"
   xml:space="preserve"
   sodipodi:docname="ornament.svg"
   inkscape:version="1.0.2-2 (e86c870879, 2021-01-15)"
   width="84.459808"
   height="326.72275"><metadata
   id="metadata53"><rdf:RDF><cc:Work
       rdf:about=""><dc:format>image/svg+xml</dc:format><dc:type
         rdf:resource="http://purl.org/dc/dcmitype/StillImage" /></cc:Work></rdf:RDF></metadata><defs
   id="defs51" /><sodipodi:namedview
   pagecolor="#ffffff"
   bordercolor="#666666"
   borderopacity="1"
   objecttolerance="10"
   gridtolerance="10"
   guidetolerance="10"
   inkscape:pageopacity="0"
   inkscape:pageshadow="2"
   inkscape:window-width="1920"
   inkscape:window-height="1001"
   id="namedview49"
   showgrid="false"
   inkscape:zoom="1.9469554"
   inkscape:cx="-128.72113"
   inkscape:cy="210.52275"
   inkscape:window-x="-9"
   inkscape:window-y="-9"
   inkscape:window-maximized="1"
   inkscape:current-layer="Layer_1" />
<style
   type="text/css"
   id="style2">
	.st0{fill:#F5F3EF;}
</style>
<g
   id="g46"
   transform="translate(-341.97113,0.02274861)">
	<g
   id="g8">
		<g
   id="g6">
			<path
   class="st0"
   d="m 396,0 c -0.1,0 -0.1,0.1 -0.2,0.1 -0.8,0.3 -1.2,0.9 -1.4,1.7 0,0.2 -0.1,0.3 -0.2,0.4 0,0.3 0,0.7 -0.1,1 0,0.2 0,0.4 -0.1,0.7 -0.4,-0.1 -0.7,-0.3 -1.1,-0.5 -0.3,-0.1 -0.5,-0.3 -0.8,-0.2 0,0 0,0 0,0 -0.1,-0.3 -0.3,-0.3 -0.5,-0.4 v 0 c -0.1,0 -0.2,-0.1 -0.3,-0.1 0,-0.1 -0.1,-0.1 -0.1,-0.1 -0.2,-0.1 -0.3,-0.2 -0.5,-0.3 -0.1,0 -0.2,-0.1 -0.3,-0.1 h -0.2 C 390.1,2.1 389.9,2 389.8,2 c -0.3,-0.2 -0.6,-0.3 -0.9,-0.4 -0.2,-0.1 -0.3,-0.2 -0.5,-0.2 0,0 0,0 -0.1,-0.1 -0.1,-0.1 -0.3,-0.1 -0.5,-0.2 -0.1,0 -0.2,-0.1 -0.3,-0.1 -0.3,-0.1 -0.6,-0.2 -0.9,-0.3 -0.1,0 -0.1,0 -0.1,0 0,0 0,0 0,0 -0.2,-0.2 -0.5,-0.2 -0.8,-0.2 -1.2,-0.2 -2.4,-0.4 -3.6,-0.5 -0.3,0 -0.6,0 -0.9,0 -0.4,0 -0.8,0.1 -1.3,0.1 -0.4,0 -0.7,0.1 -1.1,0.2 0,0 0,0 0,0 0,0 0,0 0,0 -0.2,-0.1 -0.5,0.1 -0.7,0.2 -0.9,0.3 -1.8,0.6 -2.6,0.9 -0.3,0.3 -0.6,0.5 -1,0.6 -0.3,0.2 -0.6,0.4 -0.8,0.6 -0.7,0.6 -1.4,1.2 -2,1.9 -0.1,0.2 -0.1,0.4 -0.3,0.4 -0.2,0.4 -0.4,0.7 -0.9,0.5 -0.2,0 -0.5,0 -0.7,-0.1 -0.1,0 -0.2,0 -0.3,0 -2.3,-0.2 -4.7,-0.2 -7,0.5 -0.3,0.1 -0.6,0.3 -0.9,0.3 -0.1,0.1 -0.2,0.1 -0.3,0.1 -0.1,0.1 -0.2,0.2 -0.3,0.1 -0.2,0.2 -0.3,0.4 -0.6,0.5 -0.9,0.6 -1.6,1.2 -2.1,2.2 0,0.2 -0.1,0.4 -0.3,0.6 -0.5,1.2 -0.4,2.6 -0.4,3.9 0.1,0.3 0.2,0.6 0.2,0.9 0.1,0.1 0.1,0.3 0.1,0.4 0.1,0.4 0.1,0.4 -0.5,0.4 -0.2,0 -0.4,0 -0.6,0 -0.6,0.2 -1.2,0.1 -1.8,0.1 -0.2,0 -0.4,0 -0.6,0 -0.3,0.1 -0.7,0 -1.1,0.1 -0.1,0 -0.3,0 -0.4,0 -0.2,0.1 -0.5,0.1 -0.8,0 -1.2,0 -2.4,0.1 -3.6,0 -0.1,0 -0.2,0 -0.3,-0.1 -0.1,0 -0.2,0 -0.3,0 -0.3,0 -0.6,-0.1 -0.9,-0.2 -0.5,-0.1 -1,-0.2 -1.5,-0.4 -0.3,0 -0.6,-0.1 -0.8,-0.4 -0.7,-0.3 -1.3,-0.8 -1.6,-1.6 -0.2,-0.2 -0.2,-0.4 -0.2,-0.6 -0.1,-0.3 -0.1,-0.6 0,-0.9 0,-0.2 0,-0.3 0.1,-0.5 0.3,-0.9 0.9,-1.5 1.8,-1.7 2.2,-0.5 4.1,-0.2 5.8,2 0.4,0.2 0.5,0.7 0.7,1.1 0.1,0.3 0,0.4 -0.3,0.4 -0.4,0 -0.8,-0.1 -1,-0.5 -0.2,-0.2 -0.4,-0.3 -0.7,-0.2 v 0 c -0.1,0.3 -0.2,0.5 -0.4,0.8 -0.1,0.4 -0.5,0.7 -0.5,1.2 0,0 0.1,0.1 0.1,0.1 0.3,0 0.5,0.4 0.8,0.4 1.3,0.1 1.7,0.3 2.4,-1.1 0,-0.1 0.1,-0.2 0.2,-0.2 0.3,-0.5 0.1,-1 0,-1.5 -0.6,-1.2 -1.4,-2 -2.5,-2.7 -0.3,-0.1 -0.6,-0.2 -0.8,-0.4 -0.2,0 -0.4,0 -0.5,-0.1 -0.8,-0.5 -1.7,-0.4 -2.5,-0.4 -0.9,0 -1.6,0.5 -2.3,1 -0.7,0.7 -1.1,1.5 -1.3,2.4 -0.1,0.4 0.1,0.8 0,1.2 0.2,0.8 0.7,1.3 1.3,1.8 0.2,0.1 0.4,0.2 0.5,0.4 0.1,0 0.2,0.1 0.3,0.2 0.1,0 0.2,0.1 0.3,0.2 1.7,0.5 3.5,0.9 5.3,1 1,0.1 2,0 3,0.1 0.2,0 0.3,-0.1 0.5,-0.1 0.7,-0.1 1.4,-0.1 2.1,-0.2 0.8,-0.1 1.6,-0.2 2.3,-0.1 0.3,-0.1 0.6,0 0.7,0.3 0.6,1.8 1.7,3.4 2.9,4.8 0.1,0.1 0.1,0.2 0.1,0.3 0.3,0.4 0.7,0.7 1,1 1.3,1.4 2.9,2.1 4.8,2.1 0.1,-0.1 0.2,-0.1 0.3,-0.1 1.1,-0.2 2,-0.7 2.6,-1.7 0,-0.1 0,-0.2 0.1,-0.3 0.1,-0.5 0.3,-1.1 0.2,-1.6 -0.1,-0.7 -0.4,-1.3 -0.8,-1.9 -0.5,-0.3 -0.8,-0.8 -1.2,-1.2 -1.6,-1 -3.3,-1.6 -5.1,-1.9 -1.4,-0.2 -2.8,-0.4 -4.2,-0.2 -0.3,0 -0.4,-0.1 -0.5,-0.3 -0.1,-0.3 -0.3,-0.7 -0.3,-1.1 -0.2,-0.3 -0.1,-0.7 -0.1,-1.1 0,-0.1 0,-0.2 0,-0.3 0,-0.2 -0.1,-0.4 0.1,-0.6 0,-0.1 0,-0.2 0.1,-0.3 0.1,-1 0.5,-1.9 1.1,-2.7 0.2,-0.3 0.5,-0.6 0.7,-1 0.4,-0.6 0.9,-1.1 1.6,-1.4 1.1,-0.5 2.3,-0.7 3.5,-0.8 1.3,-0.1 2.6,-0.1 3.9,-0.1 0.4,0.1 0.8,0.1 1.2,0.2 0,0.3 -0.2,0.5 -0.3,0.7 -0.2,0.4 -0.4,0.7 -0.6,1.1 -0.6,1.5 -0.9,3 -0.8,4.6 0.1,1.1 0.2,2.3 0.7,3.3 0.7,1.4 1.8,2.3 3.2,2.9 0.5,0 1,0 1.5,0.2 0.1,0 0.2,0 0.3,0.1 0.6,0 1.2,0 1.8,0 0.3,-0.1 0.6,-0.1 0.9,-0.2 0.7,-0.3 1.3,-0.7 1.9,-1.2 0.1,-0.1 0.2,-0.2 0.3,-0.3 0.1,-0.1 0.2,-0.2 0.3,-0.3 0,-0.2 0.2,-0.3 0.3,-0.4 v 0 c 0.2,-0.4 0.3,-0.9 0.4,-1.3 0,-0.1 0,-0.2 0,-0.3 -0.2,-0.2 -0.1,-0.5 -0.1,-0.8 -0.2,-0.5 -0.3,-1 -0.5,-1.5 -0.1,-0.1 -0.2,-0.3 -0.3,-0.4 -0.2,-0.2 -0.4,-0.4 -0.6,-0.6 0,0 -0.1,-0.1 -0.1,-0.1 -0.2,-0.1 -0.4,-0.2 -0.5,-0.3 -0.4,-0.1 -0.8,-0.2 -1.1,-0.3 -0.2,0 -0.3,0 -0.5,-0.1 -0.4,0 -0.8,0.1 -1.1,0.3 -0.9,0.4 -1.2,0.8 -1,1.8 l 0.3,0.3 c 0.1,0.2 0.2,0.2 0.3,0.3 0,0.1 0.1,0.1 0.1,0.2 0.6,0.1 1.1,0.5 1.8,0.4 -0.1,-0.4 -0.4,-0.6 -0.3,-1 0.1,-0.3 0.3,-0.4 0.6,-0.5 0.1,-0.1 0.2,-0.1 0.3,0 0.7,0.2 1,0.6 1,1.5 0.2,0.4 0.1,0.7 -0.2,1 -0.1,0.3 -0.2,0.7 -0.5,0.9 -0.5,0.8 -1.3,0.8 -2,0.8 -0.5,0 -1,-0.1 -1.5,-0.1 -1.3,-0.1 -2.4,-0.8 -3.2,-1.7 -0.7,-0.8 -1.3,-1.6 -1.7,-2.6 -0.2,-0.4 -0.3,-0.8 -0.2,-1.3 0.2,-1.6 0.6,-3.1 1.5,-4.4 0.2,-0.3 0.4,-0.5 0.8,-0.4 0.9,0.4 1.9,0.6 2.8,0.9 1.6,0.5 3.1,1.3 4.5,2.2 0.1,0.1 0.3,0.2 0.4,0.4 0,0 0.1,0 0.1,0.1 0.4,0.2 0.8,0.4 1.1,0.7 v 0 c 0.3,0.1 0.5,0.3 0.8,0.5 0.1,0.1 0.2,0.1 0.3,0.2 0.2,0.1 0.4,0.2 0.5,0.3 0.1,0 0.3,0.1 0.3,0.2 0.3,0.1 0.5,0.2 0.7,0.4 0.1,0 0.2,0 0.3,0.1 0.4,0.1 0.8,0.3 1.1,0.6 0.1,0 0.2,0.1 0.2,0.1 0.3,0.1 0.6,0.1 0.8,0.5 0.5,0.1 1,0.4 1.5,0.5 0.6,0.2 1.3,0.5 1.9,0.5 0.5,0 1,0.2 1.4,0.3 0.3,0 0.6,0 0.9,0.1 0,0 0.1,0 0.1,0 2,0.2 4,0.2 6,-0.3 0.3,-0.1 0.5,-0.3 0.8,-0.3 0.8,-0.6 0.8,-0.6 1.7,0.2 0,0 0.1,0 0.1,0 0.3,0.1 0.6,0.3 0.9,0.5 0.4,0.3 0.9,0.4 1.4,0.6 0.4,0.1 0.8,0.1 1.1,0.4 0.2,0 0.3,0 0.4,0.1 0.5,0.1 0.9,0.3 1.3,0.5 0.1,0 0.2,0 0.3,0.1 0.1,0 0.2,0.1 0.3,0.1 0.5,0.1 0.9,0.2 1.3,0.4 0.3,0.1 0.6,0.1 0.9,0.2 0.2,0 0.3,0 0.5,0.1 0.1,0 0.3,0 0.4,0.1 0.1,0 0.2,0 0.3,0.1 0.2,0 0.4,0 0.6,0.1 1,0.1 1,0.1 0.6,1.1 -0.1,0.7 -0.2,1.4 -0.3,2.1 0,0.9 -0.1,1.8 0,2.7 0.3,2.6 1.1,5.1 2.6,7.3 0.1,0.1 0.1,0.2 0.2,0.3 0.4,0.6 0.4,0.6 -0.2,1.1 -0.7,0.6 -1.4,1.4 -1.8,2.2 -0.1,0.3 -0.3,0.5 -0.5,0.8 -0.1,0.2 -0.1,0.4 -0.2,0.6 -0.5,2.2 -0.2,4.5 0.2,6.7 0.1,0.1 0.1,0.2 0.1,0.3 0.3,0.7 0.5,1.5 0.8,2.2 0.1,0.1 0.1,0.2 0.1,0.3 0.4,0.7 0.6,1.5 0.9,2.2 0.8,2 1.6,4 2.7,5.8 0.1,0.1 0.1,0.3 0.2,0.4 0.2,0.1 0.3,0.3 0.3,0.5 0.2,0.2 0.4,0.5 0.4,0.8 0.4,0.7 0.4,0.7 -0.3,1.2 -0.1,0.1 -0.1,0.2 -0.2,0.2 -0.1,0.2 -0.3,0.3 -0.5,0.3 -2.7,1.2 -5.5,1.1 -8.2,0.2 -1,-0.3 -2,-0.7 -2.8,-1.3 -0.3,-0.3 -0.6,-0.5 -0.9,-0.9 -1.3,-1.7 -1.7,-3.6 -1.3,-5.7 0.1,-0.7 0.2,-1.4 0.5,-2 0.5,-1.2 1.5,-1.8 2.6,-2 1.5,-0.3 2.9,0.2 3.8,1.5 0.3,0.5 0.6,1.1 0.5,1.8 -0.1,0.6 -0.4,0.8 -0.9,0.5 -0.3,-0.1 -0.5,-0.4 -0.6,-0.6 -0.1,-0.2 -0.3,-0.4 -0.6,-0.3 -0.3,0.1 -0.3,0.4 -0.3,0.7 0,1.3 0.4,1.6 1.7,1.3 0.8,-0.2 1.3,-0.8 1.5,-1.6 0.3,-1 0.3,-2 -0.2,-3 -0.1,-0.2 -0.2,-0.4 -0.2,-0.6 -0.2,-0.2 -0.3,-0.5 -0.5,-0.7 -0.1,-0.1 -0.2,-0.2 -0.3,-0.3 -0.6,-0.4 -1.3,-0.7 -1.9,-1 -0.8,-0.2 -1.6,-0.1 -2.4,0.1 -0.2,0.1 -0.4,0.2 -0.6,0.3 -0.2,0.1 -0.4,0.3 -0.6,0.4 -0.4,0.3 -0.8,0.6 -1,1.1 -0.1,0.2 -0.2,0.5 -0.4,0.6 -0.1,0.2 -0.2,0.4 -0.4,0.6 -0.1,0.3 -0.1,0.5 -0.3,0.7 -0.1,0.6 -0.2,1.2 -0.4,1.8 0,0.2 0,0.3 -0.1,0.5 0,0.8 0.1,1.6 0.1,2.4 0.1,0.1 0.1,0.2 0.1,0.3 0.1,0.6 0.3,1.2 0.4,1.8 0.1,0.1 0.1,0.2 0.1,0.3 0,0.1 0.1,0.2 0.2,0.3 l 1.2,1.5 c 0.2,0.2 0.4,0.4 0.6,0.6 0.2,0.1 0.3,0.2 0.4,0.3 0.2,0.1 0.3,0.1 0.4,0.3 0.3,0.1 0.5,0.2 0.7,0.5 0.2,0.1 0.4,0.2 0.6,0.2 0.2,0 0.4,0.1 0.6,0.2 0.4,0.3 0.9,0.3 1.4,0.5 1.7,0.5 3.5,0.6 5.2,0.3 1.1,-0.2 2.1,-0.5 3,-1 1.1,-0.6 1,-0.7 1.4,0.5 0.1,0.3 0.2,0.5 0.2,0.8 0.2,1.2 0.5,2.5 0.9,3.7 0.6,2.2 0.6,4.4 0.4,6.6 -0.1,0.7 -0.2,1.5 -0.6,2.2 -0.1,1 -0.7,1.8 -1.1,2.7 -0.2,0.4 -0.3,0.9 -0.8,1.1 -1.1,1.1 -2.5,1.7 -4,1.8 -0.2,0 -0.3,0 -0.5,0 -1.1,-0.1 -1.1,-0.1 -0.6,-1.2 0.4,-1.3 0.7,-2.5 1.1,-3.8 0.3,-0.9 0.2,-1.8 0.4,-2.7 -0.1,-1.1 -0.3,-2.1 -0.9,-3 -0.5,-0.5 -1,-0.9 -1.7,-1.2 -1.2,-0.5 -2.2,-0.2 -3,0.7 -0.1,0.1 -0.2,0.2 -0.3,0.3 -0.5,0.7 -0.8,1.5 -0.9,2.4 0,0.2 0,0.4 -0.1,0.6 0,0.1 0,0.3 0,0.4 0.1,0.8 0.3,1.6 0.4,2.4 0,0.1 0,0.2 0,0.3 0.3,0.2 0.3,0.5 0.3,0.7 0,0.1 0.1,0.2 0.1,0.3 0.3,0.9 1,1.6 1.5,2.4 0.2,0.3 0.5,0.5 0.7,0.8 l 0.6,0.4 c 0.1,0 0.2,0.1 0.3,0.2 0.5,0.1 0.4,0.4 0.2,0.7 -0.3,0.6 -0.6,1.3 -0.9,2 -0.5,1.2 -0.9,2.5 -1.3,3.8 -0.2,0.8 -0.4,1.7 -0.5,2.5 -0.3,1.3 -0.2,2.5 0.2,3.8 0.1,0.2 0.1,0.3 0.1,0.5 0.2,0.3 0.3,0.6 0.5,0.9 0.1,0.1 0.2,0.2 0.2,0.3 0.2,0.1 0.3,0.3 0.4,0.5 0.2,0.2 0.4,0.4 0.6,0.6 0.7,0.4 1.3,0.8 2,0.9 0.5,0 1,0.1 1.5,-0.1 0.2,-0.1 0.5,-0.2 0.7,-0.2 0.2,-0.3 0.5,-0.4 0.8,-0.6 0.1,-0.2 0.4,-0.3 0.6,-0.5 0.1,-0.2 0.3,-0.3 0.4,-0.5 0.1,-0.2 0.2,-0.4 0.3,-0.7 0.5,-0.8 0.8,-1.7 1,-2.7 0.2,-1.1 0.2,-2.2 -0.2,-3.2 -0.2,-0.5 -0.6,-0.9 -1,-1.3 -0.3,-0.2 -0.6,-0.5 -1,-0.5 -0.8,-0.1 -1.5,-0.1 -2.1,0.6 -0.1,0.1 -0.2,0.2 -0.3,0.3 -0.1,0.1 -0.1,0.3 -0.2,0.4 0,0.1 0,0.2 -0.1,0.3 -0.1,0.6 -0.1,1.3 0,1.9 0.1,0.1 0.2,0.2 0.2,0.3 0.1,0.1 0.2,0.3 0.3,0.4 0.2,0 0.3,0.1 0.5,0.2 0.2,0.1 0.5,0.1 0.7,0.1 0.6,-0.1 0.8,-0.5 0.4,-1 -0.6,-0.8 -0.5,-1.6 -0.1,-2.4 0.2,-0.5 0.7,-0.8 1.2,-0.3 1.1,0.6 1.5,1.6 1.5,2.7 0,1.1 -0.2,2.1 -0.7,3.1 -0.7,1.7 -2.1,2.3 -3.8,2.4 -1.1,0.1 -2,-0.5 -2.7,-1.4 -1.4,-2 -1.5,-4.2 -0.9,-6.5 0.1,-0.5 0.2,-1.1 0.5,-1.6 0,-0.4 0.4,-0.7 0.3,-1.2 0,-0.3 0.1,-0.5 0.3,-0.7 0.1,-0.4 0.3,-0.7 0.4,-1.1 0,-0.2 0.1,-0.4 0.3,-0.6 0.1,-0.2 0.2,-0.5 0.3,-0.7 0,-0.3 0.2,-0.5 0.3,-0.8 0.2,-0.5 0.2,-0.5 0.9,-0.3 0.3,0 0.6,0 1,0 0.8,0 1.6,-0.2 2.3,-0.4 0.5,-0.2 1,-0.6 1.5,-0.9 0.6,-0.5 1.1,-1.1 1.7,-1.6 0.2,-0.2 0.1,-0.6 0.4,-0.7 0,-0.2 0.1,-0.3 0.2,-0.4 0,-0.1 0,-0.2 0.1,-0.3 0.2,-1.1 0.8,-2 1,-3.1 0.2,-1.2 0.3,-2.3 0.2,-3.5 0,-1.4 -0.2,-2.8 -0.6,-4.1 -0.2,-0.8 -0.4,-1.6 -0.5,-2.4 -0.1,-0.3 -0.1,-0.6 -0.2,-0.9 -0.1,-0.1 -0.1,-0.2 -0.1,-0.3 0,-0.1 0,-0.2 0,-0.3 -0.2,-0.3 -0.3,-0.7 -0.3,-1 -0.1,-0.1 -0.2,-0.3 -0.1,-0.4 -0.3,-0.4 -0.2,-0.7 0.1,-0.9 0.1,-0.1 0.3,-0.2 0.4,-0.3 0.1,-0.2 0.3,-0.4 0.5,-0.5 0.3,-0.3 0.5,-0.6 0.8,-0.9 0.2,-0.6 0.7,-1 1,-1.5 0.9,-1.9 1.3,-3.8 1.4,-5.9 0,-1.3 0.1,-2.5 0,-3.8 0,-0.1 -0.1,-0.3 -0.1,-0.4 -0.1,-0.1 -0.1,-0.2 -0.1,-0.3 -0.2,-0.7 -0.3,-1.4 -0.5,-2.1 -0.3,-0.7 -0.5,-1.5 -0.6,-2.2 0.2,0 0.4,0.2 0.6,0.3 0.3,0 0.6,0.1 0.9,0.2 0.6,0.2 1.2,0.2 1.8,0.2 0.5,0 0.9,-0.4 1.3,-0.4 0.5,-0.4 0.9,-0.8 1.2,-1.3 0.2,-0.7 0.4,-1.5 0,-2.2 -0.2,-0.2 -0.2,-0.4 -0.3,-0.6 -0.1,-0.1 -0.1,-0.2 -0.2,-0.3 -0.1,-0.1 -0.3,-0.2 -0.3,-0.4 -0.3,-0.4 -0.6,-0.8 -1,-1.1 -0.1,-0.1 -0.2,-0.1 -0.3,-0.2 -1.5,-1.3 -3.3,-1.7 -5.3,-1.6 -1.2,0.1 -1.2,0 -1.5,-1.1 0,0 0,-0.1 0,-0.1 -0.2,-0.9 -0.6,-1.7 -0.6,-2.7 -0.1,-0.4 -0.3,-0.9 -0.2,-1.4 l -0.1,-0.4 c -0.1,-0.2 -0.1,-0.4 -0.1,-0.6 0,-0.2 0,-0.5 -0.1,-0.7 -0.1,-0.1 -0.1,-0.2 -0.1,-0.3 -0.1,-0.2 -0.1,-0.5 -0.1,-0.7 -0.1,-0.2 -0.1,-0.3 0,-0.5 -0.1,-0.8 0.1,-1.6 0.3,-2.4 0,-0.1 0,-0.1 0,-0.2 0.3,-1.4 0.3,-1.4 1.7,-1.7 1.5,-0.2 2.9,-1 4.2,-1.7 0.5,-0.2 0.9,-0.5 1.3,-0.8 0.1,-0.1 0.1,-0.2 0.3,-0.3 0.2,-0.2 0.4,-0.5 0.6,-0.7 0.2,-0.4 0.3,-0.8 0.5,-1.1 0.6,-1 0.5,-2.1 0.1,-3.2 -0.4,-0.5 -0.9,-0.9 -1.4,-1.3 -0.1,0 -0.2,-0.1 -0.3,-0.1 -1.6,-0.7 -3.1,-0.7 -4.7,0.1 -0.6,0.3 -1.2,0.7 -1.8,0.9 -0.1,0.1 -0.2,0.2 -0.3,0.3 0,0 -0.1,0.1 -0.1,0.1 -0.3,0.4 -0.6,0.8 -1,1.1 -0.1,0.1 -0.1,0.2 -0.3,0.3 -0.7,1 -1.5,2 -2.2,2.9 -0.1,0.2 -0.3,0.3 -0.6,0.2 -0.1,0 -0.3,0 -0.4,0 -0.1,0 -0.2,0 -0.3,0 -0.3,0.1 -0.6,0 -0.9,-0.1 -0.5,0 -0.9,-0.1 -1.3,-0.2 -0.4,0 -0.8,-0.2 -1.2,-0.4 -2.1,-0.9 -4.1,-1.9 -5.9,-3.2 -0.4,-0.3 -0.6,-0.6 -0.4,-1 -0.1,-0.6 -0.1,-1.2 -0.2,-1.8 -0.1,-0.6 -0.2,-1.2 -0.4,-1.7 -0.4,-1 -0.8,-2 -1.4,-2.8 C 399.7,3.2 399.7,3 399.6,2.9 399.4,2.6 399.1,2.4 398.8,2.1 398.6,1.9 398.3,1.7 398.1,1.5 397.9,1.4 397.8,1.3 397.7,1.2 397.3,0.1 396.7,-0.1 396,0 Z m -46.4,14 c 0.1,0 0.1,0 0.1,-0.1 0,0.1 0,0.1 -0.1,0.1 z m -0.5,-0.3 c 0,0 -0.1,0.1 -0.1,0.1 0,0 -0.1,0 -0.1,-0.1 0,0 0.1,-0.1 0.2,0 -0.1,-0.1 0,0 0,0 z m 17.5,8.9 v 0 c 0,0 0,0.1 0,0 0,0.1 0,0 0,0 z m 1.8,0.2 c 0,0.1 -0.1,0.1 0,0 -0.2,0.1 -0.2,0 -0.2,0 0,0 0,-0.1 0.1,-0.1 0,0 0.1,0 0.1,0.1 z m -7.5,-4 c -0.1,0 -0.2,-0.1 -0.2,-0.2 0.1,-0.1 0.2,-0.1 0.3,0 0,0 0.1,0.1 0.1,0.1 0,0.1 -0.1,0.1 -0.2,0.1 z m 1,0.7 c 0,0 0.1,-0.1 0,0 0.1,-0.1 0,0 0,0 z m -0.3,0 v 0 c 0,0 -0.1,0.1 -0.1,0.1 0,0 0.1,-0.1 0.1,-0.1 z m 1,0.5 v 0 c 0,0.1 0,0.1 0,0 0,0.1 0,0.1 0,0 z m 0.1,0.1 c 0,0 0,0 0,0 0,0 0,0 0,0 z m 0.5,0.4 c 0.1,0 0.1,0 0.1,0.1 0,0 -0.1,0 -0.1,-0.1 0,0 -0.1,0 -0.1,0.1 -0.1,0 0,0 0.1,-0.1 z m 1.1,1.3 c 0,0 0,0 0,0 0,0.1 0,0.1 0.1,0.1 0,0 -0.1,0 -0.1,-0.1 0,0 0,0 0,0 z m 5.1,0.1 c 0,0.1 -0.1,0.1 -0.1,0.1 -0.1,0 -0.2,-0.1 -0.2,-0.2 0,-0.1 0.1,-0.1 0.1,-0.1 0.1,0 0.2,0.1 0.2,0.2 z m -3,-0.2 c 0,0 0,0 0,0 0,0 0,0 0,0 0,0 0,0 0,0 -0.1,0 -0.2,0 -0.2,0 0.1,0 0.1,0 0.2,0 0,0 0,0 0,0 z m -0.9,-0.1 c 0,0.1 -0.1,0.2 -0.2,0.2 -0.1,0 -0.2,-0.1 -0.2,-0.2 0,-0.1 0.1,-0.1 0.1,-0.1 0.2,-0.1 0.3,0 0.3,0.1 z m 1.6,-4.5 c 1.2,0.6 2.1,1.6 2.7,2.8 0.3,0.7 0.1,1.1 -0.6,1.4 -0.6,0.2 -1.3,0.3 -1.9,0.2 -1.9,-0.2 -3.6,-1 -5.1,-2.2 -1,-0.8 -1.9,-1.7 -2.6,-2.7 -0.2,-0.2 -0.4,-0.4 -0.4,-0.8 2.8,-0.3 5.4,0.1 7.9,1.3 z m 7,0.2 v 0 c 0,-0.1 0,-0.2 0.1,-0.2 -0.1,0 -0.1,0.1 -0.1,0.2 z m 0,0.6 c -0.1,0 -0.2,0 -0.3,0 0.1,-0.1 0,-0.3 0.2,-0.3 0.2,0 0.2,0.1 0.2,0.3 0,0 -0.1,0 -0.1,0 z m -1.5,-0.2 c 0,0 0,0 0,0 0,0 0,0 0,0 z m 0.5,-0.2 c 0,-0.1 0.1,-0.1 0.2,-0.1 0,0.1 0,0.2 0.1,0.3 -0.2,-0.1 -0.3,-0.1 -0.3,-0.2 z m -1.3,-0.1 c 0,0.1 0.1,0.1 0.2,0.1 -0.1,0 -0.2,-0.1 -0.2,-0.1 z m 0.2,0.1 v 0 c 0,0 0,0 0,0 0,0 0,0 0,0 z m 0.5,0.1 c 0,0 0.1,0 0,0 0.1,0 0,0 0,0 0,0 -0.1,0 0,0 -0.1,0 0,0 0,0 z m 0.8,0.2 c 0.2,0 0.3,0.1 0.5,0.1 0,0.1 0,0.1 0,0.2 -0.3,0.1 -0.3,0.1 -0.5,-0.3 z m 1.4,0.3 v 0 c 0,0 0,0 0,0 v 0 c 0,0 0,0 0,0 0,-0.1 0,-0.2 -0.1,-0.3 -0.2,-0.1 -0.2,-0.3 -0.1,-0.4 0,0 0,0 0,0 v 0 c 0.1,0 0.2,0 0.2,0.1 0.1,0 0.2,0 0.3,-0.1 -0.1,0 -0.2,0 -0.3,0.1 0,0.3 0.4,0.4 0.4,0.7 -0.1,-0.1 -0.3,-0.1 -0.4,-0.1 0,0.1 -0.1,0.2 -0.1,0.2 0,-0.1 0.1,-0.1 0.1,-0.2 z m 0.7,0 c 0.1,-0.1 0.1,-0.1 0,0 0.1,-0.1 0.1,-0.1 0,0 z m 0.1,-0.1 c 0,0 0,0 0,0 0,0 0,0 0,0 z m 0.2,0 v 0 c 0,-0.1 0,-0.1 0,0 0,-0.1 0,-0.1 0,0 z m 0.2,0.1 c 0,0 0.1,-0.1 0.1,-0.2 0,0.1 0,0.2 -0.1,0.2 z m 1,-0.4 c 0,0 0,0.1 0,0 -0.2,0.1 -0.2,0.1 -0.2,0 0,0 0.1,-0.1 0.1,-0.1 0.1,0 0.1,0.1 0.1,0.1 z M 378,17 c 0,-0.1 -0.1,-0.1 -0.2,-0.1 0,0 0,0 -0.1,0 0,0 0,0 0.1,0 0.1,0 0.2,0.1 0.2,0.1 z m -1.9,-4 c -0.2,0.4 -0.4,0.2 -0.6,0.1 -0.1,0 -0.1,-0.1 -0.2,-0.1 0.3,-0.4 0.5,0 0.8,0 z m 0.2,-0.2 c 0,0 0,0 0,0 0,0 0,0 0,0 z m -0.1,-0.9 c 0,0 0.1,0 0.1,-0.1 v 0 c 0,0.1 0,0.1 -0.1,0.1 z m -1,0.1 c 0,-0.1 0.1,-0.1 0.2,-0.2 0.1,0 0.2,0 0.3,0.2 0,0.1 -0.1,0.1 -0.1,0.1 -0.3,0 -0.4,0.1 -0.4,-0.1 z m 32.6,36.6 v 0 c 0.1,0 0.1,0 0,0 0.1,0 0.1,0 0,0 z m -0.1,-0.3 z m 0.3,0.2 v 0 c 0,0 0,0.1 0,0 0,0.1 0,0 0,0 z m -2.7,-5.8 c 0,0 0,0 0,0 0,0 0,0 0,0 z m 0.6,0.4 c 0,0.1 0.1,0.1 0,0 0.1,0.1 0,0.1 0,0 z m 1.5,0.1 c 0,0 0,0.1 0,0.1 0,0 0.1,-0.1 0.1,-0.1 0,0 -0.1,0.1 -0.1,0.1 0,0 0,-0.1 0,-0.1 z m -3.7,0.4 c 0.1,-0.1 0.2,0 0.2,0.1 0,0.1 -0.1,0.1 -0.1,0.1 -0.1,0 -0.1,0 -0.2,0 0,-0.1 0,-0.2 0.1,-0.2 z m -0.4,0.5 c 0,0 -0.1,-0.1 -0.1,-0.1 0,-0.1 0.1,-0.1 0.2,-0.1 0.1,0 0.1,0 0.2,0 0,0.1 -0.1,0.1 -0.1,0.2 -0.1,0 -0.2,0 -0.2,0 z m 1,0.2 v 0 c 0,0 0,0 0,0 0,0 0,0 0,0 z m -1.7,0.4 c 0,0 0,-0.1 0,0 0,-0.1 0,0 0,0 0,0 0,0.1 0.1,0.1 -0.1,0 -0.1,-0.1 -0.1,-0.1 z m -0.3,0.6 c -0.1,0 -0.1,-0.1 0,-0.1 0,-0.1 0.1,-0.1 0.2,-0.1 0,0 0,0.1 0.1,0.1 -0.1,0.1 -0.2,0.1 -0.3,0.1 z m -0.3,0.5 c 0,-0.1 0,-0.1 0.1,-0.2 0,0 0.1,0 0.1,0 0,0.1 0,0.1 -0.1,0.2 -0.1,0.1 -0.1,0.1 -0.1,0 z m -0.3,0.6 c 0,-0.1 0,-0.1 0.1,-0.1 0,0 0.1,0 0.1,0.1 0,0 0,0.1 -0.2,0 0.1,0.1 0,0 0,0 z m 0,0.5 c 0,0 0,0 0,0 0,0 0,0 0,0 z m -0.3,1.1 c 0,0 0.1,-0.1 0.1,0 0,0 0,0.1 0.1,0.1 0,0 -0.1,0.1 -0.1,0.1 -0.1,-0.1 -0.1,-0.2 -0.1,-0.2 z m 0,2 v 0 c 0,0 0,-0.1 0.1,-0.1 -0.1,0 -0.1,0.1 -0.1,0.1 z m 0,-1 c 0.1,0 0.1,0.1 0.1,0.1 0,-0.1 -0.1,-0.1 -0.1,-0.1 0,0 -0.1,0 -0.1,0 0,0 0,0 0.1,0 z m 10.1,22 c 0,0 0,0 0,0 0,0 0,0 0,0 0,0 -0.1,0 -0.1,0 0.1,-0.1 0.1,0 0.1,0 z m 0.4,-1.5 c 0,0 0,-0.1 0,0 z m 0.1,-1.2 c 0,0 0,0 0,0 0,0 0,0 0,0 z m -0.4,-0.4 c 0,0.1 0,0.1 0,0.1 0,0 0,-0.1 0,-0.1 0,0 0,-0.1 -0.1,-0.1 0.1,0 0.1,0 0.1,0.1 z m -0.2,-1 c 0,0.1 0.1,0.1 0,0 0.1,0.1 0,0.1 0,0 0,0 -0.1,-0.1 -0.1,-0.1 0,0 0.1,0.1 0.1,0.1 z m -0.5,0.2 c 0,0 -0.1,-0.1 -0.1,-0.1 0.1,0 0.1,0.1 0.1,0.1 z m 0.7,-0.2 c 0,0.1 -0.1,0.1 0,0 -0.1,0.1 0,0.1 0,0 z m -0.8,-0.8 c 0.1,0.1 0.2,0.1 0.1,0.2 -0.1,0.1 -0.2,0 -0.2,-0.1 -0.1,0 -0.1,-0.1 -0.1,-0.2 0,0 0.1,0 0.2,0.1 z m -0.5,-0.4 c 0,0.1 0,0.1 -0.1,0.2 -0.2,0 -0.3,-0.1 -0.3,-0.2 0,-0.1 0,-0.1 0.1,-0.2 0.1,-0.1 0.2,0 0.3,0.2 z m -1.2,9.4 c -0.9,-0.8 -1.6,-1.8 -2.1,-2.9 0,-0.1 0,-0.2 -0.1,-0.4 -0.1,-0.1 -0.1,-0.2 -0.1,-0.3 -0.1,-0.1 -0.1,-0.3 -0.1,-0.4 -0.6,-1.4 -0.6,-2.8 -0.3,-4.3 0.1,-0.6 0.5,-1.1 0.9,-1.6 0.4,-0.4 1.2,-0.3 1.7,0.2 0.3,0.3 0.4,0.6 0.6,0.9 0.6,1.5 0.9,3.1 0.9,4.7 0,0.3 0.1,0.6 0,1 0,1.3 -0.1,2.5 -0.5,3.7 -0.3,-0.1 -0.6,-0.3 -0.9,-0.6 z m 3.9,11.2 c 0,0 0,0 0,0 0,0 0,0 0,0 0,0 0,0 0,0 0,0 0,0 0,0 z m -0.9,-0.6 c 0.1,0.1 0.2,0.1 0.2,0.2 0.1,0 0.1,0.1 0.1,0.2 0,0 0.1,0.1 0.1,0.1 -0.1,0.1 -0.1,0 -0.2,0 -0.1,0 -0.1,-0.1 -0.2,-0.1 -0.1,-0.1 -0.2,-0.1 -0.2,-0.2 -0.1,0 -0.1,-0.1 -0.1,-0.2 0.2,-0.2 0.3,0 0.3,0 z m 0.7,-1.7 c 0,0.1 -0.1,0.1 -0.1,0.1 0,0 -0.1,0 -0.1,0 0,0 0,-0.1 0,-0.1 0,0 0,-0.1 0.2,0 -0.1,-0.1 0,0 0,0 z m 2.5,-51.8 c -0.2,-0.2 -0.2,-0.4 0.1,-0.6 0.1,-0.1 0.2,-0.1 0.2,-0.2 1.2,-0.9 1.4,-0.8 1.9,0.6 0.2,0.7 0.5,1.3 0.7,1.9 0.1,0.1 0.2,0.3 0,0.5 -0.7,-0.3 -1.4,-0.8 -2,-1.3 -0.3,-0.2 -0.6,-0.5 -0.9,-0.9 z m -2.8,1.7 c 0,0 0.1,0 0,0 0.1,0 0,0 0,0 0,0.1 0,0.1 0,0 0,0.1 0,0.1 0,0 z m -0.3,0.9 c 0,0 -0.1,-0.1 0,-0.1 0,0 0.1,0 0.1,-0.1 0,0 0.1,0.1 0.1,0.1 -0.1,0.1 -0.1,0.1 -0.2,0.1 z m -0.4,1.7 v 0 c 0.1,0.1 0.1,0.1 0,0 0.1,0.1 0.1,0.1 0,0 z m -0.3,0.5 c 0.1,0 0.1,0 0.2,0 0.1,0.1 0.1,0.3 -0.1,0.3 -0.2,0.1 -0.1,-0.1 -0.1,-0.3 z m -0.3,0.9 c -0.1,-0.1 -0.1,-0.2 0,-0.3 0,-0.1 0.1,-0.1 0.2,-0.1 0.1,0.1 0.1,0.2 0.1,0.3 -0.1,0.1 -0.2,0.2 -0.3,0.1 z m 0.3,0.5 c 0,-0.1 0,-0.1 0,-0.2 0,0 0.1,0 0.1,0 0,0 0,0.1 -0.1,0.2 0.1,0 0.1,0 0,0 0.1,0 0,0 0,0 z m 0.1,0.1 v 0 c 0,0 0.1,0 0.1,0 0,0 0,0 -0.1,0 z m -0.4,0.9 c 0,-0.1 0,-0.1 0.1,-0.1 0,0 0.1,0.1 0.1,0.1 0,0 0,0.1 0,0.1 -0.1,0 -0.1,0 -0.2,-0.1 z m 0.2,1.1 c 0,-0.1 0.1,-0.1 0.1,-0.1 0,0 0.1,0.1 0.1,0.2 0,0 -0.1,0.1 -0.1,0.1 -0.1,0 -0.1,-0.1 -0.1,-0.2 z m 0.5,2 v 0 c 0,0 -0.1,0 -0.1,0 0,0 0.1,0 0.1,0 z m 0.6,2.6 c 0,0 0.1,0.1 0.1,0.1 0,0 0,0 -0.1,-0.1 0,0.1 0,0.1 0,0 0,0.1 0,0.1 0,0 z m 0.8,2.4 v 0 c 0,0 -0.1,0.1 -0.1,0.1 0.1,-0.1 0.1,-0.1 0.1,-0.1 z m 0.3,0.8 c 0,0 0.1,-0.1 0.1,-0.1 0.1,0 0.1,0.1 0.2,0.2 0,0.1 0,0.1 0,0.2 -0.1,0 -0.1,0 -0.2,-0.1 -0.1,0 -0.2,-0.1 -0.1,-0.2 z m 0.2,0.3 v 0 c 0.1,0 0.2,-0.1 0.3,-0.1 0,0 -0.2,0.1 -0.3,0.1 z m 0.6,1.3 c -0.1,0 -0.2,-0.1 -0.2,-0.3 0,-0.1 0.1,-0.1 0.2,-0.1 0.1,0 0.2,0.1 0.2,0.3 -0.1,0.1 -0.1,0.1 -0.2,0.1 z m 0.2,0.5 c 0,-0.1 0.1,-0.1 0.1,-0.1 0.1,0 0.1,0.1 0.1,0.2 0,0.1 0,0.1 -0.1,0.1 -0.1,0 -0.1,-0.1 -0.1,-0.2 z m 0.6,0.8 c 0,0.1 0,0.1 -0.1,0.1 0,0 0,-0.1 0.1,-0.1 z m 8.2,-13.8 z m -2.9,0 c 0,0 0,0 0,0 0,0 0,0 0,0 z m 2.8,-0.6 c 0,0 0,0 0,0 0,0 0,0 0,0 z m -4.2,-0.2 c 0.1,0.1 0.2,0.2 0.2,0.3 0.4,1 1,1.9 1.2,2.9 0.4,1.2 0.8,2.5 0.8,3.8 0.1,1.9 -0.1,3.8 -0.5,5.7 -0.5,2.2 -1.8,3.9 -3.4,5.4 -0.1,0.1 -0.2,0.1 -0.3,0.2 -0.4,-0.7 -0.6,-1.4 -0.9,-2.2 -1,-2.6 -2,-5.1 -2.8,-7.8 -0.4,-1.4 -0.9,-2.8 -1.1,-4.2 -0.1,-0.6 -0.1,-1.2 -0.1,-1.8 0,-1.7 0.2,-3.3 1,-4.8 0.3,-0.6 0.7,-1.1 1.1,-1.6 0.4,0.2 0.5,0.8 0.9,1 0.4,0.3 0.8,0.6 1.1,1 0.1,0.1 0.4,0.2 0.5,0.4 0.8,0.7 1.6,1.2 2.3,1.7 z M 419,36 c 0,0 -0.1,0 -0.1,-0.1 0,0 0,0 0,0 0,0 0,0 0,0 0.1,0 0.1,0.1 0.1,0.1 z m 6.5,-2.3 c 0.6,0.9 0.3,1.9 -0.6,2.4 -0.3,0.2 -0.6,0.2 -0.9,0.1 -1.4,-0.2 -2.8,-0.5 -4.1,-1 -0.3,-0.1 -0.4,-0.2 -0.5,-0.5 -0.3,-1.2 -0.7,-2.5 -1.2,-3.7 -0.2,-0.4 -0.1,-0.5 0.4,-0.6 0.3,0 0.6,0 1,-0.1 2.6,0 4.6,1.3 5.9,3.4 z M 415.4,17.6 c 0.1,0.2 0,0.4 0,0.6 -0.6,2.4 -0.5,4.7 0,7.1 0.3,1.5 0.7,2.9 1.1,4.3 0.1,0.3 0.1,0.6 -0.3,0.7 -0.5,0.2 -1.1,0.4 -1.6,0.7 -0.3,0.2 -0.5,0.1 -0.7,-0.2 -0.3,-0.4 -0.6,-0.8 -0.9,-1.3 -0.9,-1.6 -1.5,-3.4 -1.7,-5.2 -0.1,-0.5 -0.1,-1 -0.2,-1.5 -0.2,-1.3 0,-2.5 0.3,-3.7 0,-0.2 0.1,-0.4 0.2,-0.6 0.5,-0.9 0.5,-1 1.4,-0.9 0.5,0.1 1,0 1.5,-0.1 0.3,0 0.6,0 0.9,0.1 z M 395.2,2.1 c 0.1,0 0.1,0.1 0.1,0.1 0,-0.1 -0.1,-0.1 -0.1,-0.1 z m -0.3,1.2 c -0.1,0 -0.2,-0.1 -0.1,-0.2 0,-0.1 0.1,-0.1 0.2,0 0.1,0 0.1,0.1 0.1,0.1 -0.1,0.1 -0.2,0.1 -0.2,0.1 z m 0.9,10.4 c -2,0.4 -4,0.4 -6,-0.1 -1.1,-0.3 -2.2,-0.5 -3.2,-0.9 -1.5,-0.6 -2.8,-1.3 -4.2,-2.1 -2,-1.2 -3.8,-2.5 -6,-3.5 -1.5,-0.6 -3,-1.1 -4.6,-1.5 -0.3,-0.2 -0.1,-0.4 0,-0.6 1.4,-2 3.2,-3.2 5.5,-3.9 0.4,-0.1 1,-0.2 1.3,-0.6 0,0 0.1,0 0.1,0 0,0 0,0 0.1,0 0.1,0.2 0.2,0.1 0.4,0.1 2,-0.2 4,-0.1 5.9,0.3 0.4,0.1 0.8,0.2 1.1,0.1 0.1,0 0.1,0 0.1,0 0,0 0,0 0,0 0.2,0.4 0.6,0.3 0.9,0.5 0.1,0.1 0.2,0.1 0.3,0.1 0.1,0.1 0.2,0.2 0.4,0 0,0.3 0.3,0.3 0.5,0.3 0.2,0.2 0.5,0.3 0.8,0.4 0.2,0.1 0.4,0.2 0.6,0.2 0.3,0.2 0.7,0.4 1.1,0.5 0,0 0.1,0 0.1,0 0.1,0.1 0.2,0.1 0.3,0.2 0.1,0 0.1,0 0.2,0.1 0.1,0.1 0.3,0.2 0.4,0.2 0.2,0.2 0.4,0.2 0.6,0.3 0.2,0.1 0.5,0.2 0.7,0.3 0.5,0.2 0.8,0.5 0.8,1.1 0.3,1.9 1,3.6 2.2,5.1 0.6,0.7 1.1,1.5 1.8,2.1 0.1,0.1 0.2,0.2 0.3,0.4 -0.7,0.6 -1.6,0.8 -2.5,0.9 z m -1.3,-8.2 c 0,0 0,-0.1 0,-0.1 0.2,-0.1 0.3,0 0.4,0.2 -0.1,0 -0.2,0 -0.4,-0.1 z m 0.7,1 c 0.1,0 0.2,0.1 0.2,0.2 0,0.1 -0.1,0.1 -0.1,0.1 -0.1,0 -0.2,-0.1 -0.2,-0.2 -0.1,-0.1 0,-0.1 0.1,-0.1 z m 0.5,1.9 c 0,0.1 -0.1,0.1 0,0 -0.1,0.1 0,0.1 0,0 0.1,0 0.1,0 0.1,0.1 0,0 -0.1,0 -0.1,-0.1 z m 19.7,8.6 c -0.9,0 -1.7,0.1 -2.6,0.1 -0.4,0 -0.5,-0.1 -0.3,-0.4 0.4,-0.8 1,-1.5 1.6,-2.2 0.1,-0.2 0.3,-0.2 0.5,-0.2 0.8,-0.1 1.6,-0.2 2.3,-0.3 0,0 0.1,0.1 0.1,0.1 -0.5,0.8 -1,1.7 -1.3,2.6 0,0.2 -0.1,0.3 -0.3,0.3 z m -2.3,-2 c 0,0 -0.1,0 -0.1,0.1 0,-0.1 0.1,-0.1 0.1,-0.1 z m 0.3,-0.4 c -0.1,0 -0.1,-0.1 -0.1,-0.2 0,-0.1 0.1,-0.1 0.2,-0.1 0,0 0,0.1 0,0.1 0,0.2 0,0.2 -0.1,0.2 z m 4.8,-0.7 c 0,0 0,0.1 0,0.1 0,0 0,-0.1 0,-0.1 z M 423,8.4 c 0,0 0,0.1 0,0.1 0,-0.1 0,-0.1 0,-0.1 z m -0.7,0 c 0,0 0,0 0,0 z m 0.1,-0.2 c 0,0 0,0 0,0 0,0 0,0 0,0 z m 0.6,0.3 v 0 c 0,0 0,0 0,0 0,0 0,0 0,0 z m -3.1,0.4 c 0.1,0 0.1,0 0.1,0.1 0,-0.1 -0.1,-0.1 -0.1,-0.1 -0.1,0 -0.1,0 0,0 -0.1,0 -0.1,0 0,0 z m -1.7,0.6 v 0 c 0,0 0,0.1 0.1,0.1 -0.1,0 -0.1,0 -0.1,-0.1 z m -0.9,0.2 c 0,0 0,0.1 0.1,0.1 -0.1,0 -0.1,-0.1 -0.1,-0.1 z m -0.5,0.9 c 0.2,0 0.3,0.1 0.3,0.3 -0.1,0 -0.3,-0.1 -0.5,0 0,-0.1 -0.2,-0.3 0.2,-0.3 z m -0.5,0.6 c 0,-0.2 0.2,-0.1 0.4,-0.2 0,0.1 0,0.3 0,0.4 0,0 0,0 0,0 -0.2,-0.1 -0.4,-0.1 -0.4,-0.2 z m -2,1.9 v 0 c 0,0 0.1,0 0.1,0 0,0 0,0 -0.1,0 z m -0.2,0.3 c 0,0 0.1,0 0.1,0.1 0,0 0,0 -0.1,-0.1 -0.1,0 -0.1,0 -0.2,0.1 0.1,-0.1 0.1,-0.1 0.2,-0.1 z m 5.1,-0.7 c 0,0 0,0.1 0,0 -0.1,0.1 -0.1,0.1 -0.1,0.1 0,0 0,0 0.1,-0.1 0,0.1 0,0 0,0 z m 1.4,0 c 0.5,-0.1 0.9,-0.4 1.3,-0.8 0.4,-0.4 0.5,-0.8 0.3,-1.3 -0.2,-0.4 -0.7,-0.7 -1.3,-0.5 -0.8,0.2 -1.5,0.6 -2,1.3 -0.4,0.6 -0.8,1.1 -1.2,1.7 -0.1,0.1 -0.2,0.3 -0.4,0.3 -0.8,0.2 -1.7,0.4 -2.5,0.4 -0.1,-0.3 0.1,-0.4 0.2,-0.5 0.5,-0.5 0.9,-1 1.4,-1.5 0.1,-0.1 0.3,-0.2 0.2,-0.4 0,0 0,0 0,0 0.3,0 0.5,-0.1 0.4,-0.4 0.2,0.1 0.4,-0.1 0.5,-0.2 0.7,-0.5 1.5,-1 2.3,-1.4 0.8,-0.4 1.6,-0.6 2.4,-0.5 0.6,-0.1 1.1,0 1.7,0.2 0.9,0.3 1.2,0.8 1.2,1.7 0,0.5 -0.1,0.9 -0.4,1.3 -0.4,1 -0.9,1.9 -1.8,2.5 -1,0.6 -1.9,1.2 -3,1.5 -0.2,0.1 -0.5,0.2 -0.7,0.3 -0.1,0.1 -0.3,0.2 -0.5,0.2 -0.2,0 -0.5,0.1 -0.7,0.1 -0.3,0.1 -0.5,0.2 -1,0.1 0.5,-0.8 0.6,-1.7 1.4,-2.2 0.7,-0.9 1.2,-1.6 2.2,-1.9 z M 421,12 v 0 c 0,0 0,-0.1 0,0 0,-0.1 0,0 0,0 z m -18.5,-1.6 c 0.5,0.3 0.9,0.6 1.4,0.9 1.5,0.9 3,1.6 4.6,2.3 0.7,0.3 1.5,0.4 2.3,0.5 0.3,0.1 0.6,0.1 0.9,0.2 0,0 0,0 0.1,0 0.3,0 0.6,-0.1 0.7,0.1 0.1,0.3 -0.2,0.5 -0.4,0.7 -0.2,0.4 -0.4,0.9 -0.6,1.3 0,0.3 0,0.6 -0.4,0.6 -0.1,0 -0.2,0 -0.3,0 -0.1,0 -0.2,0 -0.3,0 -3.1,-0.4 -6.1,-1.4 -8.9,-2.9 -0.4,-0.2 -0.8,-0.6 -1.2,-0.9 -0.2,-0.1 -0.2,-0.3 0,-0.5 0.1,-0.1 0.2,-0.2 0.3,-0.3 0.6,-0.5 0.9,-1.2 1.2,-1.9 0.2,-0.4 0.2,-0.4 0.6,-0.1 z M 401,9.3 c 0.3,0.2 0.4,0.4 0.2,0.7 -0.3,0.7 -0.6,1.4 -1.3,2 -0.4,0.4 -0.6,0.4 -1,0 -1,-1 -1.8,-2 -2.4,-3.3 -0.4,-0.9 -0.5,-1.8 -0.6,-2.7 -0.1,-0.3 0.2,-0.2 0.3,-0.2 0.1,0.2 0.3,0.3 0.5,0.3 0,0 0,0 0,0 0,0 0,0 0,0.1 0.2,0.1 0.3,0.2 0.5,0.3 0,0 0,0 0,0 0,0 0.1,0.1 0.1,0.1 0.4,0.3 0.9,0.6 1.3,0.8 0,0 0.1,0 0.1,0 0,0 0,0.1 0.1,0.1 0.1,0 0.1,0.1 0.2,0.1 0.1,0.2 0.4,0.3 0.6,0.5 0.4,0.5 0.9,0.8 1.4,1.2 z M 397.8,1 c 0.7,0.3 1.3,0.8 1.7,1.5 0.6,0.9 1.1,1.8 1.5,2.7 0.5,1.2 0.6,2.5 0.4,3.8 -0.5,-0.3 -0.9,-0.6 -1.3,-0.9 -0.2,-0.3 -0.5,-0.5 -0.8,-0.7 0,0 -0.1,-0.1 -0.1,-0.1 0,0 -0.1,0 -0.1,0 0,-0.1 -0.1,-0.1 -0.1,-0.2 -0.3,-0.2 -0.6,-0.4 -0.9,-0.6 -0.1,-0.1 -0.3,-0.3 -0.5,-0.1 0,0 0,0 0,0 0,0 0,0 0,0 0,-0.3 -0.2,-0.4 -0.5,-0.4 0,0 0,0 0,0 -0.2,-0.2 -0.4,-0.3 -0.6,-0.4 -0.6,-0.3 -0.7,-0.7 -0.7,-1.3 0,-0.7 0,-1.4 0.2,-2.1 0,-1.1 0.9,-1.5 1.8,-1.2 z"
   id="path4" />
		</g>
	</g>
	<g
   id="g14">
		<g
   id="g12">
			
		</g>
	</g>
	<g
   id="g20">
		<g
   id="g18">
			
		</g>
	</g>
	<g
   id="g26">
		<g
   id="g24">
			
		</g>
	</g>
	<g
   id="g32">
		<g
   id="g30">
			
		</g>
	</g>
	<g
   id="g38">
		<g
   id="g36">
			<path
   class="st0"
   d="m 411.6,326.7 c -0.3,0 -0.5,-0.2 -0.5,-0.5 v -228 c 0,-0.3 0.2,-0.5 0.5,-0.5 0.3,0 0.5,0.2 0.5,0.5 v 228 c 0,0.3 -0.2,0.5 -0.5,0.5 z"
   id="path34" />
		</g>
	</g>
	<g
   id="g44">
		<g
   id="g42">
			
		</g>
	</g>
</g>
</svg>
