<?xml version="1.0" encoding="UTF-8" standalone="no"?>
<svg
   xmlns:dc="http://purl.org/dc/elements/1.1/"
   xmlns:cc="http://creativecommons.org/ns#"
   xmlns:rdf="http://www.w3.org/1999/02/22-rdf-syntax-ns#"
   xmlns:svg="http://www.w3.org/2000/svg"
   xmlns="http://www.w3.org/2000/svg"
   xmlns:sodipodi="http://sodipodi.sourceforge.net/DTD/sodipodi-0.dtd"
   xmlns:inkscape="http://www.inkscape.org/namespaces/inkscape"
   width="151"
   height="166"
   fill="none"
   viewBox="0 0 151 166"
   version="1.1"
   id="svg6"
   sodipodi:docname="recipe-book.svg"
   inkscape:version="1.0.2-2 (e86c870879, 2021-01-15)">
  <metadata
     id="metadata12">
    <rdf:RDF>
      <cc:Work
         rdf:about="">
        <dc:format>image/svg+xml</dc:format>
        <dc:type
           rdf:resource="http://purl.org/dc/dcmitype/StillImage" />
      </cc:Work>
    </rdf:RDF>
  </metadata>
  <defs
     id="defs10" />
  <sodipodi:namedview
     pagecolor="#ffffff"
     bordercolor="#666666"
     borderopacity="1"
     objecttolerance="10"
     gridtolerance="10"
     guidetolerance="10"
     inkscape:pageopacity="0"
     inkscape:pageshadow="2"
     inkscape:window-width="1920"
     inkscape:window-height="1001"
     id="namedview8"
     showgrid="false"
     inkscape:zoom="1.2344401"
     inkscape:cx="9.9229988"
     inkscape:cy="95.443728"
     inkscape:window-x="-9"
     inkscape:window-y="-9"
     inkscape:window-maximized="1"
     inkscape:current-layer="svg6" />
  <path
     stroke="#fff"
     stroke-width="3.339"
     d="M51.6 3.191c18.226-2.504 63.193-1.836 97.252 20.87l-26.296 132.73-.834-.309M51.6 3.192 19.46 129.66M51.6 3.191c-4.87.279-15.277 2.004-17.948 6.679L2.348 134.252m17.113-4.591c-7.346-.945-14.47 2.667-17.113 4.591m17.113-4.591c32.619 3.295 81.195 19.052 102.261 26.821M2.348 134.252l105.182 29.635c2.226-2.015 8.181-6.316 14.192-7.405"
     id="path2"
     style="stroke:#f5f3ef;stroke-opacity:1" />
  <path
     fill="#fff"
     d="m77.344 39.944 1.413.378c-.153.456-.39.833-.714 1.131-.32.3-.708.495-1.165.589-.454.094-.963.066-1.527-.085a3.064 3.064 0 0 1-1.125-.544 2.613 2.613 0 0 1-.72-.902 3.048 3.048 0 0 1-.284-1.19c-.02-.441.037-.914.172-1.418l.128-.477c.135-.504.323-.941.564-1.312.245-.373.53-.67.856-.89a2.66 2.66 0 0 1 1.08-.42 2.98 2.98 0 0 1 1.234.083c.573.153 1.028.387 1.367.7.34.314.571.683.69 1.107.123.424.144.876.063 1.354l-1.417-.38c.058-.282.066-.531.023-.748a.971.971 0 0 0-.312-.555c-.162-.151-.4-.27-.716-.354a1.416 1.416 0 0 0-.654-.033c-.2.04-.384.135-.552.282a2.05 2.05 0 0 0-.451.608c-.13.256-.243.567-.341.932l-.13.487a5.057 5.057 0 0 0-.172.961c-.018.283.003.531.063.747.065.213.172.39.323.532.156.14.36.243.611.31.296.08.553.098.77.055.218-.043.402-.144.552-.303a1.7 1.7 0 0 0 .37-.645Zm9.508 1.135-.087.326c-.14.523-.337.973-.59 1.35a3.204 3.204 0 0 1-.885.903 2.7 2.7 0 0 1-1.104.418c-.398.06-.814.03-1.248-.086a3.078 3.078 0 0 1-1.124-.55 2.753 2.753 0 0 1-.748-.914 3.225 3.225 0 0 1-.324-1.226c-.03-.454.024-.942.164-1.465l.088-.326c.14-.526.337-.976.59-1.35.253-.379.548-.68.884-.903.34-.223.709-.364 1.106-.423.4-.058.817-.03 1.248.086.435.117.81.3 1.124.55.318.25.566.556.746.919.183.363.29.77.32 1.225.034.451-.019.94-.16 1.466Zm-1.519-.058.09-.335c.098-.366.151-.696.16-.99a2.16 2.16 0 0 0-.106-.778 1.309 1.309 0 0 0-.359-.552 1.398 1.398 0 0 0-.598-.318 1.399 1.399 0 0 0-.677-.024 1.322 1.322 0 0 0-.582.3 2.232 2.232 0 0 0-.476.622c-.14.26-.26.572-.357.937l-.09.336a4.43 4.43 0 0 0-.16.99c-.007.295.028.556.105.782.079.224.198.41.357.557.16.148.36.253.599.317.24.065.465.073.677.025a1.32 1.32 0 0 0 .583-.305c.178-.158.336-.367.477-.627.141-.262.26-.575.357-.937Zm5.997-2.257-1.843 6.88-1.418-.38 1.843-6.88 1.418.38Zm1.953 3.673-.296 1.106-3.128-.838.296-1.106 3.128.838Zm1.118-2.85-.298 1.11-3.458-.926.297-1.11 3.459.926Zm3.4.911-1.843 6.88-1.417-.38 1.843-6.88 1.418.38Zm1.953 3.673-.296 1.106-3.128-.838.297-1.106 3.127.838Zm1.118-2.85-.297 1.11-3.459-.926.298-1.11 3.458.926Zm5.053 7.542-.297 1.106-3.661-.982.296-1.105 3.662.981Zm-1.652-6.63-1.843 6.879-1.418-.38 1.844-6.88 1.417.38Zm1.971 3.53-.289 1.078-3.184-.854.288-1.077 3.185.853Zm1.223-2.675-.298 1.11-3.656-.98.297-1.11 3.657.98Zm5.062 7.544-.297 1.106-3.661-.981.296-1.106 3.662.981Zm-1.652-6.63-1.843 6.879-1.418-.38 1.844-6.879 1.417.38Zm1.971 3.53-.289 1.078-3.184-.853.288-1.077 3.185.853Zm1.223-2.674-.298 1.11-3.657-.98.298-1.11 3.657.98Zm-44.559.484 2.566.687c.525.14.956.34 1.292.6.34.26.57.57.692.934.122.364.122.77.002 1.221-.1.369-.247.668-.444.9a1.84 1.84 0 0 1-.7.515 2.8 2.8 0 0 1-.9.205l-.513.116-2.23-.598.287-1.108 1.658.444c.25.067.467.078.655.034a.897.897 0 0 0 .467-.27c.127-.134.219-.306.274-.514.06-.22.07-.422.03-.604a.859.859 0 0 0-.274-.469 1.427 1.427 0 0 0-.594-.296l-1.148-.307-1.546 5.768-1.417-.38 1.843-6.878Zm2.003 7.91-.747-3.488 1.5.392.78 3.435-.017.066-1.516-.406Zm8.426 1.072-.296 1.105-3.662-.98.296-1.106 3.662.981Zm-1.652-6.63-1.843 6.878-1.417-.38 1.843-6.878 1.417.38Zm1.97 3.53-.288 1.078-3.184-.854.288-1.077 3.185.853Zm1.224-2.675-.297 1.11-3.657-.98.297-1.11 3.657.98Zm4.749 6.2 1.412.378a2.64 2.64 0 0 1-.713 1.13c-.32.3-.708.496-1.165.59-.455.094-.963.066-1.527-.085a3.063 3.063 0 0 1-1.125-.545 2.612 2.612 0 0 1-.72-.902 3.05 3.05 0 0 1-.285-1.19c-.02-.44.038-.913.173-1.417l.127-.477a4.59 4.59 0 0 1 .565-1.313c.245-.373.53-.67.856-.89a2.66 2.66 0 0 1 1.08-.419c.39-.06.802-.033 1.233.083.574.153 1.03.387 1.367.7.341.314.572.683.691 1.107.123.424.144.875.063 1.353l-1.417-.38c.058-.28.066-.53.023-.748a.97.97 0 0 0-.313-.554c-.161-.152-.4-.27-.715-.354a1.416 1.416 0 0 0-.654-.034c-.2.041-.384.136-.552.283-.168.148-.318.35-.452.608a4.898 4.898 0 0 0-.34.932l-.13.487a5.073 5.073 0 0 0-.172.961c-.019.282.003.531.063.746.064.214.172.39.323.533.155.14.359.243.61.31.297.08.554.098.771.055.218-.043.402-.144.552-.303a1.7 1.7 0 0 0 .37-.645Zm6.243-3.255-1.843 6.88-1.413-.379 1.843-6.879 1.413.379Zm3.982 5.812-1.753-.47.296-1.105 1.753.47c.27.072.503.087.697.044a.878.878 0 0 0 .474-.277c.122-.14.21-.31.264-.512.055-.205.066-.406.035-.604a.988.988 0 0 0-.26-.525c-.14-.152-.347-.265-.618-.338l-1.261-.338-1.546 5.77-1.417-.38 1.843-6.88 2.679.718c.538.145.974.366 1.305.664.336.296.561.641.675 1.037.113.395.111.81-.006 1.249-.119.444-.324.8-.616 1.07-.291.27-.655.44-1.09.514-.43.073-.916.037-1.454-.107Zm8.973 3.848-.296 1.105-3.661-.98.296-1.106 3.661.98Zm-1.651-6.63-1.843 6.878-1.418-.38 1.843-6.878 1.418.38Zm1.971 3.53-.289 1.077-3.185-.853.289-1.077 3.185.853Zm1.223-2.675-.298 1.11-3.657-.98.298-1.11 3.657.98Zm4.213 6.573a.954.954 0 0 0 .032-.346.657.657 0 0 0-.125-.328 1.837 1.837 0 0 0-.344-.36 6.043 6.043 0 0 0-.617-.439 8.878 8.878 0 0 1-.797-.578 3.74 3.74 0 0 1-.619-.637 2.043 2.043 0 0 1-.343-.725c-.06-.255-.05-.531.029-.827.077-.287.21-.53.398-.73.19-.202.42-.356.691-.462.273-.11.576-.168.909-.177.336-.008.69.038 1.062.138.507.136.925.345 1.254.63.329.283.555.612.677.986.126.375.134.767.024 1.176l-1.407-.377c.054-.202.058-.39.014-.563a.894.894 0 0 0-.281-.465c-.143-.133-.342-.234-.597-.302a1.52 1.52 0 0 0-.645-.052.846.846 0 0 0-.448.2.763.763 0 0 0-.235.382.62.62 0 0 0 .001.34.99.99 0 0 0 .193.335c.095.113.218.229.368.347.151.118.329.241.534.37.344.215.639.43.885.648.248.218.445.442.59.67.145.227.236.466.274.716.038.25.019.517-.057.8-.081.3-.211.551-.39.756-.18.205-.402.36-.667.465-.264.105-.56.159-.889.162a3.958 3.958 0 0 1-1.059-.147 4.031 4.031 0 0 1-.971-.402 3.169 3.169 0 0 1-.792-.653 2.134 2.134 0 0 1-.455-.872c-.085-.326-.076-.683.028-1.07l1.422.38a1.373 1.373 0 0 0-.046.57c.026.166.087.31.182.434.099.124.226.23.382.315.159.087.339.157.541.21.246.067.457.086.633.059a.77.77 0 0 0 .661-.577Z"
     id="path4"
     style="stroke:#f5f3ef;stroke-opacity:1" />
</svg>
