<?xml version="1.0" encoding="UTF-8" standalone="no"?>
<svg
   xmlns:dc="http://purl.org/dc/elements/1.1/"
   xmlns:cc="http://creativecommons.org/ns#"
   xmlns:rdf="http://www.w3.org/1999/02/22-rdf-syntax-ns#"
   xmlns:svg="http://www.w3.org/2000/svg"
   xmlns="http://www.w3.org/2000/svg"
   xmlns:sodipodi="http://sodipodi.sourceforge.net/DTD/sodipodi-0.dtd"
   xmlns:inkscape="http://www.inkscape.org/namespaces/inkscape"
   width="163.20036mm"
   height="300mm"
   viewBox="0 0 163.20036 299.99999"
   version="1.1"
   id="svg3552"
   inkscape:version="1.0.2-2 (e86c870879, 2021-01-15)"
   sodipodi:docname="style-treat.svg">
  <defs
     id="defs3546" />
  <sodipodi:namedview
     id="base"
     pagecolor="#ffffff"
     bordercolor="#666666"
     borderopacity="1.0"
     inkscape:pageopacity="0.0"
     inkscape:pageshadow="2"
     inkscape:zoom="0.35"
     inkscape:cx="-305.26125"
     inkscape:cy="389.99452"
     inkscape:document-units="mm"
     inkscape:current-layer="layer1"
     inkscape:document-rotation="0"
     showgrid="false"
     inkscape:window-width="1431"
     inkscape:window-height="1030"
     inkscape:window-x="32"
     inkscape:window-y="0"
     inkscape:window-maximized="0" />
  <metadata
     id="metadata3549">
    <rdf:RDF>
      <cc:Work
         rdf:about="">
        <dc:format>image/svg+xml</dc:format>
        <dc:type
           rdf:resource="http://purl.org/dc/dcmitype/StillImage" />
        <dc:title></dc:title>
      </cc:Work>
    </rdf:RDF>
  </metadata>
  <g
     inkscape:label="Layer 1"
     inkscape:groupmode="layer"
     id="layer1"
     transform="translate(-367.45398,-81.866511)">
    <path
       class="st5"
       d="m 500.22576,376.067 2.18422,-5.19698 c -3.46463,-1.43105 -6.17609,-3.23869 -8.43564,-5.42292 -1.73235,-1.65699 -3.16337,-3.46463 -4.36848,-5.49824 -1.80764,-3.08805 -3.16337,-6.70333 -4.06719,-10.84584 -0.90382,-4.14251 -1.35573,-8.81223 -1.35573,-13.93388 0,-10.16797 1.73231,-22.06827 4.36848,-34.79707 3.99187,-19.13084 10.16796,-40.06935 15.6662,-60.70656 2.78679,-10.31864 5.3476,-20.56192 7.4565,-30.42862 2.10894,-9.86669 3.61528,-19.43213 4.29316,-28.395 0.15059,-1.5817 -0.45191,-3.08805 -1.50637,-4.29316 -1.05444,-1.12976 -2.56082,-1.80764 -4.14252,-1.80764 h -49.18286 -49.25819 c -1.58167,0 -3.08805,0.67788 -4.14249,1.80764 -1.05446,1.12979 -1.5817,2.71146 -1.50637,4.29316 0.90382,11.9756 3.38931,24.93037 6.55268,38.41235 4.74507,20.1853 11.14713,41.34975 16.26876,61.53508 2.56084,10.09264 4.82039,19.80871 6.40206,28.99753 1.5817,9.18885 2.56084,17.77514 2.56084,25.45761 0,4.5191 -0.30129,8.73693 -1.05446,12.57815 -0.52724,2.86211 -1.28041,5.49825 -2.18423,7.83312 -1.43105,3.53996 -3.31402,6.55268 -5.72421,9.11352 -2.41017,2.56082 -5.42292,4.5944 -9.26414,6.25142 -2.48552,1.05444 -3.84125,3.6906 -3.31402,6.32674 0.52723,2.63614 2.86211,4.5191 5.57357,4.5191 h 78.18043 c 2.71146,0 4.97101,-1.88296 5.57353,-4.5191 0.52724,-2.63614 -0.82849,-5.2723 -3.31398,-6.32674 l -2.25955,5.04633 v -5.64889 H 421.97 v 5.64889 l 2.18423,5.19695 c 4.59442,-1.95828 8.51097,-4.5191 11.82498,-7.68247 2.48552,-2.33487 4.59443,-4.97101 6.25142,-7.90841 2.56084,-4.29316 4.29316,-9.11352 5.42292,-14.23518 1.12979,-5.12165 1.5817,-10.61987 1.5817,-16.34408 0,-11.44837 -1.88296,-23.95123 -4.59442,-37.13191 -4.14252,-19.73342 -10.39393,-40.89787 -15.81685,-61.30914 -2.71146,-10.24329 -5.27228,-20.26063 -7.30589,-29.82606 -2.03358,-9.56544 -3.46463,-18.67893 -4.06719,-26.88863 l -5.64886,0.45191 v 5.64886 h 49.25819 49.25816 v -5.64886 l -5.64886,-0.45191 c -0.82849,10.99645 -3.16337,23.49932 -6.25141,36.60471 -4.66975,19.73339 -10.99649,40.89784 -16.19344,61.30911 -2.63617,10.24328 -4.97101,20.26063 -6.62803,29.90138 -1.657,9.64073 -2.71146,18.82958 -2.71146,27.41587 0,5.12165 0.37658,9.94201 1.20511,14.61176 0.67785,3.46463 1.58167,6.77865 2.78675,9.94202 1.88297,4.74504 4.5191,9.0382 8.05909,12.7288 3.53996,3.69058 7.90841,6.70333 13.03007,8.88756 l 2.25955,-5.27228 v -5.64889 z"
       id="path1264"
       style="fill:#f5f3ef;fill-opacity:1;stroke-width:0.753182" />
    <path
       class="st5"
       d="m 436.95836,314.60724 c 3.53995,4.44378 7.23056,7.98374 11.22242,10.54455 2.03361,1.28041 4.06719,2.25955 6.25142,2.93743 2.18423,0.67785 4.36848,1.05444 6.62803,1.05444 2.25955,0 4.44378,-0.37659 6.62801,-1.05444 3.23869,-0.97914 6.32674,-2.71146 9.18881,-4.97101 2.86211,-2.25955 5.64889,-5.12165 8.36035,-8.43567 1.95829,-2.41017 1.50638,-6.02545 -0.90382,-7.90841 -2.41019,-1.95829 -6.02547,-1.50638 -7.90844,0.90382 -3.01272,3.76592 -5.87483,6.40206 -8.43564,7.98373 -1.28041,0.8285 -2.48549,1.35573 -3.61528,1.73232 -1.12976,0.37661 -2.18423,0.52723 -3.23869,0.52723 -1.05444,0 -2.10891,-0.15059 -3.23867,-0.52723 -1.65702,-0.52721 -3.53998,-1.50635 -5.57356,-3.08805 -2.03361,-1.58167 -4.21784,-3.7659 -6.47739,-6.628 -1.95826,-2.4102 -5.49824,-2.86211 -7.90841,-0.90382 -2.48552,1.80764 -2.86211,5.3476 -0.97914,7.83311 z"
       id="path1266"
       style="fill:#f5f3ef;fill-opacity:1;stroke-width:0.753182" />
    <path
       class="st5"
       d="m 443.43574,346.76815 h 35.24895 c 3.08808,0 5.64889,-2.56082 5.64889,-5.64886 0,-3.08805 -2.56081,-5.64889 -5.64889,-5.64889 h -35.24895 c -3.08807,0 -5.64889,2.56084 -5.64889,5.64889 0,3.08804 2.56082,5.64886 5.64889,5.64886"
       id="path1268"
       style="fill:#f5f3ef;fill-opacity:1;stroke-width:0.753182" />
    <path
       class="st5"
       d="m 441.40213,361.00333 h 39.91873 c 3.08805,0 5.64886,-2.56082 5.64886,-5.64889 0,-3.08805 -2.56081,-5.64886 -5.64886,-5.64886 h -39.91873 c -3.08804,0 -5.64886,2.56081 -5.64886,5.64886 0,3.08807 2.56082,5.64889 5.64886,5.64889"
       id="path1270"
       style="fill:#f5f3ef;fill-opacity:1;stroke-width:0.753182" />
    <path
       class="st5"
       d="m 431.0082,245.8416 v 0 c 0,-0.22602 0.22603,-2.71146 0.67788,-6.17609 0.37659,-2.63617 0.8285,-5.87483 1.43103,-9.18885 0.45191,-2.48552 1.05446,-5.04633 1.65702,-7.3812 0.45191,-1.80764 1.05444,-3.46464 1.58167,-4.89569 0.45191,-1.12976 0.8285,-2.1089 1.28041,-2.86211 0.30129,-0.60252 0.60255,-1.12976 0.90382,-1.50634 0.37661,-0.60256 0.7532,-0.8285 0.82852,-0.90382 v 0 l -0.22602,-0.3013 0.15059,0.3013 h 0.0754 l -0.22602,-0.3013 0.15059,0.3013 -0.52724,-1.20512 v 1.28044 c 0.22603,0 0.45191,-0.0754 0.52724,-0.0754 l -0.52724,-1.20511 v 1.28043 -1.35573 l -0.22602,1.35573 c 0.0754,0 0.15059,0 0.22602,0 v -1.35573 l -0.22602,1.35573 v 0 l 0.37661,-2.41019 -1.05446,2.18423 c 0.22602,0.0754 0.45191,0.15058 0.67785,0.22602 l 0.37661,-2.41019 -1.05446,2.18422 0.90382,-1.80764 -1.28041,1.50638 c 0.0754,0.0754 0.22603,0.15059 0.45191,0.30126 l 0.90382,-1.80764 -1.28041,1.50638 0.75318,-0.90382 -0.90382,0.8285 0.0754,0.0754 0.75318,-0.90382 -0.90382,0.8285 0.30126,-0.30126 -0.30126,0.22602 v 0 l 0.30126,-0.30126 -0.30126,0.22602 c 0,0 0.15059,0.15059 0.30126,0.52724 0.30129,0.60255 0.60256,1.73231 0.90382,3.08804 0.37662,2.10894 0.67788,4.89569 0.82853,8.05906 0.15059,3.08808 0.22602,6.55271 0.22602,10.09267 0,3.38934 0,6.85397 0,10.16799 0,2.63613 0,5.19695 0.0754,7.60714 0.0754,1.80764 0.15059,3.53996 0.30126,5.12163 0.15059,1.20511 0.3013,2.33487 0.52724,3.46466 0.15059,0.8285 0.37658,1.657 0.60255,2.41017 0.22603,0.60256 0.45191,1.20511 0.75318,1.80764 0.45191,0.90382 1.05446,1.88296 2.1089,2.78678 0.52723,0.45191 1.12979,0.90382 1.88296,1.20512 0.75321,0.30126 1.50638,0.5272 2.33488,0.60252 v 0 c 0.22602,0 0.45191,0 0.67788,0 0.90382,0 1.88293,-0.15059 2.63613,-0.45191 0.75318,-0.30126 1.43106,-0.67785 2.03358,-1.05443 1.12979,-0.82853 1.88297,-1.65703 2.48552,-2.56085 0.60253,-0.82849 1.12976,-1.73231 1.58167,-2.63613 0.8285,-1.73232 1.5817,-3.53996 2.25955,-5.57357 1.20512,-3.53996 2.33488,-7.53182 3.46467,-11.59901 0.82849,-3.01273 1.73231,-6.10077 2.56081,-8.96288 0.67785,-2.1089 1.28041,-4.14251 1.95826,-5.95015 0.52723,-1.35573 0.97914,-2.56082 1.50637,-3.53996 0.37659,-0.75317 0.67788,-1.43105 1.05447,-1.88296 0.45191,-0.75318 0.90382,-1.12976 0.90382,-1.20509 v 0 l -0.7532,-0.97914 0.45191,1.12976 c 0.22602,-0.0752 0.30129,-0.15059 0.30129,-0.15059 l -0.7532,-0.97914 0.45191,1.12976 -0.8285,-2.25955 v 2.4102 c 0.30129,0 0.60256,-0.0754 0.8285,-0.15059 l -0.8285,-2.25955 v 2.41019 -2.56081 l -0.45191,2.48549 c 0.15059,0 0.30129,0 0.45191,0 v -2.56081 l -0.45191,2.48549 v 0 l 0.22603,-1.28041 -0.60256,1.12979 c 0.15059,0.0754 0.30126,0.15059 0.37659,0.15059 l 0.22602,-1.28041 -0.60255,1.12979 0.67788,-1.35573 -1.05447,1.12976 c 0.0754,0.0754 0.22603,0.15059 0.37659,0.22603 l 0.67788,-1.35573 -1.05447,1.12976 0.52723,-0.60253 -0.67788,0.45191 c 0,0 0.0754,0.0752 0.0754,0.15059 l 0.52723,-0.60253 -0.67788,0.45191 v 0 c 0,0 0.0754,0.15059 0.22603,0.45191 0.15059,0.45191 0.30126,1.20509 0.37659,2.18423 0.0754,0.97914 0.15059,2.1089 0.15059,3.38931 0,1.95829 -0.0754,4.06719 -0.22603,6.32674 -0.0754,2.25955 -0.22603,4.5191 -0.22603,6.77865 0,1.43105 0.0754,2.78678 0.22603,4.21784 0.0754,1.05446 0.30129,2.1089 0.52723,3.16337 0.22603,0.75317 0.45191,1.58167 0.8285,2.41019 0.30129,0.60253 0.60256,1.20509 1.05447,1.80764 0.60255,0.90382 1.50637,1.80764 2.56081,2.48549 1.05447,0.67788 2.33487,1.12979 3.53996,1.28041 v 0 c 0.45191,0.0754 0.82852,0.0754 1.20511,0.0754 1.28041,0 2.41017,-0.30127 3.38931,-0.60256 0.90382,-0.30126 1.73232,-0.75317 2.48552,-1.20508 1.43105,-0.8285 2.63614,-1.88297 3.91654,-3.01273 2.18423,-2.03361 4.29316,-4.36848 6.25142,-6.85397 3.01275,-3.6906 5.79951,-7.68247 7.83312,-10.69519 2.03358,-3.01276 3.38931,-5.19698 3.38931,-5.19698 1.65702,-2.63614 0.82852,-6.10077 -1.80764,-7.7578 -2.63614,-1.65699 -6.10077,-0.82849 -7.75777,1.80764 v 0 c -0.0754,0.15059 -1.05446,1.73232 -2.63616,4.06719 -1.12976,1.73232 -2.63614,3.84125 -4.21781,6.02548 -1.20511,1.65699 -2.48552,3.31402 -3.76593,4.89569 -1.95828,2.33487 -3.91654,4.5191 -5.49824,5.87483 -0.75317,0.67788 -1.43105,1.12979 -1.80764,1.35573 -0.0754,0.0754 -0.15059,0.0754 -0.22603,0.0754 h -0.0754 l 0.30126,0.8285 -0.15059,-0.90382 c -0.0754,0 -0.15059,0 -0.15059,0 l 0.30127,0.8285 -0.15059,-0.90382 0.45191,2.18422 v -2.25955 c -0.15059,0 -0.3013,0 -0.45191,0 l 0.45191,2.18426 v -2.25955 2.9374 l 0.45191,-2.86211 c -0.15059,0 -0.3013,0 -0.45191,0 v 2.93743 l 0.45191,-2.8621 v 0 l -0.3013,2.18422 0.97915,-1.95825 c -0.22603,-0.15059 -0.52724,-0.22603 -0.67785,-0.22603 l -0.3013,2.18423 0.97915,-1.95826 -1.05447,2.1089 1.65702,-1.65699 c -0.15059,-0.15059 -0.30129,-0.30129 -0.52723,-0.37659 l -1.05447,2.10891 1.65703,-1.657 -1.12979,1.20509 1.35573,-0.90382 c 0,-0.0754 -0.0754,-0.15059 -0.22603,-0.30127 l -1.12979,1.20509 1.35573,-0.90382 -0.52723,0.37658 0.60256,-0.30126 v -0.0754 l -0.52724,0.37659 0.60256,-0.30126 -0.0754,0.0754 h 0.0754 v 0 l -0.0754,0.0752 h 0.0754 c 0,0 -0.0754,-0.15058 -0.15059,-0.37658 -0.0754,-0.37659 -0.22603,-1.05444 -0.30126,-1.80764 -0.0754,-0.8285 -0.0754,-1.73232 -0.0754,-2.86208 0,-1.80764 0.0754,-3.9919 0.22602,-6.17612 0.0754,-2.25955 0.22603,-4.59443 0.22603,-6.85398 0,-1.58167 -0.0754,-3.16337 -0.22603,-4.66971 -0.15058,-1.12979 -0.30126,-2.33488 -0.60252,-3.46467 -0.22603,-0.90382 -0.52724,-1.73231 -0.90382,-2.63613 -0.3013,-0.67785 -0.67788,-1.28041 -1.12979,-1.95826 -0.67785,-0.97914 -1.58167,-1.88296 -2.71146,-2.56084 -1.12976,-0.67785 -2.41017,-1.20509 -3.6906,-1.43106 v 0 c -0.52721,-0.0754 -0.97912,-0.15058 -1.50635,-0.15058 -0.8285,0 -1.73232,0.15058 -2.48552,0.37658 -1.50635,0.45191 -2.78678,1.20509 -3.7659,2.10891 -0.90382,0.82849 -1.65702,1.65702 -2.33487,2.63613 -1.20509,1.73235 -2.18423,3.61528 -3.08805,5.64889 -1.5817,3.61528 -2.86211,7.7578 -4.14251,11.9756 -0.90382,3.16337 -1.80764,6.40207 -2.71146,9.41482 -0.67788,2.25955 -1.28041,4.44378 -1.88297,6.40203 -0.45191,1.43106 -0.90382,2.78679 -1.35573,3.91658 -0.30126,0.82849 -0.67785,1.58167 -0.97914,2.1089 -0.22602,0.45191 -0.45191,0.75317 -0.60253,0.97914 -0.15059,0.15059 -0.22602,0.30127 -0.22602,0.30127 v 0 0 l 1.35573,1.35573 -0.90382,-1.73232 c -0.37659,0.22603 -0.52724,0.37659 -0.52724,0.37659 l 1.35573,1.35573 -0.90382,-1.73232 1.65703,3.16337 v -3.53996 c -0.67788,0 -1.28044,0.22603 -1.65703,0.37659 l 1.65703,3.16337 v -3.53996 3.76593 l 0.30126,-3.6906 c -0.15059,0 -0.22603,0 -0.30126,0 v 3.76589 l 0.30126,-3.69057 v 0 l -0.37659,3.99187 1.73232,-3.61528 c -0.37659,-0.22603 -0.90382,-0.3013 -1.35573,-0.37659 l -0.37659,3.99187 1.73232,-3.61528 -1.5817,3.38931 2.48552,-2.78679 c -0.22603,-0.22602 -0.52723,-0.45191 -0.90382,-0.60252 l -1.5817,3.38931 2.48552,-2.78679 -1.50638,1.65703 2.03361,-1.05447 c 0,0 -0.15059,-0.22603 -0.52723,-0.60256 l -1.50638,1.65703 2.03361,-1.05447 v 0 0 0 0 0 c 0,0 -0.22602,-0.60256 -0.37658,-1.50638 -0.22603,-1.35573 -0.45191,-3.38931 -0.52724,-5.7995 -0.0754,-2.41017 -0.15059,-5.12163 -0.15059,-8.05906 0,-3.23869 0,-6.70333 0,-10.16796 0,-3.31402 0,-6.70336 -0.15058,-9.86673 -0.0754,-2.41016 -0.30127,-4.66971 -0.52721,-6.85394 -0.22603,-1.65702 -0.45191,-3.23869 -0.7532,-4.66975 -0.22603,-1.12979 -0.52723,-2.18422 -0.97914,-3.23869 -0.30127,-0.75317 -0.60253,-1.58167 -1.05444,-2.33487 -0.60256,-1.12976 -1.43106,-2.25955 -2.63614,-3.2387 -0.60256,-0.5272 -1.28043,-0.90382 -2.03361,-1.2804 -0.75317,-0.37659 -1.58167,-0.60253 -2.41019,-0.75318 v 0 c -0.52721,-0.0754 -1.05444,-0.15059 -1.58168,-0.15059 -1.50637,0 -3.01272,0.37659 -4.29315,0.97915 -1.20509,0.52723 -2.18423,1.2804 -3.01273,2.1089 -1.58167,1.50638 -2.71146,3.23869 -3.76592,5.04633 -0.8285,1.5817 -1.58168,3.31402 -2.25955,5.12166 -1.12977,3.16337 -2.03359,6.55268 -2.78676,9.94202 -1.12979,5.04633 -1.88296,10.01734 -2.33487,13.70795 -0.45191,3.76589 -0.67788,6.25141 -0.67788,6.32674 -0.22603,3.08804 2.03361,5.87483 5.19698,6.10077 3.16337,0.0754 5.87483,-2.25955 6.17609,-5.3476 z"
       id="path1272"
       style="fill:#f5f3ef;fill-opacity:1;stroke-width:0.753182" />
    <path
       class="st5"
       d="m 512.20136,185.73757 c 2.78678,-0.90382 5.2723,-2.03361 7.53185,-3.38934 1.65699,-1.05443 3.23866,-2.18422 4.59439,-3.53995 2.03361,-1.95826 3.69061,-4.36846 4.74507,-6.92927 1.05447,-2.63617 1.58167,-5.42292 1.58167,-8.28503 0,-3.61528 -0.75317,-7.23056 -2.1089,-10.99648 -1.35573,-3.7659 -3.31402,-7.68247 -5.79951,-11.82499 -1.12979,-1.88293 -3.31401,-2.9374 -5.49824,-2.71146 -2.18423,0.22603 -4.06719,1.73235 -4.74504,3.84125 -1.05447,3.2387 -2.56084,5.95016 -4.44381,8.28503 -2.86207,3.46463 -6.55268,6.17609 -10.92113,8.13438 -4.36848,1.95826 -9.33949,3.16337 -14.46112,3.7659 -3.08808,0.30129 -5.34763,3.16337 -4.97101,6.25141 0.30126,3.08808 3.16337,5.34763 6.25142,4.97101 4.06719,-0.45191 8.13438,-1.20508 12.05092,-2.48549 5.95015,-1.88296 11.59901,-4.74507 16.41941,-8.88755 2.41016,-2.10893 4.59442,-4.5191 6.40206,-7.30588 1.88293,-2.78679 3.38931,-5.87483 4.44378,-9.26417 l -5.3476,-1.73232 -4.82039,2.93743 c 2.18422,3.61528 3.84125,6.92927 4.82039,9.79137 1.05444,2.86211 1.43102,5.27228 1.43102,7.23056 0,1.43106 -0.22602,2.56082 -0.60252,3.61528 -0.3013,0.75318 -0.67788,1.50638 -1.12979,2.18423 -0.75318,1.05447 -1.80764,2.03361 -3.2387,3.01272 -1.50634,0.97915 -3.38931,1.88297 -5.72418,2.71146 -2.9374,0.97915 -4.5191,4.21784 -3.53996,7.15527 0.90382,2.86208 4.14252,4.44378 7.07992,3.46463 z"
       id="path1274"
       style="fill:#f5f3ef;fill-opacity:1;stroke-width:0.753182" />
    <path
       class="st5"
       d="m 498.87003,133.01474 3.61528,1.43103 -3.53996,-1.58167 -0.0754,0.15065 3.61528,1.43102 -3.53995,-1.58166 1.2804,0.52723 -1.2804,-0.60255 v 0 l 1.2804,0.52723 -1.2804,-0.60255 0.22602,0.0753 -0.22602,-0.0753 v 0 l 0.22602,0.0753 -0.22602,-0.0753 c 0,0 -0.45191,0.97913 -1.80764,2.48551 -2.03361,2.25955 -6.17613,5.87483 -14.08454,9.18881 -7.90844,3.31402 -19.6581,6.47739 -36.83068,7.60718 -8.36032,0.60253 -15.13897,1.43102 -20.78786,2.48549 -4.2178,0.75317 -7.68247,1.65699 -10.69519,2.71146 -2.25955,0.75317 -4.14251,1.5817 -5.87483,2.56081 -1.28041,0.67788 -2.4102,1.50638 -3.38931,2.33488 -1.50638,1.2804 -2.71146,2.71146 -3.61528,4.44377 -0.82853,1.65703 -1.28044,3.46467 -1.28044,5.19698 0,1.12976 0.15059,2.18423 0.45191,3.16337 0.45191,1.73232 1.20512,3.08805 2.03361,4.29313 1.20509,1.80764 2.48549,3.08808 3.53996,4.06719 1.05447,0.90382 1.80764,1.50638 1.95829,1.5817 2.56081,1.80764 6.10077,1.20509 7.90841,-1.35573 1.80764,-2.56081 1.20511,-6.1008 -1.35573,-7.90844 l -2.03358,2.86211 2.03358,-2.86211 v 0 l -2.03358,2.86211 2.03358,-2.86211 -0.30127,0.45191 0.30127,-0.45191 v 0 l -0.30127,0.45191 0.30127,-0.45191 c 0,0 -1.12976,-0.82849 -1.95826,-1.80764 -0.45191,-0.5272 -0.82853,-1.05443 -0.97914,-1.43102 -0.0754,-0.22603 -0.15059,-0.37662 -0.15059,-0.45191 0,-0.0754 0,-0.15059 0,-0.15059 v 0 0 0 0 0 0 0 0 0 0 c 0,0 0,-0.0754 0.0754,-0.22603 0.0754,-0.15059 0.30127,-0.37658 0.60256,-0.60252 0.5272,-0.52724 1.58167,-1.20512 3.16337,-1.88297 2.33484,-1.05446 6.02545,-2.25955 11.1471,-3.23869 5.12166,-0.97914 11.74966,-1.80764 20.10998,-2.4102 12.80413,-0.90382 23.04741,-2.78675 31.18179,-5.19695 12.2769,-3.61528 19.95937,-8.43564 24.62911,-12.65348 4.66972,-4.21783 6.25142,-7.68247 6.55268,-8.43564 1.12979,-2.86211 -0.22602,-6.17611 -3.16337,-7.30588 -3.01272,-1.05446 -6.32674,0.37659 -7.4565,3.23869 z"
       id="path1276"
       style="fill:#f5f3ef;fill-opacity:1;stroke-width:0.753182" />
    <path
       class="st5"
       d="m 418.80663,157.79448 -2.1089,2.41016 2.1089,-2.41016 v 0 l -2.1089,2.41016 2.1089,-2.41016 v 0.15059 -0.15059 0 0.15059 -0.15059 c 0,0 -0.60255,-0.60256 -1.20508,-1.5817 -0.30129,-0.45191 -0.52723,-1.05444 -0.67788,-1.58167 -0.15059,-0.60256 -0.30126,-1.20512 -0.30126,-1.88297 0,-0.75317 0.15059,-1.50637 0.52723,-2.48552 0.52723,-1.43102 1.73232,-3.38931 4.21781,-5.72418 2.48552,-2.33487 6.25144,-4.97101 11.82498,-7.75779 7.83312,-3.91655 15.74153,-7.07992 22.97209,-9.18883 3.61528,-1.05446 7.07994,-1.88296 10.16799,-2.41019 3.16337,-0.52723 5.95015,-0.8285 8.36032,-0.8285 1.65702,0 3.08804,0.15065 4.21783,0.30127 0.8285,0.15065 1.58167,0.37659 2.03358,0.60255 0.37662,0.15064 0.67788,0.30127 0.82853,0.45191 0.30126,0.22594 0.37659,0.30127 0.45191,0.37659 0.0754,0.0753 0.0754,0.15065 0.15059,0.45191 v 0 l 0.7532,-0.0753 h -0.82852 v 0.0753 l 0.7532,-0.0753 h -0.8285 0.90382 l -0.90382,-0.22594 c 0,0.0753 0,0.15064 0,0.22594 h 0.90382 l -0.90382,-0.22594 0.60253,0.15064 -0.60253,-0.22594 v 0.0753 l 0.60253,0.15064 -0.60253,-0.22594 0.22603,0.0753 -0.15059,-0.0753 v 0 l 0.22602,0.0753 -0.15059,-0.0753 c 0,0 -0.0754,0.15065 -0.30126,0.37659 -0.45191,0.45191 -1.35573,1.2051 -2.71146,1.95828 -1.20508,0.67787 -2.71146,1.35573 -4.36845,1.95828 -2.93743,1.12977 -6.47739,2.10891 -10.01735,2.93741 -5.34759,1.28041 -10.77051,2.18423 -14.91303,2.78679 -2.0336,0.30126 -3.76592,0.5272 -4.97101,0.67785 -0.60255,0.0754 -1.05446,0.15059 -1.35573,0.15059 -0.15058,0 -0.30126,0 -0.37658,0.0754 h -0.0754 v 0 c -3.08805,0.30127 -5.3476,3.08805 -5.04633,6.1761 0.30126,3.08804 3.08804,5.34759 6.17609,5.04633 0.0754,0 2.86211,-0.30129 7.15527,-0.90382 3.16337,-0.45191 7.15523,-1.12979 11.37304,-1.95829 3.16337,-0.67785 6.47739,-1.43105 9.64076,-2.33487 2.41019,-0.67785 4.74504,-1.43105 7.00459,-2.33487 1.65702,-0.67785 3.23869,-1.35573 4.74507,-2.18423 1.12976,-0.60253 2.18422,-1.28041 3.23869,-1.95826 1.50635,-1.12979 2.9374,-2.41019 4.06719,-4.06719 0.60253,-0.82851 1.05444,-1.80764 1.43105,-2.78678 0.37659,-1.05446 0.52721,-2.18423 0.52721,-3.31401 0,-0.37659 0,-0.75318 -0.0754,-1.12977 v 0 c -0.22603,-2.10891 -1.05447,-4.21783 -2.33487,-5.95015 -0.97915,-1.28041 -2.10893,-2.33487 -3.38934,-3.16337 -1.88296,-1.20509 -3.99187,-1.95828 -6.1761,-2.4855 -2.18422,-0.45191 -4.5191,-0.67787 -7.00461,-0.67787 -3.16337,0 -6.62801,0.30127 -10.24329,0.97914 -5.42292,0.90382 -11.37307,2.4855 -17.54916,4.66974 -6.1761,2.10891 -12.50284,4.82037 -18.82958,7.98374 -8.28502,4.21782 -13.85859,8.43565 -17.47387,12.8041 -1.80764,2.18423 -3.16337,4.44378 -3.99187,6.70333 -0.82849,2.25955 -1.20508,4.4438 -1.20508,6.55271 0,2.1089 0.37659,3.99186 0.90382,5.57356 0.8285,2.48549 2.03358,4.29313 3.01272,5.57354 0.97915,1.28041 1.80764,2.03361 2.03361,2.25955 2.33487,2.10893 5.87483,1.88296 7.98374,-0.45191 2.1089,-2.25955 1.88296,-5.79951 -0.45191,-7.90841 z"
       id="path1278"
       style="fill:#f5f3ef;fill-opacity:1;stroke-width:0.753182" />
    <path
       class="st5"
       d="m 457.29431,115.6162 0.0754,0.22594 -0.0754,-0.22594 v 0 l 0.0754,0.22594 -0.0754,-0.22594 c -0.0754,0 -0.90382,0.22594 -1.95829,0.3766 -1.05444,0.15064 -2.48549,0.30127 -3.7659,0.30127 -0.67788,0 -1.35573,-0.0753 -1.88296,-0.15065 -0.37659,-0.0753 -0.67788,-0.15064 -0.7532,-0.22594 l -0.0754,-0.0753 v 0 0 0 0 0 l -0.52723,0.8285 0.67785,-0.75318 c -0.0754,-0.0753 -0.15059,-0.15065 -0.15059,-0.15065 l -0.52723,0.8285 0.67785,-0.75318 -1.28041,1.35573 1.73232,-0.75319 c -0.0754,-0.22594 -0.30127,-0.52723 -0.45191,-0.67786 l -1.28041,1.35573 1.73232,-0.75319 -1.50635,0.60255 1.58167,-0.30127 c 0,-0.0753 -0.0754,-0.22594 -0.0754,-0.30128 l -1.50634,0.60255 1.58167,-0.30127 -0.67785,0.15065 h 0.67785 c 0,0 0,-0.0753 0,-0.15065 l -0.67785,0.15065 h 0.67785 c 0,-0.37659 0.0754,-1.2051 0.30126,-2.18423 0.37662,-1.73233 1.05447,-4.14251 2.03361,-6.47738 0.67785,-1.80764 1.58167,-3.6906 2.48549,-5.3476 1.43105,-2.56083 3.01275,-4.820377 4.36848,-6.251424 0.67785,-0.677865 1.28041,-1.129775 1.73232,-1.35573 0.22603,-0.07532 0.37659,-0.150646 0.37659,-0.150646 h 0.0754 v 0 -0.150646 0.150646 0 -0.150646 0.150646 0 -1.431048 l -0.0754,1.431048 h 0.0754 v -1.431048 l -0.0754,1.431048 h 0.0754 v -0.753183 l -0.22602,0.753183 c 0,0 0.0754,0 0.22602,0 v -0.753183 l -0.22602,0.753183 v 0 c 0.0754,0 0.30129,0.150646 0.7532,0.527227 0.75317,0.602548 1.73232,1.88296 2.71146,3.464645 1.50635,2.410188 2.86208,5.573558 3.7659,8.586288 0.45191,1.50637 0.82849,2.93742 1.05446,4.29315 0.22603,1.28041 0.37659,2.41018 0.37659,3.08805 0,0.22594 0,0.45191 0,0.52723 0,0.0753 0,0.15064 0,0.15064 l 0.22603,0.0753 -0.22603,-0.0753 v 0 l 0.22603,0.0753 -0.22603,-0.0753 1.88296,0.52723 -1.73231,-0.90382 c -0.15059,0.22594 -0.15059,0.37659 -0.15059,0.37659 l 1.88296,0.52723 -1.73232,-0.90382 3.16337,1.65701 -2.41019,-2.63615 c -0.37659,0.3766 -0.60256,0.67787 -0.75318,0.90382 l 3.16337,1.65701 -2.41019,-2.63614 c -2.25955,2.10891 -2.4102,5.72419 -0.22603,7.98374 2.1089,2.25955 5.72418,2.41019 7.98373,0.22594 0.67785,-0.67787 1.20509,-1.43105 1.58167,-2.10891 0.52724,-1.05446 0.75321,-1.95828 0.90382,-2.8621 0.15059,-0.90382 0.22603,-1.73232 0.22603,-2.63614 0,-1.43105 -0.15059,-2.78678 -0.37659,-4.29315 -0.45191,-2.56082 -1.12979,-5.27228 -2.10893,-8.05906 -0.67785,-2.03359 -1.58167,-4.142505 -2.56081,-6.100783 -1.43106,-2.937415 -3.16337,-5.724192 -5.3476,-8.13438 -1.05446,-1.205092 -2.33487,-2.25955 -3.76592,-3.088053 -0.75318,-0.45191 -1.50635,-0.828499 -2.41017,-1.129775 -0.90382,-0.301272 -1.80764,-0.45191 -2.86211,-0.527227 h 0.0754 c -0.15059,0 -0.37659,0 -0.45191,0 -1.05447,0 -2.10891,0.150646 -3.08805,0.45191 -1.80764,0.527227 -3.38934,1.431047 -4.82039,2.410188 -1.20508,0.90382 -2.25955,1.958274 -3.31399,3.088049 -1.73232,1.958278 -3.23869,4.142511 -4.59442,6.477378 -2.03361,3.464642 -3.6906,7.230563 -4.82037,10.845843 -0.60255,1.80764 -1.05446,3.46464 -1.43105,5.12164 -0.37659,1.65701 -0.52723,3.16337 -0.52723,4.74506 0,0.97914 0.15059,1.95827 0.37659,2.86209 0.22602,0.82851 0.60255,1.65701 1.05446,2.33487 0.75318,1.28041 1.80764,2.25955 2.86208,2.93742 0.82852,0.52723 1.5817,0.90382 2.4102,1.20509 1.20508,0.45191 2.33487,0.67787 3.38933,0.8285 1.12977,0.15065 2.18423,0.22594 3.16337,0.22594 2.25955,0 4.21781,-0.22594 5.72419,-0.52723 1.50637,-0.22594 2.48549,-0.45191 2.63614,-0.52722 3.01272,-0.75319 4.89568,-3.76592 4.14251,-6.77865 -0.75318,-2.48551 -3.76593,-4.36846 -6.77865,-3.61528 z"
       id="path1280"
       style="fill:#f5f3ef;fill-opacity:1;stroke-width:0.753182" />
    <path
       class="st5"
       d="m 383.85892,87.371828 -1.20509,31.633702 c -0.15058,3.08805 2.33488,5.72419 5.42292,5.87483 3.08805,0.15064 5.72419,-2.33487 5.87483,-5.42292 l 1.20509,-31.633702 c 0.15059,-3.088052 -2.33485,-5.724192 -5.42292,-5.874829 -3.08805,-0.150647 -5.72419,2.259549 -5.87483,5.422919"
       id="path1282"
       style="fill:#f5f3ef;fill-opacity:1;stroke-width:0.753182" />
    <path
       class="st5"
       d="m 403.66766,108.76224 -1.20511,31.18178 c -0.15059,3.08804 2.33487,5.72421 5.42292,5.87483 3.08805,0.15059 5.72421,-2.33488 5.87483,-5.42292 l 1.20511,-31.18178 c 0.15059,-3.08806 -2.33487,-5.7242 -5.42292,-5.87483 -3.08807,-0.15065 -5.72421,2.33486 -5.87483,5.42292"
       id="path1284"
       style="fill:#f5f3ef;fill-opacity:1;stroke-width:0.753182" />
    <path
       class="st5"
       d="m 417.14964,142.12824 -36.07748,-39.01488 8.13438,-7.531834 37.13192,40.144684 c 2.10893,2.25955 5.72421,2.41017 7.98376,0.30126 2.25955,-2.1089 2.41017,-5.72419 0.30126,-7.98374 L 393.65032,83.681231 c -0.97914,-1.129775 -2.4102,-1.732322 -3.91657,-1.80764 -1.50635,-0.07532 -2.9374,0.45191 -4.06719,1.506365 l -16.41938,15.214305 c -2.25955,2.108909 -2.4102,5.724189 -0.30129,7.983739 l 39.91872,43.15742 c 2.10891,2.25955 5.72419,2.41017 7.98374,0.30126 2.25955,-2.1089 2.41019,-5.64889 0.30129,-7.90844 z"
       id="path1286"
       style="fill:#f5f3ef;fill-opacity:1;stroke-width:0.753182" />
  </g>
</svg>
