<?xml version="1.0" encoding="UTF-8" standalone="no"?>
<svg
   xmlns:dc="http://purl.org/dc/elements/1.1/"
   xmlns:cc="http://creativecommons.org/ns#"
   xmlns:rdf="http://www.w3.org/1999/02/22-rdf-syntax-ns#"
   xmlns:svg="http://www.w3.org/2000/svg"
   xmlns="http://www.w3.org/2000/svg"
   xmlns:sodipodi="http://sodipodi.sourceforge.net/DTD/sodipodi-0.dtd"
   xmlns:inkscape="http://www.inkscape.org/namespaces/inkscape"
   width="634.71674mm"
   height="500mm"
   viewBox="0 0 634.71675 500"
   version="1.1"
   id="svg2276"
   inkscape:version="1.0.2-2 (e86c870879, 2021-01-15)"
   sodipodi:docname="style-hot.svg">
  <defs
     id="defs2270" />
  <sodipodi:namedview
     id="base"
     pagecolor="#ffffff"
     bordercolor="#666666"
     borderopacity="1.0"
     inkscape:pageopacity="0.0"
     inkscape:pageshadow="2"
     inkscape:zoom="0.35"
     inkscape:cx="170.6643"
     inkscape:cy="430.02144"
     inkscape:document-units="mm"
     inkscape:current-layer="layer1"
     inkscape:document-rotation="0"
     showgrid="false"
     inkscape:window-width="1431"
     inkscape:window-height="1030"
     inkscape:window-x="224"
     inkscape:window-y="0"
     inkscape:window-maximized="0" />
  <metadata
     id="metadata2273">
    <rdf:RDF>
      <cc:Work
         rdf:about="">
        <dc:format>image/svg+xml</dc:format>
        <dc:type
           rdf:resource="http://purl.org/dc/dcmitype/StillImage" />
        <dc:title></dc:title>
      </cc:Work>
    </rdf:RDF>
  </metadata>
  <g
     inkscape:label="Layer 1"
     inkscape:groupmode="layer"
     id="layer1"
     transform="translate(-60.678404,-34.39016)">
    <path
       class="st5"
       d="m 612.55201,132.09842 h -11.61347 c 0,1.85817 -0.30959,3.71633 -0.77422,5.57449 -1.08394,3.56147 -3.09696,7.43264 -6.65842,11.45865 -3.09695,3.56147 -7.12299,7.27779 -12.2329,10.99412 -8.98109,6.50356 -20.90433,12.69743 -35.30505,18.42675 -21.67855,8.51657 -48.62188,15.48467 -79.28153,20.43977 -30.65964,4.9551 -64.88075,7.58749 -101.11488,7.58749 -33.60174,0 -65.50012,-2.32271 -94.45647,-6.65841 -21.67854,-3.25178 -41.80861,-7.43264 -59.46113,-12.54258 -13.31682,-3.87117 -25.24001,-8.05203 -35.76959,-12.69743 -7.74234,-3.40663 -14.71044,-7.12295 -20.59461,-10.83927 -8.82626,-5.57448 -15.48467,-11.45866 -19.51069,-16.87829 -2.013,-2.78724 -3.40662,-5.26479 -4.3357,-7.74234 -0.92908,-2.47754 -1.23878,-4.80024 -1.23878,-7.12295 0,-1.85816 0.30972,-3.71632 0.77424,-5.57448 1.08392,-3.56147 3.09693,-7.43264 6.65841,-11.45865 3.09693,-3.56147 7.12294,-7.27779 12.23288,-10.99412 8.98111,-6.503557 20.90431,-12.697429 35.30505,-18.426755 21.67854,-8.516566 48.62187,-15.484668 79.28151,-20.439764 30.65964,-4.955096 64.88075,-7.587486 101.11488,-7.587486 33.60174,0 65.50018,2.3227 94.45653,6.658406 21.67849,3.251781 41.8086,7.432641 59.46113,12.542583 13.31677,3.871165 25.23996,8.052026 35.76956,12.697427 7.74235,3.406631 14.71042,7.122952 20.59462,10.839269 8.82623,5.57448 15.48465,11.45866 19.51068,16.87829 2.01302,2.78724 3.40661,5.26479 4.33569,7.74234 0.92908,2.47754 1.23879,4.80024 1.23879,7.12294 h 11.61347 11.61354 c 0,-4.02601 -0.61943,-8.20687 -1.70331,-12.07804 -2.16787,-7.27779 -6.03905,-14.09105 -11.30382,-20.130066 C 606.66788,94.625522 601.0934,89.670431 594.74463,85.179875 583.75053,77.282694 570.12404,70.159747 554.32968,63.965876 530.6381,54.675074 502.14633,47.397283 470.24795,42.287342 438.19465,37.177401 402.8896,34.39016 365.57154,34.39016 c -34.68562,0 -67.668,2.477545 -97.8631,6.813257 -22.60762,3.406625 -43.66677,7.742331 -62.55807,13.161967 -14.09104,4.02601 -27.09817,8.671411 -38.71167,13.781352 -8.67142,3.871172 -16.5686,8.052033 -23.69154,12.387738 -10.52958,6.658406 -19.35584,14.091048 -25.70455,22.607616 -3.09694,4.18087 -5.72934,8.82627 -7.5875,13.62651 -1.85816,4.80025 -2.78724,9.91019 -2.78724,15.17498 0,4.02601 0.61939,8.20687 1.70332,12.07804 2.16785,7.27779 6.03902,14.09105 11.30381,20.13007 4.49055,5.26479 10.06503,10.21988 16.41375,14.71044 10.99411,7.89718 24.62062,15.02013 40.41498,21.21399 23.69155,9.29081 52.18334,16.5686 84.08176,21.67854 32.05328,5.10994 67.35833,7.89719 104.6764,7.89719 34.68562,0 67.66799,-2.47756 97.86307,-6.81326 22.60764,-3.40663 43.66677,-7.74234 62.55809,-13.16197 14.09106,-4.02602 27.09818,-8.67142 38.71165,-13.78136 8.67144,-3.87116 16.56859,-8.05202 23.69158,-12.38773 10.52953,-6.65841 19.35582,-14.09105 25.70453,-22.60762 3.09695,-4.18086 5.72934,-8.82626 7.5875,-13.62651 1.85816,-4.80025 2.78724,-9.91019 2.78724,-15.17498 z"
       id="path388"
       style="fill:#f5f3ef;stroke-width:1.54847;fill-opacity:1" />
    <path
       class="st5"
       d="m 541.63227,336.65091 c 17.96217,4.6454 33.91139,9.91019 47.38309,15.79437 10.21988,4.3357 19.04611,8.9811 26.47875,13.78135 11.14896,7.12295 19.35583,14.71044 24.4658,22.14308 2.47753,3.71632 4.33569,7.27779 5.57448,10.83926 1.23874,3.56148 1.7033,6.96811 1.7033,10.68443 0,5.10994 -1.39364,10.37475 -4.33568,15.94923 -2.63245,4.95506 -6.65842,10.06503 -11.92325,15.3298 -9.2908,9.13594 -22.76243,18.27189 -39.48588,26.63361 -25.24002,12.54261 -58.22234,23.38186 -96.62434,31.12422 -38.402,7.58749 -82.22356,12.07804 -129.14214,12.07804 -40.87953,0 -79.43635,-3.40661 -113.96717,-9.2908 -26.01425,-4.49055 -49.70579,-10.37474 -70.76494,-17.18802 -15.79436,-5.26476 -29.88541,-10.9941 -42.11831,-17.18795 -18.42675,-9.2908 -32.67265,-19.51068 -41.808598,-29.42085 -4.645401,-4.95512 -7.897182,-9.91023 -10.065037,-14.55563 -2.167856,-4.6454 -3.096936,-8.9811 -3.096936,-13.3168 0,-3.25178 0.464511,-6.34872 1.39362,-9.44566 1.703316,-5.41963 4.800252,-11.14896 9.755342,-16.87828 7.432639,-8.67142 19.200999,-17.34283 34.995359,-25.39486 15.79436,-8.05203 35.76958,-15.32982 59.46113,-21.36884 6.19387,-1.54847 9.91019,-7.89718 8.36172,-14.09106 -1.54847,-6.19386 -7.89718,-9.91018 -14.09105,-8.36172 -19.04614,4.9551 -35.92443,10.52958 -50.78972,17.03314 -11.14896,4.80025 -21.05914,9.91019 -29.88541,15.63952 -13.16197,8.36172 -23.536697,17.80737 -30.969338,28.33694 -3.716321,5.26479 -6.503562,10.83927 -8.516567,16.72344 -2.013011,5.88418 -2.942091,11.9232 -2.942091,17.96222 0,9.44564 2.632396,18.58158 7.122952,26.9433 4.02601,7.43265 9.445647,14.40078 16.104053,20.90434 11.613502,11.45867 26.943321,21.67856 45.524931,30.8145 27.71756,13.78135 62.40322,25.08517 102.50851,32.98232 39.95045,7.89721 85.16566,12.54261 133.63269,12.54261 42.27318,0 81.91391,-3.40667 117.99318,-9.60051 26.94333,-4.64541 51.87364,-10.6844 74.01671,-18.11704 16.72344,-5.57448 31.89844,-11.61353 45.37013,-18.42681 20.13005,-10.21988 36.54378,-21.67849 48.46697,-34.53076 5.88419,-6.50356 10.68445,-13.31684 13.9362,-20.59462 3.25181,-7.27779 5.10997,-15.02015 5.10997,-22.91733 0,-5.41963 -0.77422,-10.83926 -2.32273,-16.10406 -2.78724,-9.13595 -7.7423,-17.65252 -14.55557,-25.5497 -10.21988,-11.76835 -24.31094,-21.83338 -42.11832,-30.81449 -17.80732,-8.98111 -39.17617,-16.72345 -64.10654,-23.22701 -6.19384,-1.54846 -12.54255,2.16786 -14.091,8.36172 -1.5485,5.88418 2.16782,12.07805 8.36173,13.78136 z"
       id="path390"
       style="fill:#f5f3ef;stroke-width:1.54847;fill-opacity:1" />
    <path
       class="st5"
       d="m 163.65146,146.18947 c 7.12295,-7.12294 17.80737,-14.09105 31.27903,-20.43976 20.28492,-9.44565 46.76371,-17.34283 76.18458,-22.60762 29.42086,-5.419632 61.93866,-8.361717 94.45647,-8.361717 43.66677,0 86.71417,5.264787 122.01922,14.865287 17.65252,4.80024 33.44689,10.52957 46.45401,17.18798 13.00712,6.50356 23.227,13.9362 29.73056,21.36884 4.33569,4.80025 11.61348,5.26479 16.41373,0.92908 4.80026,-4.33571 5.26477,-11.6135 0.92908,-16.41375 -9.2908,-10.37473 -21.83335,-19.20099 -36.54384,-26.63363 -22.29786,-11.303807 -49.86061,-19.82038 -80.52026,-25.70455 -30.65965,-5.884177 -64.41619,-8.981113 -98.63736,-8.981113 -45.21521,0 -90.12075,5.419637 -128.52273,15.174979 -19.20099,4.955096 -36.69867,10.839266 -51.87364,17.962214 -15.17498,7.12295 -28.02726,15.32983 -37.93745,25.08517 -4.49055,4.49055 -4.49055,11.92319 0,16.41375 4.6454,4.6454 12.07804,4.6454 16.5686,0.15485 z"
       id="path392"
       style="fill:#f5f3ef;stroke-width:1.54847;fill-opacity:1" />
    <path
       class="st5"
       d="m 519.33434,155.01573 -8.20686,8.20688 c 0.1545,0.15486 0.30959,0.30971 0.30959,0.30971 v 0 l 3.09696,-2.47755 -3.56147,1.70332 c 0.3096,0.61938 0.46469,0.77423 0.46469,0.77423 l 3.09695,-2.47755 -3.56146,1.70332 6.96807,-3.25178 -7.43264,1.85816 c 0.15509,0.61938 0.30959,0.92908 0.46468,1.23877 l 6.96808,-3.25178 -7.43265,1.85816 8.98115,-2.3227 h -9.2908 c 0,0.92908 0.15451,1.70331 0.3096,2.3227 l 8.98114,-2.3227 h -9.2908 10.21988 l -9.2908,-4.18086 c -0.77428,1.54847 -0.92908,3.09693 -0.92908,4.18086 h 10.21988 l -9.2908,-4.18086 9.60046,4.33571 -7.27779,-7.43264 c -0.92908,0.92908 -1.7033,2.013 -2.16787,3.09693 l 9.60051,4.33571 -7.27778,-7.43264 7.12293,7.43264 -5.10991,-8.98111 c -0.61943,0.46451 -1.39365,0.92908 -2.16788,1.54847 l 7.12293,7.43264 -5.10991,-8.98111 4.80026,8.36172 -2.01302,-9.44565 c -0.77422,0.15486 -1.7033,0.46451 -2.78724,1.08393 l 4.80026,8.36172 -2.01302,-9.44565 1.7033,8.05203 v -8.20687 c -0.46468,0 -0.92908,0 -1.7033,0.15485 l 1.7033,8.05203 v -8.20687 5.41963 l 0.92908,-5.41963 c -0.15509,0 -0.46468,-0.15486 -0.92908,-0.15486 v 5.41963 l 0.92908,-5.41963 -0.46468,2.47755 0.61937,-2.3227 h -0.1551 l -0.46468,2.47754 0.61937,-2.3227 -0.1551,0.92908 0.3096,-0.92908 v 0 l -0.15509,0.92908 0.3096,-0.92908 v 0 c -0.15509,0 -0.92908,-0.30971 -1.70337,-0.77423 -0.77422,-0.46451 -1.54844,-1.08393 -1.85816,-1.54847 -0.15509,-0.15486 -0.30959,-0.30971 -0.30959,-0.30971 v 0 l -3.09696,2.47754 3.56147,-1.70331 c -0.3096,-0.61939 -0.46469,-0.77423 -0.46469,-0.77423 l -3.09695,2.47754 3.56146,-1.70331 -6.96807,3.25178 7.43264,-1.85816 c -0.15509,-0.61939 -0.30959,-0.92908 -0.46468,-1.23877 l -6.96808,3.25178 7.43265,-1.85816 -8.98115,2.3227 h 9.2908 c 0,-0.92908 -0.15509,-1.70332 -0.3096,-2.3227 l -8.98114,2.3227 h 9.2908 -10.21988 l 9.2908,4.18086 c 0.77428,-1.54847 0.92908,-3.09694 0.92908,-4.18086 h -10.21988 l 9.2908,4.18086 -9.60046,-4.33571 7.27779,7.43264 c 0.92908,-0.92908 1.7033,-2.01301 2.16787,-3.09693 l -9.60052,-4.33571 7.27779,7.43264 -7.12293,-7.43264 5.10991,8.98111 c 0.61943,-0.46451 1.39365,-0.92908 2.16788,-1.54847 l -7.12293,-7.43264 5.10991,8.98111 -4.80026,-8.36172 2.01302,9.44565 c 0.77422,-0.15486 1.7033,-0.46457 2.78724,-1.08393 l -4.80026,-8.36172 2.01302,9.44565 -1.7033,-8.05203 v 8.20687 c 0.46468,0 0.92908,0 1.7033,-0.15486 l -1.7033,-8.05202 v 8.20687 -5.41963 l -0.92909,5.41963 c 0.1551,0 0.46469,0.15485 0.92909,0.15485 v -5.41963 l -0.92909,5.41963 0.46469,-2.47755 -0.61937,2.3227 h 0.15509 l 0.46469,-2.47754 -0.61937,2.3227 0.15509,-0.92908 -0.30959,0.92908 v 0 l 0.15509,-0.92908 -0.3096,0.92908 v 0 c 0.15509,0 0.92908,0.30971 1.70337,0.77423 0.77422,0.46452 1.54844,1.08393 1.85816,1.54847 l 8.20686,-8.20688 8.20687,-8.20687 c -2.47759,-2.47755 -5.26477,-4.33571 -8.20687,-5.88417 -1.39365,-0.77424 -2.9421,-1.39363 -4.6454,-2.01301 -1.7033,-0.46451 -3.56146,-0.92908 -5.88419,-0.92908 -1.08394,0 -2.32267,0.15486 -3.87118,0.46457 -1.08394,0.30971 -2.32267,0.77423 -3.40661,1.39362 -0.92908,0.46451 -1.85816,1.23877 -2.63238,2.013 -1.2388,1.23878 -2.16788,2.78725 -2.78724,4.49056 -0.61943,1.54847 -0.77423,3.09693 -0.77423,4.49055 0,1.85816 0.3096,3.40663 0.77423,4.6454 0.61936,1.85816 1.54844,3.25178 2.32267,4.49056 0.92908,1.23877 1.85816,2.3227 2.78724,3.25178 2.47758,2.47754 5.26483,4.3357 8.20686,5.88418 1.39365,0.77423 2.9421,1.39362 4.6454,2.013 1.70337,0.46451 3.56153,0.92908 5.8842,0.92908 1.08394,0 2.32273,-0.15486 3.87118,-0.46451 1.08393,-0.30971 2.32267,-0.77424 3.4066,-1.39362 0.92908,-0.46451 1.85816,-1.23878 2.63239,-2.01301 1.23879,-1.23877 2.16787,-2.78724 2.78724,-4.49055 0.61942,-1.54847 0.77422,-3.09694 0.77422,-4.49056 0,-1.85816 -0.30959,-3.40662 -0.77422,-4.6454 -0.61937,-1.85816 -1.54845,-3.25178 -2.32267,-4.49055 -0.92908,-1.23877 -1.85816,-2.3227 -2.78724,-3.25178 z"
       id="path394"
       style="fill:#f5f3ef;stroke-width:1.54847;fill-opacity:1" />
    <path
       class="st5"
       d="m 461.57651,171.42949 -8.20686,8.20687 c 0.15509,0.15486 0.30959,0.30971 0.30959,0.30971 v 0 l 3.09696,-2.47754 -3.56147,1.70331 c 0.3096,0.61939 0.46469,0.77423 0.46469,0.77423 l 3.09695,-2.47754 -3.56146,1.70331 6.96807,-3.25178 -7.43264,1.85816 c 0.15509,0.61939 0.30959,0.92908 0.46469,1.23877 l 6.96807,-3.25178 -7.43264,1.85816 8.98114,-2.3227 h -9.2908 c 0,0.92908 0.15509,1.70332 0.3096,2.3227 l 8.98114,-2.3227 h -9.2908 10.21989 l -9.29081,-4.18086 c -0.77422,1.54847 -0.92908,3.09694 -0.92908,4.18086 h 10.21989 l -9.29081,-4.18086 9.60046,4.33571 -7.27779,-7.43265 c -0.92908,0.92908 -1.7033,2.01302 -2.16781,3.09694 l 9.60046,4.33571 -7.27779,-7.43265 7.12293,7.43265 -5.10991,-8.98111 c -0.61937,0.46457 -1.39365,0.92908 -2.16788,1.54846 l 7.12299,7.43265 -5.10997,-8.98111 4.80026,8.36172 -2.01302,-9.44565 c -0.77422,0.15486 -1.7033,0.46452 -2.78724,1.08393 l 4.80026,8.36172 -2.01302,-9.44565 1.70331,8.05203 v -8.20688 c -0.46469,0 -0.92908,0 -1.70331,0.15486 l 1.70331,8.05203 v -8.20688 5.41964 l 0.92908,-5.41964 c -0.15509,0 -0.46469,-0.15486 -0.92908,-0.15486 v 5.41964 l 0.92908,-5.41964 -0.46469,2.47755 0.61937,-2.3227 h -0.15509 l -0.46469,2.47755 0.61937,-2.3227 -0.15509,0.92908 0.30959,-0.92908 v 0 l -0.15509,0.92908 0.3096,-0.92908 v 0 c -0.15509,0 -0.92908,-0.30971 -1.70331,-0.77424 -0.77428,-0.46451 -1.5485,-1.08392 -1.85816,-1.54846 -0.15509,-0.15486 -0.30959,-0.30971 -0.30959,-0.30971 v 0 l -3.09696,2.47754 3.56147,-1.70331 c -0.3096,-0.61939 -0.46469,-0.77423 -0.46469,-0.77423 l -3.09695,2.47754 3.56146,-1.70331 -6.96807,3.25178 7.43264,-1.85816 c -0.15509,-0.61939 -0.30959,-0.92908 -0.46468,-1.23877 l -6.96808,3.25178 7.43265,-1.85816 -8.98109,2.3227 h 9.2908 c 0,-0.92908 -0.15509,-1.70332 -0.3096,-2.3227 l -8.98109,2.3227 h 9.29081 -10.21989 l 9.2908,4.18086 c 0.77423,-1.54847 0.92909,-3.09694 0.92909,-4.18086 h -10.21989 l 9.2908,4.18086 -9.60051,-4.33571 7.27779,7.58749 c 0.92908,-0.92908 1.7033,-2.01301 2.16787,-3.09694 l -9.60052,-4.3357 7.27779,7.58748 -7.12293,-7.43264 5.10991,8.98111 c 0.61943,-0.46451 1.39365,-0.92908 2.16788,-1.54847 l -7.12293,-7.43264 5.10991,8.98111 -4.80026,-8.36172 2.01302,9.44565 c 0.77422,-0.15486 1.7033,-0.46451 2.78724,-1.08393 l -4.80026,-8.36172 2.01302,9.44565 -1.70331,-8.05203 v 8.20687 c 0.46469,0 0.92908,0 1.70331,-0.15485 l -1.70331,-8.05203 v 8.20687 -5.41963 l -0.92908,5.41963 c 0.15509,0 0.46469,0.15486 0.92908,0.15486 v -5.41964 l -0.92908,5.41964 0.46469,-2.47755 -0.61943,2.3227 h 0.15509 l 0.46469,-2.47755 -0.61942,2.3227 0.15509,-0.92908 -0.3096,0.92908 v 0 l 0.15509,-0.92908 -0.3096,0.92908 v 0 c 0.15451,0 0.92908,0.30972 1.70331,0.77424 0.77422,0.46457 1.54845,1.08392 1.85816,1.54846 l 8.20686,-8.51656 8.20687,-8.20688 c -2.47753,-2.47755 -5.26477,-4.33571 -8.20687,-5.88418 -1.39365,-0.77423 -2.94209,-1.39362 -4.6454,-2.013 -1.7033,-0.46457 -3.56146,-0.92908 -5.88419,-0.92908 -1.08394,0 -2.32267,0.15485 -3.87118,0.46451 -1.08388,0.30971 -2.32267,0.77423 -3.40661,1.39362 -0.92908,0.46451 -1.85816,1.23877 -2.63238,2.013 -1.23879,1.23878 -2.16787,2.78724 -2.78724,4.49056 -0.61937,1.54847 -0.77422,3.09694 -0.77422,4.49056 0,1.85816 0.30959,3.40662 0.77422,4.6454 0.61937,1.85816 1.54845,3.25178 2.32267,4.49055 0.92908,1.23877 1.85816,2.3227 2.78724,3.25178 2.47759,2.47755 5.26483,4.33571 8.20693,5.88418 1.39359,0.77423 2.94203,1.39362 4.6454,2.013 1.7033,0.46451 3.56146,0.92908 5.88413,0.92908 1.08394,0 2.32273,-0.15486 3.87118,-0.46451 1.08394,-0.30971 2.32273,-0.77423 3.40661,-1.39362 0.92908,-0.46457 1.85816,-1.23877 2.63244,-2.01301 1.23873,-1.23877 2.16781,-2.78724 2.78724,-4.49055 0.61937,-1.54847 0.77422,-3.09693 0.77422,-4.49055 0,-1.85816 -0.30959,-3.40663 -0.77422,-4.6454 -0.61943,-1.85816 -1.54851,-3.25178 -2.32273,-4.49056 -0.92908,-1.23878 -1.85816,-2.3227 -2.78724,-3.25178 z"
       id="path396"
       style="fill:#f5f3ef;stroke-width:1.54847;fill-opacity:1" />
    <path
       class="st5"
       d="m 461.57651,127.29818 -8.20686,8.20687 c 0.15509,0.15486 0.30959,0.30971 0.30959,0.30971 v 0 l 3.09696,-2.47754 -3.56147,1.70331 c 0.3096,0.61939 0.46469,0.77423 0.46469,0.77423 l 3.09695,-2.47754 -3.56146,1.70331 6.96807,-3.25178 -7.43264,1.85816 c 0.15509,0.61939 0.30959,0.92908 0.46469,1.23877 l 6.96807,-3.25178 -7.43264,1.85816 8.98114,-2.3227 h -9.2908 c 0,0.92908 0.15509,1.70332 0.3096,2.3227 l 8.98114,-2.3227 h -9.2908 10.21989 l -9.29081,-4.18086 c -0.77422,1.54847 -0.92908,3.09694 -0.92908,4.18086 h 10.21989 l -9.29081,-4.18086 9.60046,4.33571 -7.27779,-7.43264 c -0.92908,0.92908 -1.7033,2.01301 -2.16781,3.09693 l 9.60046,4.33571 -7.27779,-7.43264 7.12293,7.43264 -5.10991,-8.98111 c -0.61937,0.46451 -1.39365,0.92908 -2.16788,1.54847 l 7.12299,7.43264 -5.10997,-8.98111 4.80026,8.36172 -2.01302,-9.44564 c -0.77422,0.15485 -1.7033,0.46451 -2.78724,1.08392 l 4.80026,8.36172 -2.01302,-9.44564 1.70331,8.05202 v -8.20688 c -0.46469,0 -0.92908,0 -1.70331,0.15486 l 1.70331,8.05203 v -8.20688 5.41964 l 0.92908,-5.41964 c -0.15509,0 -0.46469,-0.15486 -0.92908,-0.15486 v 5.41964 l 0.92908,-5.41964 -0.46469,2.47755 0.61937,-2.3227 h -0.15509 l -0.46469,2.47755 0.61937,-2.3227 -0.15509,0.92908 0.30959,-0.92908 v 0 l -0.15509,0.92908 0.3096,-0.92908 v 0 c -0.15509,0 -0.92908,-0.30971 -1.70331,-0.77424 -0.77428,-0.46457 -1.5485,-1.08392 -1.85816,-1.54846 -0.15509,-0.15486 -0.30959,-0.30971 -0.30959,-0.30971 v 0 l -3.09696,2.47754 3.56147,-1.70331 c -0.3096,-0.61939 -0.46469,-0.77423 -0.46469,-0.77423 l -3.09695,2.47754 3.56146,-1.70331 -6.96807,3.25178 7.43264,-1.85816 c -0.15509,-0.61939 -0.30959,-0.92908 -0.46468,-1.23877 l -6.96808,3.25178 7.43265,-1.85816 -8.98109,2.3227 h 9.2908 c 0,-0.92908 -0.15509,-1.70332 -0.3096,-2.3227 l -8.98109,2.3227 h 9.29081 -10.21989 l 9.2908,4.18086 c 0.77423,-1.54847 0.92909,-3.09694 0.92909,-4.18086 h -10.21989 l 9.2908,4.18086 -9.60051,-4.33571 7.27779,7.58749 c 0.92908,-0.92908 1.7033,-2.01301 2.16787,-3.09694 l -9.60052,-4.3357 7.27779,7.58748 -7.12293,-7.43264 5.10991,8.98111 c 0.61943,-0.46456 1.39365,-0.92908 2.16788,-1.54847 l -7.12293,-7.43264 5.10991,8.98111 -4.80026,-8.36172 2.01302,9.44565 c 0.77422,-0.15486 1.7033,-0.46451 2.78724,-1.08393 l -4.80026,-8.36172 2.01302,9.44565 -1.70331,-8.05203 v 8.20687 c 0.46469,0 0.92908,0 1.70331,-0.15485 L 451.2006,125.44 v 8.20687 -5.41963 l -0.92908,5.41963 c 0.15509,0 0.46469,0.15486 0.92908,0.15486 v -5.41964 l -0.92908,5.41964 0.46469,-2.47755 -0.61943,2.3227 h 0.15509 l 0.46469,-2.47755 -0.61942,2.3227 0.15509,-0.92908 -0.3096,0.92908 v 0 l 0.15509,-0.92908 -0.3096,0.92908 v 0 c 0.15451,0 0.92908,0.30972 1.70331,0.77424 0.77422,0.46451 1.54845,1.08392 1.85816,1.54846 l 8.20686,-8.51656 8.20687,-8.20688 c -2.47753,-2.47754 -5.26477,-4.33571 -8.20687,-5.88418 -1.39365,-0.77423 -2.94209,-1.39362 -4.6454,-2.013 -1.7033,-0.46451 -3.56146,-0.92908 -5.88419,-0.92908 -1.08394,0 -2.32267,0.15486 -3.87118,0.46451 -1.08388,0.30971 -2.32267,0.77424 -3.40661,1.39362 -0.92908,0.46451 -1.85816,1.23878 -2.63238,2.013 -1.23879,1.23878 -2.16787,2.78725 -2.78724,4.49056 -0.61937,1.54847 -0.77422,3.09694 -0.77422,4.49056 0,1.85816 0.30959,3.40662 0.77422,4.6454 0.61937,1.85816 1.54845,3.25178 2.32267,4.49055 0.92908,1.23877 1.85816,2.3227 2.78724,3.25178 2.47759,2.47755 5.26483,4.33571 8.20693,5.88418 1.39359,0.77423 2.94203,1.39362 4.6454,2.013 1.7033,0.46451 3.56146,0.92908 5.88413,0.92908 1.08394,0 2.32273,-0.15486 3.87118,-0.46451 1.08394,-0.30971 2.32273,-0.77423 3.40661,-1.39362 0.92908,-0.46451 1.85816,-1.23877 2.63244,-2.01301 1.23873,-1.23877 2.16781,-2.78724 2.78724,-4.49055 0.61937,-1.54847 0.77422,-3.09693 0.77422,-4.49055 0,-1.85816 -0.30959,-3.40663 -0.77422,-4.6454 -0.61943,-1.85816 -1.54851,-3.25178 -2.32273,-4.49056 -0.92908,-1.23877 -1.85816,-2.3227 -2.78724,-3.25178 z"
       id="path398"
       style="fill:#f5f3ef;stroke-width:1.54847;fill-opacity:1" />
    <path
       class="st5"
       d="m 263.68243,171.42949 -8.20688,8.20687 c 0.15486,0.15486 0.30971,0.30971 0.30971,0.30971 v 0 l 3.09694,-2.47754 -3.56148,1.70331 c 0.30971,0.61939 0.46457,0.77423 0.46457,0.77423 l 3.09694,-2.47754 -3.56148,1.70331 6.9681,-3.25178 -7.43264,1.85816 c 0.15486,0.61939 0.30971,0.92908 0.46451,1.23877 l 6.9681,-3.25178 -7.43264,1.85816 8.98111,-2.3227 h -9.2908 c 0,0.92908 0.15485,1.70332 0.30971,2.3227 l 8.98111,-2.3227 h -9.29081 10.21989 l -9.29081,-4.18086 c -0.77423,1.54847 -0.92908,3.09694 -0.92908,4.18086 h 10.21989 l -9.29081,-4.18086 9.6005,4.33571 -7.2778,-7.43265 c -0.92908,0.92908 -1.70331,2.01302 -2.16785,3.09694 l 9.6005,4.33571 -7.27779,-7.43265 7.12294,7.43265 -5.10994,-8.98111 c -0.61938,0.46457 -1.39362,0.92908 -2.16786,1.54846 l 7.12296,7.43265 -5.10994,-8.98111 4.80024,8.36172 -2.013,-9.44565 c -0.77424,0.15486 -1.70332,0.46452 -2.78724,1.08393 l 4.80024,8.36172 -2.013,-9.44565 1.70331,8.05203 v -8.20688 c -0.46451,0 -0.92908,0 -1.70331,0.15486 l 1.70331,8.05203 v -8.20688 5.41964 l 0.92908,-5.41964 c -0.15486,0 -0.46451,-0.15486 -0.92908,-0.15486 v 5.41964 l 0.92908,-5.41964 -0.46451,2.47755 0.61939,-2.3227 h -0.15486 l -0.46451,2.47755 0.61939,-2.3227 -0.15486,0.92908 0.30972,-0.92908 v 0 l -0.15486,0.92908 0.30971,-0.92908 v 0 c -0.15485,0 -0.92908,-0.30971 -1.70331,-0.77424 -0.77423,-0.46451 -1.54847,-1.08392 -1.85816,-1.54846 -0.15485,-0.15486 -0.30971,-0.30971 -0.30971,-0.30971 v 0 l -3.09694,2.47754 3.56148,-1.70331 c -0.30971,-0.61939 -0.46451,-0.77423 -0.46451,-0.77423 l -3.09694,2.47754 3.56148,-1.70331 -6.9681,3.25178 7.43264,-1.85816 c -0.15486,-0.61939 -0.30971,-0.92908 -0.46451,-1.23877 l -6.9681,3.25178 7.43264,-1.85816 -8.98111,2.3227 h 9.2908 c 0,-0.92908 -0.15485,-1.70332 -0.30971,-2.3227 l -8.98111,2.3227 h 9.29081 -10.21989 l 9.29081,4.18086 c 0.77423,-1.54847 0.92908,-3.09694 0.92908,-4.18086 h -10.21989 l 9.29081,4.18086 -9.6005,-4.33571 7.2778,7.43264 c 0.92908,-0.92908 1.7033,-2.01301 2.16785,-3.09693 l -9.6005,-4.33571 7.27779,7.43264 -7.12294,-7.43264 5.10994,8.98111 c 0.61938,-0.46451 1.39362,-0.92908 2.16786,-1.54847 l -7.12296,-7.43264 5.10994,8.98111 -4.80024,-8.36172 2.013,9.44564 c 0.77424,-0.15485 1.70332,-0.46451 2.78724,-1.08392 l -4.80024,-8.36172 2.013,9.44564 -1.70331,-8.05202 v 8.20687 c 0.46451,0 0.92908,0 1.70331,-0.15485 l -1.70331,-8.05203 v 8.20688 -5.41964 l -0.92908,5.41964 c 0.15486,0 0.46451,0.15485 0.92908,0.15485 v -5.41963 l -0.92908,5.41963 0.46451,-2.47754 -0.61939,2.3227 h 0.15486 l 0.46451,-2.47755 -0.61939,2.3227 0.15486,-0.92908 -0.30972,0.92908 v 0 l 0.15486,-0.92908 -0.30971,0.92908 v 0 c 0.15485,0 0.92908,0.30971 1.70331,0.77423 0.77423,0.46457 1.54847,1.08393 1.85816,1.54847 l 8.20687,-8.20687 8.20688,-8.20688 c -2.47755,-2.47754 -5.26479,-4.3357 -8.20688,-5.88418 -1.39362,-0.77422 -2.94208,-1.39362 -4.6454,-2.013 -1.70331,-0.46457 -3.56147,-0.92908 -5.88417,-0.92908 -1.08393,0 -2.3227,0.15486 -3.87117,0.46451 -1.08392,0.30971 -2.3227,0.77424 -3.40662,1.39362 -0.92908,0.46451 -1.85816,1.23878 -2.6324,2.01301 -1.23878,1.23877 -2.16786,2.78724 -2.78724,4.49055 -0.61939,1.54847 -0.77424,3.09694 -0.77424,4.49056 0,1.85816 0.30972,3.40662 0.77424,4.6454 0.61938,1.85816 1.54846,3.25178 2.3227,4.49055 0.92908,1.23878 1.85816,2.3227 2.78724,3.25178 2.47755,2.47755 5.26479,4.33571 8.20688,5.88418 1.39362,0.77423 2.94208,1.39362 4.6454,2.013 1.70331,0.46451 3.56147,0.92908 5.88417,0.92908 1.08393,0 2.3227,-0.15485 3.87117,-0.46451 1.08393,-0.30971 2.3227,-0.77423 3.40663,-1.39362 0.92908,-0.46457 1.85816,-1.23877 2.63239,-2.013 1.23877,-1.23878 2.16785,-2.78724 2.78724,-4.49056 0.61939,-1.54847 0.77423,-3.09693 0.77423,-4.49055 0,-1.85816 -0.30971,-3.40663 -0.77423,-4.6454 -0.61939,-1.85816 -1.54847,-3.25178 -2.3227,-4.49056 -0.92908,-1.23877 -1.85816,-2.3227 -2.78724,-3.25178 z"
       id="path400"
       style="fill:#f5f3ef;stroke-width:1.54847;fill-opacity:1" />
    <path
       class="st5"
       d="m 214.90572,147.42825 -8.20688,8.20688 c 0.15486,0.15485 0.30971,0.30971 0.30971,0.30971 v 0 l 3.09694,-2.47755 -3.56148,1.70332 c 0.30971,0.61938 0.46451,0.77423 0.46451,0.77423 l 3.09694,-2.47755 -3.56148,1.70332 6.9681,-3.25178 -7.43264,1.85816 c 0.15486,0.61938 0.30972,0.92908 0.46451,1.23877 l 6.9681,-3.25178 -7.43264,1.85816 8.98111,-2.3227 h -9.2908 c 0,0.92908 0.15485,1.70331 0.30971,2.3227 l 8.98111,-2.3227 h -9.2908 10.21988 l -9.2908,-4.18086 c -0.77423,1.54847 -0.92908,3.09693 -0.92908,4.18086 h 10.21988 l -9.2908,-4.18086 9.60049,4.33571 -7.27779,-7.43264 c -0.92908,0.92908 -1.70331,2.013 -2.16785,3.09693 l 9.60049,4.33571 -7.27779,-7.43264 7.12294,7.43264 -5.10994,-8.98111 c -0.61938,0.46456 -1.39362,0.92908 -2.16785,1.54847 l 7.12295,7.43264 -5.10994,-8.98111 4.80024,8.36172 -2.013,-9.44565 c -0.77424,0.15486 -1.70332,0.46451 -2.78724,1.08393 l 4.80024,8.36172 -2.013,-9.44565 1.70331,8.05203 v -8.2069 c -0.46451,0 -0.92908,0 -1.70331,0.15486 l 1.70331,8.05202 v -8.20687 5.41963 l 0.92908,-5.41963 c -0.15486,0 -0.46451,-0.15485 -0.92908,-0.15485 v 5.41963 l 0.92908,-5.41963 -0.46451,2.47755 0.61939,-2.3227 h -0.15486 l -0.46451,2.47754 0.61939,-2.3227 -0.15486,0.92908 0.30972,-0.92908 v 0 l -0.15486,0.92908 0.30971,-0.92908 v 0 c -0.15485,0 -0.92908,-0.30971 -1.70331,-0.77423 -0.77423,-0.46451 -1.54847,-1.08393 -1.85816,-1.54847 -0.15485,-0.15485 -0.30971,-0.30971 -0.30971,-0.30971 v 0 l -3.09694,2.47755 3.56148,-1.70332 c -0.30971,-0.61938 -0.46451,-0.77423 -0.46451,-0.77423 l -3.09694,2.47755 3.56148,-1.70332 -6.9681,3.25179 7.43264,-1.85816 c -0.15486,-0.61939 -0.30971,-0.92909 -0.46451,-1.23878 l -6.9681,3.25178 7.43264,-1.85816 -8.98111,2.3227 h 9.2908 c 0,-0.92908 -0.15485,-1.70331 -0.30971,-2.3227 l -8.9811,2.3227 h 9.2908 -10.21988 l 9.2908,4.18086 c 0.77423,-1.54846 0.92908,-3.09693 0.92908,-4.18086 h -10.21988 l 9.2908,4.18086 -9.6005,-4.3357 7.2778,7.58748 c 0.92908,-0.92908 1.70331,-2.013 2.16785,-3.09693 l -9.6005,-4.33571 7.2778,7.58749 -7.12295,-7.43264 5.10994,8.98111 c 0.61939,-0.46451 1.39362,-0.92908 2.16786,-1.54847 l -7.12296,-7.43264 5.10995,8.98111 -4.80025,-8.36172 2.013,9.44564 c 0.77424,-0.15485 1.70332,-0.46451 2.78725,-1.08392 l -4.80025,-8.36172 2.013,9.44564 -1.7033,-8.05202 v 8.20687 c 0.46451,0 0.92908,0 1.7033,-0.15485 l -1.7033,-8.05203 v 8.20688 -5.41964 l -0.92909,5.41964 c 0.15486,0 0.46452,0.15485 0.92909,0.15485 v -5.41963 l -0.92909,5.41963 0.46452,-2.47754 -0.61939,2.3227 h 0.15485 l 0.46451,-2.47755 -0.61939,2.3227 0.15486,-0.92908 -0.30971,0.92908 v 0 l 0.15485,-0.92908 -0.30971,0.92908 v 0 c 0.15486,0 0.92908,0.30971 1.70331,0.77423 0.77423,0.46451 1.54847,1.08393 1.85816,1.54847 l 8.20688,-8.51657 8.20687,-8.20687 c -2.47755,-2.47755 -5.26479,-4.33571 -8.20687,-5.88418 -1.39362,-0.77423 -2.94209,-1.39362 -4.64541,-2.01301 -1.70331,-0.46457 -3.56147,-0.92908 -5.88417,-0.92908 -1.08393,0 -2.3227,0.15486 -3.87117,0.46451 -1.08392,0.30972 -2.3227,0.77424 -3.40662,1.39362 -0.92908,0.46452 -1.85816,1.23878 -2.6324,2.01302 -1.23877,1.23877 -2.16785,2.78724 -2.78724,4.49055 -0.61938,1.54847 -0.77423,3.09693 -0.77423,4.49055 0,1.85816 0.30971,3.40663 0.77423,4.6454 0.61939,1.85816 1.54847,3.25178 2.3227,4.49056 0.92908,1.23877 1.85816,2.3227 2.78724,3.25178 2.47755,2.47755 5.26479,4.33571 8.20688,5.88417 1.39362,0.77424 2.94208,1.39362 4.6454,2.01301 1.70331,0.46451 3.56147,0.92908 5.88417,0.92908 1.08393,0 2.3227,-0.15485 3.87117,-0.46457 1.08393,-0.30971 2.3227,-0.77423 3.40663,-1.39362 0.92908,-0.46451 1.85816,-1.23877 2.63239,-2.01301 1.23877,-1.23877 2.16785,-2.78724 2.78724,-4.49055 0.61939,-1.54847 0.77423,-3.09694 0.77423,-4.49056 0,-1.85816 -0.30971,-3.40662 -0.77423,-4.6454 -0.61939,-1.85816 -1.54847,-3.25178 -2.3227,-4.49055 -0.92908,-1.23877 -1.85816,-2.3227 -2.78724,-3.25178 z"
       id="path402"
       style="fill:#f5f3ef;stroke-width:1.54847;fill-opacity:1" />
    <path
       class="st5"
       d="m 275.91531,127.29818 -8.20687,8.20687 c 0.15486,0.15486 0.30972,0.30971 0.30972,0.30971 v 0 l 3.09693,-2.47754 -3.56148,1.70331 c 0.30972,0.61939 0.46452,0.77423 0.46452,0.77423 l 3.09693,-2.47754 -3.56147,1.70331 6.9681,-3.25178 -7.43264,1.85816 c 0.15485,0.61939 0.30971,0.92908 0.46451,1.23877 l 6.9681,-3.25178 -7.43264,1.85816 8.98111,-2.3227 h -9.2908 c 0,0.92908 0.15485,1.70332 0.30971,2.3227 l 8.98111,-2.3227 h -9.2908 10.21988 l -9.2908,-4.18086 c -0.77423,1.54847 -0.92908,3.09694 -0.92908,4.18086 h 10.21988 l -9.2908,-4.18086 9.60049,4.33571 -7.27779,-7.43264 c -0.92908,0.92908 -1.70331,2.01301 -2.16785,3.09693 l 9.60049,4.33571 -7.27779,-7.43264 7.12294,7.43264 -5.10994,-8.98111 c -0.61938,0.46451 -1.39362,0.92908 -2.16785,1.54847 l 7.12295,7.43264 -5.10994,-8.98111 4.80024,8.36172 -2.013,-9.44564 c -0.77424,0.15485 -1.70332,0.46451 -2.78724,1.08392 l 4.80024,8.36172 -2.013,-9.44564 1.70331,8.05202 v -8.20688 c -0.46457,0 -0.92908,0 -1.70331,0.15486 l 1.70331,8.05203 v -8.20688 5.41964 l 0.92908,-5.41964 c -0.15485,0 -0.46451,-0.15486 -0.92908,-0.15486 v 5.41964 l 0.92908,-5.41964 -0.46451,2.47755 0.61939,-2.3227 h -0.15486 l -0.46451,2.47755 0.61938,-2.3227 -0.15485,0.92908 0.30971,-0.92908 v 0 l -0.15486,0.92908 0.30972,-0.92908 v 0 c -0.15486,0 -0.92908,-0.30971 -1.70332,-0.77424 -0.77423,-0.46457 -1.54846,-1.08392 -1.85816,-1.54846 -0.15486,-0.15486 -0.30971,-0.30971 -0.30971,-0.30971 v 0 l -3.09693,2.47754 3.56147,-1.70331 c -0.30971,-0.61939 -0.46451,-0.77423 -0.46451,-0.77423 l -3.09693,2.47754 3.56147,-1.70331 -6.9681,3.25178 7.43264,-1.85816 c -0.15486,-0.61939 -0.30972,-0.92908 -0.46451,-1.23877 l -6.9681,3.25178 7.43264,-1.85816 -8.98111,2.3227 h 9.2908 c 0,-0.92908 -0.15485,-1.70332 -0.30971,-2.3227 l -8.98111,2.3227 h 9.2908 -10.21988 l 9.2908,4.18086 c 0.77424,-1.54847 0.92908,-3.09694 0.92908,-4.18086 h -10.21988 l 9.2908,4.18086 -9.60049,-4.33571 7.27779,7.58749 c 0.92908,-0.92908 1.70332,-2.01301 2.16786,-3.09694 l -9.6005,-4.3357 7.2778,7.58748 -7.12295,-7.43264 5.10994,8.98111 c 0.61939,-0.46456 1.39362,-0.92908 2.16785,-1.54847 l -7.12294,-7.43264 5.10994,8.98111 -4.80025,-8.36172 2.01301,9.44565 c 0.77423,-0.15486 1.70331,-0.46451 2.78724,-1.08393 l -4.80025,-8.36172 2.01301,9.44565 -1.70332,-8.05203 v 8.20687 c 0.46451,0 0.92908,0 1.70332,-0.15485 l -1.70339,-8.05201 v 8.20687 -5.41963 l -0.92908,5.41963 c 0.15485,0 0.46451,0.15486 0.92908,0.15486 v -5.41964 l -0.92908,5.41964 0.46451,-2.47755 -0.61939,2.3227 h 0.15486 l 0.46451,-2.47755 -0.61939,2.3227 0.15486,-0.92908 -0.30971,0.92908 v 0 l 0.15485,-0.92908 -0.30971,0.92908 v 0 c 0.15486,0 0.92908,0.30971 1.70332,0.77424 0.77423,0.46451 1.54846,1.08392 1.85816,1.54846 l 8.20687,-8.51656 8.20688,-8.20688 c -2.47755,-2.47755 -5.26479,-4.33571 -8.20688,-5.88418 -1.39362,-0.77423 -2.94209,-1.39362 -4.6454,-2.013 -1.70331,-0.46451 -3.56147,-0.92908 -5.88417,-0.92908 -1.08393,0 -2.3227,0.15485 -3.87117,0.46451 -1.08393,0.30971 -2.3227,0.77423 -3.40663,1.39362 -0.92908,0.46451 -1.85816,1.23877 -2.6324,2.013 -1.23876,1.23878 -2.16785,2.78724 -2.78724,4.49056 -0.61938,1.54846 -0.77423,3.09693 -0.77423,4.49055 0,1.85817 0.30972,3.40663 0.77423,4.64541 0.61939,1.85816 1.54848,3.25178 2.3227,4.49055 0.92908,1.23877 1.85816,2.3227 2.78725,3.25178 2.47755,2.47755 5.26479,4.33571 8.20687,5.88417 1.39362,0.77424 2.94209,1.39362 4.6454,2.01301 1.70332,0.46451 3.56148,0.92908 5.88418,0.92908 1.08392,0 2.3227,-0.15486 3.87117,-0.46451 1.08392,-0.30971 2.3227,-0.77423 3.40662,-1.39362 0.92908,-0.46451 1.85816,-1.23877 2.6324,-2.01301 1.23877,-1.23877 2.16785,-2.78724 2.78724,-4.49055 0.61938,-1.54847 0.77423,-3.09693 0.77423,-4.49055 0,-1.85816 -0.30971,-3.40664 -0.77423,-4.6454 -0.61939,-1.85817 -1.54847,-3.25179 -2.3227,-4.49056 -0.92908,-1.23878 -1.85816,-2.3227 -2.78724,-3.25178 z"
       id="path404"
       style="fill:#f5f3ef;stroke-width:1.54847;fill-opacity:1" />
    <path
       class="st5"
       d="m 400.72173,128.07241 -10.06502,5.72933 c 2.01301,3.56147 3.71632,8.67141 4.6454,14.24589 0.92908,5.57448 1.39365,11.76836 1.39365,17.34284 0,6.03902 -0.46469,11.6135 -0.77423,15.63951 -0.15509,2.01301 -0.46468,3.56148 -0.61942,4.6454 0,0.46451 -0.15509,0.92908 -0.15509,1.23878 v 0.30971 0 0 l 6.81327,1.08392 -6.81327,-1.08392 v 0 l 6.81327,1.08392 -6.81327,-1.08392 11.45867,2.013 -1.39359,-11.45865 0.61937,5.10994 -0.61937,-5.10994 v 0 l 0.61937,5.10994 -0.61937,-5.10994 c 0,0 -2.9421,0.30971 -7.5875,0.30971 -8.20686,0 -22.14307,-1.08393 -36.23413,-6.03902 -6.96813,-2.47755 -14.09105,-6.03902 -20.59462,-10.83927 -6.50356,-4.80025 -12.54261,-10.99412 -17.80738,-18.8913 -1.39359,-2.3227 -2.32267,-4.02601 -2.78724,-5.26478 -0.15509,-0.61939 -0.30959,-1.08393 -0.46468,-1.39362 0,-0.15486 0,-0.30972 0,-0.30972 v 0 0 h -2.01302 l 2.01302,0.61939 c 0.1545,-0.30971 0.1545,-0.61939 0.1545,-0.61939 h -2.01296 l 2.01296,0.61939 -3.25175,-1.08393 2.78724,2.01301 c 0.15509,-0.30971 0.3096,-0.61939 0.46469,-0.92908 l -3.25175,-1.08393 2.78724,2.01301 -2.16788,-1.54847 1.70331,2.01301 c 0.15509,-0.15486 0.30959,-0.30971 0.46468,-0.46451 l -2.16787,-1.54847 1.7033,2.01301 -0.77422,-0.77423 0.61943,0.92908 v 0 l -0.77429,-0.77424 0.61943,0.92908 v -0.15485 0.15485 0 -0.15485 0.15485 c 0,0 0.3096,-0.15485 0.77422,-0.30971 0.77423,-0.30971 2.16788,-0.61938 3.71632,-0.77423 1.70331,-0.15486 3.71633,-0.30971 5.72934,-0.30971 6.03899,0 13.00712,0.92908 18.42675,1.85816 2.63238,0.46451 4.95511,0.92908 6.65842,1.23877 0.77422,0.15486 1.39359,0.30972 1.85816,0.46451 0.15509,0 0.30959,0.15486 0.46468,0.15486 h 0.15509 v 0 l 1.08394,-4.18086 -1.08394,4.18086 v 0 l 1.08394,-4.18086 -1.08394,4.18086 c 5.41963,1.23878 10.83925,-1.23877 13.16198,-6.19387 v 0 0 0 0 0 c 0.15509,-0.15485 0.61937,-1.23877 1.39359,-2.47755 1.2388,-2.013 3.25181,-4.6454 5.10998,-6.34871 0.92908,-0.77423 1.85816,-1.39362 2.47752,-1.70331 0.61943,-0.30972 0.92908,-0.30972 1.2388,-0.30972 0.15509,0 0.30959,0 0.77422,0.15486 0.61937,0.15486 1.85816,0.77423 3.56146,2.63239 1.70331,1.70332 4.02604,4.6454 6.34871,8.82626 l 10.21988,-6.50356 10.06509,-5.72932 c -4.33575,-7.43265 -8.67144,-13.00713 -13.78141,-17.03314 -2.63238,-2.01301 -5.26477,-3.56147 -8.20687,-4.6454 -2.94209,-1.083929 -5.88413,-1.548469 -8.82623,-1.548469 -2.94209,0 -5.72934,0.46451 -8.20686,1.393619 -4.33575,1.54847 -7.74236,3.87117 -10.5296,6.19387 -4.18089,3.71632 -7.12293,7.58749 -9.13594,10.68442 -2.01302,3.09693 -3.09696,5.41964 -3.25181,5.72933 l 10.52959,5.10994 2.78724,-11.30381 c -0.15509,0 -4.49054,-1.08393 -10.68445,-2.16785 -6.19385,-1.08393 -14.24586,-2.16786 -22.29792,-2.16786 -3.25176,0 -6.34871,0.15486 -9.60046,0.61939 -2.47759,0.30971 -4.80026,0.92908 -7.27779,1.70331 -1.85816,0.61939 -3.56152,1.39362 -5.41968,2.47755 -1.39359,0.77423 -2.63238,1.85816 -3.87112,2.94209 -1.85816,1.70331 -3.56152,4.02601 -4.6454,6.65841 -1.08393,2.63239 -1.70336,5.41963 -1.70336,8.20687 0,3.40663 0.77428,6.65841 2.01302,9.91019 1.23879,3.25178 2.94209,6.34872 4.95511,9.75534 6.65842,10.52958 14.86528,18.73645 23.53672,25.08517 13.00712,9.60049 26.94332,14.86528 39.48588,17.80737 12.54261,2.94209 23.53671,3.56147 31.12421,3.56147 6.03899,0 9.91017,-0.46451 10.21988,-0.46451 5.10992,-0.61938 9.29081,-4.49056 10.06503,-9.6005 0,-0.46451 2.01302,-11.45865 2.01302,-25.85939 0,-6.65841 -0.46469,-13.9362 -1.70337,-21.36885 -1.23873,-7.43264 -3.4066,-14.86528 -7.43264,-21.83338 z"
       id="path406"
       style="fill:#f5f3ef;stroke-width:1.54847;fill-opacity:1" />
    <path
       class="st5"
       d="m 613.32624,162.75807 -0.46469,-6.81326 0.46469,6.81326 v 0 l -0.46469,-6.81326 0.46469,6.81326 c 0,0 0.15509,0 0.46469,0 0.92908,0 2.94209,-0.15486 6.03899,-0.15486 4.18089,0 10.06508,0.15486 16.25893,0.92909 4.6454,0.46451 9.60051,1.39362 14.24592,2.47754 3.4066,0.92908 6.81321,2.01301 9.60045,3.25178 2.16788,0.92908 4.02604,2.01301 5.57448,3.09694 2.32273,1.70331 4.02604,3.40662 5.10997,5.26478 1.08394,1.85816 1.70331,3.87117 1.70331,6.81326 0,1.08392 0,2.013 0,3.09693 0,16.72344 -1.54845,29.42087 -3.87118,39.02137 -1.85816,7.27779 -4.18083,12.85228 -6.81327,17.34283 -2.01296,3.40663 -4.18084,6.19387 -6.50357,8.82626 -3.56146,3.87117 -7.74229,6.9681 -12.38769,10.21988 -4.80026,3.09694 -10.06503,6.19387 -15.94922,9.91019 -0.46469,0.30972 -1.39365,0.77423 -2.47753,1.39362 -2.01302,1.08393 -4.80026,2.3227 -8.05207,3.87117 -5.57448,2.63239 -12.69741,5.57448 -20.13005,8.67142 -10.9941,4.6454 -22.76249,9.2908 -31.74358,12.85227 -4.49055,1.70331 -8.20687,3.25178 -10.99411,4.33571 -1.39365,0.46457 -2.32273,0.92908 -3.09695,1.23877 -0.77422,0.30971 -1.08394,0.46451 -1.08394,0.46451 -6.03899,2.3227 -8.98109,8.98111 -6.65836,15.02013 2.32267,6.03902 8.98109,8.98111 15.02008,6.65841 0,0 16.56865,-6.34872 34.84054,-13.78136 9.13595,-3.71632 18.73646,-7.58749 26.94333,-11.30381 4.18083,-1.85816 7.89715,-3.56147 11.14896,-5.10994 1.7033,-0.77423 3.09695,-1.54846 4.49054,-2.3227 1.39365,-0.77423 2.63239,-1.39362 3.87118,-2.16785 6.19385,-3.87117 12.85227,-7.58749 19.66554,-12.38774 4.95506,-3.56147 10.06503,-7.58749 14.55557,-12.85227 3.40661,-3.87117 6.65842,-8.36172 9.44566,-13.31682 4.18083,-7.58749 7.43264,-16.72344 9.60051,-27.56271 2.16782,-10.83927 3.25176,-23.5367 3.25176,-38.86652 0,-1.08393 0,-2.16785 0,-3.25178 0,-5.26479 -1.08394,-10.21988 -3.09696,-14.71044 -1.7033,-3.87116 -4.02597,-7.2778 -6.81321,-10.21988 -4.80026,-5.10994 -10.5296,-8.67142 -16.41379,-11.30381 -8.98109,-4.02601 -18.42675,-6.03902 -27.25298,-7.12295 -8.67144,-1.23877 -16.72345,-1.39362 -22.14307,-1.39362 -4.80026,0 -7.74236,0.15486 -7.89721,0.15486 -6.34871,0.46451 -11.30382,5.88417 -10.83925,12.38773 0.46469,6.03902 6.03899,10.99412 12.3877,10.52958 z"
       id="path408"
       style="fill:#f5f3ef;stroke-width:1.54847;fill-opacity:1" />
    <path
       class="st5"
       d="M 212.58302,336.34122 C 162.25784,287.8742 130.04973,215.2511 130.04973,132.09842 c 0,-6.34871 -5.26479,-11.6135 -11.6135,-11.6135 -6.34872,0 -11.61351,5.26479 -11.61351,11.6135 0,89.03685 34.53082,167.85382 89.65624,220.96624 4.6454,4.49056 11.92319,4.33571 16.41375,-0.30971 4.49055,-4.6454 4.33571,-11.9232 -0.30971,-16.41376 z"
       id="path410"
       style="fill:#f5f3ef;stroke-width:1.54847;fill-opacity:1" />
    <path
       class="st5"
       d="m 600.93854,132.09842 c 0,81.91391 -31.27907,153.76278 -80.36546,202.22979 -1.23874,1.23878 -2.32268,2.78724 -2.78724,4.6454 l -1.23874,3.87117 c -0.61943,2.01301 -0.77422,4.18086 -0.3096,6.19387 l 2.78725,-0.61939 -2.78725,0.46451 v 0.15486 l 2.78725,-0.61939 -2.78725,0.46451 c 0,0 0.1551,0.61939 0.1551,1.39362 0.15509,1.39362 0.30959,3.40663 0.30959,5.72933 0.15509,3.40662 0.3096,7.27779 0.46469,10.68442 0,1.70331 0,3.25178 0.15509,4.49055 0,1.23878 0,2.3227 0,2.78724 0,5.10994 -0.92908,9.6005 -2.47753,13.9362 -1.39365,3.71633 -3.56152,7.2778 -6.34876,10.83927 -4.8002,6.03902 -11.76833,11.76835 -20.74942,16.8783 -13.47169,7.58745 -31.27907,13.78136 -52.18335,17.80733 -20.90433,4.02604 -44.59585,6.19391 -69.83587,6.19391 -21.98821,0 -42.89254,-1.5485 -61.62901,-4.6454 -14.09102,-2.32273 -26.9433,-5.57448 -38.40196,-9.44566 -8.51656,-2.94209 -16.10405,-6.3487 -22.60761,-10.21988 -9.75534,-5.57448 -17.18798,-12.07804 -21.83338,-18.8913 -2.3227,-3.40662 -4.18086,-6.9681 -5.2648,-10.52957 -1.23877,-3.71632 -1.85816,-7.58749 -1.85816,-11.76835 0,-0.15486 0,-0.92908 0,-1.85816 0.15486,-3.25178 0.46452,-9.13596 0.92908,-14.40074 0.15486,-2.6324 0.46452,-5.26479 0.6194,-7.2778 0.15485,-0.92908 0.15485,-1.85816 0.30971,-2.47754 0,-0.30972 0,-0.61939 0.15485,-0.77424 v -0.15485 0 l -3.25178,-0.6194 3.09693,0.77424 v 0 l -3.25178,-0.61938 3.09694,0.77422 c 1.39362,-6.19386 -2.47755,-12.54258 -8.82626,-13.9362 -6.19387,-1.39362 -12.54259,2.47755 -13.93621,8.82626 -0.15485,0.61939 -0.15485,1.08393 -0.30971,1.70332 -0.15485,0.92908 -0.30971,2.013 -0.46451,3.25178 -0.46451,4.02602 -0.77423,9.75534 -1.23877,14.86528 -0.15486,2.63239 -0.30971,5.10994 -0.46451,7.12295 0,1.08392 -0.15486,2.013 -0.15486,2.78724 0,0.77424 0,1.54846 0,2.16786 0,7.74233 1.39362,15.32982 4.02602,22.29792 2.3227,6.03902 5.72933,11.76835 9.75534,16.87829 7.12295,8.9811 16.5686,16.41374 27.40787,22.76245 16.41375,9.2908 36.54382,15.94922 59.15143,20.43976 22.6076,4.4906 47.84762,6.65842 74.32643,6.65842 23.07215,0 45.21522,-1.70331 65.34527,-4.95506 15.175,-2.47758 29.42091,-6.03905 42.27318,-10.52959 9.60051,-3.40661 18.5816,-7.27779 26.47875,-11.92319 11.92325,-6.96813 22.14313,-15.32985 29.26606,-25.70457 3.56146,-5.10994 6.50356,-10.83927 8.36172,-16.72345 1.85816,-6.03902 2.9421,-12.38773 2.9421,-18.8913 0,-1.23876 0,-3.25178 -0.15509,-5.72932 -0.15509,-3.71632 -0.15509,-8.67142 -0.46469,-13.00712 -0.15509,-2.16785 -0.15509,-4.33571 -0.30959,-6.03902 0,-0.92909 -0.1551,-1.70331 -0.3096,-2.63239 -0.15509,-0.77424 -0.15509,-1.54848 -0.46469,-2.6324 l -11.30376,2.47754 10.99411,3.71633 1.23873,-3.87117 -10.9941,-3.71632 8.20686,8.20688 c 53.73186,-53.11243 87.33354,-130.84547 87.33354,-218.64354 0,-6.34872 -5.26477,-11.61351 -11.61347,-11.61351 -6.34871,0 -10.99411,4.6454 -10.99411,10.99412 z"
       id="path412"
       style="fill:#f5f3ef;stroke-width:1.54847;fill-opacity:1" />
    <path
       class="st5"
       d="m 480.31297,350.89681 c -37.93743,11.30381 -75.56521,16.72344 -113.19292,16.72344 -52.64792,0 -105.14094,-11.30381 -157.94366,-33.60173 -5.88418,-2.47755 -12.69743,0.30971 -15.17498,6.19387 -2.47754,5.88417 0.30971,12.69743 6.19387,15.17497 55.28027,23.5367 111.0251,35.45989 166.92477,35.45989 39.95044,0 79.90089,-5.88417 119.85134,-17.80737 6.19385,-1.85816 9.60046,-8.36172 7.7423,-14.40074 -1.85816,-6.19386 -8.36172,-9.60049 -14.40072,-7.74233 z"
       id="path414"
       style="fill:#f5f3ef;stroke-width:1.54847;fill-opacity:1" />
  </g>
</svg>
