<?xml version="1.0" encoding="UTF-8" standalone="no"?>
<svg
   xmlns:dc="http://purl.org/dc/elements/1.1/"
   xmlns:cc="http://creativecommons.org/ns#"
   xmlns:rdf="http://www.w3.org/1999/02/22-rdf-syntax-ns#"
   xmlns:svg="http://www.w3.org/2000/svg"
   xmlns="http://www.w3.org/2000/svg"
   xmlns:sodipodi="http://sodipodi.sourceforge.net/DTD/sodipodi-0.dtd"
   xmlns:inkscape="http://www.inkscape.org/namespaces/inkscape"
   width="328.36502mm"
   height="500mm"
   viewBox="0 0 328.36502 499.99999"
   version="1.1"
   id="svg2893"
   inkscape:version="1.0.2-2 (e86c870879, 2021-01-15)"
   sodipodi:docname="style-cold.svg">
  <defs
     id="defs2887">
    <pattern
       id="EMFhbasepattern"
       patternUnits="userSpaceOnUse"
       width="6"
       height="6"
       x="0"
       y="0" />
  </defs>
  <sodipodi:namedview
     id="base"
     pagecolor="#ffffff"
     bordercolor="#666666"
     borderopacity="1.0"
     inkscape:pageopacity="0.0"
     inkscape:pageshadow="2"
     inkscape:zoom="0.35"
     inkscape:cx="517.77875"
     inkscape:cy="1065.4088"
     inkscape:document-units="mm"
     inkscape:current-layer="layer1"
     inkscape:document-rotation="0"
     showgrid="false"
     inkscape:window-width="1431"
     inkscape:window-height="1030"
     inkscape:window-x="32"
     inkscape:window-y="0"
     inkscape:window-maximized="0" />
  <metadata
     id="metadata2890">
    <rdf:RDF>
      <cc:Work
         rdf:about="">
        <dc:format>image/svg+xml</dc:format>
        <dc:type
           rdf:resource="http://purl.org/dc/dcmitype/StillImage" />
        <dc:title></dc:title>
      </cc:Work>
    </rdf:RDF>
  </metadata>
  <g
     inkscape:label="Layer 1"
     inkscape:groupmode="layer"
     id="layer1"
     transform="translate(9.8779604,477.38669)">
    <path
       style="fill:#ffffff;fill-opacity:1;fill-rule:nonzero;stroke:none;stroke-width:0.0833332"
       d="M 51.99843,-724.20238 Z"
       id="path3459" />
    <path
       style="fill:none;stroke:none;stroke-width:0.0833332"
       d="m 51.99843,-724.20238 v 0"
       id="path3461" />
    <path
       style="fill:#ffffff;fill-opacity:1;fill-rule:nonzero;stroke:none;stroke-width:0.0833332"
       d="M 51.99843,-224.20238 Z"
       id="path3463" />
    <path
       style="fill:none;stroke:none;stroke-width:0.0833332"
       d="m 51.99843,-224.20238 v 0"
       id="path3465" />
    <path
       style="fill:#f5f3ef;fill-opacity:1;fill-rule:nonzero;stroke:none;stroke-width:0.877952"
       d="m 127.90746,-167.02464 c 18.14437,118.230838 18.14437,118.230838 18.14437,118.230838 0.87792,4.682372 5.26772,8.194467 9.95014,7.316443 4.97507,-0.58577 8.19424,-5.267721 7.31628,-9.950092 -17.85172,-118.231259 -17.85172,-118.231259 -17.85172,-118.231259 -0.87792,-4.97504 -5.26772,-8.19404 -9.95014,-7.60911 -4.97507,0.8776 -8.19423,5.26772 -7.60893,10.24318 z"
       id="path3467" />
    <path
       style="fill:#f5f3ef;fill-opacity:1;fill-rule:nonzero;stroke:none;stroke-width:0.877952"
       d="M -5.5414741,-461.1394 C 62.3536,-421.92396 62.3536,-421.92396 62.3536,-421.92396 c 3.219157,2.04872 7.608928,1.46337 10.535442,-1.1707 8.194235,-8.19404 8.194235,-8.19404 8.194235,-8.19404 -6.145681,-6.43842 -6.145681,-6.43842 -6.145681,-6.43842 -8.779532,-0.8776 -8.779532,-0.8776 -8.779532,-0.8776 -2.341207,21.07088 -2.341207,21.07088 -2.341207,21.07088 -0.292674,3.51167 1.463257,7.02377 4.389761,8.77939 2.926514,1.46338 6.730978,1.46338 9.657491,-0.58471 18.437023,-13.75486 18.437023,-13.75486 18.437023,-13.75486 -4.975067,-7.02377 -4.975067,-7.02377 -4.975067,-7.02377 -8.486888,-2.92633 -8.486888,-2.92633 -8.486888,-2.92633 -7.901581,22.53426 -7.901581,22.53426 -7.901581,22.53426 -0.877919,3.219 -0.292675,6.73067 2.048563,9.07207 2.341207,2.34139 5.853018,3.219 9.072185,2.34139 22.534136,-7.31644 22.534136,-7.31644 22.534136,-7.31644 -2.63386,-8.19404 -2.63386,-8.19404 -2.63386,-8.19404 -7.316281,-4.97547 -7.316281,-4.97547 -7.316281,-4.97547 -13.461945,19.02258 -13.461945,19.02258 -13.461945,19.02258 -1.75591,2.63365 -2.048564,6.14575 -0.585349,9.07207 1.463257,2.92675 4.389771,4.68237 7.608928,4.68237 19.607627,0.8776 19.607627,0.8776 19.607627,0.8776 0.29267,-8.77939 0.29267,-8.77939 0.29267,-8.77939 -5.56037,-7.02377 -5.56037,-7.02377 -5.56037,-7.02377 -8.779532,7.02377 -8.779532,7.02377 -8.779532,7.02377 -2.341217,1.75563 -3.511821,4.97505 -3.219167,8.19405 22.241499,144.56986 22.241499,144.56986 22.241499,144.56986 0.58524,4.97504 4.97506,8.19404 9.95013,7.31602 4.68242,-0.58577 7.90158,-4.97505 7.31628,-9.9501 -21.36354,-139.59439 -21.36354,-139.59439 -21.36354,-139.59439 4.68242,-3.80477 4.68242,-3.80477 4.68242,-3.80477 2.92652,-2.0483 4.09712,-6.14532 2.92652,-9.65742 -1.17062,-3.51167 -4.38977,-5.85307 -7.90158,-5.85307 -3.51181,-0.29183 -3.51181,-0.29183 -3.51181,-0.29183 4.0971,-5.85275 4.0971,-5.85275 4.0971,-5.85275 2.34121,-3.21932 2.04857,-7.31644 0,-10.24277 -2.3412,-2.92674 -6.14567,-4.39001 -9.65749,-3.21942 -5.853015,1.75605 -5.853015,1.75605 -5.853015,1.75605 2.048553,-5.85307 2.048553,-5.85307 2.048553,-5.85307 1.170602,-3.51167 0,-7.60901 -2.926503,-9.95009 -3.219168,-2.34129 -7.316285,-2.34129 -10.535442,0 -2.63386,1.75573 -2.63386,1.75573 -2.63386,1.75573 0.292674,-1.17038 0.292674,-1.17038 0.292674,-1.17038 0.292675,-3.80467 -1.75591,-7.31645 -4.975067,-9.07239 -3.219167,-1.46306 -7.316285,-0.8776 -9.950145,1.75594 -3.511811,3.51178 -3.511811,3.51178 -3.511811,3.51178 -62.0420463,-35.70335 -62.0420463,-35.70335 -62.0420463,-35.70335 -4.09711743,-2.63375 -9.3648383,-1.17069 -11.9986987,2.92664 -2.341207,4.3897 -0.8779184,9.65742 3.2191674,11.9985 z"
       id="path3469" />
    <path
       style="fill:#f5f3ef;fill-opacity:1;fill-rule:nonzero;stroke:none;stroke-width:0.877952"
       d="m 309.64382,-348.17587 c -8.77952,0 -8.77952,0 -8.77952,0 3.5118,0 3.5118,0 3.5118,0 -3.21916,-1.75604 -3.21916,-1.75604 -3.21916,-1.75604 0,0.29183 -0.29268,0.8776 -0.29268,1.75604 3.51184,0 3.51184,0 3.51184,0 -3.21916,-1.75604 -3.21916,-1.75604 -3.21916,-1.75604 1.1706,0.58577 1.1706,0.58577 1.1706,0.58577 -0.87792,-0.58577 -0.87792,-0.58577 -0.87792,-0.58577 0,0 0,0 -0.29267,0 1.17061,0.58577 1.17061,0.58577 1.17061,0.58577 -0.87792,-0.58577 -0.87792,-0.58577 -0.87792,-0.58577 0,0 -0.29267,0 -0.58534,0.58577 -0.87803,0.58577 -2.34123,1.46337 -4.68242,2.34139 -3.80447,1.75563 -9.36486,3.51168 -16.09584,5.26772 -10.53544,2.34098 -23.99737,4.3897 -39.21523,5.85307 -15.21785,1.46296 -32.48429,2.34098 -50.62865,2.34098 -16.09583,0 -31.60634,-0.58577 -45.65359,-1.75605 -10.53544,-0.8776 -20.19293,-2.0483 -28.97246,-3.51167 -6.43833,-1.1707 -12.29136,-2.34098 -17.266424,-3.51167 -3.804464,-0.87761 -7.023621,-1.75605 -9.657481,-2.92675 -2.341218,-0.58577 -4.097128,-1.46295 -5.560385,-2.0483 -0.877919,-0.58577 -2.048554,-1.1707 -2.633861,-1.46337 -0.292674,-0.58577 -0.877918,-0.87761 -1.170603,-0.87761 0,-0.29183 0,-0.29183 -0.292675,-0.29183 0,0 0,0 0,0 0,0 0,0 0,0 0,0 0,0 0,0 0,0 0,0 0,0 0,0 0,0 0,0 0,0 0,0 0,0 -1.75591,1.17059 -1.75591,1.17059 -1.75591,1.17059 2.048564,-0.58577 2.048564,-0.58577 2.048564,-0.58577 0,-0.29183 0,-0.58471 -0.292675,-0.58471 -1.7559,1.17059 -1.7559,1.17059 -1.7559,1.17059 2.048554,-0.58577 2.048554,-0.58577 2.048554,-0.58577 -3.511811,1.1707 -3.511811,1.1707 -3.511811,1.1707 3.804464,0 3.804464,0 3.804464,0 0,-0.58577 0,-0.8776 -0.292674,-1.1707 -3.511811,1.1707 -3.511811,1.1707 -3.511811,1.1707 3.804464,0 3.804464,0 3.804464,0 -3.51181,0 -3.51181,0 -3.51181,0 3.219157,1.75605 3.219157,1.75605 3.219157,1.75605 0,-0.29184 0.292674,-1.1707 0.292674,-1.75605 -3.511821,0 -3.511821,0 -3.511821,0 3.219168,1.75605 3.219168,1.75605 3.219168,1.75605 -1.170604,-0.58578 -1.170604,-0.58578 -1.170604,-0.58578 0.877919,0.58578 0.877919,0.58578 0.877919,0.58578 0,0 0.292674,0 0.292674,0 -1.170603,-0.58578 -1.170603,-0.58578 -1.170603,-0.58578 0.877918,0.58578 0.877918,0.58578 0.877918,0.58578 0,0 0.292675,-0.29184 0.585244,-0.58578 0.877918,-0.58577 2.341217,-1.46337 4.682424,-2.34139 3.804464,-1.75594 9.364838,-3.80435 16.388464,-5.26772 10.24279,-2.34098 23.70474,-4.68237 38.92261,-5.85297 15.21786,-1.46305 32.48428,-2.34108 50.62864,-2.34108 16.38847,0 31.60632,0.58577 45.65357,1.75573 10.53544,0.87761 20.19294,2.04862 28.97246,3.51199 6.43834,0.87761 12.29136,2.04841 17.26645,3.51168 3.80443,0.8776 7.0236,1.75604 9.95014,2.92643 2.04855,0.58577 3.80447,1.46337 5.26772,2.04861 1.17061,0.58577 2.04855,1.1707 2.63386,1.46338 0.58535,0.29183 0.87792,0.58577 1.17061,0.8776 0,0.29183 0.29268,0.29183 0.29268,0.29183 0,0 0,0 0,0 0.29267,-0.29183 0.29267,-0.29183 0.29267,-0.29183 -0.29267,0.29183 -0.29267,0.29183 -0.29267,0.29183 0,0 0,0 0,0 0.29267,-0.29183 0.29267,-0.29183 0.29267,-0.29183 -0.29267,0.29183 -0.29267,0.29183 -0.29267,0.29183 1.75589,-1.1707 1.75589,-1.1707 1.75589,-1.1707 -2.04856,0.58577 -2.04856,0.58577 -2.04856,0.58577 0,0.29183 0.29268,0.58577 0.29268,0.58577 1.75592,-1.1707 1.75592,-1.1707 1.75592,-1.1707 -2.04856,0.58577 -2.04856,0.58577 -2.04856,0.58577 3.5118,-1.17069 3.5118,-1.17069 3.5118,-1.17069 -3.80447,0 -3.80447,0 -3.80447,0 0,0.29183 0,0.8776 0.29267,1.17069 3.51184,-1.17069 3.51184,-1.17069 3.51184,-1.17069 -3.80448,0 -3.80448,0 -3.80448,0 8.77953,0 8.77953,0 8.77953,0 8.77952,0 8.77952,0 8.77952,0 0,-2.3414 -0.58524,-4.68238 -1.46324,-6.43842 -1.17062,-1.75605 -2.04856,-3.219 -3.51181,-4.3897 -2.34122,-2.3414 -4.97508,-4.09702 -7.90158,-5.5604 -2.63386,-1.17069 -5.56039,-2.34139 -8.77953,-3.51167 -5.56038,-2.04872 -12.29136,-3.80477 -19.9003,-5.26772 -11.12074,-2.04872 -24.29005,-3.80477 -38.9226,-5.26772 -14.63254,-1.1707 -30.72835,-1.75605 -47.70213,-1.75605 -16.68112,0 -32.77692,0.58577 -47.11683,1.75605 -11.12075,0.8776 -21.07088,2.34098 -30.14308,3.80435 -7.02362,0.8776 -13.169301,2.34139 -18.729665,3.51167 -4.389771,1.1707 -8.194224,2.3414 -11.706045,3.5121 -2.341207,0.8776 -4.975067,2.0483 -7.023631,2.92632 -1.7559,0.8776 -3.219157,1.75605 -4.682414,2.63407 -2.048564,1.46295 -4.097117,3.219 -5.853028,5.26772 -0.877918,1.17028 -1.463257,2.63365 -2.048553,4.09702 -0.585349,1.46338 -0.877919,2.92633 -0.877919,4.68238 0,2.34097 0.585244,4.68237 1.7559,6.43842 0.877919,1.75562 2.048564,3.21899 3.219168,4.38969 2.341207,2.34098 4.975067,3.80435 7.901581,5.5604 2.63386,1.1707 5.560364,2.34097 8.779531,3.51167 5.560364,2.04872 12.291352,3.51168 19.900285,4.97505 11.12073,2.34139 24.29004,4.09702 38.92259,5.26772 14.63257,1.46337 30.72838,2.04872 47.70215,2.04872 16.68111,0 32.77693,-0.58577 47.11682,-1.75605 11.12075,-1.17069 21.07088,-2.34097 30.14308,-3.80434 7.02363,-1.1707 13.1693,-2.3414 18.72968,-3.80435 4.38975,-0.8776 8.19423,-2.04872 11.70603,-3.21942 2.63386,-0.87761 4.97508,-2.0483 7.02364,-2.92633 1.75591,-0.8776 3.21916,-1.75604 4.68241,-2.63407 2.04856,-1.46295 4.09711,-3.219 5.85303,-5.56039 0.87792,-1.17028 1.46325,-2.34098 2.04856,-3.80435 0.58534,-1.46337 0.87791,-2.92633 0.87791,-4.68237 z"
       id="path3471" />
    <path
       style="fill:#f5f3ef;fill-opacity:1;fill-rule:nonzero;stroke:none;stroke-width:0.877952"
       d="M 300.8643,-349.05389 C 262.81964,-2.5550124 262.81964,-2.5550124 262.81964,-2.5550124 c 8.48688,0.8776023 8.48688,0.8776023 8.48688,0.8776023 C 268.38,-9.8714552 268.38,-9.8714552 268.38,-9.8714552 242.0414,0.07863731 216.2881,5.0536836 190.24216,5.0536836 c -26.04595,0 -51.79926,-4.97504629 -78.13787,-14.9251388 -2.92651,8.1940451 -2.92651,8.1940451 -2.92651,8.1940451 8.48689,-0.8776023 8.48689,-0.8776023 8.48689,-0.8776023 C 79.62002,-349.05389 79.62002,-349.05389 79.62002,-349.05389 c -0.585349,-4.97505 -4.975067,-8.48672 -9.657492,-7.90137 -4.975067,0.58472 -8.486878,4.97505 -7.901581,9.65742 38.337303,346.49887501 38.337303,346.49887501 38.337303,346.49887501 0.29267,3.21899889 2.34121,6.14574459 5.56037,7.31644279 27.80187,10.5354422 56.18902,16.0958372 84.28354,16.0958372 28.09449,0 56.48168,-5.560395 84.28353,-16.0958372 3.21917,-1.1706982 5.26772,-4.0974439 5.56036,-7.31644279 38.3373,-346.49887501 38.3373,-346.49887501 38.3373,-346.49887501 0.58535,-4.68237 -2.92651,-9.07249 -7.90158,-9.65742 -4.68242,-0.58577 -9.07217,2.92632 -9.65747,7.90137 z"
       id="path3473" />
    <path
       style="fill:#f5f3ef;fill-opacity:1;fill-rule:nonzero;stroke:none;stroke-width:0.877952"
       d="m 251.11359,-32.40529 c -21.36353,-4.097023 -42.14177,-5.85307 -62.33468,-5.85307 -21.36355,0 -41.84912,2.048722 -62.33471,5.85307 -4.68241,0.877602 -7.90158,5.560395 -6.73098,10.242767 0.87792,4.975046 5.26772,7.901792 10.2428,7.023768 19.02232,-3.804769 38.62995,-5.560395 58.82289,-5.560395 19.0223,0 38.62994,1.755626 58.82287,5.560395 4.97506,0.877603 9.36483,-2.048722 10.24278,-7.023768 1.17061,-4.682372 -2.04856,-9.364743 -6.73097,-10.242767 z"
       id="path3475" />
    <path
       style="fill:#f5f3ef;fill-opacity:1;fill-rule:nonzero;stroke:none;stroke-width:0.877952"
       d="m 228.28682,-117.56685 c -1.46328,-8.77939 -1.46328,-8.77939 -1.46328,-8.77939 -39.50791,6.73109 -39.50791,6.73109 -39.50791,6.73109 -12.29134,-21.65623 -12.29134,-21.65623 -12.29134,-21.65623 27.21656,-4.39012 27.21656,-4.39012 27.21656,-4.39012 18.43702,32.19168 18.43702,32.19168 18.43702,32.19168 7.60895,-4.09703 7.60895,-4.09703 7.60895,-4.09703 -1.46328,-8.77939 -1.46328,-8.77939 -1.46328,-8.77939 1.46328,8.77939 1.46328,8.77939 1.46328,8.77939 7.6089,-4.38969 7.6089,-4.38969 7.6089,-4.38969 -21.65618,-37.75207 -21.65618,-37.75207 -21.65618,-37.75207 -1.75588,-3.219 -5.26772,-4.97505 -9.07219,-4.3897 -45.36091,7.60912 -45.36091,7.60912 -45.36091,7.60912 -2.92652,0.58471 -5.26772,2.34097 -6.43833,4.97504 -1.46326,2.63365 -1.1706,5.5604 0.29268,8.19405 21.36352,37.45939 21.36352,37.45939 21.36352,37.45939 1.75591,3.219 5.56036,4.97505 9.0722,4.3897 45.65356,-7.6087 45.65356,-7.6087 45.65356,-7.6087 2.63386,-0.58577 5.26773,-2.34139 6.43834,-4.97546 1.17061,-2.63365 1.17061,-5.55998 -0.29268,-7.90137 z"
       id="path3477" />
    <path
       style="fill:#f5f3ef;fill-opacity:1;fill-rule:nonzero;stroke:none;stroke-width:0.877952"
       d="m 169.17127,-144.19813 c 14.33992,-31.899 14.33992,-31.899 14.33992,-31.899 26.92388,-5.56039 26.92388,-5.56039 26.92388,-5.56039 -11.41339,22.24158 -11.41339,22.24158 -11.41339,22.24158 -2.34119,4.3897 -0.58525,9.65742 3.80447,11.99882 4.09711,2.0483 9.65751,0.29183 11.70606,-4.09703 19.6076,-38.33742 19.6076,-38.33742 19.6076,-38.33742 1.46328,-2.92674 1.17062,-6.43842 -0.87791,-9.07207 -2.04856,-2.63407 -5.26773,-4.09744 -8.48688,-3.51209 -49.16539,9.95009 -49.16539,9.95009 -49.16539,9.95009 -2.92651,0.58577 -5.26772,2.3414 -6.43832,4.97505 -16.09582,36.28912 -16.09582,36.28912 -16.09582,36.28912 -1.75591,4.38969 0.29267,9.65742 4.68241,11.41304 4.38977,2.04872 9.6575,0 11.41341,-4.3897 z"
       id="path3479" />
    <path
       style="fill:#f5f3ef;fill-opacity:1;fill-rule:nonzero;stroke:none;stroke-width:0.877952"
       d="m 218.62932,-189.26622 c 19.90026,34.53265 19.90026,34.53265 19.90026,34.53265 -18.14434,32.77703 -18.14434,32.77703 -18.14434,32.77703 -2.34123,4.38969 -0.58535,9.65741 3.5118,11.99881 4.38978,2.34098 9.6575,0.8776 11.99868,-3.51209 20.48559,-36.87405 20.48559,-36.87405 20.48559,-36.87405 1.46325,-2.63365 1.46325,-6.14532 0,-8.77939 -22.2415,-38.92277 -22.2415,-38.92277 -22.2415,-38.92277 -2.63386,-4.09703 -7.90158,-5.5604 -11.99868,-3.219 -4.38975,2.34139 -5.85303,7.60912 -3.51181,11.99881 z"
       id="path3481" />
    <path
       style="fill:#f5f3ef;fill-opacity:1;fill-rule:nonzero;stroke:none;stroke-width:0.877952"
       d="m 226.5309,-189.85157 c 5.26772,-7.02376 5.26772,-7.02376 5.26772,-7.02376 -31.89899,-24.28989 -31.89899,-24.28989 -31.89899,-24.28989 7.02363,-23.41228 7.02363,-23.41228 7.02363,-23.41228 21.94883,16.38851 21.94883,16.38851 21.94883,16.38851 -10.53544,35.70335 -10.53544,35.70335 -10.53544,35.70335 8.19425,2.63407 8.19425,2.63407 8.19425,2.63407 5.26772,-7.02376 5.26772,-7.02376 5.26772,-7.02376 -5.26772,7.02376 -5.26772,7.02376 -5.26772,7.02376 8.48688,2.34098 8.48688,2.34098 8.48688,2.34098 12.584,-41.26374 12.584,-41.26374 12.584,-41.26374 0.87792,-3.80435 -0.29267,-7.6087 -3.21917,-9.65742 -36.87404,-27.80198 -36.87404,-27.80198 -36.87404,-27.80198 -2.34122,-1.75563 -5.26772,-2.34097 -7.90158,-1.46295 -2.9265,0.8776 -4.97508,3.219 -5.85303,5.85307 -12.584,41.55642 -12.584,41.55642 -12.584,41.55642 -0.87792,3.51167 0.29268,7.31602 3.21917,9.65741 36.87405,27.80198 36.87405,27.80198 36.87405,27.80198 2.34119,1.46295 5.26772,2.0483 8.19422,1.17028 2.63386,-0.8776 4.68241,-2.92633 5.56038,-5.85307 z"
       id="path3483" />
    <path
       style="fill:#f5f3ef;fill-opacity:1;fill-rule:nonzero;stroke:none;stroke-width:0.877952"
       d="m 205.16735,-251.01592 c 33.0696,-11.70571 33.0696,-11.70571 33.0696,-11.70571 22.24147,15.80316 22.24147,15.80316 22.24147,15.80316 -23.70475,7.02334 -23.70475,7.02334 -23.70475,7.02334 -4.68241,1.46338 -7.31627,6.14575 -6.14567,10.82812 1.46326,4.68237 6.43834,7.31644 11.12075,6.14575 41.26383,-12.29149 41.26383,-12.29149 41.26383,-12.29149 3.21917,-0.87761 5.56035,-3.51168 6.14566,-7.02335 0.58535,-3.21942 -0.87792,-6.73109 -3.5118,-8.48714 -40.97118,-28.97226 -40.97118,-28.97226 -40.97118,-28.97226 -2.3412,-1.75604 -5.26773,-2.04872 -7.90159,-1.17069 -37.45932,13.46218 -37.45932,13.46218 -37.45932,13.46218 -4.68244,1.46296 -7.02364,6.438 -5.26772,11.12037 1.46325,4.6828 6.73097,7.02377 11.12072,5.26772 z"
       id="path3485" />
    <path
       style="fill:#f5f3ef;fill-opacity:1;fill-rule:nonzero;stroke:none;stroke-width:0.877952"
       d="m 272.18447,-246.04045 c -11.70605,38.04432 -11.70605,38.04432 -11.70605,38.04432 -35.99608,9.65742 -35.99608,9.65742 -35.99608,9.65742 -4.68241,1.1707 -7.60894,5.85307 -6.43833,10.53544 1.17061,4.6828 6.14567,7.60912 10.82808,6.43842 40.67852,-10.82811 40.67852,-10.82811 40.67852,-10.82811 3.21916,-0.58577 5.56039,-2.92633 6.43833,-5.85307 12.87667,-43.01937 12.87667,-43.01937 12.87667,-43.01937 1.46324,-4.68279 -1.17062,-9.65784 -5.85303,-10.82812 -4.68241,-1.46337 -9.6575,1.17028 -10.82811,5.85307 z"
       id="path3487" />
    <path
       style="fill:#f5f3ef;fill-opacity:1;fill-rule:nonzero;stroke:none;stroke-width:0.877952"
       d="m 158.34318,-167.02464 c 0.58535,-8.77981 0.58535,-8.77981 0.58535,-8.77981 -40.09322,-2.63365 -40.09322,-2.63365 -40.09322,-2.63365 -6.73097,-23.70496 -6.73097,-23.70496 -6.73097,-23.70496 27.21655,1.75605 27.21655,1.75605 27.21655,1.75605 10.53544,35.70335 10.53544,35.70335 10.53544,35.70335 8.48689,-2.34098 8.48689,-2.34098 8.48689,-2.34098 0.58535,-8.77981 0.58535,-8.77981 0.58535,-8.77981 -0.58535,8.77981 -0.58535,8.77981 -0.58535,8.77981 8.48689,-2.63407 8.48689,-2.63407 8.48689,-2.63407 -12.29135,-41.55641 -12.29135,-41.55641 -12.29135,-41.55641 -1.17061,-3.51168 -4.09712,-5.85307 -7.90158,-6.14575 -45.94623,-3.219 -45.94623,-3.219 -45.94623,-3.219 -2.926518,0 -5.853032,1.17028 -7.608932,3.51168 -1.755911,2.04872 -2.341218,4.97504 -1.463257,7.90179 12.291339,41.55642 12.291339,41.55642 12.291339,41.55642 0.87792,3.51167 4.09712,6.14532 7.90158,6.14532 45.94623,3.21942 45.94623,3.21942 45.94623,3.21942 2.92652,0 5.56038,-1.1707 7.60894,-3.51167 1.7559,-2.04873 2.34121,-4.97547 1.46326,-7.9018 z"
       id="path3489" />
    <path
       style="fill:#f5f3ef;fill-opacity:1;fill-rule:nonzero;stroke:none;stroke-width:0.877952"
       d="m 107.12923,-206.24008 c 21.07088,-28.09465 21.07088,-28.09465 21.07088,-28.09465 27.50921,0.8776 27.50921,0.8776 27.50921,0.8776 -16.38847,19.02259 -16.38847,19.02259 -16.38847,19.02259 -2.9265,3.80434 -2.63386,9.36474 1.17061,12.58374 3.51181,2.92674 9.07219,2.63407 12.29134,-1.1707 27.80186,-32.7766 27.80186,-32.7766 27.80186,-32.7766 2.34122,-2.63407 2.92653,-6.14575 1.46325,-9.36517 -1.46325,-2.92632 -4.38975,-4.97504 -7.60891,-4.97504 -50.04335,-1.75563 -50.04335,-1.75563 -50.04335,-1.75563 -2.92652,-0.29183 -5.56038,1.17028 -7.31629,3.219 -23.997384,31.60632 -23.997384,31.60632 -23.997384,31.60632 -2.926514,3.80435 -2.341218,9.36475 1.755899,12.29149 3.804464,2.92633 9.364835,2.34098 12.291355,-1.46337 z"
       id="path3491" />
    <path
       style="fill:#f5f3ef;fill-opacity:1;fill-rule:nonzero;stroke:none;stroke-width:0.877952"
       d="m 165.65945,-239.0171 c 11.12075,38.33742 11.12075,38.33742 11.12075,38.33742 -24.87535,27.80197 -24.87535,27.80197 -24.87535,27.80197 -3.21916,3.51168 -2.92651,9.07207 0.58525,12.29107 3.51182,3.21942 9.07219,2.92675 12.29135,-0.58577 28.38716,-31.31365 28.38716,-31.31365 28.38716,-31.31365 2.04855,-2.34097 2.92652,-5.56039 2.04855,-8.48672 -12.87664,-43.01979 -12.87664,-43.01979 -12.87664,-43.01979 -1.17061,-4.68237 -6.14568,-7.31602 -10.82809,-5.85307 -4.68242,1.1707 -7.31628,6.14575 -5.85303,10.82812 z"
       id="path3493" />
    <path
       style="fill:#f5f3ef;fill-opacity:1;fill-rule:nonzero;stroke:none;stroke-width:0.877952"
       d="m 83.13183,-274.1351 c 1.170604,-0.8776 2.926514,-1.75605 5.560375,-2.63407 4.389771,-1.75563 11.120738,-3.51167 18.729675,-4.97505 11.9987,-2.34097 26.63125,-4.09702 42.72706,-5.26772 15.80317,-1.17027 33.06958,-1.75562 49.75069,-1.75562 5.56038,0 11.12075,0 16.38847,0.29183 0,0 0,0 0,0 15.51052,0.29183 31.02102,1.17038 45.94623,3.2191 0,0 0,0 0,0 9.6575,1.1707 17.85172,2.92633 23.70474,4.68237 2.92654,0.87761 5.26772,1.75605 6.73098,2.63397 0.87792,0.58472 1.46328,0.8776 1.75591,1.17038 0,0 0.29268,0.29183 0.29268,0.29183 0,0 0,0 0,0 0.29267,-0.29183 0.29267,-0.29183 0.29267,-0.29183 -0.29267,0.29183 -0.29267,0.29183 -0.29267,0.29183 0,0 0,0 0,0 0.29267,-0.29183 0.29267,-0.29183 0.29267,-0.29183 -0.29267,0.29183 -0.29267,0.29183 -0.29267,0.29183 2.63386,4.09734 8.19424,4.97505 12.29136,2.34129 3.80446,-2.92664 4.97504,-8.19436 2.04855,-12.29138 -0.87792,-1.46337 -2.04855,-2.92643 -3.51181,-3.80445 -2.34122,-2.04862 -4.97508,-3.51168 -7.60894,-4.68237 -4.38978,-1.75595 -9.36483,-3.21932 -14.92522,-4.68238 -5.56035,-1.17069 -11.70602,-2.34129 -18.43702,-3.21931 -0.29268,0 -0.29268,0 -0.29268,0 -15.5105,-1.75573 -31.60632,-2.92643 -47.70213,-3.21911 0,0 0,0 0,0 -5.26772,-0.29183 -10.8281,-0.29183 -16.68113,-0.29183 -26.3386,0 -53.2625,1.46338 -75.79664,4.3897 -11.41339,1.1707 -21.65619,2.92664 -30.143065,4.97505 -4.097117,1.17069 -8.194235,2.34139 -11.413392,3.51199 -3.511821,1.46305 -6.730978,2.92643 -9.364838,4.68237 -4.097117,2.92643 -4.975078,8.48682 -2.048564,12.29117 2.633861,4.09734 8.194235,4.97505 11.998699,2.3414 z"
       id="path3495" />
    <path
       style="fill:#f5f3ef;fill-opacity:1;fill-rule:nonzero;stroke:none;stroke-width:0.877952"
       d="m 73.474339,-273.25708 c 2.63386,1.75563 5.560374,3.219 9.072195,4.68238 6.145671,2.0483 13.461945,4.09702 21.948836,5.56039 12.58399,2.34098 27.80186,4.3897 44.48297,5.5604 16.38847,1.17027 33.94754,1.75562 51.21395,1.75562 24.5827,0 48.5801,-1.17027 67.60243,-4.09702 9.65747,-1.1707 17.85172,-2.92632 24.87533,-5.26772 3.51183,-1.1707 6.43832,-2.34098 9.36486,-4.09702 1.17058,-0.58577 2.63386,-1.46338 3.80444,-2.63407 1.46328,-1.17028 2.63386,-2.34098 3.51183,-3.80435 2.63386,-4.09703 1.75589,-9.36475 -2.34122,-12.29149 -3.80447,-2.63365 -9.36483,-1.46295 -11.99869,2.34139 0.29267,0.29184 0.29267,0.29184 0.29267,0.29184 -0.29267,-0.29184 -0.29267,-0.29184 -0.29267,-0.29184 0,0 0,0 0,0 0.29267,0.29184 0.29267,0.29184 0.29267,0.29184 -0.29267,-0.29184 -0.29267,-0.29184 -0.29267,-0.29184 0,0 -0.29268,0.29184 -0.58535,0.58578 -0.58535,0.29183 -2.04856,1.17069 -4.09711,2.04872 -3.51183,1.46295 -8.48689,2.92632 -14.63255,4.09702 -9.07219,1.75563 -20.77825,3.219 -33.65491,4.09702 -13.1693,1.1707 -27.21655,1.46338 -41.8491,1.46338 -25.7533,0 -52.0919,-1.46338 -73.74809,-4.09745 -10.8281,-1.46295 -20.48558,-2.92632 -28.094506,-4.97504 -3.804474,-0.87761 -7.023631,-1.75563 -9.657492,-2.63365 -2.341206,-1.1707 -4.38977,-2.04873 -5.26772,-2.63408 -4.097118,-2.92632 -9.364839,-2.0483 -12.291353,2.04873 -2.63386,3.80434 -1.755899,9.36474 2.341207,12.29149 z"
       id="path3497" />
  </g>
</svg>
