<svg xmlns="http://www.w3.org/2000/svg" width="172" height="41" fill="none" viewBox="0 0 172 41">
  <path fill="#E9DDAF" d="M27.137 39.415S9.482 31.124 6.54 29.079c-4.408-3.067-.47-2.533-.935-6.58-.48-2.027-4.899-4.082-5.375-6.107-1.937-4.567 8.912-7.015 11.89-10.028C14.102 4.863 18.547.486 21.015 0c24.941.185 125.025.61 150.61.802 2.459.522-7.971 12.578-8.473 13.589-1.005 3.026 2.932 3.56 3.899 6.097 1.449 4.056-2.983 4.021-3.991 7.048-1.504 4.032 3.889 7.614 6.153 13.464-24.305-.182-142.076-1.585-142.076-1.585" opacity=".9"/>
</svg>
