<?xml version="1.0" encoding="UTF-8" standalone="no"?>
<svg
   xmlns:dc="http://purl.org/dc/elements/1.1/"
   xmlns:cc="http://creativecommons.org/ns#"
   xmlns:rdf="http://www.w3.org/1999/02/22-rdf-syntax-ns#"
   xmlns:svg="http://www.w3.org/2000/svg"
   xmlns="http://www.w3.org/2000/svg"
   xmlns:sodipodi="http://sodipodi.sourceforge.net/DTD/sodipodi-0.dtd"
   xmlns:inkscape="http://www.inkscape.org/namespaces/inkscape"
   version="1.1"
   id="svg2"
   width="9.3444605"
   height="16.000168"
   viewBox="0 0 9.3444606 16.000168"
   sodipodi:docname="treats-icon.svg"
   inkscape:version="1.0.2-2 (e86c870879, 2021-01-15)">
  <metadata
     id="metadata8">
    <rdf:RDF>
      <cc:Work
         rdf:about="">
        <dc:format>image/svg+xml</dc:format>
        <dc:type
           rdf:resource="http://purl.org/dc/dcmitype/StillImage" />
        <dc:title></dc:title>
      </cc:Work>
    </rdf:RDF>
  </metadata>
  <defs
     id="defs6" />
  <sodipodi:namedview
     pagecolor="#ffffff"
     bordercolor="#666666"
     borderopacity="1"
     objecttolerance="10"
     gridtolerance="10"
     guidetolerance="10"
     inkscape:pageopacity="0"
     inkscape:pageshadow="2"
     inkscape:window-width="1920"
     inkscape:window-height="1001"
     id="namedview4"
     showgrid="false"
     inkscape:zoom="1.5008574"
     inkscape:cx="304.303"
     inkscape:cy="223.11064"
     inkscape:window-x="-9"
     inkscape:window-y="-9"
     inkscape:window-maximized="1"
     inkscape:current-layer="g10" />
  <g
     inkscape:groupmode="layer"
     inkscape:label="Image"
     id="g10"
     transform="translate(31.23635,189.90688)">
    <path
       style="fill:#15191e;fill-opacity:1;stroke-width:0.0313121"
       d="m -29.51604,-173.9452 c -0.315482,-0.11375 -0.394228,-0.38011 -0.249033,-0.84235 0.165507,-0.5269 0.62413,-0.89589 1.200044,-0.96551 0.146045,-0.0177 0.86878,-0.025 1.714871,-0.0175 1.22438,0.0109 1.485978,0.021 1.607052,0.0623 0.462852,0.15784 0.764484,0.44686 0.923468,0.88485 0.143443,0.39518 0.08548,0.72242 -0.150824,0.85144 -0.09644,0.0526 -0.259907,0.0568 -2.514169,0.0633 -1.989588,0.006 -2.432064,-6.5e-4 -2.531409,-0.0365 z m 0.43659,-3.28171 c -0.975226,-1.70809 -1.57947,-3.41359 -1.910861,-5.39348 -0.122723,-0.73322 -0.235884,-1.88173 -0.23678,-2.4032 l -3.09e-4,-0.18004 h 4.196881 4.196881 l -0.0157,0.14873 c -0.0086,0.0818 -0.02382,0.29668 -0.03375,0.47751 -0.13282,2.41963 -0.958737,5.17582 -2.244866,7.49139 l -0.186958,0.3366 h -1.745956 -1.745955 z m -2.140006,-9.19006 c 0.04037,-0.57984 0.379526,-1.19724 0.86879,-1.58152 0.279174,-0.21927 0.735981,-0.42309 1.066017,-0.47565 0.09645,-0.0154 0.121592,-0.0392 0.191797,-0.18185 0.236313,-0.48018 0.686975,-0.88416 1.231486,-1.10392 0.364207,-0.14699 0.936101,-0.18661 1.347198,-0.0933 0.12012,0.0273 0.352259,0.11528 0.515864,0.19561 0.245275,0.12043 0.34471,0.19297 0.56676,0.41348 0.172222,0.17102 0.317796,0.35207 0.403838,0.50226 0.074,0.12916 0.138718,0.23992 0.143822,0.24612 0.0051,0.006 0.09919,0.0301 0.209089,0.0532 0.109895,0.023 0.269206,0.0695 0.354024,0.10334 l 0.154216,0.0614 0.816583,-0.81131 c 0.854487,-0.84897 0.832702,-0.83257 1.077791,-0.81152 0.291263,0.025 0.47322,0.3833 0.33086,0.65148 -0.02469,0.0465 -0.368896,0.40752 -0.764912,0.80225 l -0.720029,0.71769 0.139405,0.19536 c 0.257053,0.36022 0.451061,0.89041 0.451061,1.23266 v 0.12689 h -4.200277 -4.200277 z"
       id="path839" />
  </g>
</svg>
