<?xml version="1.0" encoding="UTF-8" standalone="no"?>
<svg
   xmlns:dc="http://purl.org/dc/elements/1.1/"
   xmlns:cc="http://creativecommons.org/ns#"
   xmlns:rdf="http://www.w3.org/1999/02/22-rdf-syntax-ns#"
   xmlns:svg="http://www.w3.org/2000/svg"
   xmlns="http://www.w3.org/2000/svg"
   xmlns:sodipodi="http://sodipodi.sourceforge.net/DTD/sodipodi-0.dtd"
   xmlns:inkscape="http://www.inkscape.org/namespaces/inkscape"
   width="89.64373"
   height="138.08154"
   fill="none"
   viewBox="0 0 89.64373 138.08154"
   version="1.1"
   id="svg31"
   sodipodi:docname="crew2.svg"
   inkscape:version="1.0.2-2 (e86c870879, 2021-01-15)">
  <metadata
     id="metadata35">
    <rdf:RDF>
      <cc:Work
         rdf:about="">
        <dc:format>image/svg+xml</dc:format>
        <dc:type
           rdf:resource="http://purl.org/dc/dcmitype/StillImage" />
        <dc:title />
      </cc:Work>
    </rdf:RDF>
  </metadata>
  <sodipodi:namedview
     pagecolor="#ffffff"
     bordercolor="#666666"
     borderopacity="1"
     objecttolerance="10"
     gridtolerance="10"
     guidetolerance="10"
     inkscape:pageopacity="0"
     inkscape:pageshadow="2"
     inkscape:window-width="1920"
     inkscape:window-height="1001"
     id="namedview33"
     showgrid="false"
     inkscape:zoom="2.7350453"
     inkscape:cx="-82.354686"
     inkscape:cy="79.789002"
     inkscape:window-x="-9"
     inkscape:window-y="-9"
     inkscape:window-maximized="1"
     inkscape:current-layer="svg31"
     inkscape:document-rotation="0" />
  <path
     fill="#ffffff"
     fill-rule="evenodd"
     d="m 11.161762,137.02998 c 1.332,0.082 2.664,0.147 3.996,0.197 17.418,0.649 34.822,-1.337 52.23,-1.771 6.062,-0.16 12.093,-0.08 18.14,0.407 0.592,0.047 1.27,-0.59 1.197,-1.197 -1.117,-9.643 -2.515,-19.26 -3.24,-28.942 0,-0.513 0.066,-1.024 0.242,-1.506 0.034,-0.038 0.206,-0.462 0.359,-0.489 -0.05,0.037 0.176,-0.028 0.032,-0.017 0.874,-0.143 1.731,-1.086 1.097,-1.989 -6.535,-10.017002 -15.457,-19.160002 -18.327,-31.058002 -0.678,-3.216 -3.128,-3.415 -5.737,-4.742 -0.815,-0.484 -2.805,-1.825 -3.13,-2.758 -0.773,-3.36 0.59,-6.654 -3.392,-8.013 -2.629,-0.73 -7.275,-1.346 -9.935,-0.577 -3.244,1.08 -3.001,4.736 -4.883,7.25 -0.973,1.456 -2.632,3.447 -4.164,3.67 -0.743,0.108 -1.29,-1.394 -2.031,-1.29 -11.557,2.806 -27.3020003,21.954 -32.2700003,32.553 -1.119,3.336002 2.491,2.33 2.27,5.682002 -0.274,6.361 -0.872,14.504 -0.517,20.872 0.332,3.696 0.086,7.569 1.235,11.126 -0.31,0.376 0.135,0.755 0.498,0.918 0.457,0.777 4.951,1.566 6.3300003,1.674 z"
     clip-rule="evenodd"
     id="path2" />
  <path
     fill="#ff5555"
     d="m 33.615762,64.203978 c 0.691,-0.096 0.736,1.937 1.406,2.025 3.107,4.363 7.923,5.811 13.492,5.811 5.913,0 10.707,-1.778 14.383,-5.334 l 0.337,0.142 c 1.74,0.74 3.162,1.485 3.654,3.817 2.87,11.898 11.791,21.04 18.327,31.057002 0.635,0.903 -0.223,1.847 -1.097,1.99 0.144,-0.011 -0.082,0.054 -0.032,0.017 -0.153,0.026 -0.325,0.451 -0.359,0.488 a 3.86,3.86 0 0 0 -0.183,0.718 c 0,0 -7.321,1.551 -9.29,1.594 -19.764,0.427 -55.91,-0.183 -55.91,-0.183 l -15.1380003,-5.727 c -0.866,-1.300002 -2.701,-1.351002 -1.86,-3.861002 4.968,-10.6 20.7130003,-29.747 32.2700003,-32.553 z"
     id="path4"
     style="fill:#ffffff;fill-opacity:1" />
  <path
     fill="#000000"
     fill-rule="evenodd"
     d="m 41.248762,57.818978 c 0.3,-1.352 2.451,-0.772 2.083,0.574 -0.571,2.082 -1.755,4.05 -3.426,5.43 -1.291,1.067 -3.05,2.018 -4.795,2.194 0.163,0.16 0.32,0.33 0.485,0.492 0.371,0.37 0.767,0.712 1.174,1.041 0.837,0.677 1.707,1.286 2.657,1.795 3.796,2.037 8.084,2.506 12.323,2.032 2.012,-0.225 4.054,-0.606 5.946,-1.342 0.884655,-0.336131 1.719344,-0.791324 2.481,-1.353 l 0.197,-0.148 c 0.396,-0.298 0.923,-0.72 1.17,-1.18 -0.752,0.168 -1.703,-0.633 -2.225,-1.099 -0.57,-0.512 -1.051,-1.172 -1.406,-1.848 -0.696,-1.328 -1.064,-3.04 -0.481,-4.464 0.039,-0.094 0.163,-0.078 0.175,0.024 0.172,1.659 0.62,3.215 1.81,4.443 0.531877,0.548945 1.159936,0.99567 1.853,1.318 l 0.097,0.044 c 0.294,0.136 0.605,0.296 0.729,0.588 0.04688,-0.0055 0.09438,-0.0021 0.14,0.01 0.042,0.012 0.08,0.024 0.117,0.038 -0.08832,-0.178979 -0.128959,-0.377718 -0.118,-0.577 0.029,-0.871 1.225,-0.898 1.39,-0.122 -0.03,-0.103 -0.07,-0.004 0.006,0.028 -0.0011,-0.0094 -0.0028,-0.01877 -0.005,-0.028 l 0.002,0.008 0.004,0.02 c 0.0028,0.01421 0.0048,0.02857 0.006,0.043 l 0.002,0.02 -10e-4,-0.017 c -8.65e-4,-0.01072 -0.0022,-0.0214 -0.004,-0.032 l -0.003,-0.014 c 0.01423,0.0059 0.0296,0.0087 0.045,0.008 l 0.007,0.003 0.155,0.07 c 0.2,0.073 0.422,0.096 0.626,0.16 0.442,0.136 0.831,0.36 1.1,0.743 0.194,0.275 0.302,0.59 0.346,0.917 1.956,0.94 3.806,2.162 5.356,3.675 3.46,3.374 5.872,7.597 7.852,11.968 1.007,2.225 1.905,4.497 2.783,6.776 l 0.139,0.36 c 0.941,2.449 1.774,4.925 1.979,7.558 0.01486,0.229774 -0.05406,0.457147 -0.194,0.64 0.05545,0.222131 0.0757,0.45159 0.06,0.68 0.316,-0.005 0.625,0.128 0.92,0.499 0.121487,-0.03948 0.252304,-0.03983 0.374,-10e-4 0.774,0.247002 0.898,1.096002 1.044,1.807002 0.15,0.735 0.216,1.487 0.217,2.236 0,0.268 -0.154,0.606 -0.414,0.721 -0.49,0.216 -1.017,0.357 -1.523,0.553 -0.381,0.147 -0.763,0.286 -1.148,0.416 0.214,0.373 0.283,0.892 0.399,1.284 0.181,0.614 0.327,1.229 0.45,1.857 0.83,4.267 1.405,8.58 2.181,12.857 0.389,2.142 0.84,4.269 1.301,6.397 0.348293,1.60488 0.7344,3.20133 1.158,4.788 l 0.13,0.482 0.078,0.28 c 0.169,0.094 0.313,0.235 0.414,0.429 0.366,0.708 0.155,1.505 -0.547,1.904 -0.763,0.434 -1.674,0.024 -2.095,-0.68 -0.296,-0.497 -0.393,-1.156 -0.539,-1.709 -0.164435,-0.6216 -0.322111,-1.24497 -0.473,-1.87 -1.028,-4.241 -1.716,-8.556 -2.235,-12.888 l -0.037,-0.309 c -0.264,-2.23 -0.519,-4.466 -0.683,-6.706 -0.08261,-1.10008 -0.144625,-2.2016 -0.186,-3.304 -0.02,-0.567 0.012,-1.138 0.044,-1.705 0.015,-0.248 0.036,-0.497 0.044,-0.745 l 0.002,-0.035 0.008,-0.093 0.002,-0.042 c -0.768,0.24 -1.547,0.44 -2.333,0.609 -1.674,0.362 -3.387,0.564 -5.095,0.461 0.239,2.829 0.549,5.651 0.983,8.454 0.418,2.7 0.901,5.393 1.447,8.071 0.272,1.345 0.567,2.687 0.878,4.025 0.166,0.714 0.357,1.424 0.507,2.142 0.089,0.427 0.117,0.784 -0.062,1.184 0.197,0.537 0.372,1.077 0.544,1.585 l 0.052,0.152 c 0.305,0.89 0.884,1.8 0.28,2.675 -0.30626,0.43877 -0.801228,0.70774 -1.336,0.726 l -0.029,0.017 c -0.27628,0.14233 -0.593899,0.1827 -0.897,0.114 -0.46,0.09 -0.92,0.177 -1.382,0.256 -1.14,0.197 -2.287,0.359 -3.435,0.496 -2.187,0.26 -4.388,0.403 -6.588,0.482 -8.054,0.29 -15.410182,1.37134 -23.468182,1.51834 -4.105,0.074 -8.916818,-1.33134 -13.014818,-1.08634 -2.046,0.122 -4.092,0.253 -6.138,0.355 l -0.634,0.031 c -1.83,0.087 -3.661,0.155 -5.49,0.021 -0.0311,-0.001 -0.0605,-0.0145 -0.082,-0.037 -0.631,-0.071 -1.265,-0.652 -1.202,-1.323 l 0.819,-8.574 c 0.486,-5.093 0.977,-10.186 1.473,-15.278 l 0.072,-0.735 c 0.167,-1.716 0.326,-3.436 0.407,-5.159 -0.407387,-0.0282 -0.814142,-0.0649 -1.22,-0.11 -4.401,-0.482 -8.6210003,-1.813 -12.6730003,-3.562 l -0.164,-0.071 c -0.365,-0.159 -0.764,-0.318 -1.174,-0.488 0.007,0.777 -0.019,1.556 -0.022,2.326 -0.006,1.279 0.004,2.558 0.008,3.835 0.007,2.633 0.108,5.267 0.239,7.895 0.23,4.643 0.5,9.278 0.91,13.91 0.104,1.165 0.244,2.328 0.343,3.493 0.059,0.686 -0.082,1.259 -0.711,1.619 -0.31,0.178 -0.549,0.104 -0.856,-0.04 -0.75,-0.352 -0.771,-1.183 -0.842,-1.906 -0.054034,-0.54541 -0.1053683,-1.09108 -0.154,-1.637 -0.1048778,-1.16476 -0.1942191,-2.33086 -0.268,-3.498 -0.29,-4.638 -0.375,-9.271 -0.175,-13.915 0.093,-2.172 0.228,-4.349 0.406,-6.517 l 0.042,-0.5 c 0.146,-1.733 0.241,-3.551 0.545,-5.295 -1.225,-0.543 -2.44,-1.234 -3.002,-2.382 -0.73,-1.491002 0.072,-2.766002 1.215,-3.645002 -0.011581,-0.143364 -0.00147,-0.287654 0.03,-0.428 0.33,-1.421 0.879,-2.825 1.41,-4.18 0.5345226,-1.363354 1.1270632,-2.703243 1.776,-4.016 2.6274169,-5.270825 6.1531443,-10.043534 10.4190003,-14.104 2.11,-2.01 4.419,-3.867 6.883,-5.425 1.218462,-0.77337 2.47798,-1.480075 3.773,-2.117 l 0.191,-0.094 c 0.904,-0.438 1.917,-0.904 2.921,-1.148 0.103412,-0.07717 0.209126,-0.151202 0.317,-0.222 0.395,-0.262 0.932,-0.072 1.165,0.303 0.114,-0.088 0.245,-0.166 0.395,-0.236 l 0.149,-0.068 c 0.901,-0.406 1.983,-0.785 2.962,-0.518 0.597685,0.163562 1.080961,0.603343 1.3,1.183 0.493,-0.26 0.977,-0.529 1.45,-0.857 0.76,-0.526 1.45,-1.178 2.068,-1.862 1.24,-1.377 2.142,-2.989 2.545,-4.804 z m 43.052,43.398002 c -0.08616,0.0258 -0.176694,0.0336 -0.266,0.023 0.167,0.019 -0.167,0.118 -0.259,0.165 l -0.007,0.004 c -0.556169,0.31776 -1.130864,0.60193 -1.721,0.851 -0.812723,0.34403 -1.654795,0.61412 -2.516,0.807 -0.844,0.19 -1.728,0.301 -2.593,0.319 -0.579,0.011 -1.265,-0.015 -1.864,-0.186 0.07,1.05 0.146,2.098 0.232,3.145 l 1.182,-0.271 c 1.182,-0.271 2.363,-0.549 3.53,-0.887 1.334253,-0.39206 2.644198,-0.86255 3.923,-1.409 0.218,-0.095 0.422,-0.209 0.625,-0.324 l 0.172,-0.098 c -0.04032,-0.46829 -0.113839,-0.93312 -0.22,-1.391 -0.055,-0.245 -0.15,-0.496 -0.218,-0.748 z M 3.3367617,96.274978 c -0.15,0.488 -0.38,0.943 -0.905,1.053 -0.1575273,0.03929 -0.3237628,0.02341 -0.471,-0.045 l -0.031,0.062 c -0.432,0.886 -0.559,1.822 0.435,2.505 0.448,0.308002 0.937,0.575002 1.442,0.814002 0.904,0.43 1.866,0.776 2.773,1.127 l 0.18,0.071 c 1.6211988,0.6421 3.2709233,1.20969 4.9440003,1.701 1.696845,0.49822 3.426375,0.87747 5.176,1.135 0.738825,0.10387 1.481375,0.17926 2.226,0.226 0.012,-1.001 0.006,-2.004 0.003,-3.006 -0.265,-0.033 -0.528,-0.069 -0.781,-0.099 -0.773,-0.09 -1.543,-0.2 -2.308,-0.337 -1.6006,-0.28527 -3.179412,-0.68156 -4.725,-1.186 C 8.4529058,99.368937 5.7693002,98.013307 3.3367617,96.275978 Z m 31.3550003,-30.677 c -0.65,-0.687 -1.893,-0.439 -2.677,-0.105 -0.239358,0.09785 -0.473954,0.206976 -0.703,0.327 l -0.044,0.025 c -0.265,0.152 -0.263,0.242 -0.134,0.546 0.168,0.4 0.401,0.785 0.624,1.156 0.953,1.59 2.206,2.974 3.639,4.144 5.072,4.14 12.358,5.6 18.701,4.213 3.044,-0.665 5.98,-2.007 8.221,-4.207 l 0.205,-0.203 c 0.903,-0.904 2.143,-2.213 2.056,-3.553 -0.04,-0.645 -0.567,-0.681 -1.105,-0.806 -0.213867,-0.0464 -0.420197,-0.122468 -0.613,-0.226 0.147,0.633 -0.635,1.575 -1.04,1.97 -0.846,0.829 -1.865,1.477 -2.943,1.96 -2.052,0.923 -4.285,1.36 -6.507,1.635 -2.522,0.314 -5.097,0.286 -7.6,-0.178 -2.178,-0.404 -4.324,-1.168 -6.198,-2.359 -0.86,-0.545 -1.706,-1.167 -2.423,-1.892 l -0.152,-0.153 c -0.518,-0.525 -1.12,-1.158 -1.43,-1.846 -0.116752,0.0011 -0.233504,-0.0022 -0.35,-0.01 -0.083,-0.005 -0.127,-0.122 -0.045,-0.165 l 0.277,-0.146 c -0.01531,-0.05012 -0.02866,-0.10083 -0.04,-0.152 -0.01,-0.043 0.036,-0.084 0.076,-0.06 0.056,0.034 0.11,0.07 0.162,0.108 0.01459,-0.0072 0.02893,-0.01485 0.043,-0.023 z"
     clip-rule="evenodd"
     id="path6"
     sodipodi:nodetypes="cccccccccccccccccccccccccccccccccccccccccccccccscccccccccccccccccscccccccccccccccccccccccccccccccccccccccccccccccccccccccccccccccccccccccccccscccccsccccccccccccccccccccccccccccccccccccccccccccccccccc" />
  <g
     clip-path="url(#a)"
     id="g14"
     transform="translate(-1.5582383,-0.21802226)">
    <path
       stroke="#cbcbcb"
       stroke-linecap="round"
       stroke-linejoin="round"
       stroke-width="0.89"
       d="m 60.535,90.882 a 1.947,1.947 0 0 1 1.948,-1.948 h 1.947 v 3.895 h -1.948 a 1.947,1.947 0 0 1 -1.947,-1.947 z m 3.895,-1.948 h 1.947 a 1.9475,1.9475 0 0 1 0,3.895 H 64.43 v -3.894 z"
       id="path8" />
    <path
       stroke="#cbcbcb"
       stroke-linecap="round"
       stroke-linejoin="round"
       stroke-width="0.89"
       d="M 64.43,94.776 A 1.949,1.949 0 0 1 67.754,93.4 1.948,1.948 0 1 1 64.43,94.776 Z m -3.895,3.895 a 1.947,1.947 0 0 1 1.948,-1.947 h 1.947 v 1.947 a 1.9475,1.9475 0 0 1 -3.895,0 z"
       id="path10" />
    <path
       stroke="#cbcbcb"
       stroke-linecap="round"
       stroke-linejoin="round"
       stroke-width="0.89"
       d="m 60.535,94.776 a 1.947,1.947 0 0 1 1.948,-1.947 h 1.947 v 3.895 h -1.948 a 1.947,1.947 0 0 1 -1.947,-1.948 z"
       id="path12" />
  </g>
  <path
     fill="#ffffff"
     fill-rule="evenodd"
     d="m 41.076762,10.888978 c 16.866,-0.83 28.31,12.472 28.802,17.776 0.342,3.682 0.11,8.592 0.11,11.883 0,1.679 0.847,6.784 -0.11,9.231 -2.13,5.448 -4.537,9.716 -11.207,9.716 -6.67,0 -16.837,-3.457 -20.329,-7.916 -0.637,-0.814 -8.559,-6.773 -8.559,-11.457 0,-9.993 -0.742,-28.641 11.293,-29.233 z"
     clip-rule="evenodd"
     id="path16" />
  <path
     fill="#000000"
     fill-rule="evenodd"
     d="m 29.570762,0.09697774 c 0.96,-0.3 1.574,0.132 2.012,0.802 a 0.668,0.668 0 0 1 0.429,0.055 0.731,0.731 0 0 1 0.1,0.054 l 0.02,-0.01 c 0.071,-0.079 0.147,-0.15 0.229,-0.209 a 0.746,0.746 0 0 1 0.553,-0.14 l 0.083,-0.031 c 0.712,-0.248 1.483,-0.133 1.965,0.47999996 0.094,0.118 0.17,0.25 0.234,0.39 0.144,0.047 0.28,0.115 0.397,0.2 0.082,-0.04 0.169,-0.072 0.262,-0.096 a 1.774,1.774 0 0 1 1.504,0.315 c 0.208,0.156 0.362,0.352 0.478,0.576 0.132,0.031 0.263,0.087 0.385,0.162 0.106,-0.052 0.212,-0.101 0.322,-0.135 0.4,-0.123 0.83,-0.169 1.248,-0.137 0.898,0.066 1.768,1.093 1.167,1.974 l -0.019,0.027 a 3.23,3.23 0 0 0 -0.204,0.328 c 0.216,0.093 0.423,0.218 0.614,0.375 0.936,0.768 1.02,1.95 0.846,3.066 l -0.008,0.047 h 0.002 c 0.498,0.047 0.927,0.566 0.633,1.055 l -0.014,0.023 c -0.398,0.615 -0.739,1.2930003 -1.119,1.9400003 -1.051,0.38 -2.066,0.846 -3.02,1.412 a 14.012,14.012 0 0 0 -1.66,1.685 9.8,9.8 0 0 0 -0.687,0.965 0.477,0.477 0 0 0 0.551,-0.085 c 1.56,-1.446 3.445,-2.46 5.452,-3.14 a 0.49,0.49 0 0 0 0.292,-0.251 c 0.891,-0.254 1.798,-0.45 2.713,-0.59 0.253,-0.24 0.517,-0.47 0.768,-0.71 a 0.807,0.807 0 0 1 1.023,-0.11 5.92,5.92 0 0 1 0.456,-0.181 l 0.097,-0.033 c 0.04,-0.013 0.078,-0.028 0.117,-0.04 1.075,-0.3290003 2.057,-0.2070003 3.114,0.063 l 0.135,0.035 c 0.493,0.131 0.803,0.11 1.28,-0.01 l 0.054,-0.014 c 0.507,-0.132 1.049,-0.2300003 1.567,-0.09 0.542,0.145 0.902,0.469 1.27,0.86 l 0.038,0.04 c 0.172,0.184 0.272,0.204 0.497,0.2 l 0.242,-0.008 c 0.912,-0.024 1.805,0.014 2.488,0.72 0.252,0.26 0.523,0.63 0.686,0.966 l 0.023,0.05 0.02,0.043 c 0.098,-0.016 0.25,-0.078 0.323,-0.092 0.994,-0.193 1.823,0.104 2.461,0.887 0.14,0.171 0.35,0.508 0.497,0.693 0.051,0.043 0.1,0.09 0.145,0.138 0.24,0.153 0.58,0.144 0.848,0.197 0.732,0.146 1.515,0.425 1.887,1.121 0.155,0.291 0.213,0.61 0.279,0.927 0.246,0.162 0.439,0.395 0.588,0.647 0.182,0.306 0.26,0.681 0.47,0.97 0.152,0.21 0.384,0.323 0.606,0.451 l 0.084,0.05 c 0.656,0.39 1.17,0.824 1.386,1.59 l 0.018,0.067 c 0.035,0.117 0.158,0.452 0.051,0.402 0.093,0.05 0.25,0.069 0.333,0.096 0.455,0.151 0.85,0.394 1.093,0.821 0.185,0.326 0.218,0.665 0.271,1.023 l 0.022,0.145 0.02,0.115 0.007,0.038 0.002,0.001 a 3.6,3.6 0 0 1 0.242,0.116 c 0.378,0.222 0.635,0.608 0.635,1.054 a 0.943,0.943 0 0 1 -0.166,0.535 c 0.08,0.121 0.142,0.25 0.188,0.393 0.092,0.28 0.098,0.585 0.067,0.875 a 4.998,4.998 0 0 1 -0.23,0.995 c -0.041,0.128 -0.057,0.306 -0.118,0.429 a 0.68,0.68 0 0 1 0.158,0.49 c -0.03,0.248 -0.142,0.536 -0.366,0.675 -0.11,0.54 -0.345,1.091 -0.577,1.532 a 0.604,0.604 0 0 1 -0.094,0.135 c 0.032,1.761 -0.097,3.535 -0.106,5.294 -0.01,1.916 0.03,3.832 0.097,5.745 0.112,3.17 0.514,6.448 -0.422,9.54 -0.765,2.53 -2.299,4.702 -4.355,6.35 a 12.848,12.848 0 0 1 -7.34,2.811 13.067,13.067 0 0 1 -4.09,-0.434 l -0.142,-0.038 c -1.284,-0.353 -2.77,-0.892 -3.715,-1.835 -0.498,-0.498 0.006,-1.554 0.737,-1.264 0.724,0.288 1.374,0.715 2.093,1.015 0.642,0.268 1.312,0.474 1.991,0.625 1.361,0.306 2.804,0.373 4.187,0.183 4.995,-0.683 8.886,-4.83 9.654,-9.748 0.212,-1.362 0.208,-2.746 0.194,-4.122 l -0.016,-1.508 a 81.47,81.47 0 0 1 0.03,-3.784 c 0.059,-1.623 0.174,-3.244 0.327,-4.86 l 0.08,-0.84 c 0.095,-0.984 0.202,-1.975 0.386,-2.945 -0.15,0.008 -1.342,-2.03 -2.003,-3.17 -0.242,-0.191 -0.445,-0.429 -0.524,-0.736 a 1.152,1.152 0 0 1 -0.03,-0.194 10.48,10.48 0 0 0 -0.455,-0.659 l -0.035,-0.015 a 0.908,0.908 0 0 1 -0.06,-0.03 2.275,2.275 0 0 1 -1.006,-1.209 11.745,11.745 0 0 0 -0.894,-0.794 c -0.03,-0.025 -0.063,-0.048 -0.094,-0.072 -0.397,-0.148 -0.747,-0.372 -1.001,-0.694 -0.107,-0.066 -0.214,-0.13 -0.322,-0.194 a 2.625,2.625 0 0 1 -0.97,-0.21 c -0.584,-0.239 -1.05,-0.712 -1.635,-0.931 -0.62,-0.232 -1.272,0.295 -1.93,0.2 a 1.704,1.704 0 0 1 -0.49,-0.15 c -0.37,0.393 -0.764,0.763 -1.197,1.087 -0.63,0.47 -1.274,0.685 -2.003,0.897 -0.362,0.343 -0.767,0.676 -1.255,0.725 -1.13,0.903 -2.338,1.665 -3.61,2.372 a 1.25,1.25 0 0 1 -0.6,0.167 5.1,5.1 0 0 1 -1.294,0.576 c -0.144,0.042 -0.293,0.05 -0.439,0.032 l -0.4,0.325 a 1.406,1.406 0 0 1 -0.857,0.342 8.74,8.74 0 0 1 -0.535,0.377 1.175,1.175 0 0 1 -0.71,0.167 c -0.391,0.383 -0.9,0.424 -1.326,0.247 a 2.307,2.307 0 0 1 -0.472,0.209 2.106,2.106 0 0 1 -1.746,0.664 2.773,2.773 0 0 1 -1.606,0.418 c -0.085,0.424 -0.155,0.85 -0.214,1.277 l -0.006,0.313 v 0.126 c 0.055,1.373 0.084,2.745 0.138,4.117 l 0.005,0.109 c 0.06,1.198 0.355,3.384 -1.407,3.336 -0.656,-0.017 -1.308,-0.5 -1.819,-0.898 l -0.072,-0.056 -0.12,-0.094 c -0.382,-0.05 -0.759,-0.143 -1.145,-0.157 a 5.605,5.605 0 0 0 -1.44,0.14 c -0.82,0.19 -1.612,0.564 -2.146,1.239 -0.047,0.059 -0.09,0.121 -0.132,0.184 a 0.973,0.973 0 0 1 -0.188,0.348 c -0.505,1.136 -0.213,2.637 0.345,3.677 0.666,1.237 1.719,2.093 3.043,2.524 l 0.067,0.022 c 0.904,0.282 1.25,0.83 1.742,1.59 0.46,0.715 0.99,1.38 1.557,2.013 1.098,1.223 2.64,2.232 3.278,3.78 0.13,0.312 -0.24,0.605 -0.526,0.525 -1.12,-0.315 -1.906,-1.113 -2.72,-1.906 a 24.767,24.767 0 0 1 -1.616,-1.721 1.168,1.168 0 0 1 -0.346,0.097 c -0.54,0.066 -1.096,0.039 -1.569,-0.252 a 0.808,0.808 0 0 1 -0.613,-0.21 2.71,2.71 0 0 1 -0.4,-0.46 2,2 0 0 1 -0.5,-0.007 0.64,0.64 0 0 1 -0.22,-0.06 0.973,0.973 0 0 1 -0.36,-0.248 1.122,1.122 0 0 1 -0.27,-0.907 1.19,1.19 0 0 1 -0.81,-0.612 2.522,2.522 0 0 1 -0.68,-0.561 2.44,2.44 0 0 1 -0.482,-0.874 c -0.1,-0.047 -0.197,-0.1 -0.29,-0.164 -0.669,-0.452 -1.051,-1.3 -0.789,-2.086 l 0.01,-0.024 c 0.012,-0.036 0.037,-0.096 0.066,-0.164 -0.004,-0.055 -0.009,-0.11 -0.012,-0.166 l -0.009,-0.167 -0.134,-0.057 c -0.667,-0.265 -1.119,-0.624 -1.199,-1.375 a 0.662,0.662 0 0 1 0.139,-0.446 v -0.042 a 1.214,1.214 0 0 1 -0.684,-1.149 c 0.023,-0.392 0.24,-0.705 0.485,-0.995 l 0.07,-0.081 0.019,-0.022 -0.162,-0.05 a 1.554,1.554 0 0 1 -0.27,-0.106 1.585,1.585 0 0 1 -0.634,-0.61 c -0.02,-0.032 -0.041,-0.064 -0.06,-0.098 a 1.431,1.431 0 0 1 -0.088,-1.105 c 0.014,-0.042 0.032,-0.081 0.05,-0.12 -0.492,-0.174 -0.87,-0.532 -0.916,-1.192 -0.018,-0.26 0.04,-0.519 0.163,-0.74 a 1.55,1.55 0 0 1 -0.015,-0.457 1.237,1.237 0 0 1 -0.368,-0.6 c -0.114,-0.455 0.094,-0.887 0.403,-1.283 a 1.357,1.357 0 0 1 0.01,-0.981 1.68,1.68 0 0 1 -0.08,-0.495 1.613,1.613 0 0 1 0.302,-0.963 c -0.265,-0.323 -0.39,-0.753 -0.234,-1.155 a 4.96,4.96 0 0 1 0.384,-0.791 1.602,1.602 0 0 1 -0.121,-0.623 c 0,-0.416 0.156,-0.745 0.394,-1.015 -0.103,-0.493 0.107,-1.093 0.567,-1.31 0.173,-0.082 0.404,-0.168 0.66,-0.234 a 28.183,28.183 0 0 1 0.836,-2.273 3.91,3.91 0 0 1 -0.342,0.265 4.928,4.928 0 0 1 -1.288,1.135 c -0.827,0.49 -1.773,0.2 -2.181,-0.62 -0.384,0.287 -0.845,0.457 -1.336,0.399 -0.557,-0.066 -1.066,-0.427 -1.205,-0.99 a 1.156,1.156 0 0 1 -0.034,-0.257 c -0.32,0.227 -0.654,0.436 -1.02,0.556 -0.467,0.153 -0.944,-0.213 -1.006,-0.67 a 0.773,0.773 0 0 1 0.082,-0.475 l -0.046,-0.018 a 1.033,1.033 0 0 1 -0.548,-0.578 c -0.53,0.206 -1.137,-0.035 -1.306,-0.618 a 4.079,4.079 0 0 1 -0.055,-2.071 c -0.562,-0.408 -0.928,-1.095 -0.99,-1.813 -0.046,-0.515 0.077,-0.99 0.294,-1.43 -0.532,-0.199 -0.715,-0.896 -0.462,-1.398 -0.335,-0.192 -0.554,-0.599 -0.56,-0.995 -0.15,-0.227 -0.197,-0.52 -0.073,-0.847 0.164,-0.432 0.498,-0.793 0.88,-1.076 a 3.48,3.48 0 0 1 -0.367,-0.934 0.864,0.864 0 0 1 -0.625,-0.733 0.903,0.903 0 0 1 0.68,-1.0000003 c 0.047,-0.146 0.105,-0.29 0.177,-0.428 -0.212,-0.5 -0.18,-1.134 0.092,-1.681 0.242,-0.484 0.634,-0.78 1.107,-0.985 -0.12,-0.412 0.04,-0.822 0.44,-1.128 a 5.868,5.868 0 0 1 1.589,-0.862 c -0.05,-0.67 0.23,-1.357 0.892,-1.59 a 1.6,1.6 0 0 1 0.549,-0.085 c 0.136,-0.296 0.363,-0.536 0.659,-0.749 0.448,-0.322 1.285,-0.125 1.534,0.38 l 0.012,0.025 0.04,0.083 a 1.31,1.31 0 0 1 0.355,-0.666 c 0.47,-0.475 0.967,-0.484 1.445,-0.28 0.087,-0.218 0.194,-0.425 0.323,-0.61399996 0.468,-0.686 1.242,-0.773 1.81,-0.402 0.226,-0.2 0.48,-0.354 0.76,-0.441 z m 3.35,41.24700026 c 0.944,-0.37 2.089,-0.26 3.021,0.095 l 0.068,0.026 c 0.824,0.326 2.162,1.05 2.323,1.977 0.084,0.48 -0.372,0.894 -0.835,0.642 -0.403,-0.22 -0.629,-0.661 -0.95,-0.982 a 5.035,5.035 0 0 0 -1.059,-0.795 c -0.808,-0.466 -1.657,-0.648 -2.568,-0.782 -0.102,-0.015 -0.075,-0.152 0,-0.18 z"
     clip-rule="evenodd"
     id="path18" />
  <path
     fill="#ffffff"
     fill-rule="evenodd"
     d="m 56.348762,45.031978 c 3.38,0 6.12,-2.118 6.12,-4.73 0,-2.612 -2.74,-4.73 -6.12,-4.73 -3.38,0 -6.12,2.118 -6.12,4.73 0,2.612 2.74,4.73 6.12,4.73 z"
     clip-rule="evenodd"
     id="path20" />
  <path
     fill="#ffffff"
     fill-rule="evenodd"
     d="m 66.141762,43.250978 c 2.642,0 5.23,-1.72 5.23,-3.84 0,-2.12 -2.143,-3.838 -4.786,-3.838 -2.642,0 -4.785,1.718 -4.785,3.839 0,1.163 0.384,0.408 1.402,1.112 0.839,0.58 1.745,2.727 2.938,2.727 z"
     clip-rule="evenodd"
     id="path22" />
  <path
     fill="#000000"
     fill-rule="evenodd"
     d="m 66.666762,49.697978 0.092,-0.005 c 0.626,-0.036 1.235,-0.127 1.794,0.224 a 1.168,1.168 0 0 1 0,1.993 c -0.588,0.367 -1.227,0.247 -1.886,0.23 a 98.455,98.455 0 0 0 -1.63,-0.03 210.53,210.53 0 0 0 -3.258,-0.009 c -0.98,0.005 -1.96,-0.006 -2.94,-0.03 l -0.42,-0.01 c -1.004,-0.029 -2.056,0.006 -3.046,-0.19 l -0.042,-0.007 v -0.002 c -0.17,-0.057 -0.261,-0.33 -0.056,-0.426 0.982,-0.455 2.104,-0.646 3.159,-0.863 a 37.196,37.196 0 0 1 3.237,-0.5 65.492,65.492 0 0 1 3.257,-0.28 c 0.58,-0.038 1.159,-0.069 1.739,-0.095 z m -3.287,-13.99 0.072,-0.049 c 0.786,-0.519 1.917,-1.019 2.823,-0.625 a 0.492,0.492 0 0 1 0.132,0.085 c 0.223,0.004 0.447,0.023 0.671,0.057 1.774,0.267 3.413,1.431 4.215,3.034 0.911,1.822 0.478,3.742 -1.134,4.981 -0.792,0.61 -1.723,1.047 -2.725,1.146 -0.327,0.033 -0.675,0.039 -0.989,-0.06 0.149,0.317 0.262,0.648 0.32,0.997 0.2,1.197 -0.274,2.183 -1.389,2.7 -0.979,0.454 -2.334,0.628 -3.302,0.054 -0.819,-0.484 -0.55,-2.087 0.526,-1.944 0.727,0.097 1.383,0.34 2.101,0.03 0.586,-0.252 0.23,-1.105 0.054,-1.553 -0.295,-0.75 -0.73,-1.455 -1.082,-2.182 l -0.065,-0.137 c -0.222,-0.474 -0.497,-0.975 -0.707,-1.487 -0.116,0.6 -0.324,1.19 -0.57,1.736 -0.581,1.294 -1.707,2.086 -3.048,2.457 -1.379,0.38 -2.997,0.47 -4.419,0.423 -1.446,-0.048 -2.968,-0.427 -4.026,-1.475 -1.938,-1.92 -1.381,-5.279 0.658,-6.883 1.32,-1.039 3.178,-1.75 4.885,-1.566 0.855,-0.192 1.811,-0.083 2.667,0.11 1.157,0.263 2.262,0.825 3.02,1.719 0.055,-0.14 0.12,-0.276 0.194,-0.404 -0.033,-0.016 -0.054,-0.065 -0.021,-0.095 0.06,-0.054 0.122,-0.106 0.184,-0.158 0.247,-0.346 0.565,-0.647 0.955,-0.912 z m -14.023,8.997 c -0.07,-0.098 0.067,-0.227 0.165,-0.164 0.8,0.517 1.638,0.986 2.556,1.26 0.897,0.267 1.829,0.239 2.73,0.467 0.338,0.086 0.284,0.526 0,0.634 -0.992,0.376 -2.11,0.06 -3.052,-0.338 -0.955,-0.405 -1.796,-1.006 -2.399,-1.859 z m 5.373,-8.246 0.024,-0.029 -0.058,0.02 a 6.02,6.02 0 0 0 -2.797,1.91 c -1.28,1.548 -1.295,4.011 0.619,5.058 1.031,0.565 2.25,0.591 3.395,0.531 l 0.231,-0.012 c 1.006,-0.055 2.032,-0.138 3.003,-0.41 1.058,-0.296 1.793,-0.936 2.198,-1.967 l 0.034,-0.087 c 0.404,-1.06 0.614,-2.24 -0.136,-3.2 -1.27,-1.627 -4.206,-1.952 -6.02,-1.175 -0.434,0.186 -0.783,-0.268 -0.493,-0.639 z m 11.643,-0.436 a 0.558,0.558 0 0 1 -0.098,0.078 c -0.364,0.219 -0.774,0.22 -1.177,0.321 a 5.01,5.01 0 0 0 -1.079,0.379 c -0.537,0.273 -1.092,0.6 -1.6,0.956 0.109,0.175 0.206,0.358 0.29,0.553 0.23,0.537 0.308,1.103 0.284,1.672 0.354,0.306 0.65,0.687 0.964,1.032 l 0.276,0.304 a 23.063,23.063 0 0 1 1.476,1.772 0.774,0.774 0 0 1 0.1,-0.203 c 0.17,-0.245 0.432,-0.368 0.73,-0.297 0.263,0.062 0.437,0.18 0.71,0.182 0.336,0.002 0.658,-0.07 0.975,-0.173 a 4.192,4.192 0 0 0 1.69,-1.042 c 1.028,-1.067 0.485,-2.572 -0.317,-3.589 -0.813,-1.03 -1.98,-1.7 -3.224,-1.945 z m -9.157,2.565 c 0.33,-0.095 0.821,0.055 0.966,0.393 l 0.104,0.246 -0.008,-0.02 c 0.037,0.088 0.072,0.172 0.1,0.262 l 0.098,0.075 c 0.083,0.093 0.16,0.19 0.23,0.293 0.168,0.286 0.217,0.652 0.131,0.973 -0.141,0.53 -0.628,0.87 -1.167,0.873 -1.58,0.009 -1.966,-2.659 -0.454,-3.095 z m 9.526,-0.48 c 0.73,-0.032 1.216,0.612 1.274,1.274 0.034,0.377 -0.043,0.789 -0.15,1.15 a 1.12,1.12 0 0 1 -1.227,0.8 1.139,1.139 0 0 1 -0.937,-0.824 3.171,3.171 0 0 1 -0.233,-1.126 c -0.014,-0.714 0.594,-1.243 1.273,-1.274 z m -9.628,-5.956 c 0.74,-0.12 1.447,0.24 1.554,1.035 0.109,0.803 -0.482,1.333 -1.223,1.411 -1.397,0.149 -2.823,0.184 -4.227,0.245 -0.585,0.026 -1.172,0.037 -1.758,0.042 l -0.293,0.002 c -0.545,0.003 -1.255,0.111 -1.748,-0.157 -0.032,-0.018 -0.03,-0.057 -0.01,-0.082 0.346,-0.426 1.061,-0.608 1.573,-0.796 l 0.043,-0.016 a 29.441,29.441 0 0 1 1.966,-0.67 l 0.337,-0.1 c 1.24,-0.366 2.515,-0.71 3.786,-0.914 z m 4.697,-0.39 a 1.154,1.154 0 0 1 1.22,0.225 c 1.04,0.29 2.11,0.512 3.157,0.765 l 0.285,0.07 c 1.313,0.328 2.755,0.58 3.975,1.18 0.13,0.064 0.048,0.23 -0.066,0.244 -1.36,0.165 -2.824,-0.098 -4.176,-0.256 -1.384,-0.162 -2.776,-0.429 -4.165,-0.533 -0.997,-0.075 -1.142,-1.353 -0.23,-1.696 z"
     clip-rule="evenodd"
     id="path24" />
  <defs
     id="defs29">
    <clipPath
       id="a">
      <path
         fill="#ffffff"
         d="M 0,0 H 13.353 V 13.353 H 0 Z"
         transform="translate(57.753,87.822)"
         id="path26" />
    </clipPath>
  </defs>
</svg>
