<?xml version="1.0" encoding="UTF-8" standalone="no"?>
<svg
   xmlns:dc="http://purl.org/dc/elements/1.1/"
   xmlns:cc="http://creativecommons.org/ns#"
   xmlns:rdf="http://www.w3.org/1999/02/22-rdf-syntax-ns#"
   xmlns:svg="http://www.w3.org/2000/svg"
   xmlns="http://www.w3.org/2000/svg"
   xmlns:sodipodi="http://sodipodi.sourceforge.net/DTD/sodipodi-0.dtd"
   xmlns:inkscape="http://www.inkscape.org/namespaces/inkscape"
   width="91.405334"
   height="130.92046"
   fill="none"
   viewBox="0 0 91.405334 130.92046"
   version="1.1"
   id="svg14"
   sodipodi:docname="crew4.svg"
   inkscape:version="1.0.2-2 (e86c870879, 2021-01-15)">
  <metadata
     id="metadata20">
    <rdf:RDF>
      <cc:Work
         rdf:about="">
        <dc:format>image/svg+xml</dc:format>
        <dc:type
           rdf:resource="http://purl.org/dc/dcmitype/StillImage" />
        <dc:title></dc:title>
      </cc:Work>
    </rdf:RDF>
  </metadata>
  <defs
     id="defs18" />
  <sodipodi:namedview
     pagecolor="#ffffff"
     bordercolor="#666666"
     borderopacity="1"
     objecttolerance="10"
     gridtolerance="10"
     guidetolerance="10"
     inkscape:pageopacity="0"
     inkscape:pageshadow="2"
     inkscape:window-width="1920"
     inkscape:window-height="1001"
     id="namedview16"
     showgrid="false"
     inkscape:zoom="6.1629188"
     inkscape:cx="44.050511"
     inkscape:cy="64.943085"
     inkscape:window-x="-9"
     inkscape:window-y="-9"
     inkscape:window-maximized="1"
     inkscape:current-layer="svg14" />
  <path
     fill="#ffffff"
     fill-rule="evenodd"
     d="m 33.920511,130.91509 c -6.697,-0.144 -12.794,0.261 -19.243,-1.047 l -0.008,-0.217 c -1.384,-0.04 -0.926,-1.333 -0.648,-2.237 -26.028,-1.158 -9.0499997,-64.600005 8.987,-68.866005 0.883,-0.15 1.843,-0.23 2.816,-0.24 1.256,-0.383 2.494,-0.45 3.806,-0.8 0.126,-0.46 0.147,-0.726 0.704,-0.59 1.998,-1.909 5.595,-3.667 6.809,0.058 1.596,-2.22 2.512,-4.815 3.18,-7.444 l 0.108,0.018 c 0.283,-0.699 0.747,-1.583 1.312,-1.729 0.88,-0.291 2.54,-0.224 3.497,-0.343 2.075,-0.143 4.486,-0.496 6.475,-0.02 4.97,1.217 2.816,7.084 6.846,10.904 1.849,-0.766 4.748,-0.556 6.52,0.356 1.14,0.913 0.568,1.944 0.368,2.91 12.726,-1.148 16.112,13.612 18.738,23.343 1.054,3.237 2.1,5.431 3.894,7.93 2.331,2.922 3.64,6.748 1.252,9.830005 3.41,6.804 -0.292,13.199 -4.208,18.335 -0.767,0.822 -2.011,3.111 -3.135,3.267 -0.305,0.279 -0.793,0.622 -1.136,0.871 l 0.414,0.544 c 0.05,0.502 0.053,1.041 0.396,1.489 0.33,0.322 0.683,0.651 0.693,1.132 -0.526,0.61 -1.206,-0.072 -1.705,-0.375 -0.191,0.376 -0.164,1.27 -0.777,1.235 -15.207,1.043 -30.781,1.727 -45.954,1.686"
     clip-rule="evenodd"
     id="path2" />
  <path
     fill="#000000"
     fill-rule="evenodd"
     d="m 40.026511,49.554085 c 1.209,1.575 -0.761,6.39 -1.668,8.06 6.2,2.588 13.117,3.716 19.74,2.246 -1.72,-1.645 -3.62,-6.902 -2.205,-8.75 l 0.065,0.332 c 0.48,2.444 1.067,4.98 2.83,6.85 2.497,-0.663 8.566,-0.603 7.572,3.334 15.412,0.036 15.54,18.685 20.678,29.09 2.465,3.974 6.282,8.05 3.086,12.826005 0.628,1.506 1.066,3.103 1.229,4.725 0.502,5.292 -2.737,9.822 -5.657,13.93 -1.028,1.128 -1.889,3.02 -3.384,3.502 a 7.425,7.425 0 0 1 -0.478,0.376 c 0.297,0.433 0.056,1.121 0.404,1.499 l 0.136,0.132 c 0.228,0.224 0.541,0.556 0.604,0.852 l 0.03,0.257 c 0.012,0.101 0.015,0.095 0.008,-0.016 l -0.005,-0.036 c -0.004,-0.048 0.003,-0.044 0.021,0.012 l 0.008,0.025 c 0.157,0.449 -0.173,0.963 -0.624,1.082 -1.342,0.719 -2.768,-1.385 -2.319,-2.793 -7.44,3.209 -22.892,-2.594 -30.367,-5.471 -1.429,-0.574 -2.783,-1.319 -4.228,-1.845 l -0.107,-0.053 c -1.668,-0.821 -3.33,-2.011 -5.285,-1.535 -8.227,3.523 -15.878,9.39 -24.998,10.547 1.427,2.724 -2.772,3.089 -1.93,0.046 -24.82,-3.22 -9.3539997,-56.560005 3.83,-66.863005 4.197,-3.998 7.021,-3.081 12.12,-4.235 0.118,-0.43 0.548,-0.79 1.003,-0.729 1.813,-1.723 5.566,-3.403 7.114,-0.603 0.947,-1.48 1.606,-3.124 2.067,-4.815 0.183,-0.672 0.248,-1.44 0.71,-1.979 z m -9.716,79.934005 c -1.323,-1.048 0.687,-2.701 1.833,-2.034 0.353,0.433 -0.87,0.001 -0.716,0.96 0.222,0.637 -0.443,1.485 -1.117,1.074 z m 27.009,-1.301 c -0.942,-1.772 -0.115,-2.562 1.3,-1.182 1.29,0.974 -0.442,2.557 -1.3,1.182 z m -13.115,-0.165 c -1.328,-0.714 -1.658,-3.968 0.498,-2.404 1.917,0.682 1.39,3.122 -0.498,2.404 z m -14.89,-69.401005 c -2.655,0.734 -5.617,0.417 -8.052,1.937 -5.957,3.75 -9.382,10.214 -11.9599997,16.562 l -0.077,0.192 c -5.23,12.874 -9.41399998,27.841005 -5.014,41.520005 2.222,6.223 7.6929997,8.891 13.9189997,6.73 15.626,-5.062 28.685,-17.231 45.303,-19.304 0.234,-1.923 -0.298,-3.819 -0.977,-5.618 -10.194,0.425 -19.968,3.725 -29.738,6.382 -0.569,2.492 -3.411,5.395 -5.114,7.328 -1.54,2.06 -5.345,2.68 -5.814,-0.487 l -0.075,0.085 c -1.255,1.408 -4.01,3.848 -4.855,0.809 -0.19,-1.594 0.831,-2.973 1.334,-4.423 l -0.053,0.04 c -0.929,0.693 -4.77,3.968 -5.038,1.787 a 10.218,10.218 0 0 1 1.848,-5.759 c 1.185,-1.554 2.642,-3.017 4.228,-4.166 0.084,-0.487 0.236,-0.958 0.35,-1.441 -0.174,-1.812005 0.54,-3.514005 0.728,-5.289005 0.433,-1.665 0.527,-4.783 1.733,-5.954 0.925,0.986 0.008,4.745 -0.04,6.183 -0.33,1.749 -0.187,3.535 -0.82,5.235005 a 12.925,12.925 0 0 1 5.669,-1.557005 c 0.198,-3.817 5.602,-2.484 8.104,-2.188 3.82,-1.358 19.86,-0.882 22.51,1.973 a 84.458,84.458 0 0 1 3.934,-0.367 c 1.563,-0.994 5.874,-0.587 6.538,1.368005 1.738,0.514 3.247,1.392 4.771,2.394 0.472,-7.778005 -1.591,-15.439005 -1.089,-23.228005 0.045,-0.453 0.255,-0.845 0.246,-1.305 -0.001,-0.055 0.079,-0.053 0.084,0 0.75,2.274 0.893,4.701 1.315,7.06 0.555,4.113 1.532,8.179 1.856,12.318 0.14,3.478005 -0.424,7.199005 0.963,10.496005 0.198,0.469 -0.128,1.234 -0.584,1.435 -3.802,1.597 -8.225,0.449 -11.698,-1.498 -7.398,2.369 -14.636,5.182 -21.452,8.938 1.312,0.345 2.491,1.113 3.679,1.751 1.69,0.585 3.37,1.202 5.058,1.793 8.358,2.527 17.105,5.919 25.935,5.404 2.715,-0.463 3.936,-1.626 5.548,-3.703 l 0.266,-0.345 c 2.879,-3.725 6.17,-7.669 6.652,-12.5 0.11,-1.568 -0.039,-3.128 -0.13,-4.69 -0.387,0.397 -0.804,0.768 -1.207,1.151 -0.559,0.533 -1.273,-0.139 -0.999,-0.771 0.593,-1.796 1.639,-3.49 1.82,-5.392005 0.03,-1.788 -1.142,-3.378 -2.178,-4.737 -8.057,-9.917 -4.542,-30.738 -20.501,-32.76 -6.81,14.32 -30.029,8.367 -36.725,-3.037 z m -17.885,60.358005 c 0.068,-1.951 3.174,0.59 2.887,1.655 -0.174,1.473 -1.96,0.785 -2.363,-0.209 -0.251,-0.455 -0.463,-0.927 -0.524,-1.446 z m 61.517,-2.008 c 0.448,-0.817 3.116,1.532 1.733,2.304 -0.936,0.493 -1.294,-0.663 -1.498,-1.358 -0.11,-0.29 -0.321,-0.625 -0.235,-0.946 z m -45.628,1.072 c -1.68,-0.997 1.998,-2.34 2.136,-0.714 0.054,1.104 -1.436,1.045 -2.136,0.714 z m 31.227,-4.295 c 0.844,-1.125 0.864,2.861 0.363,3.132 -0.23,0.364 -0.748,0.278 -0.886,-0.116 -0.355,-1.016 0.179,-2.061 0.523,-3.016 z m -39.933,0.702 -0.018,0.067 c -0.094,0.366 0.127,-0.116 0.042,-0.045 z m 18.244,-9.533 c -3.845,-4.378 -10.78,-5.465005 -15.962,-2.867 -0.763,0.223 -1.433,0.85 -2.12,1.26 0.172,-0.063 0.347,-0.115 0.524,-0.16 -2.277,1.937 -4.214,4.591 -4.564,7.612 2.075,-1.283 3.898,-2.892 5.336,-4.901 0.473,-0.825 1.831,-0.259 1.542,0.649 -0.933,2.565 -2.36,5.041 -2.959,7.691 2.237,-1.619 3.888,-4.001 4.816,-6.589 0.39,-1.109 2.126,-0.658 1.78,0.491 -0.458,1.521 -0.947,3.037 -1.382,4.565 l -0.117,0.417 c -0.146,0.526 -0.232,1.008 0.393,1.152 2.014,0.13 4.713,-4.32 5.913,-5.836 0.59,-0.717 1.11,-2.273 2.222,-2.046 1.384,-0.905 3.052,-1.011 4.578,-1.438 z m 44.327,7.001 c 0.23,-0.2 0.512,-0.338 0.817,-0.236 l 0.03,0.011 c 0.92,0.322 0.206,1.583 -0.584,1.139 a 3.223,3.223 0 0 0 -0.88,-0.48 c -0.192,-0.198 0.503,-0.287 0.617,-0.434 z m -42.893,-3.682 c 0.27,-1.272 2.783,0.458 1.89,1.353 -0.85,0.649 -1.818,-0.539 -1.89,-1.353 z m -30.2669997,0.178 c 2.3579997,-1.536 2.6429997,2.182 -0.845,1.096 -0.287,-0.434 0.556,-0.859 0.845,-1.096 z m 60.3739997,-7.653 c 1.29,1.542 1.798,3.557 2.026,5.514 0.052,0.385 0.144,0.81 0.125,1.207 0.88,0.129 1.786,0.163 2.647,-0.01 a 13.992,13.992 0 0 1 -0.424,-2.346 c -1.162,-1.733 -2.499,-3.361 -4.374,-4.365 z m -3.438,4.905 c 0.004,0.212 -0.003,0.425 -0.02,0.639 1.14,0.134 2.262,0.42 3.377,0.698 l -0.007,-0.339 a 32.145,32.145 0 0 0 -0.009,-0.34 c -1.102,0.298 -2.457,-0.01 -3.341,-0.658 z m 2.96,-2.617 c -1.272,-0.515 -2.44,-0.837 -3.809,-0.751 0.405,0.87 0.698,1.783 0.805,2.72 0.557,0.158 1.19,0.203 1.728,0.175 0.546,-0.028 1.05,-0.291 1.57,-0.303 a 13.238,13.238 0 0 0 -0.293,-1.841 z m -12.11,0.435 c 0.805,-0.322 1.991,0.566 1.108,1.262 -0.644,0.436 -1.523,-0.149 -2.046,-0.549 -0.288,-0.33 0.686,-0.653 0.938,-0.713 z m -15.966,-2.96 c -0.349,1.073 -2.644,0.602 -3.696,1.18 l 0.093,0.054 c 1.01,0.589 2.108,1.425 2.296,2.489 a 106.692,106.692 0 0 1 4.043,-1.485 11.655,11.655 0 0 0 -2.736,-2.238 z m 15.593,-1.052005 c -6.039,-2.165 -12.62,-2.101 -18.955,-1.9 l 0.166,0.05 c 2.731,0.829 5.929,2.116 7.352,4.664005 3.732,-1.217 7.55,-2.225 11.437,-2.814005 z m 11.756,1.710005 c -0.929,-1.645005 -2.738,-2.381005 -4.507,-2.257005 l -0.28,0.045 c 0.193,0.068 0.374,0.163 0.537,0.299 0.291,0.242 0.286,0.774005 0.03,1.040005 0.325,0.483 0.631,0.987 0.901,1.508 0.976,-0.681 2.146,-0.779 3.32,-0.635 z m 16.315,0.036 c -2.114,1.241 -3.644,-4.568005 -0.98,-3.320005 l 0.19,0.203 c 0.772,0.833 1.965,2.241005 0.79,3.117005 z m -49.568,-2.720005 c -0.675,0.548 -1.461,0.945 -2.145,1.488 1.124,0.284005 2.23,0.662005 3.275,1.159005 0.851,-0.73 1.876,-1.195005 2.96,-1.523005 -1.3,-0.539 -2.695,-0.898 -4.09,-1.124 z m -27.6799997,0.122 0.01,-0.026 c 0.327,-0.919 2.302,-2.282 3.283,-1.925 0.046,-0.002 0.092,0.042 0.089,0.088 l 0.016,0.114 c 0.055,0.404 0.084,0.8 -0.183,1.16 -0.477,0.77 -0.933,1.729 -1.852,2.029005 -0.905,0.287 -1.68,-0.571005 -1.363,-1.440005 z m 25.4299997,-0.383 -0.303,-0.016 c -1.385,-0.077 -3.38,-0.203 -4.057,1.179 a 16.47,16.47 0 0 1 3.536,0.371 5.386,5.386 0 0 1 0.823,-1.534 z m 7.567,-5.87 c -0.211,-0.403 0.571,0.038 0.753,-0.024 0.337,0.02 0.642,0.09 0.833,0.394 0.306,0.486 -0.288,1.008 -0.757,0.756 -0.451,-0.25 -0.343,-0.9 -0.83,-1.127 z m 26.544,-2.254 0.029,-0.003 c 0.467,-0.052 2.468,-0.507 2.462,-0.012 l -0.038,0.053 c -0.63,0.897 -1.45,2.662 -2.73,2.033 -0.822,-0.469 -0.657,-1.868 0.277,-2.07 z m -13.934,-0.073 c 0.37,-0.68 1.16,0.9 1.396,1.181 0.335,0.75 -0.632,1.335 -1.108,0.648 -0.296,-0.536 -0.428,-1.227 -0.288,-1.829 z m -34.656,-1.561 c 0.53,-0.269 1.873,-0.293 1.505,0.614 -0.715,0.95 -2.028,0.49 -2.83,-0.118 -0.41,-0.472 1.07,-0.28 1.325,-0.496 z m 12.9,-3.521 c -0.049,-0.68 0.71,-0.923 1.22,-0.7 0.913,0.395 1.62,1.853 1.33,2.796 -0.231,0.935 -1.647,1.142 -2.097,0.274 -0.259,-0.801 -0.293,-1.567 -0.454,-2.37 z m 46.98,1.269 c 1.048,-0.222 2.146,-0.924 3.222,-0.727 0.336,0.126 0.458,0.508 0.207,0.785 -0.141,0.639 -4.018,0.497 -3.429,-0.058 z m -30.288,-2.439 c 0.446,-0.809 1.47,-1.667 2.454,-1.597 0.603,-0.02 0.839,0.847 0.307,1.135 l -0.017,0.008 c -0.334,0.133 -2.863,0.782 -2.744,0.454 z m 13.924,-1.304 c -1.51,-0.216 -1.5,-3.845 -0.602,-3.136 0.306,0.89 1.084,1.42 1.529,2.209 0.225,0.541 -0.425,1.08 -0.927,0.927 z m -45.81,-0.803 c 0.642,0.098 3.97,-1.927 3.36,-0.306 -0.396,0.454 -0.899,0.465 -1.462,0.507 l -0.015,-0.001 c -0.29,-0.019 -2.39,0.23 -1.882,-0.2 z m 23.026,-3.296 c -0.666,-0.077 -3.09,-5.14 -1.904,-4.82 l 0.18,0.118 c 1.314,0.867 2.762,1.975 3.348,3.454 0.23,0.882 -0.8,1.813 -1.624,1.248 z m 14.904,-2.082 c 0.096,-0.044 0.18,0.093 0.084,0.144 -0.412,0.219 -0.858,0.681 -1.117,1.071 -0.886,1.108 -1.933,-0.85 -0.572,-0.996 0.496,0.035 1.15,-0.013 1.605,-0.219 z m -28.261,-6.128 c 1.228,-0.316 1.822,1.304 0.832,1.974 -0.496,0.425 -5.151,1.755 -5.43,1.221 0.584,-0.95 3.502,-2.862 4.598,-3.195 z m 46.157,0.227 c 3.402,-0.278 3.493,-0.901 1.09,1.873 -1.418,1.245 -2.856,-1.305 -1.09,-1.873 z m -15.922,-8.292 c -1.18,0.1 -2.364,0.13 -3.547,0.092 0.182,0.39 0.024,0.958 -0.493,0.88 -0.244,1.58 -0.355,3.184 -0.662,4.754 -0.08,0.367 -0.195,0.723 -0.304,1.08 2.252,0.167 4.538,0.074 6.733,-0.483 -0.815,-2.044 -1.169,-4.206 -1.727,-6.323 z m -9.515,-0.674 a 1.12,1.12 0 0 1 -0.135,0.467 c -1.02,1.765 -1.914,3.607 -2.99,5.334 a 28.141,28.141 0 0 0 7.23,1.645 c -0.372,-2.248 -0.041,-4.54 -0.118,-6.807 a 32.138,32.138 0 0 1 -3.987,-0.639 z m 14.925,-0.26 a 29.803,29.803 0 0 1 -3.587,0.725 0.462,0.462 0 0 1 -0.274,0.439 c 0.265,1.973 0.787,3.914 0.794,5.926 2.52,-0.618 4.512,-2.332 6.164,-4.266 l -0.376,-0.274 c -1.004,-0.735 -2.017,-1.52 -2.72,-2.55 z m -23.223,-4.46 c -1.461,-0.897 -3.485,-0.515 -4.668,0.653 -0.525,0.467 -0.98,1.1 -1.577,1.467 a 0.822,0.822 0 0 1 -0.228,0.097 c 0.412,0.777 1.04,1.523 1.572,2.165 2.85,2.488 6.058,4.578 9.584,5.953 0.145,-2.115 0.877,-4.17 1.713,-6.114 a 26.38,26.38 0 0 1 -2.303,-0.811 c -0.097,0.508 -0.573,0.901 -0.875,1.296 -0.684,0.802 -1.14,1.781 -1.792,2.597 -0.726,0.76 -1.959,-0.21 -1.437,-1.11 0.84,-1.226 1.927,-2.337 3.189,-3.173 a 18.388,18.388 0 0 1 -2.393,-1.304 2.284,2.284 0 0 1 -0.1,0.097 c -0.051,-0.316 -0.487,-0.233 -0.719,-0.181 -0.165,-0.14 -0.389,0.036 -0.573,0.082 a 0.777,0.777 0 0 1 -0.066,-0.155 c -0.944,0.933 -1.655,2.41 -2.874,2.968 -0.502,0.139 -1.084,-0.36 -0.893,-0.893 0.323,-0.818 2.938,-2.554 3.802,-3.013 -0.189,-0.275 -0.037,-0.411 0.27,-0.37 0.052,-0.066 0.132,-0.087 0.216,-0.03 0.054,-0.072 0.104,-0.147 0.152,-0.221 z m -18.947,8.219 c 0.593,0.003 1.292,-0.244 1.824,0.098 0.782,0.895 -1.156,1.203 -1.916,0.124 -0.074,-0.081 -0.025,-0.223 0.092,-0.222 z m 43.704,-5.515 c 0.17,0.2 0.227,0.49 0.165,0.752 0.742,1.132 1.149,2.413 1.521,3.686 l 0.105,-0.13 c 1.688,-2.11 2.646,-4.023 -1.066,-4.232 a 9.98,9.98 0 0 0 -0.725,-0.076 z m -35.364,2.97 c -3.065,-2.24 3.531,-1.016 1.63,0.352 -0.584,0.213 -1.145,-0.024 -1.63,-0.353 z"
     clip-rule="evenodd"
     id="path4" />
  <path
     fill="#ffffff"
     fill-rule="evenodd"
     d="m 51.101511,2.7800853 c 6.319,0 14.232,7.207 16.549,10.2739997 1.947,2.58 1.671,15.864 1.671,23.744 0,1.648 -0.745,4.768 -1.015,6.344 -0.991,5.777 -5.31,10.622 -13.855,10.622 -6.959,0 -12.314,-2.204 -17.492,-7.841 -1.181,-1.286 -6.95,3.318 -8.13,1.66 -3.083,0 -5.66,-28.797 0.391,-37.434 6.051,-8.6369997 15.563,-7.3699997 21.881,-7.3699997 z"
     clip-rule="evenodd"
     id="path6" />
  <path
     fill="#000000"
     fill-rule="evenodd"
     d="m 32.110511,4.8080853 c 3.652,-3.322 8.516,-4.91999996 13.423,-4.80199996 2.542,0.062 5.074,0.546 7.475,1.37499996 1.2,0.416 2.363,0.959 3.475,1.573 0.4,0.221 0.77,0.48 1.125,0.755 l 0.089,0.069 c 0.955,0.342 1.806,0.958 2.578,1.678 1.548,-0.124 3.108,0.015 4.605,0.493 2.083,0.665 4.011,1.884 5.366,3.614 1.577,2.0139997 2.102,4.4579997 1.914,6.9799997 l -0.034,0.43 c -0.185,2.227 -0.517,5.093 -2.346,6.558 a 1.43,1.43 0 0 1 -0.451,0.247 c 1.178,2.018 2.145,4.26 2.724,6.523 2.209,8.645 0.51,17.66 -2.146,25.993 -0.218,0.687 -1.256,1.143 -1.785,0.472 -0.943,-1.2 -2.314,-2.114 -3.856,-2.286 -0.952,-0.105 -1.899,0.086 -2.798,-0.346 a 2.56,2.56 0 0 1 -0.938,-0.786 12.114,12.114 0 0 1 -4.774,0.78 c -2.66,-0.11 -5.505,-1.03 -7.335,-3.052 -0.294,-0.324 -0.369,-0.688 -0.3,-1.017 a 3.94,3.94 0 0 1 0.707,-0.18 c 2.321,1.367 4.88,2.282 7.63,2.34 1.589,0.032 3.139,-0.19 4.427,-1.182 a 6.3,6.3 0 0 0 0.772,-0.708 c 2.694,-1.733 4.593,-4.676 5.496,-7.829 0.841,-2.94 0.738,-6.001 0.449,-9.017 l -0.153,-1.591 c -0.222,-2.336 -0.429,-4.678 -0.487,-7.024 h 0.018 c 0.569,-0.037 0.573,-0.928 0,-0.89 -1.482,0.095 -2.953,-0.148 -4.43,-0.042 -0.013,-0.699 -0.064,-1.394 -0.269,-2.068 -0.117,-0.385 -0.787,-0.46 -0.858,0 -0.095,0.617 -0.13,1.23 -0.14,1.849 -2.212,-0.03 -4.42,-0.215 -6.632,-0.139 -0.408,-0.435 -0.538,-1.207 -0.729,-1.743 a 18.534,18.534 0 0 0 -0.084,-0.236 12.592,12.592 0 0 1 -0.718,2.251 l -0.543,0.002 c -3.077,0.015 -6.217,0.107 -9.222,0.746 -0.209,-0.16 -0.333,-0.44 -0.367,-0.695 -0.218,-1.653 -0.529,-3.262 -1.08,-4.837 l -0.08,-0.223 a 8.186,8.186 0 0 1 -0.02,-0.058 12.02,12.02 0 0 1 -1.42,1.836 c -0.31,0.336 -0.638,0.656 -0.973,0.968 -0.326,0.362 -0.662,0.718 -0.989,1.08 0.013,0.067 0.025,0.134 0.034,0.202 0.1,0.753 0.11,1.516 0.037,2.272 a 10.896,10.896 0 0 1 -1.138,3.9 l -0.02,0.122 c -0.094,0.57 -0.227,1.16 -0.54,1.59 0.39,0.438 0.69,0.96 0.865,1.54 0.155,0.516 -0.56,0.964 -0.93,0.541 a 4.315,4.315 0 0 0 -0.98,-0.835 c -0.023,0.03 -0.064,0.046 -0.11,0.02 -1,-0.555 -2.7,-0.387 -3.7,0.136 -1.242,0.65 -1.727,1.984 -1.59,3.336 0.133,1.292 0.698,2.802 1.794,3.464 0.503,0.304 0.895,0.33 1.43,0.184 0.17,-0.047 0.382,-0.189 0.473,-0.26 l 0.09,-0.071 c 0.35,-0.277 0.675,-0.467 1.089,-0.474 0.422,-0.132 0.847,0.051 1.01,0.495 l 0.01,0.028 c 0.075,0.226 0.213,0.51 0.183,0.855 -0.032,0.37 -0.2,0.705 -0.453,0.976 -0.044,0.046 -0.09,0.093 -0.138,0.137 4.35,4.71 4.91,12.05 2.678,17.934 -0.097,0.258 -0.2,0.513 -0.308,0.766 -0.373,0.866 -1.808,0.597 -1.99,-0.26 a 19.087,19.087 0 0 0 -0.595,-2.158 l -0.06,-0.172 c -0.133,-0.378 -0.256,-0.76 -0.39,-1.138 l -0.013,-0.043 a 3.557,3.557 0 0 1 -0.017,-0.06 l -0.226,0.494 -0.686,1.487 c -0.321,0.695 -1.342,0.317 -1.38,-0.352 l -10e-4,-0.023 a 11.867,11.867 0 0 0 -0.47,-3.025 l -0.09,0.113 c -1.34,1.655 -2.911,3.207 -5.067,3.589 -0.541,0.096 -1.153,-0.47 -0.782,-1.016 0.154,-0.226 0.302,-0.457 0.442,-0.692 a 4.863,4.863 0 0 1 -0.341,-0.176 c -0.818,-0.46 -1.5,-1.114 -2.062,-1.856 -1.194,-1.574 -1.622,-3.554 -1.726,-5.493 -0.112,-2.048 0.069,-4.208 0.628,-6.185 0.243,-0.854 0.571,-1.674 0.95,-2.47 l -0.077,-0.214 a 32.469,32.469 0 0 1 -1.025,-3.49 34.024,34.024 0 0 1 -0.902,-7.291 c -0.067,-4.388 0.69,-8.846 2.284,-12.938 1.647,-4.22 4.124,-8.2839997 7.495,-11.3499997 z m -2.05,38.3619997 c -0.303,-0.476 -1.06,-0.047 -0.779,0.433 l 0.01,0.017 c 0.48,0.755 0.705,1.615 0.981,2.457 0.177,0.542 1.037,0.31 0.858,-0.237 l -0.06,-0.183 c -0.274,-0.854 -0.524,-1.722 -1.01,-2.487 z m 2.634,-9.089 0.2,-0.097 c 0.634,-0.303 1.19,-0.509 1.938,-0.245 1.003,0.353 2.077,1.476 1.4,2.565 -0.25,0.402 -0.693,0.562 -1.15,0.468 -0.768,-0.16 -0.967,-0.852 -1.357,-1.421 l -0.067,-0.096 c -0.238,-0.344 -0.54,-0.82 -0.935,-0.955 -0.09,-0.03 -0.128,-0.171 -0.03,-0.219 z m 0.565,-23.13 0.065,-0.058 c 0.43,-0.381 -0.202,-1.0089997 -0.63,-0.63 -1.96,1.732 -2.642,4.444 -3.659,6.755 -0.228,0.52 0.539,0.974 0.769,0.45 0.97,-2.205 1.614,-4.844 3.455,-6.517 z m 23.562,-0.758 c -0.512,-0.2309997 -0.96,0.514 -0.468,0.76 l 0.018,0.009 c 1.732,0.782 2.469,2.554 3.174,4.198 0.225,0.526 0.992,0.073 0.769,-0.448 l -0.127,-0.295 c -0.736,-1.695 -1.595,-3.423 -3.366,-4.224 z m 2.714,-1.0699997 c -0.543,-0.188 -0.776,0.67 -0.237,0.859 1.468,0.5099997 2.475,1.6119997 3.324,2.8719997 0.318,0.472 1.09,0.026 0.768,-0.45 -0.986,-1.462 -2.157,-2.6899997 -3.855,-3.2809997 z"
     clip-rule="evenodd"
     id="path8" />
  <path
     fill="#ffffff"
     fill-rule="evenodd"
     d="m 51.121511,38.582085 c 2.95,0 5.342,-2.093 5.342,-4.674 0,-2.581 -2.392,-4.674 -5.342,-4.674 -2.95,0 -6.142,2.008 -6.142,4.589 0,1.095 0.863,3.009 1.584,3.806 0.978,1.08 2.86,0.953 4.558,0.953 z m 12.714,-0.895 c 2.259,0 4.09,-1.892 4.09,-4.226 0,-2.335 -1.831,-4.227 -4.09,-4.227 -2.258,0 -4.702,1.816 -4.702,4.15 0,0.99 0.66,2.72 1.213,3.441 0.749,0.978 2.19,0.862 3.49,0.862 z"
     clip-rule="evenodd"
     id="path10" />
  <path
     fill="#000000"
     fill-rule="evenodd"
     d="m 51.047511,41.485085 c 0.023,-0.022 0.06,-0.03 0.088,-0.012 0.482,0.305 0.539,1.329 0.544,1.92 0.2,0.052 0.396,0.11 0.582,0.152 0.395,0.087 0.793,0.164 1.189,0.244 l 0.297,0.061 c 0.993,0.21 2.005,0.365 3.017,0.442 0.983,0.075 1.994,0.103 2.973,-0.024 a 7.93,7.93 0 0 0 1.246,-0.266 c 0.48,-0.143 0.863,-0.381 1.31,-0.59 1.118,-0.52 2.056,1.007 0.98,1.677 -0.925,0.575 -2.186,0.782 -3.253,0.871 -1.09,0.091 -2.177,-0.009 -3.254,-0.181 a 17.539,17.539 0 0 1 -3.41,-0.889 c -0.467,-0.175 -0.92,-0.388 -1.36,-0.621 l -0.12,-0.064 -0.227,-0.12 c -0.083,0.737 -0.321,1.45 -0.61,2.134 l -0.006,-0.012 c -0.158,0.54 -0.726,0.875 -1.292,0.636 -0.665,-0.28 -0.715,-1.014 -0.329,-1.536 l 0.019,-0.024 c 0.454,-0.585 0.739,-1.31 0.986,-2.002 0.128,-0.354 0.245,-0.717 0.347,-1.08 0.074,-0.262 0.076,-0.526 0.283,-0.716 z m 17.118,-5.873 c -0.394,1.19 -1.253,2.107 -2.449,2.51 -1.185,0.399 -2.504,0.253 -3.716,0.037 -0.265,-0.047 -0.534,-0.1 -0.802,-0.16 0.22,0.136 0.414,0.327 0.6,0.53 0.273,0.299 0.522,0.614 0.598,0.989 a 0.903,0.903 0 0 1 -0.258,0.867 c -0.332,0.329 -0.865,0.505 -1.318,0.603 -1.013,0.219 -2.027,0.185 -3.035,-0.04 a 0.763,0.763 0 0 1 -0.53,-0.375 c -0.119,-0.218 -0.128,-0.49 -0.06,-0.738 0.068,-0.247 0.215,-0.475 0.43,-0.602 0.175,-0.104 0.396,-0.132 0.646,-0.049 0.502,0.167 1,0.278 1.53,0.29 a 5.886,5.886 0 0 0 1.053,-0.07 9.401,9.401 0 0 1 -0.457,-0.665 7.77,7.77 0 0 1 -0.572,-1.113 9.306,9.306 0 0 1 -0.148,-0.374 l -0.02,-0.054 a 2.968,2.968 0 0 1 -0.82,-1.075 c -0.513,-1.143 -0.43,-2.56 -0.118,-3.747 0.25,-0.95 0.8,-1.83 1.527,-2.427 a 2.45,2.45 0 0 1 0.314,-0.443 c 0.418,-0.435 1.001,-0.728 1.57,-0.907 1.272,-0.398 2.657,-0.112 3.735,0.647 0.995,0.7 1.774,1.752 2.195,2.921 0.399,1.107 0.477,2.322 0.105,3.445 z m -17.32,-7.231 c 1.513,-0.013 3.051,0.434 4.278,1.327 1.174,0.855 2.096,2.117 2.095,3.62 -10e-4,1.465 -0.784,2.904 -1.652,4.037 -0.974,1.273 -2.247,1.886 -3.847,1.9 -0.832,0.008 -1.67,-0.066 -2.496,-0.167 l -0.444,-0.056 c -0.61,-0.079 -1.227,-0.172 -1.805,-0.382 -2.754,-0.998 -2.839,-4.603 -1.819,-6.906 0.787,-1.779 2.78,-3.514 4.768,-3.305 0.299,-0.042 0.606,-0.065 0.923,-0.068 z m 2.555,1.695 c -1.894,-0.85 -4.195,-0.595 -6.032,0.312 -0.727,0.794 -1.26,1.794 -1.474,2.712 -0.23,0.981 -0.197,2.037 0.149,2.987 0.422,1.16 1.46,1.448 2.581,1.626 l 0.435,0.068 0.183,0.028 c 1.1,0.164 2.305,0.292 3.363,0.087 1.179,-0.23 1.928,-1.183 2.517,-2.16 l 0.028,-0.045 c 0.612,-1.023 1.124,-2.268 0.611,-3.44 -0.436,-0.998 -1.39,-1.739 -2.361,-2.175 z m 11.176,0.296 a 2.552,2.552 0 0 0 -2.092,-0.184 c -0.302,0.103 -0.563,0.271 -0.816,0.46 l -0.101,0.076 c -0.311,0.239 -0.602,0.36 -0.835,0.682 l -0.03,0.044 a 0.532,0.532 0 0 1 -0.511,0.222 5.63,5.63 0 0 0 -0.311,1.897 v 0.085 l 0.001,0.087 c 0.014,0.758 0.147,1.686 0.743,2.194 0.545,0.464 1.37,0.575 2.105,0.64 l 0.567,0.047 0.15,0.011 c 0.776,0.055 1.626,0.036 2.277,-0.423 0.566,-0.4 0.833,-1.079 0.902,-1.75 0.164,-1.583 -0.638,-3.306 -2.049,-4.088 z m -14.145,0.146 a 3.033,3.033 0 0 1 3.179,0.269 0.884,0.884 0 0 0 -0.233,0.073 c -0.2,0.1 -0.325,0.302 -0.372,0.516 a 0.456,0.456 0 0 0 0.31,0.548 c 0.209,0.066 0.455,0.096 0.648,-0.03 a 0.57,0.57 0 0 0 0.218,-0.263 l 0.007,-0.016 0.008,-0.012 0.003,-0.005 c 0,-0.003 -0.003,10e-4 -0.009,0.01 a 1.23,1.23 0 0 0 0.017,-0.04 0.493,0.493 0 0 0 0.023,-0.051 0.47,0.47 0 0 0 0.031,-0.032 c 0.16,0.247 0.287,0.526 0.367,0.836 0.513,1.992 -1.592,4.058 -3.473,4.265 a 2.945,2.945 0 0 1 -1.897,-0.425 l 0.015,-0.02 c 0.216,0.04 0.474,-0.057 0.552,-0.298 0.2,-0.615 -0.005,-1.334 -0.675,-1.535 -0.43,-0.13 -0.872,0.014 -1.18,0.308 a 3.391,3.391 0 0 1 -0.206,-1.855 c 0.155,-0.907 0.703,-1.725 1.554,-2.102 0.415,-0.184 0.773,-0.223 1.113,-0.14 z m 10.982,1.229 0.031,-0.05 c 0.323,-0.496 0.938,-1.104 1.577,-0.937 0.09,0.023 0.177,0.061 0.257,0.11 0.35,-0.047 0.718,0.032 1.02,0.218 l -0.009,0.02 a 0.489,0.489 0 0 0 0.041,0.354 c 0.062,0.12 0.149,0.234 0.267,0.303 a 0.52,0.52 0 0 0 0.269,0.07 0.535,0.535 0 0 0 0.356,-0.155 0.426,0.426 0 0 0 0.112,-0.198 c 0.049,0.047 0.096,0.1 0.141,0.158 0.74,0.973 0.638,2.537 -0.23,3.405 -0.035,0.035 -0.073,0.066 -0.11,0.099 a 2.16,2.16 0 0 1 -1.548,0.881 2.326,2.326 0 0 1 -1.672,-0.483 0.36,0.36 0 0 0 0.102,-0.08 1.09,1.09 0 0 0 0.227,-0.37 l 0.016,-0.043 a 0.53,0.53 0 0 0 0.021,-0.066 l -0.001,0.003 0.008,-0.02 c 0.083,-0.208 0.05,-0.444 -0.147,-0.574 l -0.022,-0.014 a 0.453,0.453 0 0 0 -0.224,-0.055 c -0.201,-0.246 -0.5,-0.302 -0.781,-0.23 l -0.01,-0.08 a 1.05,1.05 0 0 1 -0.004,-0.04 2.747,2.747 0 0 1 0.313,-2.226 z m -9.659,-7.26 0.072,-0.012 c 0.546,-0.08 0.918,0.012 1.273,0.479 0.17,0.222 0.117,0.558 0,0.785 -0.378,0.735 -1.418,0.583 -2.119,0.729 -0.684,0.142 -1.366,0.336 -2.007,0.618 -0.653,0.288 -1.266,0.628 -1.863,1.017 -0.541,0.352 -1.032,0.88 -1.65,1.085 -0.027,0.009 -0.06,-0.016 -0.059,-0.045 0.044,-0.703 0.631,-1.348 1.086,-1.848 a 8.514,8.514 0 0 1 1.83,-1.5 9.932,9.932 0 0 1 2.199,-1.01 c 0.405,-0.128 0.82,-0.23 1.238,-0.299 z m 8.321,0.953 c 0.688,-1.006 2.397,-0.813 3.406,-0.544 1.265,0.337 2.635,1.018 3.522,2.003 0.795,0.884 -0.394,2.031 -1.287,1.288 l -0.239,-0.198 -0.152,-0.125 c -0.686,-0.56 -1.365,-1.067 -2.201,-1.44 -0.98,-0.438 -1.973,-0.651 -3.008,-0.885 -0.041,-0.009 -0.065,-0.064 -0.041,-0.1 z"
     clip-rule="evenodd"
     id="path12" />
</svg>
