<?xml version="1.0" encoding="UTF-8" standalone="no"?>
<svg
   xmlns:dc="http://purl.org/dc/elements/1.1/"
   xmlns:cc="http://creativecommons.org/ns#"
   xmlns:rdf="http://www.w3.org/1999/02/22-rdf-syntax-ns#"
   xmlns:svg="http://www.w3.org/2000/svg"
   xmlns="http://www.w3.org/2000/svg"
   xmlns:sodipodi="http://sodipodi.sourceforge.net/DTD/sodipodi-0.dtd"
   xmlns:inkscape="http://www.inkscape.org/namespaces/inkscape"
   width="87.221367"
   height="120.76544"
   fill="none"
   viewBox="0 0 87.221367 120.76544"
   version="1.1"
   id="svg24"
   sodipodi:docname="crew1.svg"
   inkscape:version="1.0.2-2 (e86c870879, 2021-01-15)">
  <metadata
     id="metadata30">
    <rdf:RDF>
      <cc:Work
         rdf:about="">
        <dc:format>image/svg+xml</dc:format>
        <dc:type
           rdf:resource="http://purl.org/dc/dcmitype/StillImage" />
        <dc:title></dc:title>
      </cc:Work>
    </rdf:RDF>
  </metadata>
  <defs
     id="defs28" />
  <sodipodi:namedview
     pagecolor="#ffffff"
     bordercolor="#666666"
     borderopacity="1"
     objecttolerance="10"
     gridtolerance="10"
     guidetolerance="10"
     inkscape:pageopacity="0"
     inkscape:pageshadow="2"
     inkscape:window-width="1920"
     inkscape:window-height="1001"
     id="namedview26"
     showgrid="false"
     inkscape:zoom="6.2096076"
     inkscape:cx="43.328577"
     inkscape:cy="58.766437"
     inkscape:window-x="-9"
     inkscape:window-y="-9"
     inkscape:window-maximized="1"
     inkscape:current-layer="svg24" />
  <path
     fill="#ffffff"
     d="m 48.627577,73.813437 h 25.483 v 31.380003 h -25.483 z"
     id="path2" />
  <path
     fill="#ffffff"
     fill-rule="evenodd"
     d="m 41.195577,43.119437 c 2.746,-2.092 9.643,-3.032 12.574,-1.018 2.896,2.022 3.212,5.293 4.561,8.302 1.273,-0.6 3.376,0.26 3.745,1.44 0.458,0.558 0.478,2.123 0.794,2.872 13.736,2.186 15.822,12.896 17.475,25.054 2.187,12.337 7.153,24.647003 4.997,37.343003 0.28,0.406 0.502,0.801 0.707,1.27 0.49,0.835 -0.141,2.017 -1.13,1.971 -1.282,-0.113 -2.55,-0.266 -3.837,-0.314 -3.567,-0.124 -7.138,-0.109 -10.707,-0.064 l -0.487,0.006 c -17.986,0.224 -35.971,0.666 -53.958,0.783 -0.653,0 -0.972,-0.585 -0.885,-1.162 0.175,-1.162 0.338,-2.325 0.508,-3.488 -4.254,1.124 -8.7769996,1.406 -13.0199996,0.118 -0.296,-0.302 0.692,-0.138 0.849,-0.184 -3.904,-2.668 -2.738,-8.288 -2.393,-12.337 2.151,-13.870003 2.91,-29.218003 11.2179996,-41.054003 3.595,-4.83 8.865,-8.655 14.92,-9.515 l 0.168,-0.023 c 1.771,-0.236 3.745,-0.312 5.293,-1.276 1.74,-1.39 2.483,-3.958 4.315,-3.982 0.605,-0.008 1.427,0.757 2.313,1.277 0.066,-1.143 0.682,-2.108 0.818,-2.994 l 0.01,-0.075 c 0.143,-1.034 -0.052,-1.963 1.151,-2.95 z m 29.52,37.016 c -3.86,-2.682 -13.832,-1.334 -14.06,-1.184 -0.503,0.33 -0.72,0.36 -0.991,0.79 -0.269,0.035 -0.537,0.072 -0.805,0.11 -0.537,0.175 -0.139,0.837 0.482,0.6 -0.373,1.611 0.726,2.757 1.163,4.35 0.142,0.516 0.005,1.446 0,1.974 0.043,0.674 0.787,1.47 0.663,2.145 -0.441,2.403 -2.836,4.746 -1.826,7.076 0.669,1.316 2.68,1.987 4.018,2.434 2.77,1.063 7.598,-0.04 9.208,-2.434 0.858,-1.277 1.853,-4.498 2.365,-5.498 l 0.114,-1.585 c 0.28,-3.94 0.528,-8.181 -0.33,-8.778 z"
     clip-rule="evenodd"
     id="path4" />
  <path
     fill="#f1f1f1"
     fill-rule="evenodd"
     d="m 36.758577,47.869437 1.105,0.678 6.417,3.172 c 1.244,0.348 1.865,0.766 1.865,1.252 v 4.954 c 0,0.663 1.168,2.166 3.502,4.508 l 2.157,-2.15 -0.048,-0.282 c -0.206,-1.213 -0.308,-2.024 -0.308,-2.434 0,-0.44 2.11,-2.114 6.33,-5.02 l 1.846,-1.738 -0.197,-0.598 c 1.139,0.054 2.373,0.755 2.648,1.634 0.457,0.557 0.478,2.122 0.794,2.871 13.736,2.187 15.822,12.896 17.475,25.054 2.187,12.337 7.153,24.648003 4.997,37.343003 0.28,0.406 0.502,0.801 0.707,1.27 0.49,0.835 -0.141,2.017 -1.13,1.971 -1.282,-0.112 -2.55,-0.266 -3.837,-0.314 -3.567,-0.124 -7.138,-0.109 -10.707,-0.064 l -0.487,0.007 c -17.986,0.224 -35.971,0.665 -53.958,0.782 -0.653,0.001 -0.972,-0.584 -0.885,-1.162 0.175,-1.162 0.338,-2.325 0.508,-3.488 -4.254,1.124 -8.7769996,1.407 -13.0199996,0.118 -0.296,-0.302 0.692,-0.138 0.849,-0.184 -3.904,-2.668 -2.738,-8.288 -2.393,-12.336 2.151,-13.871003 2.91,-29.218003 11.2179996,-41.055003 3.595,-4.83 8.865,-8.654 14.92,-9.515 l 0.168,-0.023 0.17,-0.022 c 1.726,-0.22 3.624,-0.32 5.123,-1.253 1.695,-1.354 2.443,-3.824 4.172,-3.976 z m 15.375,29.078 c -0.63,0 -1.919,0.977 -3.867,2.932 l -0.171,0.08 c -2.356,1.093 -3.916,2.042 -4.681,2.846 l -0.027,0.029 c -0.774,0.83 -2.305,3.035 -4.593,6.617 l -3.315,1.96 h -1.254 l -0.893,6.476 2.147,4.625003 4.863,-1.638 7.924,-2.089003 4.547,-4.613 2.565,-0.861 c -0.311,0.899 -0.424,1.794 -0.037,2.686 0.669,1.316 2.68,1.987 4.018,2.434 2.77,1.064 7.598,-0.04 9.208,-2.434 0.858,-1.277 1.853,-4.498 2.365,-5.497 l 0.147,-2.06 c 0.265,-3.799 0.461,-7.73 -0.364,-8.303 -3.86,-2.682 -13.832,-1.335 -14.06,-1.185 -0.503,0.331 -0.72,0.36 -0.991,0.79 l -0.14,0.018 0.79,-1.073 -0.28,-0.15 c -2,-1.06 -3.3,-1.59 -3.901,-1.59 z m 3.208,3.506 c -0.358,1.542 0.635,2.658 1.104,4.147 l -1.2,-2.295 v -1.822 a 0.815,0.815 0 0 0 0.096,-0.03 z"
     clip-rule="evenodd"
     id="path6" />
  <path
     fill="#000000"
     fill-rule="evenodd"
     d="m 36.229577,47.629437 c 0.266,-0.236 0.66,0.06 0.491,0.38 -0.38,0.716 -0.77,1.395 -1.281,2.029 -0.31,0.384 -0.642,0.747 -0.978,1.106 0.863,0.746 1.603,1.673 2.302,2.541 0.893,1.11 1.738,2.269 2.74,3.285 a 8.74,8.74 0 0 0 3.406,2.17 l 0.267,0.093 c 1.328,0.466 2.748,1.096 3.497,2.354 0.148,0.248 -0.15,0.554 -0.4,0.4 -1.3,-0.806 -2.83,-0.968 -4.246,-1.5 -1.368,-0.515 -2.56,-1.306 -3.614,-2.316 -1.053,-1.008 -1.936,-2.156 -2.857,-3.279 -0.911,-1.11 -1.892,-2.059 -2.97,-2.998 -1.663,1.119 -3.562,1.605 -5.492,2.084 l -0.21,0.052 c -1.933,0.478 -3.856,1.034 -5.669,1.867 -1.598,0.735 -3.17,1.612 -4.473,2.807 -1.382,1.269 -2.458,2.89 -3.443,4.474 -2.202,3.544 -3.7509996,7.428 -5.1139996,11.359 a 117.305,117.305 0 0 0 -3.562,12.479 88.113,88.113 0 0 0 -1.207,6.485 97.378,97.378 0 0 0 -0.418,3.152 c -0.13,1.125 -0.16,2.282 -0.505,3.363003 -0.148,0.463 -0.497,0.655 -0.846,0.639 l -0.071,0.888 a 65.407,65.407 0 0 0 -0.212,3.559 61.255,61.255 0 0 0 0.116,5.932 l 0.02,0.269 c 0.112,1.443 0.362,3.063 1.447,4.119 1.123,1.094 2.85,1.438 4.364,1.458 3.5259996,0.046 6.9199996,-1.62 10.0399996,-3.082 a 108.525,108.525 0 0 0 9.39,-4.988 140.743,140.743 0 0 0 4.608,-2.858 117.13,117.13 0 0 0 2.218,-1.469 c 0.42,-0.285 0.819,-0.598 1.247,-0.851 -0.21,-0.195 -0.304,-0.502 -0.128,-0.77 -1.237,-1.073 -1.752,-2.989003 -1.812,-4.539003 -0.049,-1.252 0.136,-2.499 0.28,-3.739 a 56.94,56.94 0 0 1 0.259,-1.871 c 0.037,-0.246 0.065,-0.509 0.109,-0.769 a 102.095,102.095 0 0 1 -10.298,4.922 81.253,81.253 0 0 1 -5.49,2.027 l -0.377,0.124 c -1.757,0.575 -3.557,1.119003 -5.374,1.448003 -0.097,0.017 -0.176,-0.126 -0.072,-0.172 1.77,-0.781003 3.603,-1.440003 5.4,-2.160003 l 0.295,-0.12 a 0.588,0.588 0 0 1 -0.106,-0.016 c -1.054,-0.254 -2.1,-0.646 -3.133,-0.976 -0.96,-0.306 -2.038,-0.499 -2.934,-0.961 -0.07,-0.036 -0.03,-0.132 0.037,-0.136 1.007,-0.07 2.102,0.224 3.09,0.396 l 0.371,0.065 c 0.622,0.11 1.258,0.228 1.877,0.382 a 0.795,0.795 0 0 1 0.303,-0.538 c 1.813,-1.343 1.629,-4.055 1.823,-6.056 l 0.144,-1.485 c 0.253,-2.599 0.52,-5.197 0.927,-7.777 0.022,-0.137 0.235,-0.098 0.236,0.032 0.02,3.198 -0.22,6.38 -0.342,9.573 l -0.018,0.524 c -0.067,1.97 -0.12,4.015 -1.36,5.531 0.173,-0.101 0.408,-0.101 0.548,0.066 0.173,0.205 0.273,0.436 0.27,0.663 1.12,-0.47 2.237,-0.953 3.348,-1.445 a 122.74,122.74 0 0 0 10.471,-5.268 c 0.366,-0.206 0.715,-0.044 0.896,0.228 l 0.026,-0.004 0.013,-0.001 0.026,-10e-4 h 0.003 c 0.48,-0.264 1.132,-0.076 1.543,0.308 a 0.37,0.37 0 0 1 0.033,0.036 5.505,5.505 0 0 0 1.448,-0.949 c 0.903,-0.818 1.668,-1.83 2.334,-2.844 1.227,-1.868 2.27,-3.946 3.928,-5.484 1.348,-1.25 3.018,-2.028 4.77,-2.516 a 0.173,0.173 0 0 1 0.048,-0.142 c 0.09,-0.092 0.154,-0.124 0.27,-0.068 0.01,0.004 0.015,0.01 0.019,0.017 l 0.17,-0.292 c 0.094,-0.158 0.19,-0.318 0.223,-0.36 0.2,-0.25 0.404,-0.499 0.612,-0.742 0.352,-0.412 0.754,-0.82 1.219,-1.105 1.018,-0.625 2.088,-0.271 3.135,0.07 0.633,0.207 1.263,0.42 1.895,0.63 l 0.065,0.022 c 0.47,0.15 1.021,0.283 1.232,0.782 0.083,0.197 0.096,0.402 0.057,0.6 4.472,-1.136 9.439,-0.614 13.802,0.721 0.168,0.051 0.335,0.189 0.37,0.37 0.5,2.564 0.723,5.193 0.496,7.801 -0.195,2.25 -0.694,4.457 -1.633,6.518 l -0.054,0.116 c -0.883,1.91 -2.283,4.264 -4.42,4.863 -1.292,0.361 -2.72,0.148 -4.036,0.082 -1.28,-0.065 -2.588,-0.074 -3.855,-0.275 -1.13,-0.179 -2.118,-0.685 -2.816,-1.603 -0.602,-0.792 -0.919,-1.749 -1.178,-2.701 a 6.244,6.244 0 0 0 -0.353,0.123 c -0.49,0.192 -0.906,0.501 -1.282,0.865 -0.793,0.768 -1.408,1.701 -2.238,2.434 a 9.446,9.446 0 0 1 -2.526,1.577 c -1.903,0.822003 -3.945,1.151003 -5.958,1.586003 l -0.14,0.031 c -1.515,0.333 -3.062,0.741 -4.4,1.53 a 0.91,0.91 0 0 1 -0.301,0.594 c 0.235,0.221 0.335,0.572 0.128,0.901 -0.579,0.919 -1.576,1.442 -2.472,2.03 l -0.058,0.038 a 107.883,107.883 0 0 1 -8.23,4.965 134.027,134.027 0 0 1 -9.285,4.637 c 0.19,0.931 0.12,1.891 0.263,2.829 l 0.022,0.133 c 0.06,0.348 -0.022,0.639 -0.261,0.867 l -0.026,0.023 v -0.003 l -0.022,0.02 -0.007,0.007 0.002,-0.002 a 0.84,0.84 0 0 1 -0.085,0.069 l -0.037,0.023 a 0.785,0.785 0 0 1 -0.764,0.015 l -0.027,-0.015 -0.046,-0.026 c -0.312,-0.179 -0.527,-0.624 -0.398,-0.978 0.319,-0.869 0.44,-1.796 0.733,-2.67 l -0.233,0.104 -0.308,0.134 c -3.324,1.437 -7.0169996,2.648 -10.6399996,1.668 -1.6,-0.433 -3.097,-1.349 -3.898,-2.843 -0.788,-1.469 -0.899,-3.176 -0.94,-4.81 a 38.733,38.733 0 0 1 0.322,-6.067 c 0.178,-1.342 0.394,-2.71 0.728,-4.039 a 1.002,1.002 0 0 1 -0.331,-0.637003 c -0.157,-1.269 0.118,-2.588 0.286,-3.851 0.165,-1.233 0.347,-2.463 0.552,-3.69 a 126.94,126.94 0 0 1 1.46,-7.396 c 1,-4.357 2.319,-8.636 3.908,-12.813 l 0.14,-0.364 c 1.467,-3.817 3.1679996,-7.554 5.5349996,-10.908 1.132,-1.604 2.33,-3.06 3.93,-4.216 1.499,-1.083 3.19,-1.863 4.935,-2.46 a 28.426,28.426 0 0 1 5.37,-1.244 c 1.856,-0.253 3.815,-0.408 5.546,-1.17 -0.22,-0.392 -0.031,-0.922 0.337,-1.165 1.24,-0.82 2.387,-1.886 3.499,-2.87 z m 39.705,35.634 c 0.052,-0.08 0.175,-0.03 0.152,0.064 -0.603,2.471 -1.17,4.948 -1.54,7.466 -0.667,4.546 -0.544,9.151 -0.49,13.730003 l 0.004,0.237 c 0.028,2.467 0.067,4.934 0.148,7.399 0.041,1.246 0.123,2.505 0.078,3.751 -0.024,0.677 -0.204,1.316 -0.268,1.985 -0.056,0.584 -0.006,1.177 0.022,1.762 0.019,0.389 -0.556,0.373 -0.595,0 l -0.05,-0.481 c -0.064,-0.61 -0.145,-1.216 -0.344,-1.799 -0.24,-0.702 -0.356,-1.392 -0.44,-2.128 -0.127,-1.13 -0.184,-2.27 -0.233,-3.407 l -0.034,-0.787 c -0.206,-4.752 -0.198,-9.526 0.135,-14.273003 l 0.024,-0.339 c 0.33,-4.487 0.902,-9.336 3.43,-13.18 z m -12.86,-28.281 c -0.157,-0.065 -0.102,-0.303 0.073,-0.262 l 0.317,0.076 c 2.325,0.557 4.608,1.16 6.779,2.196 2.171,1.037 4.01,2.585 5.47,4.489 2.84,3.7 4.02,8.197 4.952,12.69 1.035,4.991 1.978,10.001 3.022,14.992 l 0.194,0.93 c 0.967,4.648 1.879,9.298 2.551,14.001003 l 0.049,0.341 c 0.677,4.837 1.085,9.841 0.346,14.689 -0.147,0.96 -1.743,0.721 -1.68,-0.227 0.18,-2.74 0.309,-5.466 0.184,-8.212 a 87.019,87.019 0 0 0 -0.767,-8.204 c -0.323,-2.291 -0.805,-4.554003 -1.23,-6.827003 l -0.068,-0.359 c -0.357,-1.933 -0.725,-3.864 -1.092,-5.796 l -0.549,-2.892 c -0.822,-4.33 -1.66,-8.664 -2.608,-12.967 l -0.056,-0.253 c -0.928,-4.14 -2.295,-8.476 -5.076,-11.763 -2.823,-3.337 -6.863,-5.017 -10.81,-6.642 z m -10.255,43.91 c 0.068,-0.151 0.305,-0.135 0.378,0 0.286,0.528 0.318,1.201003 0.372,1.797003 l 0.006,0.061 c 0.068,0.727 0.13,1.457 0.167,2.186 0.07,1.384 0.104,2.767 0.1,4.153 a 83.703,83.703 0 0 1 -0.11,4.257 l -0.02,0.38 c -0.07,1.232 -0.188,2.607 -0.773,3.685 -0.213,0.391 -0.792,0.276 -0.916,-0.12 -0.404,-1.297 -0.196,-2.835 -0.093,-4.163 l 0.081,-1.037 c 0.08,-1.037 0.156,-2.074 0.216,-3.112 0.082,-1.42 0.15,-2.841 0.216,-4.261 0.021,-0.462 0.044,-0.923 0.069,-1.385 l 0.037,-0.692 c 0.032,-0.579 0.03,-1.214003 0.27,-1.749003 z m -45.4179996,1.838003 0.179,-0.173 c 0.549,-0.537 1.242,-1.364003 2.054,-1.313003 0.323,0.021 0.5299996,0.289 0.4629996,0.608 -0.1439996,0.680003 -0.8379996,1.033003 -1.3379996,1.449003 -0.547,0.455 -1.063,0.941 -1.578,1.432 a 31.11,31.11 0 0 0 -1.325,1.345 l -0.16,0.174 c -0.154,0.168 -1.25,1.158 -1.13,1.415 l 0.006,0.011 c 0.033,0.05 -0.022,0.117 -0.077,0.1 -0.473,-0.149 -0.443,-0.555 -0.264,-0.965 0.343,-0.789 0.944,-1.518 1.47,-2.192 a 18.465,18.465 0 0 1 1.7,-1.891 z M 54.531577,80.950437 c -0.365,-0.864 -1.711,-0.846 -2.476,-0.794 -1.925,0.13 -4.008,0.617 -5.72,1.517 -1.777,0.933 -2.973,2.428 -4.043,4.08 l -0.05,0.078 c -1.044,1.622 -2.048,3.541 -3.682,4.656 -0.832,0.568 -1.803,1.087 -2.813,1.312 a 0.515,0.515 0 0 1 -0.329,0.253 l -0.068,0.016 c -0.288,0.063 -0.734,0.133 -1.12,0.091 0.002,0.19 0,0.376 0.005,0.555 0.014,0.513 0.02,1.027 0.02,1.54 0,1.075 -0.058,2.151 -0.013,3.225 0.04,0.951 0.174,1.943 0.63,2.793003 0.335,0.623 0.776,1.035 1.31,1.429 1.31,-0.799 2.794,-1.286 4.3,-1.653 1.82,-0.443003 3.683,-0.738003 5.462,-1.339003 0.856,-0.289 1.68,-0.668 2.425,-1.182 0.792,-0.546 1.396,-1.284 2.018,-2.006 l 0.098,-0.113 c 0.634,-0.728 1.327,-1.424 2.224,-1.819 0.773,-0.34 1.791,-0.401 2.467,-0.927 0.353,-0.275 0.382,-0.674 0.42,-1.084 -0.433,0.062 -0.891,-0.037 -1.322,-0.087 l -0.224,-0.027 a 9.01,9.01 0 0 1 -1.207,-0.205 c -0.075,-0.02 -0.075,-0.132 0,-0.151 0.474,-0.123 0.944,-0.175 1.43,-0.232 l 0.115,-0.014 c 0.44,-0.058 0.902,-0.145 1.334,-0.048 a 3.65,3.65 0 0 1 0.346,-0.858 c 0.22,-0.395 0.637,-0.844 0.694,-1.306 a 0.756,0.756 0 0 0 -0.08,-0.424 l -0.023,-0.041 a 0.35,0.35 0 0 0 -0.108,-0.13 c -0.005,0.007 -0.016,0.014 -0.04,0.021 -0.332,0.105 -0.622,-0.058 -0.776,-0.308 -0.653,0.08 -1.365,0.054 -1.977,0.08 l -0.62,0.03 c -0.66,0.03 -1.352,0.044 -1.974,-0.09 -0.087,-0.018 -0.113,-0.163 -0.026,-0.2 0.764,-0.326 1.691,-0.43 2.51,-0.556 0.456,-0.07 0.916,-0.124 1.374,-0.186 0.306,-0.04 0.63,-0.109 0.946,-0.125 0.792,-0.987 0.365,-2.543 -0.738,-2.968 -0.402,0.176 -0.763,0.074 -1.202,0.036 a 14.71,14.71 0 0 0 -1.318,-0.061 c -0.881,0.004 -1.816,0.235 -2.689,0.136 -0.142,-0.017 -0.274,-0.206 -0.132,-0.321 0.668,-0.545 1.626,-0.723 2.474,-0.84 l 0.176,-0.023 c 0.284,-0.037 0.63,-0.092 0.989,-0.124 a 0.564,0.564 0 0 1 0.445,-0.308 c 0.065,-0.008 0.13,-0.014 0.196,-0.02 l -10e-4,-0.006 c 0.533,-0.025 0.51,-0.926 0.364,-1.272 z m -36.506,16.851 a 0.489,0.489 0 0 1 -0.03,0.041 l -0.018,0.02 0.088,-0.036 z m 45.813,-18.781 c -2.245,-0.242 -4.492,-0.19 -6.743,-0.126 -0.18,0.589 -0.807,1.09 -1.414,1.11 0.475,0.724 0.524,1.703 0.19,2.471 a 3.196,3.196 0 0 1 1.69,1.51 c 0.513,0.999 0.446,2.111 -0.062,3.035 0.433,0.392 0.689,1.03 0.663,1.63 -0.028,0.669 -0.427,1.24 -0.759,1.795 -0.358,0.599 -0.37,1.127 -0.48,1.798 -0.161,0.982 -0.824,1.578 -1.676,1.95 l 0.045,0.178 c 0.22,0.856 0.493,1.759 1.122,2.384 0.808,0.805 2.061,0.797 3.129,0.848 l 0.052,0.003 c 0.977,0.049 1.954,0.106 2.932,0.161 l 0.733,0.042 c 1.125,0.061 2.206,0.069 3.124,-0.675 1.5,-1.214 2.528,-3.224 3.179,-5.003 1.366,-3.734 1.382,-7.832 0.755,-11.72 a 32.512,32.512 0 0 0 -6.48,-1.391 z m -18.666,6.195 h 0.017 c 0.462,0.053 0.78,0.428 0.892,0.872 0.165,0.645 0.084,1.228 0.48,1.81 0.406,0.6 0.656,1.079 0.715,1.819 0.024,0.304 0.013,0.608 0.08,0.906 l 0.05,0.209 c 0.052,0.222 0.095,0.437 0.069,0.676 -0.024,0.218 -0.13,0.388 -0.349,0.458 -0.712,0.228 -1.262,-0.297 -1.447,-0.962 -0.159,-0.573 0.054,-1.256 -0.17,-1.795 -0.125,-0.299 -0.354,-0.548 -0.483,-0.849 a 2.777,2.777 0 0 1 -0.214,-0.933 c -0.039,-0.612 0.503,-1.348 0.2,-1.903 -0.064,-0.119 0.01,-0.312 0.16,-0.308 z m -9.464,-6.32 c 0.482,-0.099 1.03,-0.324 1.506,-0.137 0.244,0.096 0.365,0.394 0.158,0.602 -0.358,0.36 -0.88,0.38 -1.363,0.464 l -0.043,0.008 a 90.6,90.6 0 0 1 -1.717,0.301 77.22,77.22 0 0 1 -3.244,0.47 81.758,81.758 0 0 1 -3.35,0.354 l -0.433,0.035 c -0.945,0.076 -1.928,0.133 -2.856,-0.012 -0.134,-0.021 -0.113,-0.217 0,-0.252 1.016,-0.307 2.13,-0.39 3.18,-0.52 a 107.178,107.178 0 0 0 6.667,-1.023 c 0.499,-0.093 0.997,-0.19 1.495,-0.29 z m 17.41,-0.988 c -0.424,-0.15 -0.89,-0.372 -1.348,-0.298 -0.791,0.128 -1.496,0.9 -2.122,1.407 l 0.315,-0.061 c 1.609,-0.31 3.74,-0.643 5.09,0.38 l 0.01,-0.017 a 2.99,2.99 0 0 1 0.373,-0.437 l 0.039,-0.038 0.074,-0.08 -0.17,-0.058 c -0.364,-0.13 -0.796,-0.295 -0.864,-0.32 l -0.005,-10e-4 c -0.465,-0.158 -0.93,-0.313 -1.392,-0.477 z m -13.22,-33.726 c -0.066,-0.851 1.259,-0.844 1.325,0 a 9.406,9.406 0 0 1 -1.165,5.287 l -0.02,0.034 c 0.558,0.29 1.123,0.57 1.7,0.819 0.739,0.319 1.492,0.609 2.258,0.855 0.693,0.223 1.547,0.311 2.13,0.775 1.228,0.979 0.766,3.009 0.53,4.325 l -0.037,0.208 c -0.117,0.677 -0.203,1.372 0.083,2.022 0.305,0.694 0.921,1.21 1.471,1.706 l 0.111,0.1 c 0.488,0.445 1.045,0.984 1.402,1.586 0.326,-0.675 0.771,-1.226 1.241,-1.847 0.336,-0.442 0.097,-0.588 -0.144,-1.021 -0.232,-0.417 -0.345,-0.86 -0.273,-1.335 0.134,-0.878 0.835,-1.512 1.533,-1.988 0.824,-0.562 1.744,-0.978 2.596,-1.501 1.751,-1.074 3.456,-2.303 4.993,-3.667 0.042,-0.038 0.115,0.012 0.082,0.063 -1.214,1.846 -2.637,3.441 -4.386,4.795 -0.709,0.549 -1.454,1.004 -2.204,1.483 l -0.215,0.138 c -0.301,0.195 -0.677,0.456 -0.813,0.788 -0.137,0.334 0.155,0.586 0.313,0.863 0.499,0.878 0.258,1.698 -0.334,2.443 l -0.028,0.034 c -0.588,0.725 -1.034,1.4 -1.247,2.325 -0.458,1.99 0.18,4.062 0.848,5.93 l 0.026,0.073 c 0.362,1.006 0.746,2.006 1.06,3.029 l 0.086,0.282 c 0.285,0.941 0.517,1.87 0.198,2.837 -0.108,0.329 -0.557,0.407 -0.743,0.097 -0.658,-1.092 -0.822,-2.406 -1.234,-3.607 -0.402,-1.17 -0.863,-2.32 -1.25,-3.494 -0.5,-1.513 -0.835,-3.142 -0.653,-4.728 -0.006,-0.01 -0.012,-0.018 -0.016,-0.028 l -0.127,-0.278 c -0.347,-0.754 -0.682,-1.412 -1.313,-2.012 -0.658,-0.626 -1.372,-1.18 -1.89,-1.94 -1.124,-1.646 -0.428,-3.478 -0.293,-5.28 l 0.016,-0.22 c 0.025,-0.374 0.038,-0.882 -0.206,-1.14 -0.275,-0.292 -0.92,-0.367 -1.284,-0.495 a 20.697,20.697 0 0 1 -2.754,-1.189 17.541,17.541 0 0 1 -2.417,-1.509 l -0.384,-0.29 c -0.607,-0.458 -1.237,-0.958 -1.644,-1.581 -0.047,-0.072 0.033,-0.188 0.118,-0.154 0.68,0.276 1.3,0.715 1.935,1.096 a 0.782,0.782 0 0 1 0.035,-0.07 c 0.786,-1.423 1.11,-3 0.984,-4.618 z m 21.697,9.75 c 0.27,-0.742 1.504,-0.684 1.455,0.197 -0.038,0.678 -0.325,1.29 -0.588,1.904 l -0.028,0.066 a 12.356,12.356 0 0 1 -0.96,1.83 c -0.718,1.123 -1.557,2.165 -2.454,3.148 -0.814,0.892 -1.881,1.437 -3.111,1.346 -0.518,-0.038 -1.041,-0.17 -1.495,-0.429 -0.54,-0.307 -1.126,-1.23 -1.814,-1.007 -0.066,0.022 -0.128,-0.076 -0.07,-0.122 0.794,-0.64 1.695,0.352 2.456,0.591 1.146,0.36 2.322,-0.038 3.06,-0.964 0.77,-0.968 1.479,-2.05 2.126,-3.104 a 15,15 0 0 0 0.888,-1.662 c 0.261,-0.577 0.32,-1.205 0.535,-1.794 z m -1.847,-4.567 c -0.034,-0.103 0.094,-0.2 0.184,-0.142 0.522,0.34 0.974,0.79 1.456,1.183 0.534,0.436 1.072,0.864 1.618,1.285 0.797,0.615 -0.127,1.745 -0.828,1.074 -0.96,-0.917 -2.01,-2.117 -2.43,-3.4 z m -2.866,-3.592 c 0.212,-0.818 1.466,-0.481 1.283,0.327 l -0.006,0.025 c -0.346,1.335 0.147,2.694 1.2,3.56 l 0.038,0.03 c 0.666,0.534 -0.277,1.465 -0.936,0.938 -1.44,-1.152 -2.038,-3.11 -1.58,-4.88 z"
     clip-rule="evenodd"
     id="path8" />
  <path
     stroke="#000000"
     stroke-linecap="round"
     stroke-linejoin="round"
     stroke-width="0.334"
     d="m 60.171577,75.386437 c 0.612,-1.047 0.114,-1.88 -0.922,-2.398 -0.894,-0.448 -1.577,-0.688 -1.155,-1.784 0.351,-0.912 1.419,-0.857 1.419,-2.004 0,-0.633 -0.681,-1.316 -1.316,-1.316 m 5.613,6.067 c 0.862,-0.852 0.597,-1.787 -0.27,-2.555 -0.748,-0.663 -1.345,-1.072 -0.654,-2.022 0.575,-0.79 1.592,-0.46 1.89,-1.568 0.163,-0.612 -0.318,-1.447 -0.931,-1.612 m 4.458,9.477 c 0.862,-0.852 0.596,-1.787 -0.27,-2.555 -0.748,-0.663 -1.345,-1.072 -0.654,-2.022 0.575,-0.79 1.592,-0.46 1.889,-1.568 0.164,-0.612 -0.317,-1.447 -0.93,-1.612"
     id="path10" />
  <path
     fill="#ffffff"
     fill-rule="evenodd"
     d="m 66.455577,26.595437 c -0.24,-2.105 0.07,-6.505 0.09,-6.772 0.132,-1.69 -0.66,-8.362 -2.156,-7.747 -2.51,-1.988 -5.855,-2.4270001 -8.982,-2.6360001 -6.495,-0.436 -13.404,0.5640001 -18.42,4.9350001 -2.48,2.27 -4.895,5.571 -4.7,9.009 -2.254,3.258 -5.43,7.728 -2.623,11.538 0.954,1.217 2.471,1.67 3.67,2.592 2.412,1.945 3.925,4.736 6.36,6.67 6.449,5.795 17.4,7.006 23.737,0.414 4.9,-4.774 4.108,-11.917 3.246,-18.003 -0.58,-4.092 0.245,4.106 -0.222,0 z"
     clip-rule="evenodd"
     id="path12" />
  <path
     fill="#000000"
     fill-rule="evenodd"
     d="m 46.731577,0.5144369 c 1.737,-0.35 3.52,-0.568 5.294,-0.503 l 0.137,0.006 c 1.335,0.053 3.025,0.171 4.19,0.947 a 0.24,0.24 0 0 1 0.272,-0.055 c 1.383,0.66 2.905,1.138 4.362,1.612 1.45,0.473 2.955,0.784 4.475,0.91 0.571,0.047 1.06,0.665 0.699,1.219 -0.086,0.131 -0.17,0.265 -0.254,0.399 l 0.42,-0.044 c 0.46,-0.046 0.919,0.444 0.892,0.892 -0.017,0.282 -0.048,0.56 -0.093,0.835 0.175,-0.004 0.35,0.023 0.518,0.094 0.852,0.36 0.792,1.374 0.729,2.146 -0.089,1.0720001 -0.49,2.2070001 -1.233,3.0080001 a 4.882,4.882 0 0 1 1.183,2.085 c 0.17,0.597 0.265,1.234 0.218,1.856 l -0.015,0.186 c -0.058,0.675 -0.173,1.422 -0.658,1.908 -0.25,0.25 -0.557,0.342 -0.85,0.313 0.178,1.555 0.291,3.12 0.398,4.679 l 0.05,0.745 c 0.238,3.603 0.417,7.23 0.37,10.839 -0.043,3.373 -0.71,6.647 -2.778,9.385 -1.884,2.494 -4.59,4.332 -7.65,5.031 -1.648,0.377 -3.332,0.404 -5.001,0.164 -0.81,-0.117 -1.624,-0.296 -2.392,-0.579 -0.85,-0.314 -1.46,-0.776 -2.033,-1.468 -0.27,-0.328 -0.14,-1.027 0.399,-0.961 0.815,0.099 1.558,0.218 2.34,0.459 l 0.111,0.035 c 0.778,0.25 1.584,0.435 2.397,0.514 a 12.455,12.455 0 0 0 4.953,-0.506 c 2.599,-0.824 4.836,-2.659 6.27,-4.964 1.703,-2.733 1.896,-5.836 1.871,-8.978 a 227.782,227.782 0 0 0 -0.322,-10.344 l -0.03,-0.574 c -0.097,-1.773 -0.19,-3.546 -0.273,-5.32 a 21.073,21.073 0 0 0 -0.135,-1.672 c -0.642,-0.377 -1.217,-0.895 -1.592,-1.535 -0.754,0.311 -1.546,0.536 -2.275,0.715 a 13.288,13.288 0 0 1 -5.16,0.256 c -0.464,0.192 -0.937,0.36 -1.417,0.505 -0.13,0.058 -0.26,0.114 -0.389,0.17 a 23.71,23.71 0 0 1 -3.553,1.222 l -0.3,0.074 c -0.643,0.159 -1.341,0.315 -2.026,0.364 a 2.96,2.96 0 0 1 -0.366,0.112 c -0.623,0.152 -1.27,0.2 -1.908,0.146 -0.622,-0.052 -1.072,-0.68 -0.729,-1.27 0.25,-0.429 0.503,-0.858 0.758,-1.285 -0.887,0.37 -1.803,0.677 -2.726,0.937 -0.933,0.263 -1.879,0.484 -2.826,0.688 -0.506,0.108 -1.015,0.203 -1.52,0.311 -0.361,0.077 -0.917,0.117 -1.212,0.355 -0.326,0.262 -0.418,0.872 -0.542,1.248 a 30.509,30.509 0 0 0 -1.134,4.486 28.733,28.733 0 0 0 -0.359,3.07 c -0.066,1.029 -0.037,2.064 -0.142,3.088 -0.057,0.543 -0.64,0.822 -1.07,0.443 l -0.153,-0.136 -0.075,-0.068 c -0.368,-0.334 -0.726,-0.688 -1.02,-1.086 a 3.534,3.534 0 0 1 -0.153,-0.228 0.037,0.037 0 0 1 -0.022,-0.008 l -0.082,-0.062 c -0.9,-0.67 -2.403,-1.543 -3.28,-0.43 -0.28,0.355 -0.424,0.806 -0.542,1.242 l -0.209,0.779 c -0.135,0.509 -0.262,1.02 -0.336,1.541 -0.168,1.166 -0.083,2.51 0.719,3.445 0.32,0.374 0.762,0.641 1.255,0.711 0.275,0.038 0.547,-0.009 0.82,-0.043 0.276,-0.035 0.543,0.021 0.82,-0.006 0.441,-0.043 0.634,0.484 0.469,0.816 a 2.016,2.016 0 0 1 -0.313,0.462 c 0.096,0.082 0.187,0.171 0.275,0.265 0.26,0.083 0.494,0.262 0.669,0.5 0.141,0.19 0.215,0.399 0.227,0.618 0.015,0.054 0.029,0.11 0.041,0.167 l 0.239,0.387 0.157,0.252 a 12.127,12.127 0 0 0 2.12,2.53 c 0.807,0.734 1.682,1.392 2.44,2.18 l 0.09,0.093 c 0.706,0.745 1.451,1.646 1.175,2.729 -0.072,0.278 -0.46,0.479 -0.714,0.29 -0.816,-0.605 -1.226,-1.564 -1.918,-2.299 -0.713,-0.756 -1.502,-1.436 -2.216,-2.19 a 8.65,8.65 0 0 1 -1.61,-2.408 c -0.16,0.177 -0.394,0.303 -0.718,0.352 -0.556,0.084 -1.075,-0.242 -1.317,-0.724 a 4.234,4.234 0 0 1 -0.476,0.18 c -0.843,0.258 -1.374,-0.68 -1.055,-1.373 0.17,-0.372 0.382,-0.695 0.646,-0.966 -0.825,-0.114 -1.664,-0.54 -2.206,-1.072 -1.36,-1.336 -1.546,-3.345 -1.24,-5.13 0.162,-0.948 0.443,-1.906 0.807,-2.795 0.063,-0.155 0.13,-0.31 0.205,-0.464 a 0.144,0.144 0 0 1 -0.11,-0.053 c -0.246,-0.337 -0.545,-0.611 -0.728,-0.987 -0.168,-0.345 -0.354,-0.695 -0.487,-1.054 -0.273,-0.736 -0.406,-1.566 -0.495,-2.344 -0.184,-1.592 -0.113,-3.175 0.131,-4.757 a 19.177,19.177 0 0 1 2.894,-7.537 1.29,1.29 0 0 1 -0.229,-0.154 l -0.035,-0.03 -0.058,-0.053 c -0.421,-0.381 -0.385,-1.096 0,-1.482 l 0.122,-0.122 a 3.199,3.199 0 0 1 0.647,-0.51 1.07,1.07 0 0 1 -0.084,-0.832 c 0.316,-1.082 1.871,-1.043 2.857,-0.572 a 17.79,17.79 0 0 1 3.612,-2.503 c 3.122,-1.63 6.653,-2.765 10.1,-3.46 z m -16.141,28.4760001 c 0.583,-0.19 1.357,0.21 1.882,0.45 0.664,0.305 1.23,0.755 1.777,1.232 0.272,0.238 0.321,0.627 0.253,0.96 l -0.021,0.102 c -0.072,0.355 -0.468,0.635 -0.819,0.625 -0.733,-0.02 -1.083,-0.654 -1.498,-1.19 a 0.766,0.766 0 0 1 -0.186,0.227 l -0.05,0.04 c -0.173,0.131 -0.363,0.236 -0.59,0.226 a 1.096,1.096 0 0 1 -0.459,-0.123 c -0.356,-0.189 -0.513,-0.65 -0.416,-1.024 a 0.953,0.953 0 0 1 0.378,-0.549 l -0.067,-0.046 a 1.334,1.334 0 0 1 -0.377,-0.36 l -0.023,-0.038 h 0.009 a 0.36,0.36 0 0 1 0.207,-0.532 z"
     clip-rule="evenodd"
     id="path14" />
  <path
     fill="#000000"
     fill-rule="evenodd"
     d="m 61.430577,38.025437 c -0.365,0.515 -1.027,0.91 -1.768,1.099 -0.706,0.18 -1.486,0.172 -2.16,-0.104 l -0.057,-0.025 c -0.504,-0.226 -0.987,-0.681 -1.17,-1.157 a 0.89,0.89 0 0 1 -0.048,-0.56 0.813,0.813 0 0 1 0.325,-0.437 c 0.056,-0.04 0.13,-0.043 0.2,-0.03 0.087,0.017 0.173,0.06 0.225,0.12 0.288,0.33 0.706,0.653 1.2,0.648 0.383,-0.005 0.694,-0.167 0.997,-0.351 l 0.212,-0.131 c 0.205,-0.126 0.413,-0.245 0.648,-0.3 0.421,-0.096 0.932,0.081 1.243,0.373 a 0.803,0.803 0 0 1 0.26,0.44 0.549,0.549 0 0 1 -0.107,0.415 z m -2.188,-9.014 c 0.836,0.549 2.11,1.827 1.21,3.186 -1.059,1.199 -2.583,-0.175 -3.334,-0.797 -0.697,-0.481 -1.48,0.757 -0.833,1.32 5.428,4.335 7.631,-3.565 3.38,-4.354 -0.469,-0.086 -0.642,0.476 -0.423,0.645 z m -9.433,-8.427 0.24,-0.07 0.245,-0.072 0.166,-0.047 c 1.137,-0.322 2.392,-0.604 3.52,-0.466 0.412,0.05 0.746,0.3 0.804,0.765 0.049,0.392 -0.186,0.899 -0.586,0.968 -1.325,0.232 -2.682,0.157 -4.013,0.395 -0.663,0.119 -1.32,0.266 -1.981,0.399 -0.502,0.1 -1.021,0.136 -1.527,0.218 l 0.116,0.017 c 0.04,0.006 0.03,0.08 -0.01,0.077 a 2.756,2.756 0 0 0 -0.501,-0.008 l -0.072,0.006 a 0.107,0.107 0 0 1 -0.076,-0.195 c 0.617,-0.452 1.14,-0.941 1.831,-1.274 a 12.326,12.326 0 0 1 1.844,-0.713 z m 10.357,-0.692 c 0.875,-0.954 2.735,-0.588 3.776,-0.151 0.593,0.249 1.158,0.564 1.629,1.035 l 0.045,0.046 0.071,0.074 c 0.318,0.335 0.672,0.797 0.621,1.28 -0.008,0.074 -0.045,0.158 -0.122,0.173 -0.417,0.08 -0.826,-0.158 -1.21,-0.3 l -0.256,-0.095 c -0.382,-0.14 -0.768,-0.275 -1.162,-0.372 a 5.93,5.93 0 0 0 -1.496,-0.183 c -0.509,0.007 -1.056,0.162 -1.54,-0.056 -0.542,-0.243 -0.822,-0.943 -0.356,-1.451 z m -8.642,7.693 c -0.223,0.246 -0.518,0.385 -0.895,0.302 -0.295,-0.064 -0.856,-0.384 -1.304,-0.876 -0.307,-0.337 -0.564,-0.758 -0.633,-1.246 a 0.31,0.31 0 0 0 -0.145,-0.232 0.34,0.34 0 0 0 -0.217,-0.045 0.499,0.499 0 0 0 -0.203,0.072 0.342,0.342 0 0 0 -0.164,0.242 c -0.089,0.71 0.166,1.414 0.562,2.008 0.535,0.802 1.32,1.389 1.782,1.527 0.79,0.235 1.622,0.047 2.236,-0.546 0.49,-0.474 0.742,-1.092 0.975,-1.727 l 0.045,-0.123 c 0.053,-0.144 0.105,-0.287 0.16,-0.429 0.11,-0.284 0.075,-0.529 -0.032,-0.72 a 0.848,0.848 0 0 0 -0.582,-0.407 0.82,0.82 0 0 0 -0.658,0.153 c -0.161,0.126 -0.291,0.325 -0.337,0.62 -0.075,0.478 -0.25,1.027 -0.556,1.39 z m 13.545,-2.77 c -0.184,-0.103 -0.328,-0.134 -0.532,-0.068 a 0.748,0.748 0 0 0 -0.312,0.2 0.686,0.686 0 0 0 -0.174,0.339 1.41,1.41 0 0 1 -0.45,0.81 0.858,0.858 0 0 1 -0.72,0.204 c -0.297,-0.053 -0.58,-0.259 -0.774,-0.5 a 1.618,1.618 0 0 1 -0.142,-0.22 l -0.026,-0.045 c -0.096,-0.171 -0.189,-0.33 -0.321,-0.456 a 0.278,0.278 0 0 0 -0.288,-0.066 c -0.295,0.32 -0.352,0.563 -0.343,0.804 0.01,0.252 0.103,0.508 0.252,0.746 0.35,0.56 1.013,1.018 1.461,1.122 0.614,0.142 1.223,-0.029 1.711,-0.398 0.503,-0.38 0.875,-0.971 0.991,-1.637 a 0.937,0.937 0 0 0 -0.04,-0.483 0.66,0.66 0 0 0 -0.293,-0.352 z"
     clip-rule="evenodd"
     id="path16" />
  <path
     fill="#000000"
     fill-rule="evenodd"
     d="m 48.428577,40.359437 c 0.901,-2.11 2.867,-3.662 5.131,-4.229 1.663,-0.415 3.408,-0.402 5.102,-0.237 0.888,0.086 1.84,0.156 2.677,0.486 0.715,0.282 1.297,0.814 1.735,1.44 0.521,0.74 0.876,1.588 1.125,2.457 0.035,0.123 0.068,0.247 0.1,0.373 -0.109,0.655 -0.339,1.213 -0.946,1.625 -0.592,0.403 -1.3,0.567 -2.004,0.626 a 3.138,3.138 0 0 1 -0.197,-0.102 c -1.099,-0.63 -1.872,-2.115 -3.258,-1.914 -1.237,0.18 -2.051,1.736 -2.787,2.649 -2.362,0.275 -4.721,-0.434 -6.643,-1.785 a 3.918,3.918 0 0 1 -0.035,-1.389 m 17.474,-1.601 a 9.097,9.097 0 0 0 -0.708,-1.527 8.688,8.688 0 0 0 -4.063,-3.603 c -4.02,-1.721 -9.22,-0.508 -12.467,2.315 -1.109,0.965 -2.23,2.383 -2.569,3.908 a 0.568,0.568 0 0 0 -0.276,0.147 c -2.345,-1.477 -4.76,-2.897 -6.65,-4.944 -1.372,-1.487 -2.327,-3.247 -2.912,-5.181 -0.047,-0.16 -0.304,-0.136 -0.296,0.04 l 0.006,0.123 c -0.024,-0.075 -0.14,-0.036 -0.149,0.037 -0.314,2.35 -0.707,4.84 -0.345,7.202 0.217,1.41 0.857,2.44 1.712,3.555 0.917,1.194 1.955,2.305 3.017,3.37 0.673,0.676 1.376,1.456 2.201,1.951 0.96,0.576 2.047,1.014 3.07,1.458 1.042,0.454 2.099,0.873 3.175,1.236 a 29.728,29.728 0 0 0 6.642,1.452 c 1.812,0.176 3.884,0.368 5.62,-0.314 1.332,-0.522 2.407,-1.467 3.259,-2.603 0.928,-1.238 1.662,-2.647 2.067,-4.134 0.421,-1.544 -0.245,-4.24 -0.334,-4.488"
     clip-rule="evenodd"
     id="path18" />
  <path
     fill="#000000"
     d="m 53.559577,36.130437 -0.12,-0.485 h -10e-4 z m 5.102,-0.237 -0.048,0.498 z m 2.677,0.486 0.184,-0.465 z m 1.735,1.44 -0.41,0.286 h 0.001 l 0.41,-0.287 z m 1.125,2.457 0.48,-0.138 z m 0.1,0.373 0.493,0.081 0.017,-0.102 -0.025,-0.1 -0.486,0.12 z m -0.946,1.625 -0.28,-0.413 z m -2.004,0.626 -0.217,0.45 0.123,0.06 0.135,-0.012 z m -0.197,-0.102 -0.249,0.434 z m -3.258,-1.914 -0.072,-0.495 z m -2.787,2.649 0.058,0.497 0.203,-0.024 0.128,-0.16 -0.39,-0.313 z m -6.643,-1.785 -0.489,0.104 0.04,0.192 0.162,0.113 z m 16.73,-4.517 -0.431,0.251 0.432,-0.252 z m -4.062,-3.603 0.197,-0.46 z m -12.467,2.315 -0.328,-0.377 z m -2.569,3.908 0.097,0.49 0.32,-0.063 0.071,-0.319 z m -0.276,0.147 -0.266,0.423 0.328,0.206 0.282,-0.265 -0.343,-0.364 z m -6.65,-4.944 -0.367,0.339 0.367,-0.34 z m -2.912,-5.181 -0.478,0.144 z m -0.296,0.04 -0.5,0.022 v 0.005 z m 0.006,0.123 -0.475,0.154 0.975,-0.18 z m -0.149,0.037 0.496,0.067 v -0.007 l -0.495,-0.06 z m -0.345,7.202 -0.494,0.076 z m 1.712,3.555 0.397,-0.305 -0.396,0.305 z m 3.017,3.37 0.354,-0.353 -0.355,0.353 z m 2.201,1.951 -0.258,0.429 z m 3.07,1.458 0.2,-0.458 z m 3.175,1.236 0.16,-0.474 z m 6.642,1.452 -0.049,0.498 z m 5.62,-0.314 -0.182,-0.465 0.183,0.465 z m 3.259,-2.603 0.4,0.3 z m 2.067,-4.134 -0.482,-0.132 z m -17.348,-2.69 c 0.833,-1.952 2.664,-3.407 4.793,-3.94 l -0.243,-0.97 c -2.399,0.6 -4.5,2.247 -5.47,4.517 z m 4.792,-3.94 c 1.584,-0.396 3.264,-0.388 4.933,-0.225 l 0.097,-0.995 c -1.72,-0.168 -3.53,-0.186 -5.272,0.25 z m 4.933,-0.225 c 0.915,0.088 1.786,0.155 2.542,0.453 l 0.367,-0.93 c -0.917,-0.362 -1.951,-0.435 -2.813,-0.519 z m 2.542,0.453 c 0.6,0.237 1.111,0.694 1.509,1.261 l 0.819,-0.574 c -0.478,-0.682 -1.133,-1.29 -1.961,-1.617 z m 1.51,1.262 c 0.48,0.682 0.814,1.474 1.052,2.307 l 0.962,-0.275 c -0.26,-0.905 -0.635,-1.808 -1.197,-2.608 l -0.818,0.576 z m 1.052,2.307 c 0.034,0.118 0.066,0.236 0.095,0.356 l 0.97,-0.24 a 9.734,9.734 0 0 0 -0.103,-0.391 z m 0.087,0.154 c -0.096,0.58 -0.28,0.986 -0.733,1.294 l 0.562,0.827 c 0.762,-0.517 1.037,-1.226 1.158,-1.958 z m -0.733,1.294 c -0.492,0.334 -1.103,0.486 -1.765,0.54 l 0.083,0.997 c 0.748,-0.062 1.552,-0.24 2.244,-0.71 z m -1.507,0.588 a 2.592,2.592 0 0 1 -0.165,-0.086 l -0.496,0.869 c 0.075,0.043 0.153,0.082 0.228,0.119 z m -0.165,-0.085 a 4.125,4.125 0 0 1 -0.69,-0.53 c -0.226,-0.204 -0.499,-0.469 -0.757,-0.686 -0.535,-0.452 -1.22,-0.89 -2.13,-0.759 l 0.143,0.99 c 0.475,-0.069 0.87,0.134 1.343,0.533 0.245,0.207 0.458,0.419 0.73,0.664 0.255,0.23 0.542,0.47 0.864,0.655 z m -3.578,-1.975 c -0.806,0.117 -1.42,0.672 -1.89,1.22 -0.24,0.28 -0.46,0.58 -0.66,0.858 -0.204,0.285 -0.382,0.538 -0.554,0.752 l 0.778,0.628 c 0.195,-0.242 0.395,-0.526 0.589,-0.796 0.199,-0.276 0.397,-0.547 0.607,-0.792 0.432,-0.504 0.843,-0.817 1.274,-0.88 z m -2.773,2.647 c -2.224,0.26 -4.463,-0.408 -6.297,-1.697 l -0.575,0.818 c 2.008,1.412 4.49,2.164 6.988,1.873 z m -6.096,-1.391 a 3.416,3.416 0 0 1 -0.03,-1.212 l -0.989,-0.147 c -0.075,0.514 -0.07,1.04 0.041,1.566 z m 17.422,-3.055 c -0.2,-0.559 -0.45,-1.1 -0.749,-1.611 l -0.863,0.503 c 0.266,0.457 0.49,0.942 0.67,1.444 z m -0.748,-1.611 a 9.187,9.187 0 0 0 -4.298,-3.81 l -0.394,0.919 a 8.187,8.187 0 0 1 3.828,3.394 z m -4.299,-3.81 c -4.224,-1.81 -9.626,-0.53 -12.991,2.397 l 0.656,0.754 c 3.127,-2.719 8.128,-3.866 11.942,-2.232 l 0.393,-0.92 z m -12.991,2.397 c -1.15,1 -2.357,2.504 -2.73,4.176 l 0.977,0.217 c 0.306,-1.378 1.34,-2.71 2.41,-3.639 z m -2.338,3.794 a 1.074,1.074 0 0 0 -0.522,0.274 l 0.686,0.728 a 0.11,0.11 0 0 1 0.024,-0.018 l 0.006,-0.003 -0.194,-0.98 z m 0.088,0.215 c -2.369,-1.491 -4.715,-2.874 -6.55,-4.86 l -0.734,0.678 c 1.945,2.107 4.43,3.566 6.751,5.028 z m -6.55,-4.86 c -1.316,-1.426 -2.235,-3.118 -2.8,-4.987 l -0.957,0.29 c 0.604,1.998 1.594,3.827 3.023,5.375 l 0.735,-0.678 z m -2.8,-4.986 a 0.653,0.653 0 0 0 -0.705,-0.459 0.634,0.634 0 0 0 -0.57,0.665 l 1,-0.044 a 0.366,0.366 0 0 1 -0.316,0.373 0.347,0.347 0 0 1 -0.366,-0.247 z m -1.275,0.21 0.004,0.063 0.003,0.061 0.999,-0.053 -0.004,-0.062 -0.003,-0.062 -0.998,0.054 z m 0.982,-0.056 a 0.556,0.556 0 0 0 -0.694,-0.365 0.593,0.593 0 0 0 -0.427,0.495 l 0.993,0.12 a 0.407,0.407 0 0 1 -0.568,0.33 0.445,0.445 0 0 1 -0.255,-0.273 z m -1.12,0.124 c -0.31,2.322 -0.72,4.895 -0.344,7.344 l 0.988,-0.152 c -0.349,-2.274 0.029,-4.683 0.347,-7.06 z m -0.344,7.344 c 0.236,1.534 0.936,2.646 1.81,3.783 l 0.793,-0.609 c -0.838,-1.09 -1.417,-2.041 -1.615,-3.326 z m 1.81,3.783 c 0.936,1.219 1.99,2.347 3.058,3.419 l 0.709,-0.706 c -1.055,-1.059 -2.076,-2.152 -2.974,-3.322 l -0.793,0.61 z m 3.058,3.418 c 0.644,0.647 1.406,1.491 2.298,2.028 l 0.516,-0.857 c -0.757,-0.455 -1.402,-1.17 -2.105,-1.876 z m 2.299,2.028 c 0.995,0.597 2.124,1.052 3.128,1.488 l 0.399,-0.917 c -1.043,-0.453 -2.09,-0.874 -3.013,-1.428 z m 3.128,1.488 a 40.04,40.04 0 0 0 3.215,1.25 l 0.32,-0.947 a 39.412,39.412 0 0 1 -3.136,-1.22 l -0.4,0.917 z m 3.214,1.25 a 30.223,30.223 0 0 0 6.753,1.477 l 0.097,-0.995 a 29.226,29.226 0 0 1 -6.53,-1.429 z m 6.753,1.477 c 1.786,0.173 3.984,0.387 5.852,-0.346 l -0.365,-0.931 c -1.605,0.63 -3.551,0.46 -5.39,0.282 z m 5.852,-0.346 c 1.44,-0.565 2.584,-1.58 3.476,-2.77 l -0.8,-0.6 c -0.812,1.084 -1.817,1.959 -3.041,2.439 l 0.365,0.93 z m 3.476,-2.77 c 0.96,-1.28 1.725,-2.746 2.15,-4.301 l -0.965,-0.264 c -0.387,1.418 -1.09,2.772 -1.985,3.966 l 0.8,0.6 z m 2.15,-4.301 c 0.239,-0.878 0.163,-2.024 0.037,-2.93 -0.127,-0.914 -0.322,-1.688 -0.382,-1.858 l -0.942,0.336 0.003,0.01 0.01,0.034 0.03,0.114 a 15.076,15.076 0 0 1 0.29,1.502 c 0.124,0.889 0.17,1.861 -0.011,2.528 l 0.964,0.264 z"
     id="path20" />
  <path
     fill="#000000"
     fill-rule="evenodd"
     d="m 67.182577,30.706437 c -0.75,1.007 -2.138,1.327 -3.42,1.217 -2.763,-0.266 -3.632,-3.404 -3.723,-5.844 1.853,0.522 -0.157,-3.17 6.177,-3.576 2.233,-0.186 1.618,1.163 2.604,2.148 -0.02,2.068 -0.364,4.314 -1.638,6.055 m -13.161,-2.375 c -1.631,7.639 -10.565,5.822 -11.503,-1.065 0.867,-0.611 0.638,-2.121 1.715,-2.669 1.706,-1.09 3.839,-1.043 5.776,-1.017 2.477,0.17 3.182,1.196 4.455,2.315 -0.062,0.747 -0.238,1.633 -0.443,2.436 m 16.7,-7.093 c -0.092,-0.015 -0.184,-0.03 -0.275,-0.043 a 0.827,0.827 0 0 0 -0.254,-0.09 4.338,4.338 0 0 0 -0.666,-0.116 c -3.174,-0.715 -10.52,0.3 -10.823,3.01 -1.01,0.337 -1.886,0.034 -3.057,0.065 -0.892,-3.729 -16.314,-3.203 -17.055,-0.955 a 0.155,0.155 0 0 1 -0.009,-0.002 c -0.712,-0.22 -1.763,-0.168 -2.579,-0.202 a 22.398,22.398 0 0 0 -5.189,0.486 c -3.19,0.507 -7.546,1.1 -5.326,5.085 v 0.002 h 0.001 c 0.383,0.392 1.032,0.076 1.056,-0.455 -0.746,-1.887 0.939,-2.114 2.236,-2.656 3.226,-1.16 6.51,-1.32 9.847,-0.962 a 2.4,2.4 0 0 0 1.035,0.689 c 2.23,0.37 1.055,2.025 2.465,2.265 -0.259,5.77 6.745,8.918 10.803,5.126 1.62,-1.584 2.007,-3.93 2.383,-6.046 a 0.561,0.561 0 0 0 0.398,-0.297 c 0.478,-0.477 0.778,-0.917 1.723,-1.048 0.944,-0.131 1.672,0.131 1.77,0.212 0.025,0.05 0.051,0.1 0.082,0.15 a 0.57,0.57 0 0 0 0.17,0.181 c -0.934,5.745 3.526,9.378 8.028,6.398 1.956,-1.84 2.37,-4.657 2.452,-7.172 0.265,-0.16 0.433,-0.47 0.34,-0.86 -0.126,-0.538 0.17,-1.003 0.643,-1.237 0.614,-0.303 0.506,-1.411 -0.2,-1.528"
     clip-rule="evenodd"
     id="path22" />
</svg>
