<?xml version="1.0" encoding="UTF-8" standalone="no"?>
<svg
   xmlns:dc="http://purl.org/dc/elements/1.1/"
   xmlns:cc="http://creativecommons.org/ns#"
   xmlns:rdf="http://www.w3.org/1999/02/22-rdf-syntax-ns#"
   xmlns:svg="http://www.w3.org/2000/svg"
   xmlns="http://www.w3.org/2000/svg"
   xmlns:sodipodi="http://sodipodi.sourceforge.net/DTD/sodipodi-0.dtd"
   xmlns:inkscape="http://www.inkscape.org/namespaces/inkscape"
   width="90.473"
   height="128.75987"
   fill="none"
   viewBox="0 0 90.473 128.75987"
   version="1.1"
   id="svg20"
   sodipodi:docname="crew3.svg"
   inkscape:version="1.0.2-2 (e86c870879, 2021-01-15)">
  <metadata
     id="metadata26">
    <rdf:RDF>
      <cc:Work
         rdf:about="">
        <dc:format>image/svg+xml</dc:format>
        <dc:type
           rdf:resource="http://purl.org/dc/dcmitype/StillImage" />
        <dc:title />
      </cc:Work>
    </rdf:RDF>
  </metadata>
  <defs
     id="defs24" />
  <sodipodi:namedview
     pagecolor="#ffffff"
     bordercolor="#666666"
     borderopacity="1"
     objecttolerance="10"
     gridtolerance="10"
     guidetolerance="10"
     inkscape:pageopacity="0"
     inkscape:pageshadow="2"
     inkscape:window-width="1920"
     inkscape:window-height="1001"
     id="namedview22"
     showgrid="false"
     inkscape:zoom="2.8363432"
     inkscape:cx="-50.45283"
     inkscape:cy="33.897488"
     inkscape:window-x="-9"
     inkscape:window-y="-9"
     inkscape:window-maximized="1"
     inkscape:current-layer="svg20"
     inkscape:document-rotation="0" />
  <path
     style="fill:#ffffff;stroke:none;stroke-width:1px;stroke-linecap:butt;stroke-linejoin:miter;stroke-opacity:1;fill-opacity:1"
     d="M 39.035741,41.370243 35.41067,41.834001 31.457851,39.69289 31.2108,35.822422 l -2.552863,-5.270426 -0.644196,-4.006753 -2.73217,-3.898884 0.247051,-5.105725 3.870469,-8.564441 7.082134,-4.7763229 9.634996,-2.4705118 9.717347,-0.90585435 7.576236,1.89405905 4.020937,2.9926795 -0.507,1.02 -11.172524,-0.6363133 -8.31739,2.7999134 -7.576236,8.0703384 -2.14111,8.893843 -0.823504,2.717563 -1.894059,0.741154 -1.958177,2.709502 -0.182934,3.796179 1.862934,3.392821 1.612,0.74 2.03,-0.837 z"
     id="path851" />
  <path
     fill="#ffffff"
     fill-rule="evenodd"
     d="m 87.770741,126.54124 c 2.15,-0.104 1.285,-3.866 1.131,-5.247 -1.703,-5.046 -1.302,-10.551 -1.972,-15.84 -0.417,-4.937 -0.953,-9.858997 -1.404,-14.791997 -0.885,-10.015 -7.245,-30.401 -14.502,-33.68 -0.914,-4.011 -5.160466,-5.687757 -9.467,-7.755 C 59.28093,48.134797 77.208997,51.646456 70.540579,18.353906 68.55047,8.4181488 57.143945,7.6587537 54.628945,7.9327537 c -1.0395,0.047 -8.71197,0.1187318 -13.895623,14.4435093 -1.813535,5.011617 -14.766521,12.560035 -3.903641,16.668755 4.08879,1.546524 6.92906,6.777725 6.43106,6.884225 -1.115,0.153 -11.012,-0.242 -12.995,0.935 -1.381,0.709 -2.628,2.02 -2.222,3.688 0.648,2.02 -1.365,-0.166 -5.565,1.99 -8.564,5.144 -3.447,12.025 -3.22,12.239 -5.344,7.436 -10.0149996,13.468 -12.1769996,22.557 -1.4,6.748 -1.243,13.713997 -2.417,20.495997 -0.414,2.352 -1.05,4.623 -1.738,6.907 -0.745,2.989 -1.108,10.438 -1.519,10.505 -0.74800003,0.186 0.433,1.723 1.226,1.724 21.9909996,3.648 44.3289996,0.151 66.4379996,-0.42 6.231,-0.217 12.468,-0.267 18.699,-0.009 z"
     clip-rule="evenodd"
     id="path2"
     sodipodi:nodetypes="cccccsscsscccccccccccc" />
  <path
     fill="#ff5555"
     fill-rule="evenodd"
     d="m 43.287741,52.476243 c 0,2.34 8.127,11.037 10.932,10.464 1.87,-0.383 4.694,-2.877 8.475,-7.484 v -2.98 l -0.817,-3.244 c 4.625,0.163 8.253,3.83 9.146,7.75 7.185,3.246 13.49,23.26 14.474,33.376 l 0.028,0.304 c 0.45,4.933 0.987,9.854997 1.404,14.791997 0.67,5.289 0.27,10.794 1.972,15.84 l 0.01,0.086 c 0.178,1.444 0.967,5.059 -1.141,5.161 -6.23,-0.258 -12.468,-0.208 -18.699,0.009 -22.11,0.571 -44.447,4.068 -66.4379996,0.42 -0.793,-0.001 -1.97400003,-1.538 -1.226,-1.724 0.411,-0.067 0.774,-7.516 1.52,-10.505 l 0.14,-0.472 c 0.634,-2.125 1.211,-4.245 1.597,-6.435 1.174,-6.782 1.016,-13.747997 2.417,-20.495997 2.161,-9.089 6.8329996,-15.121 12.1769996,-22.557 -0.227,-0.213 -5.344,-7.094 3.22,-12.238 4.2,-2.157 6.213,0.03 5.565,-1.991 -0.406,-1.669 0.841,-2.979 2.222,-3.688 1.983,-1.177 11.88,-0.782 12.995,-0.935 0.518,-0.111 1.038,-0.342 1.56,-0.625 l -0.091,0.301 c -0.961,3.221 -1.442,5.512 -1.442,6.871 z"
     clip-rule="evenodd"
     id="path4"
     style="fill:#ffffff;fill-opacity:1" />
  <path
     fill="#000000"
     fill-rule="evenodd"
     d="m 54.439741,65.437243 c 0.01,-0.1 0.146,-0.1 0.156,0 l 0.156,1.5 c 0.189,1.83 0.37,3.657 0.502,5.496 0.165,2.293 0.275,4.586 0.328,6.884 0.184,8.005 0.221,16.014 0.237,24.020997 a 702.015,702.015 0 0 1 5.454,-0.355 l 1.875,-0.113 0.772,-0.048 c 0.522,-0.032 1.114,-0.163 1.479,0.299 0.146,0.185 0.219,0.425 0.083,0.645 -0.314,0.506 -0.796,0.488 -1.342,0.51 -0.514,0.021 -1.029,0.042 -1.543,0.061 -1.103,0.043 -2.205,0.084 -3.308,0.115 a 335.74,335.74 0 0 1 -3.472,0.078 c -0.012,3.38 -0.151,6.756 -0.303,10.133 l -0.068,1.519 c -0.185,4.109 -0.384,8.222 -0.667,12.326 -0.023,0.336 -0.499,0.335 -0.522,0 -0.318,-4.622 -0.528,-9.253 -0.736,-13.88 a 309.64,309.64 0 0 1 -0.281,-10.068 l -0.46,0.004 c -4.342,0.019 -8.684,0.038 -13.027,-0.003 a 0.103,0.103 0 0 1 0.02,0.028 c 0.314,0.742 0.344,1.689 0.336,2.485 a 12.219,12.219 0 0 1 -0.342,2.703 c -0.753,3.182 -2.697,6.031 -4.91,8.387 l -0.073,0.076 c -0.522,0.552 -1.121,1.106 -1.442,1.809 -0.327,0.717 -0.44,1.557 -0.602,2.328 l -0.02,0.088 -0.631,2.919 c -0.2,0.927 -0.258,2.279 -0.992,2.947 -0.684,0.624 -1.591,0.298 -1.913,-0.505 -0.252,-0.627 -0.001,-1.316 0.148,-1.942 l 1.167,-4.908 c 0.192,-0.8 0.402,-1.606 0.816,-2.325 0.424,-0.736 1.045,-1.27 1.68,-1.816 a 20.79,20.79 0 0 0 3.236,-3.5 c 0.933,-1.281 1.73,-2.694 2.288,-4.179 0.28,-0.744 0.51,-1.516 0.667,-2.295 0.15,-0.739 0.15,-1.504 0.31,-2.236 0.011,-0.05 0.054,-0.085 0.103,-0.1 -0.012,-0.033 0.006,-0.077 0.051,-0.08 l 3.552,-0.228 c 3.157,-0.203 6.314,-0.412 9.468,-0.651 l 0.558,-0.04 c -0.043,-4.478997 -0.007,-8.957997 0.074,-13.437997 0.074,-4.108 0.076,-8.218 0.198,-12.325 0.06,-2.04 0.192,-4.073 0.338,-6.107 0.149,-2.081 0.387,-4.144 0.602,-6.219 z m -33.35,23.82 c -0.037,-0.228 0.25,-0.369 0.382,-0.16 1.513,2.384 2.242,4.973 2.55,7.763 0.27,2.462 0.19,4.958997 0.055,7.427997 a 801.921,801.921 0 0 1 -0.482,7.896 l -0.262,4.035 -0.655,10.116 c -0.047,0.724 -0.212,1.382 -0.835,1.718 a 1.54,1.54 0 0 1 -0.257,0.177 c -0.336,0.18 -0.783,0.089 -0.977,-0.257 l 0.078,0.052 c 0.068,0.042 -0.009,-0.017 -0.23,-0.18 l -0.187,-0.242 a 1.52,1.52 0 0 1 -0.258,-0.649 c -0.054,-0.377 0.017,-0.792 0.041,-1.172 l 0.43,-6.633 c 0.335,-5.157 0.725,-10.312 1.02,-15.472 0.136,-2.405 0.233,-4.811997 0.168,-7.220997 -0.065,-2.395 -0.187,-4.832 -0.58,-7.198 z m 13.084,-44.404 0.084,-0.014 c 3.004,-0.5 6.27,-0.406 9.016,1.042 0.023,0.012 0.012,0.05 -0.013,0.049 l -0.884,-0.036 c -2.797,-0.11 -5.586,-0.174 -8.337,0.483 l -0.281,0.068 c -0.99,0.242 -2.025,0.537 -2.82,1.192 -0.761,0.625 -1.14,1.59 -1.504,2.478 l -0.049,0.117 c -0.37,0.877 -0.837,1.709 -1.646,2.257 -1.05,0.71 -2.31,0.624 -3.513,0.72 -2.118,0.17 -3.849,1.705 -4.71,3.583 -0.522,1.137 -0.744,2.411 -0.788,3.655 -0.023,0.633 -0.026,1.29 0.058,1.92 0.027,0.2 0.276,0.933 0.403,0.916 0.281,-0.04 0.539,0.107 0.627,0.332 a 46.394,46.394 0 0 1 2.15,-1.954 41.32,41.32 0 0 1 5.914,-4.21 c 1.594,-0.933 3.276,-1.856 5.017,-2.555 a 0.827,0.827 0 0 0 -0.406,0.093 c -0.057,0.03 -0.115,-0.042 -0.069,-0.09 0.548,-0.577 1.205,-0.66 1.868,-0.505 0.141,-0.045 0.282,-0.089 0.425,-0.13 0.07,-0.02 0.105,0.077 0.048,0.114 l -0.163,0.104 c 0.722,0.242 1.432,0.718 1.993,1.094 1.614,1.078 3.034,2.396 4.473,3.69 l 0.262,0.234 c 1.267,1.131 2.566,2.23 4.006,3.138 0.754,0.475 1.545,0.915 2.375,1.241 0.712,0.28 1.872,0.457 2.205,1.21 0.297,0.36 0.173,0.82 -0.174,1.062 -0.586,0.645 -1.757,0.228 -2.455,-0.04 a 16.538,16.538 0 0 1 -2.433,-1.169 c -1.509,-0.886 -2.9,-1.987 -4.196,-3.159 -1.353,-1.223 -2.63,-2.523 -3.947,-3.785 -0.57,-0.547 -1.127,-1.106 -1.698,-1.652 l -0.287,-0.272 c -0.292,-0.274 -0.707,-0.7 -1.151,-0.958 -0.837,0.5 -1.687,0.978 -2.516,1.49 a 60.011,60.011 0 0 0 -3.387,2.272 51.777,51.777 0 0 0 -6.02,5.059 c -3.435,3.354 -6.362,7.184 -8.919,11.24 l -0.194,0.309 c -1.453,2.321 -2.8269996,4.717 -3.7999996,7.282 -1.073,2.823 -1.594,5.791 -1.877,8.787 -0.281,2.975 -0.376,5.965 -0.69,8.936997 -0.323,3.048 -0.957,6.028 -1.68,9.003 l -0.171,0.706 c -0.654,2.664 -1.328,5.329 -1.664,8.056 -0.18,1.457 -0.287,2.934 -0.263,4.402 0.025,1.478 0.257,2.922 0.444,4.384 0.072,0.56 -0.479,1.027 -0.972,1.101 -0.567,0.085 -1.05400003,-0.276 -1.23000003,-0.803 -0.55,-1.642 -0.65,-3.458 -0.633,-5.181 0.018,-1.75 0.241,-3.488 0.555,-5.208 0.61800003,-3.383 1.57200003,-6.695 2.37000003,-10.037 a 59.87,59.87 0 0 0 1.43,-8.914997 c 0.264,-3.131 0.422,-6.272 0.903,-9.38 0.476,-3.07 1.37,-6 2.72,-8.798 1.228,-2.548 2.7599996,-4.946 4.3649996,-7.27 1.95,-2.822 4.091,-5.508 6.485,-7.955 a 1.323,1.323 0 0 1 -0.639,-0.205 c -0.62,-0.387 -0.909,-1.144 -0.998,-1.835 -0.207,-1.617 -0.157,-3.304 0.259,-4.885 0.67,-2.55 2.41,-4.815 4.933,-5.734 0.65,-0.236 1.34,-0.323 2.028,-0.34 0.653,-0.016 1.366,0.07 1.996,-0.138 1.003,-0.33 1.433,-1.51 1.81,-2.406 l 0.017,-0.04 c 0.483,-1.142 1.062,-2.12 2.108,-2.832 1.116,-0.76 2.514,-1.106 3.83,-1.33 z m 28.543,4.512 c 0.902,-0.313 2.031,-0.029 2.914,0.245 0.983,0.304 1.892,0.866 2.671,1.533 a 8.062,8.062 0 0 1 1.982,2.542 l 0.045,0.093 c 0.439,0.9 0.938,2.135 0.717,3.124 a 0.972,0.972 0 0 1 -0.022,0.081 c 1.791,0.882 3.445,1.986 4.886,3.386 1.677,1.63 3.097,3.484 4.299,5.487 4.773,7.958 5.613,17.514 6.177,26.589 l 0.14,2.301 c 0.306,4.968 0.665,9.924997 1.595,14.824997 l 0.068,0.353 c 0.995,5.131 2.419,10.3 2.274,15.563 -0.043,1.577 -2.373,1.566 -2.44,0 -0.255,-5.895 -1.63,-11.586 -2.562,-17.389 -1.64,-10.208997 -0.818,-20.732997 -3.14,-30.839997 -0.912,-3.966 -2.324,-7.813 -4.34,-11.354 -0.995,-1.749 -2.135,-3.439 -3.47,-4.947 -1.148,-1.299 -2.341,-2.548 -3.683,-3.64 -0.43,0.43 -1.286,0.211 -1.51,-0.415 -0.153,-0.43 -0.109,-0.933 -0.207,-1.384 a 6.87,6.87 0 0 0 -0.387,-1.227 8.089,8.089 0 0 0 -1.395,-2.175 8.966,8.966 0 0 0 -2.11,-1.728 c -0.794,-0.474 -1.664,-0.616 -2.502,-0.963 -0.029,-0.011 -0.031,-0.05 0,-0.06 z m 3.507,54.558997 a 0.048,0.048 0 0 1 0.08,-0.034 c 0.316,0.292 0.508,0.71 0.74,1.068 0.27,0.413 0.551,0.818 0.847,1.212 0.593,0.789 1.253,1.534 1.918,2.263 a 27.554,27.554 0 0 0 1.961,1.94 c 0.741,0.663 1.571,1.255 2.244,1.99 1.405,1.533 1.632,3.637 1.928,5.612 l 0.033,0.214 a 120.42,120.42 0 0 1 0.688,5.245 l 0.018,0.182 c 0.051,0.562 0.065,1.132 -0.258,1.623 -0.345,0.525 -1.13,0.71 -1.598,0.206 -0.802,-0.866 -0.652,-2.403 -0.756,-3.516 -0.086,-0.921 -0.184,-1.84 -0.294,-2.758 l -0.055,-0.459 c -0.13,-1.045 -0.234,-2.11 -0.473,-3.136 -0.21,-0.904 -0.612,-1.586 -1.27,-2.241 -0.664,-0.659 -1.354,-1.275 -1.966,-1.985 a 19.7,19.7 0 0 1 -1.763,-2.405 c -0.452,-0.721 -0.814,-1.505 -1.145,-2.289 l -0.055,-0.131 c -0.32,-0.764 -0.85,-1.759 -0.824,-2.601 z m 11.585,-32.831997 c 0.007,-0.107 0.165,-0.108 0.167,0 0.02,0.917 0.04,1.834 0.058,2.751 0.153,7.389 0.059,14.796 0.8,22.159 0.35,3.472 0.994,6.892997 1.739,10.299997 0.381,1.743 0.781,3.482 1.161,5.225 0.37,1.7 0.767,3.407 1.061,5.122 0.289,1.685 0.547,3.384 0.663,5.091 l 0.015,0.223 c 0.05,0.826 0.288,2.043 -0.167,2.776 -0.493,0.794 -1.438,0.808 -1.967,0.05 -0.496,-0.712 -0.373,-1.978 -0.46,-2.826 -0.09,-0.865 -0.184,-1.731 -0.29,-2.594 -0.21,-1.683 -0.485,-3.363 -0.771,-5.035 -0.596,-3.481 -1.46,-6.919 -2.1,-10.395 -0.653,-3.562 -1.118,-7.149997 -1.138,-10.775997 -0.02,-3.657 0.368,-7.308 0.563,-10.957 0.199,-3.707 0.425,-7.41 0.666,-11.114 z m -34.905,-22.984 c 0.198,-0.668 0.898,-1.086 1.581,-0.898 0.626,0.172 1.143,0.932 0.898,1.582 -0.267,0.709 -0.734,1.314 -1.127,1.958 -0.364,0.596 -0.894,1.065 -1.264,1.65 l 0.408,0.44 c 0.204,0.22 0.409,0.438 0.616,0.652 l 0.711,0.737 a 69.091,69.091 0 0 0 1.686,1.696 c 1.686,1.626 3.398,3.199 5.287,4.592 0.43,0.317 0.863,0.632 1.308,0.927 l 0.166,0.11 c 0.306,0.2 0.647,0.396 1.016,0.362 0.897,-0.082 1.707,-1.034 2.323,-1.627 l 0.032,-0.03 a 34.553,34.553 0 0 0 4.179,-4.751 c 0.274,-0.38 0.54,-0.766 0.799,-1.156 -0.598,-0.699 -0.455,-2.062 -0.488,-2.909 -0.024,-0.595 -0.025,-1.19 -0.029,-1.786 l -10e-4,-0.12 c -0.008,-0.386 -0.025,-0.756 0.225,-1.074 0.015,-0.018 0.045,-0.017 0.064,-0.008 0.343,0.18 0.448,0.48 0.595,0.818 l 0.015,0.035 c 0.178,0.405 0.348,0.814 0.52,1.221 0.181,0.427 0.347,0.86 0.515,1.29 a 27.585,27.585 0 0 1 0.363,0.992 l 0.011,0.01 c 0.062,0.053 0.115,0.109 0.16,0.166 0.192,0.096 0.344,0.27 0.415,0.527 0.156,0.557 -0.166,1.012 -0.452,1.455 a 34.99,34.99 0 0 1 -3.966,5.066 33.769,33.769 0 0 1 -2.306,2.21 l -0.14,0.12 c -0.72,0.62 -1.503,1.207 -2.466,1.352 -1.126,0.17 -2.043,-0.391 -2.905,-1.036 l -0.086,-0.065 a 47.837,47.837 0 0 1 -2.395,-1.93 c -1.582,-1.365 -3.087,-2.832 -4.423,-4.441 -1.3,-1.566 -2.584,-3.316 -3.385,-5.2 -0.049,-0.114 0.08,-0.234 0.18,-0.138 0.392,0.372 0.768,0.765 1.14,1.163 0.01,-0.586 -0.098,-1.176 -0.038,-1.765 0.074,-0.716 0.052,-1.508 0.258,-2.197 z"
     clip-rule="evenodd"
     id="path6" />
  <path
     fill="#ffffff"
     fill-rule="evenodd"
     d="m 52.814741,0.85724254 c 4.982,0 10.96,2.41599996 11.468,2.46399996 h 0.014 c 0.267,0 1.312,0.797 3.134,2.389 l -1.973,3.85 0.16,0.152 c 0.764,0.7320005 1.416,1.4000005 1.931,1.9270005 4.206,4.3 4.961,21.179 3.97,27.065 -0.99,5.887 -2.826,11.647 -11.372,11.647 -8.546,0 -18.054,-5.139 -19.519,-6.739 -0.976,-1.067 -2.073,-1.578 -3.29,-1.533 l -0.149,-0.189 -0.179,-0.025 c -1.684,-0.244 -2.891,-0.573 -3.62,-0.985 -1.425,-0.806 -2.991,-5.044 -2.991,-5.977 0,-0.924 -2.338,-7.647 -2.385,-8.358 v -0.02 c 0,-0.595 -3.056,-3.328 -3.056,-4.197 0,-0.868 -0.615,-0.815 0,-3.875 l 0.18,-0.898 c 0.655,-3.258 1.937,-8.6520005 6.827,-10.9950005 5.373,-2.576 15.818,-5.70299996 20.85,-5.70299996 z"
     clip-rule="evenodd"
     id="path8"
     style="fill:none" />
  <path
     fill="#9ddadb"
     fill-rule="evenodd"
     d="m 66.923741,6.7292425 c -1.533,0.045 -3.315,0.114 -5.19,0.218 -2.744,0.152 -5.688,0.38 -8.347,0.723 -2.66,0.343 -5.028,0.799 -6.625,1.405 -1.579,0.599 -2.873,2.0420005 -3.927,3.8860005 -1.052,1.842 -1.857,4.074 -2.463,6.234 a 54.736,54.736 0 0 0 -1.265,5.787 54.743,54.743 0 0 0 -0.35,2.5 l -0.005,0.035 v 0.01 l -0.084,-0.008 0.083,0.009 -0.005,0.047 -0.042,0.02 h -0.002 l -0.004,0.003 -0.02,0.009 -0.03,0.015 -0.044,0.021 c -0.065,0.033 -0.16,0.08 -0.283,0.144 a 27.375,27.375 0 0 0 -4.09,2.596 c -0.56,0.432 -0.906,0.757 -1.112,1 -0.209,0.246 -0.264,0.397 -0.265,0.482 -0.002,0.072 0.037,0.11 0.087,0.133 a 0.32,0.32 0 0 0 0.1,0.028 h 0.007 l 0.081,0.004 -0.002,0.082 -0.083,-0.002 0.083,0.002 v 0.041 a 17.279,17.279 0 0 0 -0.004,0.56 c 0.002,0.37 0.011,0.88 0.042,1.435 0.031,0.556 0.084,1.156 0.171,1.708 0.088,0.553 0.21,1.053 0.378,1.411 0.16,0.343 0.525,0.625 1,0.854 0.474,0.228 1.044,0.397 1.596,0.521 a 15.08,15.08 0 0 0 2.076,0.31 l 0.034,0.002 0.009,0.001 h 0.002 l 0.059,0.004 0.016,0.056 0.694,2.323 0.005,0.015 -0.002,0.016 -0.098,1.106 a 3.973,3.973 0 0 0 -0.161,-0.072 l 0.092,-1.033 -0.673,-2.252 -0.121,-0.01 a 15.246,15.246 0 0 1 -1.968,-0.302 c -0.559,-0.127 -1.142,-0.299 -1.632,-0.535 -0.487,-0.234 -0.894,-0.538 -1.079,-0.933 -0.178,-0.38 -0.303,-0.898 -0.392,-1.456 a 17.513,17.513 0 0 1 -0.172,-1.724 28.588,28.588 0 0 1 -0.042,-1.887 l 0.002,-0.091 a 0.468,0.468 0 0 1 -0.09,-0.031 0.3,0.3 0 0 1 -0.182,-0.286 c 0.002,-0.146 0.09,-0.335 0.305,-0.588 0.217,-0.255 0.574,-0.588 1.137,-1.024 a 27.556,27.556 0 0 1 4.401,-2.757 l 0.06,-0.03 0.015,-0.135 a 54.776,54.776 0 0 1 0.337,-2.374 54.938,54.938 0 0 1 1.27,-5.805 c 0.607,-2.167 1.417,-4.413 2.479,-6.272 1.06,-1.858 2.38,-3.3400005 4.012,-3.9600005 1.616,-0.612 4,-1.07 6.663,-1.413 2.664,-0.344 5.612,-0.572 8.359,-0.725 1.914,-0.106 3.731,-0.175 5.286,-0.22 l -0.087,0.17 z"
     clip-rule="evenodd"
     id="path10" />
  <path
     fill="#000000"
     fill-rule="evenodd"
     d="m 31.134741,6.4392425 c 2.68,-2.845 17.894,-7.24399996 25.592,-6.31199996 l 0.23,0.03 c 0.615,0.078 1.22,0.196 1.817,0.356 1.932,0.451 3.926,1.13399996 5.522,2.27499996 1.332,0.933 5.534,2.457 4.296,4.898 0.459,0.87 0.63,1.945 0.32,2.8020005 -0.039,0.296 -0.13,0.569 -0.247,0.851 0.981,1.448 1.758,3.086 2.387,4.643 1.099,3.92 1.782,7.998 1.883,11.997 0.333,7.597 -0.5,16.672 -7.117,21.585 -3.997,3.113 -10.259,3.217 -14.75,-0.643 -0.256,-0.301 -1.454,-1.115 -1.054,-1.258 0.119,0.126 0.241,0.248 0.366,0.368 a 0.072,0.072 0 0 1 -0.005,-0.041 l -0.117,-0.106 c -0.22,-0.204 -0.507,-0.5 -0.18,-0.443 0.014,0.017 0.03,0.032 0.045,0.048 0.069,0.042 0.12,0.078 0.161,0.11 l 0.021,0.016 -0.006,-0.007 c -0.188,-0.2 -0.3,-0.404 -0.02,-0.274 l 0.037,0.018 c 0.125,0.132 0.252,0.258 0.38,0.38 a 0.072,0.072 0 0 1 0.009,-0.045 l -0.12,-0.116 c -0.118,-0.115 -0.1,-0.115 -0.043,-0.209 -0.25,-0.35 0.217,-0.142 0.25,-0.005 0.291,-0.07 0.547,0.478 0.735,0.545 8.234,6.33 20.184,0.713 19.99,-16.927 l -0.002,-0.345 c -0.057,-5.64 -0.532,-11.438 -2.865,-16.544 a 14.32,14.32 0 0 0 -0.76,-1.433 13.871,13.871 0 0 0 -0.62,-1.015 9.186,9.186 0 0 1 -1.834,-0.34 8.772,8.772 0 0 1 -0.617,-0.178 c -2.99,0.163 -5.915,0.34 -8.915,0.51 l -0.937,0.058 c -2.54,0.163 -5.169,0.424 -7.219,1.996 -2.012,1.431 -2.021,4.252 -3.743,5.823 -2.456,1.667 -2.474,3.17 -2.947,5.627 0.035,1.851 1.319,4.542 -1.037,5.32 0.397,0.568 -0.157,0.295 -0.2,0.097 a 0.058,0.058 0 0 1 -0.013,0.002 c 0.355,0.658 -0.166,0.244 -0.212,0.032 a 0.203,0.203 0 0 1 -0.084,-0.056 c 0.357,0.577 -0.22,0.173 -0.185,0.068 -0.69,-1.06 -2.11,-1.224 -3.11,-0.943 -0.012,0.038 -0.056,0.04 -0.084,0.02 -4.254,0.923 -3.156,9.729 1.203,8.877 0.186,-0.038 0.182,0.052 0.219,0.06 -0.1,-0.264 0.183,-0.156 0.18,-0.1 l 0.017,-0.002 c 0.014,0 0.009,-0.002 0.019,0.001 -0.098,-0.54 0.45,0.243 0.407,0.275 a 0.142,0.142 0 0 1 0.053,-0.018 l -0.02,-0.051 c -0.09,-0.242 -0.083,-0.142 -0.082,-0.28 -0.068,-0.172 -0.073,-0.097 -0.057,-0.209 0.24,-0.185 0.31,0.379 0.39,0.42 -0.136,-0.191 -0.027,-0.348 0.102,-0.244 0.982,2.065 2.25,4.006 3.89,5.534 0.179,0.142 0.36,0.28 0.548,0.412 0.697,0.607 1.767,0.998 2.42,1.536 0,0.009 -0.005,0.02 -0.012,0.03 l 0.015,0.014 0.015,0.015 0.227,0.109 c 0.067,0.056 0.127,0.12 0.18,0.19 0.057,0.066 0.107,0.138 0.15,0.215 0.02,0.093 -0.026,0.132 -0.115,0.092 -0.04,-0.013 -0.078,-0.029 -0.117,-0.043 l 0.006,0.008 c 0.012,0.019 0.099,0.22 0,0.187 l -0.013,-0.005 -0.162,-0.063 c 0.063,0.079 0.121,0.164 0.172,0.237 a 0.376,0.376 0 0 1 0.102,0.199 c -0.003,0.042 -0.026,0.06 -0.068,0.054 a 5.556,5.556 0 0 1 -0.192,-0.066 l 0.018,0.034 c 0.045,0.088 0.11,0.236 -0.004,0.187 a 3.615,3.615 0 0 1 -0.284,-0.102 c -0.008,0.015 -0.023,0.02 -0.054,0.006 a 5.726,5.726 0 0 1 -0.86,-0.387 c -0.241,-0.176 -0.485,-0.348 -0.727,-0.523 a 5.57,5.57 0 0 1 -0.66,-0.46 14.347,14.347 0 0 1 -3.616,-3.35 c -1.634,1.415 -4.902,0.063 -6.924,-1.045 -1.788,-0.99 -2.49,-2.822 -2.673,-4.796 -0.377,-2.658 -2.55,-3.568 -2.398,-9.4 l -0.012,0.001 a 1.138,1.138 0 0 1 -0.228,-0.094 1.139,1.139 0 0 1 -0.21,-0.13 l -0.081,-0.112 a 0.694,0.694 0 0 1 -0.11,-0.072 l -0.014,0.02 c -0.048,0.057 -0.016,-0.03 -0.013,-0.047 l -0.141,-0.192 c -0.335,-0.456 -0.702,-0.97 -1,-1.379 l -0.01,0.017 c -0.007,0.012 -0.01,0.021 -0.008,0.025 -0.711,-1.022 -1.38,-2.257 -1.566,-3.453 -0.22,-0.92 -0.134,-1.87 0.058,-2.723 0.82,-2.987 3.51,-9.7470005 7.042,-12.6440005 z m 19.312,41.3120005 -0.044,-0.04 0.039,0.05 c 0.02,0.025 0.042,0.048 0.076,0.071 a 0.06,0.06 0 0 1 -10e-4,-0.024 1.554,1.554 0 0 1 -0.07,-0.057 z m 6.245,-46.1230005 c -5.22,-0.448 -10.353,0.702 -15.335,2.093 l -0.343,0.1 c -2.832,0.807 -5.827,1.535 -8.22,3.264 -3.345,2.562 -5.071,6.6360005 -6.578,10.3980005 -1.316,2.795 -0.644,5.947 1.34,7.899 0.206,-1.94 0.558,-3.822 1.107,-5.69 0.115,-0.292 0.028,-0.387 0.275,-0.425 0.374,5.032 -1.466,8.75 2.174,14.716 1.58,2.814 -0.248,4.873 4.211,6.354 l 0.121,0.047 c 0.93,0.35 1.944,0.627 2.854,0.43 l -0.081,-0.132 c -0.084,-0.136 -0.109,-0.203 0.012,-0.261 l -0.012,-0.021 a 14.998,14.998 0 0 1 -0.283,-0.561 c -0.036,0.012 -0.073,0.021 -0.111,0.031 0.025,0.046 0.028,0.091 -0.041,0.107 a 1.94,1.94 0 0 1 -0.755,0.102 l -0.055,-0.004 a 2.549,2.549 0 0 1 -0.639,-0.12 c -0.054,-0.01 -0.109,-0.018 -0.162,-0.03 a 3.763,3.763 0 0 1 -1.45,-0.71 c -4.123,-2.341 -3.697,-10.314 1.386,-11.068 0.105,-5.02 2.492,-13.49 6.455,-18.2730005 3.582,-4.4 13.36,-6.307 20.163,-5.634 l 0.298,0.1 c 1.05,0.092 2.05,0.56 3.1,0.777 -0.754,-0.565 -1.61,-0.941 -2.491,-1.261 -1.756,-1.074 -3.769,-1.655 -5.713,-2.065 a 5.624,5.624 0 0 0 -1.227,-0.163 z m -20.817,30.5520005 c 0.273,-0.149 0.242,-0.006 0.305,-0.047 1.965,-0.16 4.085,1.56 5.184,2.995 -0.087,0.09 -0.322,-0.177 -0.363,-0.219 a 0.05,0.05 0 0 1 -0.019,0.012 l 0.031,0.044 c 0.445,0.639 -0.438,-0.113 -0.52,-0.268 a 0.066,0.066 0 0 1 -0.046,0.009 c 0.07,0.068 0.284,0.247 0.32,0.375 l 0.057,0.047 c 0.535,0.457 0.49,0.802 -0.116,0.152 0.014,0.03 0.02,0.058 0.01,0.08 l 0.02,0.014 c 0.299,0.208 0.544,0.79 -0.08,0.193 0.065,0.436 -0.617,-0.407 -0.64,-0.4 -1.18,-0.928 -2.92,-1.83 -4.403,-1.951 l -0.05,-0.006 c -0.273,-0.035 -0.401,-0.116 -0.306,-0.294 -0.335,-0.08 -0.256,-0.244 -0.098,-0.239 -0.236,-0.155 -0.023,-0.304 0.114,-0.246 -0.094,-0.26 0.284,-0.087 0.318,-0.123 0.196,-0.303 0.25,-0.05 0.282,-0.128 z m -4.121,-16.176 c 0.944,-0.346 3.733,0.69 3.51,2.06 -0.133,0.316 -0.57,0.496 -0.878,0.318 l -0.402,-0.27 c -0.699,-0.467 -1.329,-0.878 -2.08,-1.286 -0.408,-0.203 -0.583,-0.633 -0.15,-0.822 z m 5.372,-2.037 -0.365,-0.238 c -1.968,-1.287 -4.75,-3.239 0.184,-1.22 0.562,0.241 1.31,0.384 1.616,0.92 0.482,0.986 -0.786,1.053 -1.435,0.538 z m 0.221,-5.7790005 c -0.158,-0.6 1.807,0.104 2.38,0.29 l 0.086,0.032 c 0.557,0.208 1.194,0.4 1.527,0.88 0.39,0.6640005 -0.399,0.8010005 -0.888,0.501 -1.002,-0.655 -2.101,-1.149 -3.105,-1.703 z m 4.996,-2.791 c -1.105,-1.208 1.854,-0.051 2.298,0.27 l 0.012,0.01 c 0.331,0.233 0.264,0.734 -0.047,0.882 -0.884,0.016 -1.535,-0.72 -2.262,-1.162 z m 5.033,-1.323 c -1.758,-1.264 0.558,-0.663 1.362,-0.168 0.549,0.484 -0.016,1.3 -1.362,0.168 z"
     clip-rule="evenodd"
     id="path12" />
  <path
     fill="#ffffff"
     fill-rule="evenodd"
     d="m 55.386741,34.335243 c 1.216,-0.732 5.758,-0.195 9.327,0 2.834,0.155 4.858,-0.152 5.505,0.284 1.464,0.985 0.753,5.748 -1.769,6.4 -2.522,0.651 -11.87,1.56 -13.483,0 -1.611,-1.562 -1.76,-5.37 0.42,-6.684 z"
     clip-rule="evenodd"
     id="path14" />
  <path
     fill="#000000"
     fill-rule="evenodd"
     d="m 56.961741,33.074243 c 1.907,-0.231 3.756,0.352 5.62,0.647 0.985,0.155 1.971,0.271 2.967,0.314 0.201,0.01 0.401,0.014 0.602,0.018 a 0.527,0.527 0 0 1 0.332,-0.435 c 0.438,-0.2 0.79,-0.29 1.271,-0.27 a 9.4,9.4 0 0 1 1.318,0.142 c 0.789,0.145 1.581,0.473 2.158,1.043 1.335,1.319 1.132,3.438 0.1,4.874 -2.131,2.969 -6.02,3.107 -9.352,3.068 l -0.308,-0.004 c -3.033,-0.043 -7.373,0.409 -8.75,-3.042 a 4.847,4.847 0 0 1 0.183,-3.958 c 0.74,-1.451 2.298,-2.208 3.858,-2.397 z m 9.475,4.943 -0.028,10e-4 a 201.09,201.09 0 0 1 -4.196,0.116 55.765,55.765 0 0 0 0.256,1.923 c 0.018,0.12 0.084,0.305 0.066,0.423 l -0.007,0.047 a 0.427,0.427 0 0 1 0.185,0.16 c 0.017,0.026 0.03,0.053 0.042,0.08 1.086,0.008 2.255,-0.013 3.363,-0.21 l 0.002,-0.025 a 0.46,0.46 0 0 1 0.157,-0.302 c 0.078,-0.45 0.07,-0.932 0.1,-1.38 z m -5.292,0.137 c -1.008,0.017 -2.017,0.03 -3.025,0.018 l -0.457,-0.007 c 0.096,0.518 0.201,1.035 0.289,1.556 0.091,0.544 -0.388,0.89 -0.802,0.876 l 0.14,0.022 c 1.294,0.183 2.638,0.134 3.951,0.133 -0.07,-0.412 -0.042,-0.878 -0.052,-1.222 l -0.002,-0.053 c -0.02,-0.442 -0.034,-0.883 -0.042,-1.323 z m -6.848,-0.095 c 0.035,0.27 0.104,0.533 0.205,0.779 0.43,1.037 1.417,1.522 2.46,1.725 -0.18,-0.062 -0.324,-0.212 -0.36,-0.47 a 14.42,14.42 0 0 1 -0.126,-1.94 24.176,24.176 0 0 1 -2.179,-0.094 z m 15.933,-0.222 c -0.518,0.123 -1.12,0.067 -1.628,0.09 l -1.428,0.06 c 0.022,0.324 0.044,0.65 0.068,0.974 0.03,0.42 0.033,0.863 0.114,1.281 0.958,-0.327 1.816,-0.851 2.46,-1.69 a 3.25,3.25 0 0 0 0.414,-0.715 z m -13.488,-3.06 c -0.862,0.204 -1.678,0.635 -2.116,1.424 a 3.004,3.004 0 0 0 -0.353,1.57 c 0.729,-0.085 1.47,-0.117 2.208,-0.144 0.002,-0.133 0.005,-0.265 0.01,-0.397 l 0.01,-0.34 c 0.02,-0.647 0.03,-1.46 0.242,-2.113 z m 4.463,0.079 -0.38,-0.043 c -1.054,-0.12 -2.107,-0.246 -3.162,-0.174 -0.152,0.01 -0.307,0.028 -0.462,0.05 0.186,0.673 0.17,1.462 0.248,2.128 0.03,0.257 0.068,0.512 0.11,0.767 l 0.183,-0.009 c 1.131,-0.061 2.264,-0.099 3.396,-0.144 0,-0.212 0,-0.425 0.004,-0.638 l 0.004,-0.212 c 0.013,-0.544 -0.022,-1.156 0.059,-1.725 z m 5.293,-0.087 c -1.104,0.178 -2.245,0.216 -3.33,0.218 -0.433,0 -0.866,-0.027 -1.298,-0.065 0.028,0.23 0.043,0.464 0.064,0.69 0.043,0.46 0.091,0.918 0.145,1.376 l 0.047,0.401 c 1.391,-0.063 2.783,-0.131 4.174,-0.202 l 0.196,-0.01 0.055,-0.77 a 37.57,37.57 0 0 1 0.137,-1.539 l -0.044,-0.016 a 0.713,0.713 0 0 1 -0.146,-0.083 z m 0.48,0.192 c 0.06,0.726 0.094,1.455 0.139,2.182 l 0.917,-0.049 0.458,-0.025 c 0.595,-0.035 1.358,-0.215 1.946,-0.047 0.045,-0.534 -0.108,-1.054 -0.59,-1.413 -0.846,-0.63 -1.924,-0.406 -2.87,-0.648 z m -3.134,-6.492 c 1.366,-0.782 4.792,-1.581 5.01,0.876 0.1,1.131 -0.742,2.068 -1.723,2.486 l -0.037,0.016 c -0.921,0.378 -2.553,0.806 -3.35,-0.015 -0.663,-0.683 0.216,-1.908 1.04,-1.349 0.424,0.288 1.316,0.076 1.788,-0.06 l 0.03,-0.01 c 0.51,-0.15 1.19,-0.63 0.979,-1.257 -0.187,-0.556 -0.981,-0.657 -1.478,-0.675 -0.743,-0.027 -1.465,0.146 -2.2,0.202 -0.117,0.009 -0.153,-0.16 -0.059,-0.214 z m 5.657,-3.951 c 1.854,-0.087 3.007,1.937 2.58,3.595 -0.073,0.286 -0.393,0.567 -0.702,0.535 l -0.078,-0.008 a 0.688,0.688 0 0 1 -0.116,-0.019 c -0.293,-0.08 -0.556,-0.386 -0.535,-0.702 l 0.006,-0.092 c 0.043,-0.784 -0.042,-1.686 -0.973,-1.876 -0.79,-0.16 -1.23,0.6 -1.24,1.299 -0.001,0.124 -0.14,0.21 -0.25,0.144 -0.571,-0.347 -0.67,-1.038 -0.452,-1.633 0.276,-0.754 0.968,-1.206 1.76,-1.243 z m -13.754,0.434 c 1.349,-0.45 2.804,0.269 3.457,1.461 0.23,0.067 0.458,0.243 0.426,0.514 -0.046,0.389 -0.115,0.634 -0.385,0.929 -0.422,0.462 -1.212,0.226 -1.387,-0.342 l -0.008,-0.026 c -0.199,-0.735 -1.007,-1.219 -1.744,-0.962 -0.86,0.3 -0.835,1.209 -1.438,1.738 a 0.208,0.208 0 0 1 -0.241,0.031 c -0.64,-0.31 -0.526,-1.242 -0.297,-1.775 0.3,-0.7 0.882,-1.323 1.617,-1.568 z m -1.837,-4.096 c 1.093,-1.116 3.943,-2.195 4.69,-0.135 0.143,0.392 -0.16,0.92 -0.568,1.002 -0.67,0.133 -1.262,-0.157 -1.927,-0.105 -0.538,0.042 -1.099,0.222 -1.529,0.555 -1.19,0.923 -1.452,2.484 -2.282,3.658 -0.04,0.057 -0.12,0.033 -0.127,-0.034 -0.189,-1.71 0.546,-3.72 1.743,-4.941 z m 14.254,-1.098 c 0.725,-0.256 1.547,-0.234 2.276,-0.007 a 4.421,4.421 0 0 1 1.928,1.232 c 0.236,0.258 0.454,0.543 0.629,0.846 0.093,0.16 0.19,0.492 0.296,0.69 0.571,0.33 0.816,1.081 0.304,1.616 l -0.023,0.023 -0.069,0.068 a 1.1,1.1 0 0 1 -1.064,0.281 c -0.84,-0.242 -0.942,-0.904 -1.233,-1.606 a 2.875,2.875 0 0 0 -0.92,-1.176 c -0.943,-0.712 -2.489,-0.939 -3.624,-0.603 -0.06,0.018 -0.132,-0.06 -0.089,-0.115 0.216,-0.279 0.34,-0.508 0.627,-0.732 a 3.35,3.35 0 0 1 0.962,-0.517 z"
     clip-rule="evenodd"
     id="path16" />
  <path
     fill="#000000"
     fill-rule="evenodd"
     d="m 62.893741,47.688243 c 0,0 -4.94,0.726 -7.151,-0.3 -2.205,-1.023 -4.349,-2.012 -6.349,-3.367 -2.048,-1.388 -3.787,-3.036 -5.027,-5.145 -1.154,-1.963 -2.113,-4.046 -3.08,-6.112 -0.056,-0.121 -0.61,-1.322 -0.806,-1.724 -0.302,-0.625 -1.183,-0.429 -1.183,0.54 0,0.97 -0.043,8.308 1.65,11.195 1.528,2.608 4.118,4.43 6.69,6.02 2.847,1.758 6.628,3.659 10.024,4.161 3.074,0.454 6.581,-0.821 8.807,-2.923 2.327,-2.199 2.985,-5.185 4.186,-8.045 0.268,-0.64 -0.683,-1.025 -0.961,-0.397 -0.526,1.184 -6.8,6.097 -6.8,6.097 z"
     clip-rule="evenodd"
     id="path18" />
</svg>
