<svg xmlns="http://www.w3.org/2000/svg" width="92" height="132" fill="none" viewBox="0 0 92 132">
  <path fill="#fff" d="M51.299 81.047h25.483v31.38H51.299z"/>
  <path fill="#fff" fill-rule="evenodd" d="M43.867 50.353c2.746-2.092 9.643-3.032 12.574-1.018 2.896 2.022 3.212 5.293 4.561 8.302 1.273-.6 3.376.26 3.745 1.44.458.558.478 2.123.794 2.872 13.736 2.186 15.822 12.896 17.475 25.054 2.187 12.337 7.153 24.647 4.997 37.343.28.406.502.801.707 1.27.49.835-.141 2.017-1.13 1.971-1.282-.113-2.55-.266-3.837-.314-3.567-.124-7.138-.109-10.707-.064l-.487.006c-17.986.224-35.971.666-53.958.783-.653 0-.972-.585-.885-1.162.175-1.162.338-2.325.508-3.488-4.254 1.124-8.777 1.406-13.02.118-.296-.302.692-.138.849-.184-3.904-2.668-2.738-8.288-2.393-12.337 2.151-13.87 2.91-29.218 11.218-41.054 3.595-4.83 8.865-8.655 14.92-9.515l.168-.023c1.771-.236 3.745-.312 5.293-1.276 1.74-1.39 2.483-3.958 4.315-3.982.605-.008 1.427.757 2.313 1.277.066-1.143.682-2.108.818-2.994l.01-.075c.143-1.034-.052-1.963 1.151-2.95Zm29.52 37.016c-3.86-2.682-13.832-1.334-14.06-1.184-.503.33-.72.36-.991.79-.269.035-.537.072-.805.11-.537.175-.139.837.482.6-.373 1.611.726 2.757 1.163 4.35.142.516.005 1.446 0 1.974.043.674.787 1.47.663 2.145-.441 2.403-2.836 4.746-1.826 7.076.669 1.316 2.68 1.987 4.018 2.434 2.77 1.063 7.598-.04 9.208-2.434.858-1.277 1.853-4.498 2.365-5.498l.114-1.585c.28-3.94.528-8.181-.33-8.778Z" clip-rule="evenodd"/>
  <path fill="#F1F1F1" fill-rule="evenodd" d="m39.43 55.103 1.105.678 6.417 3.172c1.244.348 1.865.766 1.865 1.252v4.954c0 .663 1.168 2.166 3.502 4.508l2.157-2.15-.048-.282c-.206-1.213-.308-2.024-.308-2.434 0-.44 2.11-2.114 6.33-5.02l1.846-1.738-.197-.598c1.139.054 2.373.755 2.648 1.634.457.557.478 2.122.794 2.871 13.736 2.187 15.822 12.896 17.475 25.054 2.187 12.337 7.153 24.648 4.997 37.343.28.406.502.801.707 1.27.49.835-.141 2.017-1.13 1.971-1.282-.112-2.55-.266-3.837-.314-3.567-.124-7.138-.109-10.707-.064l-.487.007c-17.986.224-35.971.665-53.958.782-.653.001-.972-.584-.885-1.162.175-1.162.338-2.325.508-3.488-4.254 1.124-8.777 1.407-13.02.118-.296-.302.692-.138.849-.184-3.904-2.668-2.738-8.288-2.393-12.336 2.151-13.871 2.91-29.218 11.218-41.055 3.595-4.83 8.865-8.654 14.92-9.515l.168-.023.17-.022c1.726-.22 3.624-.32 5.123-1.253 1.695-1.354 2.443-3.824 4.172-3.976Zm15.375 29.078c-.63 0-1.919.977-3.867 2.932l-.171.08c-2.356 1.093-3.916 2.042-4.681 2.846l-.027.029c-.774.83-2.305 3.035-4.593 6.617l-3.315 1.96h-1.254l-.893 6.476 2.147 4.625 4.863-1.638 7.924-2.089 4.547-4.613 2.565-.861c-.311.899-.424 1.794-.037 2.686.669 1.316 2.68 1.987 4.018 2.434 2.77 1.064 7.598-.04 9.208-2.434.858-1.277 1.853-4.498 2.365-5.497l.147-2.06c.265-3.799.461-7.73-.364-8.303-3.86-2.682-13.832-1.335-14.06-1.185-.503.331-.72.36-.991.79l-.14.018.79-1.073-.28-.15c-2-1.06-3.3-1.59-3.901-1.59Zm3.208 3.506c-.358 1.542.635 2.658 1.104 4.147l-1.2-2.295v-1.822a.815.815 0 0 0 .096-.03Z" clip-rule="evenodd"/>
  <path fill="#000" fill-rule="evenodd" d="M38.901 54.863c.266-.236.66.06.491.38-.38.716-.77 1.395-1.281 2.029-.31.384-.642.747-.978 1.106.863.746 1.603 1.673 2.302 2.541.893 1.11 1.738 2.269 2.74 3.285a8.74 8.74 0 0 0 3.406 2.17l.267.093c1.328.466 2.748 1.096 3.497 2.354.148.248-.15.554-.4.4-1.3-.806-2.83-.968-4.246-1.5-1.368-.515-2.56-1.306-3.614-2.316-1.053-1.008-1.936-2.156-2.857-3.279-.911-1.11-1.892-2.059-2.97-2.998-1.663 1.119-3.562 1.605-5.492 2.084l-.21.052c-1.933.478-3.856 1.034-5.669 1.867-1.598.735-3.17 1.612-4.473 2.807-1.382 1.269-2.458 2.89-3.443 4.474-2.202 3.544-3.751 7.428-5.114 11.359A117.305 117.305 0 0 0 7.295 94.25a88.113 88.113 0 0 0-1.207 6.485 97.378 97.378 0 0 0-.418 3.152c-.13 1.125-.16 2.282-.505 3.363-.148.463-.497.655-.846.639l-.071.888a65.407 65.407 0 0 0-.212 3.559 61.255 61.255 0 0 0 .116 5.932l.02.269c.112 1.443.362 3.063 1.447 4.119 1.123 1.094 2.85 1.438 4.364 1.458 3.526.046 6.92-1.62 10.04-3.082a108.525 108.525 0 0 0 9.39-4.988 140.743 140.743 0 0 0 4.608-2.858 117.13 117.13 0 0 0 2.218-1.469c.42-.285.819-.598 1.247-.851-.21-.195-.304-.502-.128-.77-1.237-1.073-1.752-2.989-1.812-4.539-.049-1.252.136-2.499.28-3.739a56.94 56.94 0 0 1 .259-1.871c.037-.246.065-.509.109-.769a102.095 102.095 0 0 1-10.298 4.922 81.253 81.253 0 0 1-5.49 2.027l-.377.124c-1.757.575-3.557 1.119-5.374 1.448-.097.017-.176-.126-.072-.172 1.77-.781 3.603-1.44 5.4-2.16l.295-.12a.588.588 0 0 1-.106-.016c-1.054-.254-2.1-.646-3.133-.976-.96-.306-2.038-.499-2.934-.961-.07-.036-.03-.132.037-.136 1.007-.07 2.102.224 3.09.396l.371.065c.622.11 1.258.228 1.877.382a.795.795 0 0 1 .303-.538c1.813-1.343 1.629-4.055 1.823-6.056l.144-1.485c.253-2.599.52-5.197.927-7.777.022-.137.235-.098.236.032.02 3.198-.22 6.38-.342 9.573l-.018.524c-.067 1.97-.12 4.015-1.36 5.531.173-.101.408-.101.548.066.173.205.273.436.27.663 1.12-.47 2.237-.953 3.348-1.445a122.74 122.74 0 0 0 10.471-5.268c.366-.206.715-.044.896.228l.026-.004.013-.001.026-.001h.003c.48-.264 1.132-.076 1.543.308a.37.37 0 0 1 .033.036 5.505 5.505 0 0 0 1.448-.949c.903-.818 1.668-1.83 2.334-2.844 1.227-1.868 2.27-3.946 3.928-5.484 1.348-1.25 3.018-2.028 4.77-2.516a.173.173 0 0 1 .048-.142c.09-.092.154-.124.27-.068.01.004.015.01.019.017l.17-.292c.094-.158.19-.318.223-.36.2-.25.404-.499.612-.742.352-.412.754-.82 1.219-1.105 1.018-.625 2.088-.271 3.135.07.633.207 1.263.42 1.895.63l.065.022c.47.15 1.021.283 1.232.782.083.197.096.402.057.6 4.472-1.136 9.439-.614 13.802.721.168.051.335.189.37.37.5 2.564.723 5.193.496 7.801-.195 2.25-.694 4.457-1.633 6.518l-.054.116c-.883 1.91-2.283 4.264-4.42 4.863-1.292.361-2.72.148-4.036.082-1.28-.065-2.588-.074-3.855-.275-1.13-.179-2.118-.685-2.816-1.603-.602-.792-.919-1.749-1.178-2.701a6.244 6.244 0 0 0-.353.123c-.49.192-.906.501-1.282.865-.793.768-1.408 1.701-2.238 2.434a9.446 9.446 0 0 1-2.526 1.577c-1.903.822-3.945 1.151-5.958 1.586l-.14.031c-1.515.333-3.062.741-4.4 1.53a.91.91 0 0 1-.301.594c.235.221.335.572.128.901-.579.919-1.576 1.442-2.472 2.03l-.058.038a107.883 107.883 0 0 1-8.23 4.965 134.027 134.027 0 0 1-9.285 4.637c.19.931.12 1.891.263 2.829l.022.133c.06.348-.022.639-.261.867l-.026.023v-.003l-.022.02-.007.007.002-.002a.84.84 0 0 1-.085.069l-.037.023a.785.785 0 0 1-.764.015l-.027-.015-.046-.026c-.312-.179-.527-.624-.398-.978.319-.869.44-1.796.733-2.67l-.233.104-.308.134c-3.324 1.437-7.017 2.648-10.64 1.668-1.6-.433-3.097-1.349-3.898-2.843-.788-1.469-.899-3.176-.94-4.81a38.733 38.733 0 0 1 .322-6.067c.178-1.342.394-2.71.728-4.039a1.002 1.002 0 0 1-.331-.637c-.157-1.269.118-2.588.286-3.851.165-1.233.347-2.463.552-3.69a126.94 126.94 0 0 1 1.46-7.396c1-4.357 2.319-8.636 3.908-12.813l.14-.364c1.467-3.817 3.168-7.554 5.535-10.908 1.132-1.604 2.33-3.06 3.93-4.216 1.499-1.083 3.19-1.863 4.935-2.46a28.426 28.426 0 0 1 5.37-1.244c1.856-.253 3.815-.408 5.546-1.17-.22-.392-.031-.922.337-1.165 1.24-.82 2.387-1.886 3.499-2.87Zm39.705 35.634c.052-.08.175-.03.152.064-.603 2.471-1.17 4.948-1.54 7.466-.667 4.546-.544 9.151-.49 13.73l.004.237c.028 2.467.067 4.934.148 7.399.041 1.246.123 2.505.078 3.751-.024.677-.204 1.316-.268 1.985-.056.584-.006 1.177.022 1.762.019.389-.556.373-.595 0l-.05-.481c-.064-.61-.145-1.216-.344-1.799-.24-.702-.356-1.392-.44-2.128-.127-1.13-.184-2.27-.233-3.407l-.034-.787c-.206-4.752-.198-9.526.135-14.273l.024-.339c.33-4.487.902-9.336 3.43-13.18Zm-12.86-28.281c-.157-.065-.102-.303.073-.262l.317.076c2.325.557 4.608 1.16 6.779 2.196 2.171 1.037 4.01 2.585 5.47 4.489 2.84 3.7 4.02 8.197 4.952 12.69 1.035 4.991 1.978 10.001 3.022 14.992l.194.93c.967 4.648 1.879 9.298 2.551 14.001l.049.341c.677 4.837 1.085 9.841.346 14.689-.147.96-1.743.721-1.68-.227.18-2.74.309-5.466.184-8.212a87.019 87.019 0 0 0-.767-8.204c-.323-2.291-.805-4.554-1.23-6.827l-.068-.359c-.357-1.933-.725-3.864-1.092-5.796l-.549-2.892c-.822-4.33-1.66-8.664-2.608-12.967l-.056-.253c-.928-4.14-2.295-8.476-5.076-11.763-2.823-3.337-6.863-5.017-10.81-6.642Zm-10.255 43.91c.068-.151.305-.135.378 0 .286.528.318 1.201.372 1.797l.006.061c.068.727.13 1.457.167 2.186.07 1.384.104 2.767.1 4.153a83.703 83.703 0 0 1-.11 4.257l-.02.38c-.07 1.232-.188 2.607-.773 3.685-.213.391-.792.276-.916-.12-.404-1.297-.196-2.835-.093-4.163l.081-1.037c.08-1.037.156-2.074.216-3.112.082-1.42.15-2.841.216-4.261.021-.462.044-.923.069-1.385l.037-.692c.032-.579.03-1.214.27-1.749Zm-45.418 1.838.179-.173c.549-.537 1.242-1.364 2.054-1.313.323.021.53.289.463.608-.144.68-.838 1.033-1.338 1.449-.547.455-1.063.941-1.578 1.432a31.11 31.11 0 0 0-1.325 1.345l-.16.174c-.154.168-1.25 1.158-1.13 1.415l.006.011c.033.05-.022.117-.077.1-.473-.149-.443-.555-.264-.965.343-.789.944-1.518 1.47-2.192a18.465 18.465 0 0 1 1.7-1.891Zm47.13-19.78c-.365-.864-1.711-.846-2.476-.794-1.925.13-4.008.617-5.72 1.517-1.777.933-2.973 2.428-4.043 4.08l-.05.078c-1.044 1.622-2.048 3.541-3.682 4.656-.832.568-1.803 1.087-2.813 1.312a.515.515 0 0 1-.329.253l-.068.016c-.288.063-.734.133-1.12.091.002.19 0 .376.005.555.014.513.02 1.027.02 1.54 0 1.075-.058 2.151-.013 3.225.04.951.174 1.943.63 2.793.335.623.776 1.035 1.31 1.429 1.31-.799 2.794-1.286 4.3-1.653 1.82-.443 3.683-.738 5.462-1.339.856-.289 1.68-.668 2.425-1.182.792-.546 1.396-1.284 2.018-2.006l.098-.113c.634-.728 1.327-1.424 2.224-1.819.773-.34 1.791-.401 2.467-.927.353-.275.382-.674.42-1.084-.433.062-.891-.037-1.322-.087l-.224-.027a9.01 9.01 0 0 1-1.207-.205c-.075-.02-.075-.132 0-.151.474-.123.944-.175 1.43-.232l.115-.014c.44-.058.902-.145 1.334-.048a3.65 3.65 0 0 1 .346-.858c.22-.395.637-.844.694-1.306a.756.756 0 0 0-.08-.424l-.023-.041a.35.35 0 0 0-.108-.13c-.005.007-.016.014-.04.021-.332.105-.622-.058-.776-.308-.653.08-1.365.054-1.977.08l-.62.03c-.66.03-1.352.044-1.974-.09-.087-.018-.113-.163-.026-.2.764-.326 1.691-.43 2.51-.556.456-.07.916-.124 1.374-.186.306-.04.63-.109.946-.125.792-.987.365-2.543-.738-2.968-.402.176-.763.074-1.202.036a14.71 14.71 0 0 0-1.318-.061c-.881.004-1.816.235-2.689.136-.142-.017-.274-.206-.132-.321.668-.545 1.626-.723 2.474-.84l.176-.023c.284-.037.63-.092.989-.124a.564.564 0 0 1 .445-.308c.065-.008.13-.014.196-.02l-.001-.006c.533-.025.51-.926.364-1.272Zm-36.506 16.851a.489.489 0 0 1-.03.041l-.018.02.088-.036-.04-.025ZM66.51 86.254c-2.245-.242-4.492-.19-6.743-.126-.18.589-.807 1.09-1.414 1.11.475.724.524 1.703.19 2.471a3.196 3.196 0 0 1 1.69 1.51c.513.999.446 2.111-.062 3.035.433.392.689 1.03.663 1.63-.028.669-.427 1.24-.759 1.795-.358.599-.37 1.127-.48 1.798-.161.982-.824 1.578-1.676 1.95l.045.178c.22.856.493 1.759 1.122 2.384.808.805 2.061.797 3.129.848l.052.003c.977.049 1.954.106 2.932.161l.733.042c1.125.061 2.206.069 3.124-.675 1.5-1.214 2.528-3.224 3.179-5.003 1.366-3.734 1.382-7.832.755-11.72a32.512 32.512 0 0 0-6.48-1.391Zm-18.666 6.195h.017c.462.053.78.428.892.872.165.645.084 1.228.48 1.81.406.6.656 1.079.715 1.819.024.304.013.608.08.906l.05.209c.052.222.095.437.069.676-.024.218-.13.388-.349.458-.712.228-1.262-.297-1.447-.962-.159-.573.054-1.256-.17-1.795-.125-.299-.354-.548-.483-.849a2.777 2.777 0 0 1-.214-.933c-.039-.612.503-1.348.2-1.903-.064-.119.01-.312.16-.308Zm-9.464-6.32c.482-.099 1.03-.324 1.506-.137.244.096.365.394.158.602-.358.36-.88.38-1.363.464l-.043.008a90.6 90.6 0 0 1-1.717.301 77.22 77.22 0 0 1-3.244.47 81.758 81.758 0 0 1-3.35.354l-.433.035c-.945.076-1.928.133-2.856-.012-.134-.021-.113-.217 0-.252 1.016-.307 2.13-.39 3.18-.52a107.178 107.178 0 0 0 6.667-1.023c.499-.093.997-.19 1.495-.29Zm17.41-.988c-.424-.15-.89-.372-1.348-.298-.791.128-1.496.9-2.122 1.407l.315-.061c1.609-.31 3.74-.643 5.09.38l.01-.017a2.99 2.99 0 0 1 .373-.437l.039-.038.074-.08-.17-.058c-.364-.13-.796-.295-.864-.32l-.005-.001c-.465-.158-.93-.313-1.392-.477ZM42.57 51.415c-.066-.851 1.259-.844 1.325 0a9.406 9.406 0 0 1-1.165 5.287l-.02.034c.558.29 1.123.57 1.7.819.739.319 1.492.609 2.258.855.693.223 1.547.311 2.13.775 1.228.979.766 3.009.53 4.325l-.037.208c-.117.677-.203 1.372.083 2.022.305.694.921 1.21 1.471 1.706l.111.1c.488.445 1.045.984 1.402 1.586.326-.675.771-1.226 1.241-1.847.336-.442.097-.588-.144-1.021-.232-.417-.345-.86-.273-1.335.134-.878.835-1.512 1.533-1.988.824-.562 1.744-.978 2.596-1.501 1.751-1.074 3.456-2.303 4.993-3.667.042-.038.115.012.082.063-1.214 1.846-2.637 3.441-4.386 4.795-.709.549-1.454 1.004-2.204 1.483l-.215.138c-.301.195-.677.456-.813.788-.137.334.155.586.313.863.499.878.258 1.698-.334 2.443l-.028.034c-.588.725-1.034 1.4-1.247 2.325-.458 1.99.18 4.062.848 5.93l.026.073c.362 1.006.746 2.006 1.06 3.029l.086.282c.285.941.517 1.87.198 2.837-.108.329-.557.407-.743.097-.658-1.092-.822-2.406-1.234-3.607-.402-1.17-.863-2.32-1.25-3.494-.5-1.513-.835-3.142-.653-4.728-.006-.01-.012-.018-.016-.028l-.127-.278c-.347-.754-.682-1.412-1.313-2.012-.658-.626-1.372-1.18-1.89-1.94-1.124-1.646-.428-3.478-.293-5.28l.016-.22c.025-.374.038-.882-.206-1.14-.275-.292-.92-.367-1.284-.495a20.697 20.697 0 0 1-2.754-1.189 17.541 17.541 0 0 1-2.417-1.509l-.384-.29c-.607-.458-1.237-.958-1.644-1.581-.047-.072.033-.188.118-.154.68.276 1.3.715 1.935 1.096a.782.782 0 0 1 .035-.07c.786-1.423 1.11-3 .984-4.618Zm21.697 9.75c.27-.742 1.504-.684 1.455.197-.038.678-.325 1.29-.588 1.904l-.028.066a12.356 12.356 0 0 1-.96 1.83c-.718 1.123-1.557 2.165-2.454 3.148-.814.892-1.881 1.437-3.111 1.346-.518-.038-1.041-.17-1.495-.429-.54-.307-1.126-1.23-1.814-1.007-.066.022-.128-.076-.07-.122.794-.64 1.695.352 2.456.591 1.146.36 2.322-.038 3.06-.964.77-.968 1.479-2.05 2.126-3.104a15 15 0 0 0 .888-1.662c.261-.577.32-1.205.535-1.794Zm-1.847-4.567c-.034-.103.094-.2.184-.142.522.34.974.79 1.456 1.183.534.436 1.072.864 1.618 1.285.797.615-.127 1.745-.828 1.074-.96-.917-2.01-2.117-2.43-3.4Zm-2.866-3.592c.212-.818 1.466-.481 1.283.327l-.006.025c-.346 1.335.147 2.694 1.2 3.56l.038.03c.666.534-.277 1.465-.936.938-1.44-1.152-2.038-3.11-1.58-4.88Z" clip-rule="evenodd"/>
  <path stroke="#000" stroke-linecap="round" stroke-linejoin="round" stroke-width=".334" d="M62.843 82.62c.612-1.047.114-1.88-.922-2.398-.894-.448-1.577-.688-1.155-1.784.351-.912 1.419-.857 1.419-2.004 0-.633-.681-1.316-1.316-1.316m5.613 6.067c.862-.852.597-1.787-.27-2.555-.748-.663-1.345-1.072-.654-2.022.575-.79 1.592-.46 1.89-1.568.163-.612-.318-1.447-.931-1.612m4.458 9.477c.862-.852.596-1.787-.27-2.555-.748-.663-1.345-1.072-.654-2.022.575-.79 1.592-.46 1.889-1.568.164-.612-.317-1.447-.93-1.612"/>
  <path fill="#fff" fill-rule="evenodd" d="M69.127 33.829c-.24-2.105.07-6.505.09-6.772.132-1.69-.66-8.362-2.156-7.747-2.51-1.988-5.855-2.427-8.982-2.636-6.495-.436-13.404.564-18.42 4.935-2.48 2.27-4.895 5.571-4.7 9.009-2.254 3.258-5.43 7.728-2.623 11.538.954 1.217 2.471 1.67 3.67 2.592 2.412 1.945 3.925 4.736 6.36 6.67 6.449 5.795 17.4 7.006 23.737.414 4.9-4.774 4.108-11.917 3.246-18.003-.58-4.092.245 4.106-.222 0Z" clip-rule="evenodd"/>
  <path fill="#000" fill-rule="evenodd" d="M49.403 7.748c1.737-.35 3.52-.568 5.294-.503l.137.006c1.335.053 3.025.171 4.19.947a.24.24 0 0 1 .272-.055c1.383.66 2.905 1.138 4.362 1.612 1.45.473 2.955.784 4.475.91.571.047 1.06.665.699 1.219-.086.131-.17.265-.254.399l.42-.044c.46-.046.919.444.892.892-.017.282-.048.56-.093.835.175-.004.35.023.518.094.852.36.792 1.374.729 2.146-.089 1.072-.49 2.207-1.233 3.008a4.882 4.882 0 0 1 1.183 2.085c.17.597.265 1.234.218 1.856l-.015.186c-.058.675-.173 1.422-.658 1.908-.25.25-.557.342-.85.313.178 1.555.291 3.12.398 4.679l.05.745c.238 3.603.417 7.23.37 10.839-.043 3.373-.71 6.647-2.778 9.385-1.884 2.494-4.59 4.332-7.65 5.031-1.648.377-3.332.404-5.001.164-.81-.117-1.624-.296-2.392-.579-.85-.314-1.46-.776-2.033-1.468-.27-.328-.14-1.027.399-.961.815.099 1.558.218 2.34.459l.111.035c.778.25 1.584.435 2.397.514a12.455 12.455 0 0 0 4.953-.506c2.599-.824 4.836-2.659 6.27-4.964 1.703-2.733 1.896-5.836 1.871-8.978a227.782 227.782 0 0 0-.322-10.344l-.03-.574c-.097-1.773-.19-3.546-.273-5.32a21.073 21.073 0 0 0-.135-1.672c-.642-.377-1.217-.895-1.592-1.535-.754.311-1.546.536-2.275.715a13.288 13.288 0 0 1-5.16.256c-.464.192-.937.36-1.417.505-.13.058-.26.114-.389.17a23.71 23.71 0 0 1-3.553 1.222l-.3.074c-.643.159-1.341.315-2.026.364a2.96 2.96 0 0 1-.366.112c-.623.152-1.27.2-1.908.146-.622-.052-1.072-.68-.729-1.27.25-.429.503-.858.758-1.285-.887.37-1.803.677-2.726.937-.933.263-1.879.484-2.826.688-.506.108-1.015.203-1.52.311-.361.077-.917.117-1.212.355-.326.262-.418.872-.542 1.248a30.509 30.509 0 0 0-1.134 4.486 28.733 28.733 0 0 0-.359 3.07c-.066 1.029-.037 2.064-.142 3.088-.057.543-.64.822-1.07.443l-.153-.136-.075-.068c-.368-.334-.726-.688-1.02-1.086a3.534 3.534 0 0 1-.153-.228.037.037 0 0 1-.022-.008l-.082-.062c-.9-.67-2.403-1.543-3.28-.43-.28.355-.424.806-.542 1.242l-.209.779c-.135.509-.262 1.02-.336 1.541-.168 1.166-.083 2.51.719 3.445.32.374.762.641 1.255.711.275.038.547-.009.82-.043.276-.035.543.021.82-.006.441-.043.634.484.469.816a2.016 2.016 0 0 1-.313.462c.096.082.187.171.275.265.26.083.494.262.669.5.141.19.215.399.227.618.015.054.029.11.041.167l.239.387.157.252a12.127 12.127 0 0 0 2.12 2.53c.807.734 1.682 1.392 2.44 2.18l.09.093c.706.745 1.451 1.646 1.175 2.729-.072.278-.46.479-.714.29-.816-.605-1.226-1.564-1.918-2.299-.713-.756-1.502-1.436-2.216-2.19a8.65 8.65 0 0 1-1.61-2.408c-.16.177-.394.303-.718.352-.556.084-1.075-.242-1.317-.724a4.234 4.234 0 0 1-.476.18c-.843.258-1.374-.68-1.055-1.373.17-.372.382-.695.646-.966-.825-.114-1.664-.54-2.206-1.072-1.36-1.336-1.546-3.345-1.24-5.13.162-.948.443-1.906.807-2.795.063-.155.13-.31.205-.464a.144.144 0 0 1-.11-.053c-.246-.337-.545-.611-.728-.987-.168-.345-.354-.695-.487-1.054-.273-.736-.406-1.566-.495-2.344-.184-1.592-.113-3.175.131-4.757a19.177 19.177 0 0 1 2.894-7.537 1.29 1.29 0 0 1-.229-.154l-.035-.03-.058-.053c-.421-.381-.385-1.096 0-1.482l.122-.122a3.199 3.199 0 0 1 .647-.51 1.07 1.07 0 0 1-.084-.832c.316-1.082 1.871-1.043 2.857-.572a17.79 17.79 0 0 1 3.612-2.503c3.122-1.63 6.653-2.765 10.1-3.46ZM33.262 36.224c.583-.19 1.357.21 1.882.45.664.305 1.23.755 1.777 1.232.272.238.321.627.253.96l-.021.102c-.072.355-.468.635-.819.625-.733-.02-1.083-.654-1.498-1.19a.766.766 0 0 1-.186.227l-.05.04c-.173.131-.363.236-.59.226a1.096 1.096 0 0 1-.459-.123c-.356-.189-.513-.65-.416-1.024a.953.953 0 0 1 .378-.549l-.067-.046a1.334 1.334 0 0 1-.377-.36l-.023-.038h.009a.36.36 0 0 1 .207-.532Z" clip-rule="evenodd"/>
  <path fill="#000" fill-rule="evenodd" d="M64.102 45.259c-.365.515-1.027.91-1.768 1.099-.706.18-1.486.172-2.16-.104l-.057-.025c-.504-.226-.987-.681-1.17-1.157a.89.89 0 0 1-.048-.56.813.813 0 0 1 .325-.437c.056-.04.13-.043.2-.03.087.017.173.06.225.12.288.33.706.653 1.2.648.383-.005.694-.167.997-.351l.212-.131c.205-.126.413-.245.648-.3.421-.096.932.081 1.243.373a.803.803 0 0 1 .26.44.549.549 0 0 1-.107.415Zm-2.188-9.014c.836.549 2.11 1.827 1.21 3.186-1.059 1.199-2.583-.175-3.334-.797-.697-.481-1.48.757-.833 1.32 5.428 4.335 7.631-3.565 3.38-4.354-.469-.086-.642.476-.423.645Zm-9.433-8.427.24-.07.245-.072.166-.047c1.137-.322 2.392-.604 3.52-.466.412.05.746.3.804.765.049.392-.186.899-.586.968-1.325.232-2.682.157-4.013.395-.663.119-1.32.266-1.981.399-.502.1-1.021.136-1.527.218l.116.017c.04.006.03.08-.01.077a2.756 2.756 0 0 0-.501-.008l-.072.006a.107.107 0 0 1-.076-.195c.617-.452 1.14-.941 1.831-1.274a12.326 12.326 0 0 1 1.844-.713Zm10.357-.692c.875-.954 2.735-.588 3.776-.151.593.249 1.158.564 1.629 1.035l.045.046.071.074c.318.335.672.797.621 1.28-.008.074-.045.158-.122.173-.417.08-.826-.158-1.21-.3l-.256-.095c-.382-.14-.768-.275-1.162-.372a5.93 5.93 0 0 0-1.496-.183c-.509.007-1.056.162-1.54-.056-.542-.243-.822-.943-.356-1.451Zm-8.642 7.693c-.223.246-.518.385-.895.302-.295-.064-.856-.384-1.304-.876-.307-.337-.564-.758-.633-1.246a.31.31 0 0 0-.145-.232.34.34 0 0 0-.217-.045.499.499 0 0 0-.203.072.342.342 0 0 0-.164.242c-.089.71.166 1.414.562 2.008.535.802 1.32 1.389 1.782 1.527.79.235 1.622.047 2.236-.546.49-.474.742-1.092.975-1.727l.045-.123c.053-.144.105-.287.16-.429.11-.284.075-.529-.032-.72a.848.848 0 0 0-.582-.407.82.82 0 0 0-.658.153c-.161.126-.291.325-.337.62-.075.478-.25 1.027-.556 1.39l-.034.037Zm13.545-2.77c-.184-.103-.328-.134-.532-.068a.748.748 0 0 0-.312.2.686.686 0 0 0-.174.339 1.41 1.41 0 0 1-.45.81.858.858 0 0 1-.72.204c-.297-.053-.58-.259-.774-.5a1.618 1.618 0 0 1-.142-.22l-.026-.045c-.096-.171-.189-.33-.321-.456a.278.278 0 0 0-.288-.066c-.295.32-.352.563-.343.804.01.252.103.508.252.746.35.56 1.013 1.018 1.461 1.122.614.142 1.223-.029 1.711-.398.503-.38.875-.971.991-1.637a.937.937 0 0 0-.04-.483.66.66 0 0 0-.293-.352Z" clip-rule="evenodd"/>
  <path fill="#000" fill-rule="evenodd" d="M51.1 47.593c.901-2.11 2.867-3.662 5.131-4.229 1.663-.415 3.408-.402 5.102-.237.888.086 1.84.156 2.677.486.715.282 1.297.814 1.735 1.44.521.74.876 1.588 1.125 2.457.035.123.068.247.1.373-.109.655-.339 1.213-.946 1.625-.592.403-1.3.567-2.004.626a3.138 3.138 0 0 1-.197-.102c-1.099-.63-1.872-2.115-3.258-1.914-1.237.18-2.051 1.736-2.787 2.649-2.362.275-4.721-.434-6.643-1.785a3.918 3.918 0 0 1-.035-1.389m17.474-1.601a9.097 9.097 0 0 0-.708-1.527 8.688 8.688 0 0 0-4.063-3.603c-4.02-1.721-9.22-.508-12.467 2.315-1.109.965-2.23 2.383-2.569 3.908a.568.568 0 0 0-.276.147c-2.345-1.477-4.76-2.897-6.65-4.944-1.372-1.487-2.327-3.247-2.912-5.181-.047-.16-.304-.136-.296.04l.006.123c-.024-.075-.14-.036-.149.037-.314 2.35-.707 4.84-.345 7.202.217 1.41.857 2.44 1.712 3.555.917 1.194 1.955 2.305 3.017 3.37.673.676 1.376 1.456 2.201 1.951.96.576 2.047 1.014 3.07 1.458 1.042.454 2.099.873 3.175 1.236a29.728 29.728 0 0 0 6.642 1.452c1.812.176 3.884.368 5.62-.314 1.332-.522 2.407-1.467 3.259-2.603.928-1.238 1.662-2.647 2.067-4.134.421-1.544-.245-4.24-.334-4.488" clip-rule="evenodd"/>
  <path fill="#000" d="m56.231 43.364-.12-.485h-.001l.121.485Zm5.102-.237-.048.498.048-.498Zm2.677.486.184-.465-.184.465Zm1.735 1.44-.41.286h.001l.41-.287Zm1.125 2.457.48-.138-.48.138Zm.1.373.493.081.017-.102-.025-.1-.486.12Zm-.946 1.625-.28-.413.28.413Zm-2.004.626-.217.45.123.06.135-.012-.041-.498Zm-.197-.102-.249.434.249-.434Zm-3.258-1.914-.072-.495.072.495Zm-2.787 2.649.058.497.203-.024.128-.16-.39-.313Zm-6.643-1.785-.489.104.04.192.162.113.287-.409Zm16.73-4.517-.431.251.432-.252Zm-4.062-3.603.197-.46-.197.46Zm-12.467 2.315-.328-.377.328.377Zm-2.569 3.908.097.49.32-.063.071-.319-.488-.108Zm-.276.147-.266.423.328.206.282-.265-.343-.364Zm-6.65-4.944-.367.339.367-.34Zm-2.912-5.181-.478.144.478-.144Zm-.296.04-.5.022v.005l.5-.027Zm.006.123-.475.154.975-.18-.5.026Zm-.149.037.496.067v-.007l-.495-.06Zm-.345 7.202-.494.076.494-.076Zm1.712 3.555.397-.305-.396.305Zm3.017 3.37.354-.353-.355.353Zm2.201 1.951-.258.429.258-.429Zm3.07 1.458.2-.458-.2.458Zm3.175 1.236.16-.474-.16.474Zm6.642 1.452-.049.498.049-.498Zm5.62-.314-.182-.465.183.465Zm3.259-2.603.4.3-.4-.3Zm2.067-4.134-.482-.132.482.132ZM51.56 47.79c.833-1.952 2.664-3.407 4.793-3.94l-.243-.97c-2.399.6-4.5 2.247-5.47 4.517l.92.393Zm4.792-3.94c1.584-.396 3.264-.388 4.933-.225l.097-.995c-1.72-.168-3.53-.186-5.272.25l.242.97Zm4.933-.225c.915.088 1.786.155 2.542.453l.367-.93c-.917-.362-1.951-.435-2.813-.519l-.096.996Zm2.542.453c.6.237 1.111.694 1.509 1.261l.819-.574c-.478-.682-1.133-1.29-1.961-1.617l-.367.93Zm1.51 1.262c.48.682.814 1.474 1.052 2.307l.962-.275c-.26-.905-.635-1.808-1.197-2.608l-.818.576Zm1.052 2.307c.034.118.066.236.095.356l.97-.24a9.734 9.734 0 0 0-.103-.391l-.962.275Zm.087.154c-.096.58-.28.986-.733 1.294l.562.827c.762-.517 1.037-1.226 1.158-1.958l-.987-.163Zm-.733 1.294c-.492.334-1.103.486-1.765.54l.083.997c.748-.062 1.552-.24 2.244-.71l-.562-.827Zm-1.507.588a2.592 2.592 0 0 1-.165-.086l-.496.869c.075.043.153.082.228.119l.433-.902Zm-.165-.085a4.125 4.125 0 0 1-.69-.53c-.226-.204-.499-.469-.757-.686-.535-.452-1.22-.89-2.13-.759l.143.99c.475-.069.87.134 1.343.533.245.207.458.419.73.664.255.23.542.47.864.655l.497-.867Zm-3.578-1.975c-.806.117-1.42.672-1.89 1.22-.24.28-.46.58-.66.858-.204.285-.382.538-.554.752l.778.628c.195-.242.395-.526.589-.796.199-.276.397-.547.607-.792.432-.504.843-.817 1.274-.88l-.144-.99ZM57.72 50.27c-2.224.26-4.463-.408-6.297-1.697l-.575.818c2.008 1.412 4.49 2.164 6.988 1.873l-.116-.994Zm-6.096-1.391a3.416 3.416 0 0 1-.03-1.212l-.989-.147c-.075.514-.07 1.04.041 1.566l.978-.207Zm17.422-3.055c-.2-.559-.45-1.1-.749-1.611l-.863.503c.266.457.49.942.67 1.444l.942-.336Zm-.748-1.611A9.187 9.187 0 0 0 64 40.403l-.394.919a8.187 8.187 0 0 1 3.828 3.394l.864-.503Zm-4.299-3.81c-4.224-1.81-9.626-.53-12.991 2.397l.656.754c3.127-2.719 8.128-3.866 11.942-2.232l.393-.92ZM51.008 42.8c-1.15 1-2.357 2.504-2.73 4.176l.977.217c.306-1.378 1.34-2.71 2.41-3.639l-.657-.754Zm-2.338 3.794a1.074 1.074 0 0 0-.522.274l.686.728a.11.11 0 0 1 .024-.018l.006-.003-.194-.98Zm.088.215c-2.369-1.491-4.715-2.874-6.55-4.86l-.734.678c1.945 2.107 4.43 3.566 6.751 5.028l.533-.846Zm-6.55-4.86c-1.316-1.426-2.235-3.118-2.8-4.987l-.957.29c.604 1.998 1.594 3.827 3.023 5.375l.735-.678Zm-2.8-4.986a.653.653 0 0 0-.705-.459.634.634 0 0 0-.57.665l1-.044a.366.366 0 0 1-.316.373.347.347 0 0 1-.366-.247l.957-.288Zm-1.275.21.004.063.003.061.999-.053-.004-.062-.003-.062-.998.054Zm.982-.056a.556.556 0 0 0-.694-.365.593.593 0 0 0-.427.495l.993.12a.407.407 0 0 1-.568.33.445.445 0 0 1-.255-.273l.951-.307Zm-1.12.124c-.31 2.322-.72 4.895-.344 7.344l.988-.152c-.349-2.274.029-4.683.347-7.06l-.991-.132Zm-.344 7.344c.236 1.534.936 2.646 1.81 3.783l.793-.609c-.838-1.09-1.417-2.041-1.615-3.326l-.988.152Zm1.81 3.783c.936 1.219 1.99 2.347 3.058 3.419l.709-.706c-1.055-1.059-2.076-2.152-2.974-3.322l-.793.61Zm3.058 3.418c.644.647 1.406 1.491 2.298 2.028l.516-.857c-.757-.455-1.402-1.17-2.105-1.876l-.709.705Zm2.299 2.028c.995.597 2.124 1.052 3.128 1.488l.399-.917c-1.043-.453-2.09-.874-3.013-1.428l-.514.857Zm3.128 1.488a40.04 40.04 0 0 0 3.215 1.25l.32-.947a39.412 39.412 0 0 1-3.136-1.22l-.4.917Zm3.214 1.25a30.223 30.223 0 0 0 6.753 1.477l.097-.995a29.226 29.226 0 0 1-6.53-1.429l-.32.947Zm6.753 1.477c1.786.173 3.984.387 5.852-.346l-.365-.931c-1.605.63-3.551.46-5.39.282l-.097.995Zm5.852-.346c1.44-.565 2.584-1.58 3.476-2.77l-.8-.6c-.812 1.084-1.817 1.959-3.041 2.439l.365.93Zm3.476-2.77c.96-1.28 1.725-2.746 2.15-4.301l-.965-.264c-.387 1.418-1.09 2.772-1.985 3.966l.8.6Zm2.15-4.301c.239-.878.163-2.024.037-2.93-.127-.914-.322-1.688-.382-1.858l-.942.336.003.01.01.034.03.114a15.076 15.076 0 0 1 .29 1.502c.124.889.17 1.861-.011 2.528l.964.264Z"/>
  <path fill="#000" fill-rule="evenodd" d="M69.854 37.94c-.75 1.007-2.138 1.327-3.42 1.217-2.763-.266-3.632-3.404-3.723-5.844 1.853.522-.157-3.17 6.177-3.576 2.233-.186 1.618 1.163 2.604 2.148-.02 2.068-.364 4.314-1.638 6.055m-13.161-2.375c-1.631 7.639-10.565 5.822-11.503-1.065.867-.611.638-2.121 1.715-2.669 1.706-1.09 3.839-1.043 5.776-1.017 2.477.17 3.182 1.196 4.455 2.315-.062.747-.238 1.633-.443 2.436m16.7-7.093c-.092-.015-.184-.03-.275-.043a.827.827 0 0 0-.254-.09 4.338 4.338 0 0 0-.666-.116c-3.174-.715-10.52.3-10.823 3.01-1.01.337-1.886.034-3.057.065-.892-3.729-16.314-3.203-17.055-.955a.155.155 0 0 1-.009-.002c-.712-.22-1.763-.168-2.579-.202a22.398 22.398 0 0 0-5.189.486c-3.19.507-7.546 1.1-5.326 5.085v.002h.001c.383.392 1.032.076 1.056-.455-.746-1.887.939-2.114 2.236-2.656 3.226-1.16 6.51-1.32 9.847-.962a2.4 2.4 0 0 0 1.035.689c2.23.37 1.055 2.025 2.465 2.265-.259 5.77 6.745 8.918 10.803 5.126 1.62-1.584 2.007-3.93 2.383-6.046a.561.561 0 0 0 .398-.297c.478-.477.778-.917 1.723-1.048.944-.131 1.672.131 1.77.212.025.05.051.1.082.15a.57.57 0 0 0 .17.181c-.934 5.745 3.526 9.378 8.028 6.398 1.956-1.84 2.37-4.657 2.452-7.172.265-.16.433-.47.34-.86-.126-.538.17-1.003.643-1.237.614-.303.506-1.411-.2-1.528" clip-rule="evenodd"/>
</svg>
