<?xml version="1.0" encoding="utf-8"?>
<!-- Generator: Adobe Illustrator 26.4.1, SVG Export Plug-In . SVG Version: 6.00 Build 0)  -->
<svg version="1.1" id="Layer_1" xmlns="http://www.w3.org/2000/svg" xmlns:xlink="http://www.w3.org/1999/xlink" x="0px" y="0px"
	 viewBox="0 0 80 50.1" style="enable-background:new 0 0 80 50.1;" xml:space="preserve">
<style type="text/css">
	.st0{fill:#F5F3EF;}
</style>
<g>
	<g>
		<path class="st0" d="M41.7,1.5c-13.3,0-24.1,10.8-24.1,24.1s10.8,24.1,24.1,24.1s24.1-10.8,24.1-24.1S55,1.5,41.7,1.5z M41.7,39.7
			c-7.8,0-14.1-6.3-14.1-14.1s6.3-14.1,14.1-14.1s14.1,6.3,14.1,14.1S49.4,39.7,41.7,39.7z"/>
		<path class="st0" d="M80,11c-0.1-6.1-1.3-11-2.8-11c-1.5,0-2.8,5.3-2.8,11.8c0,4.3,0.6,8.1,1.4,10.2V46c0,1.2,0.9,2.1,2.1,2.1
			c1.2,0,2.1-0.9,2.1-2.1L80,11C80,11,80,11,80,11z"/>
		<path class="st0" d="M11.1,13.1H8.9V1.4H5.6v11.7H3.4V1.4H0v12.2c0,3.3,2.2,6.1,5.3,7v27.6c0,1.1,0.9,2,2,2s2-0.9,2-2V20.6
			c3.1-0.9,5.3-3.7,5.3-7V1.4h-3.4V13.1z"/>
	</g>
</g>
</svg>
